<svg width="500" height="486" viewBox="0 0 500 486" fill="none" xmlns="http://www.w3.org/2000/svg">
<g clip-path="url(#clip0)">
<path d="M0 0H500V485.65H0V0Z" fill="#C7DAF1"/>
<g opacity="0.5">
<path opacity="0.5" d="M187.198 83.8101L341.598 84.1901C345.098 84.2001 347.938 87.0401 347.928 90.5501L347.228 379.32C347.218 382.82 344.368 385.66 340.868 385.65L186.468 385.27C182.968 385.26 180.128 382.42 180.138 378.91L180.838 90.1401C180.838 86.6301 183.688 83.8001 187.198 83.8101Z" fill="url(#paint0_linear)"/>
</g>
<path d="M339.338 88.1198L189.428 87.7598C185.928 87.7498 183.088 90.5798 183.078 94.0798L182.398 374.86C182.388 378.36 185.218 381.2 188.718 381.21L338.628 381.57C342.128 381.58 344.968 378.75 344.978 375.25L345.658 94.4698C345.658 90.9698 342.838 88.1198 339.338 88.1198Z" fill="white"/>
<path opacity="0.3" d="M223.528 95.1899C224.488 101.62 229.988 106.39 236.488 106.43L292.638 106.57C299.138 106.56 304.668 101.82 305.658 95.3899L335.398 95.4599C338.808 95.4699 341.568 98.2399 341.558 101.65L340.908 368.03C340.898 371.44 338.128 374.2 334.718 374.19L192.648 373.84C189.238 373.83 186.478 371.06 186.488 367.65L187.138 101.27C187.148 97.8599 189.918 95.0999 193.328 95.1099L223.528 95.1899Z" fill="#6C63FF"/>
<path d="M383.528 113.32L162.428 294.39L159.528 146.2L409.228 137.35L369.798 175.17L119.708 194.38L380.198 260.03L144.308 336.6L145.188 365.61L388.598 351.14L381.228 424.31L274.338 414.78L217.018 61" stroke="white" stroke-width="4" stroke-miterlimit="10"/>
<path d="M283.028 99.07L248.658 98.55C248.148 98.54 247.728 98.95 247.718 99.46L247.708 99.87C247.698 100.38 248.108 100.8 248.618 100.81L282.988 101.33C283.498 101.34 283.918 100.93 283.928 100.42L283.938 100.01C283.948 99.5 283.538 99.08 283.028 99.07Z" fill="#DBDBDB"/>
<path d="M240.018 100.69C239.267 100.69 238.658 100.081 238.658 99.3302C238.658 98.5791 239.267 97.9702 240.018 97.9702C240.769 97.9702 241.378 98.5791 241.378 99.3302C241.378 100.081 240.769 100.69 240.018 100.69Z" fill="#DBDBDB"/>
<g opacity="0.5">
<path opacity="0.5" d="M368.558 121.57H369.948V129.46H368.558V121.57Z" fill="#47E6B1"/>
<path opacity="0.5" d="M365.308 124.82H373.198V126.21H365.308V124.82Z" fill="#47E6B1"/>
</g>
<g opacity="0.5">
<path opacity="0.5" d="M357.418 171.06H358.808V178.95H357.418V171.06Z" fill="#47E6B1"/>
<path opacity="0.5" d="M354.168 174.31H362.058V175.7H354.168V174.31Z" fill="#47E6B1"/>
</g>
<g opacity="0.5">
<path opacity="0.5" d="M143.818 106.71H145.208V114.6H143.818V106.71Z" fill="#47E6B1"/>
<path opacity="0.5" d="M140.568 109.96H148.458V111.35H140.568V109.96Z" fill="#47E6B1"/>
</g>
<g opacity="0.5">
<path opacity="0.5" d="M31.4381 135.77H32.8281V143.66H31.4381V135.77Z" fill="#47E6B1"/>
<path opacity="0.5" d="M28.1881 139.02H36.0781V140.41H28.1881V139.02Z" fill="#47E6B1"/>
</g>
<path opacity="0.5" d="M410.298 167.49C411.088 167.14 411.498 166.26 411.248 165.43C411.228 165.37 411.218 165.31 411.208 165.24C411.178 164.77 411.538 164.36 412.008 164.33C412.298 164.31 412.568 164.44 412.748 164.67C412.788 164.72 412.818 164.78 412.838 164.84C413.188 165.63 414.068 166.04 414.898 165.79C414.958 165.77 415.018 165.76 415.088 165.75C415.558 165.72 415.968 166.08 415.998 166.55C416.018 166.84 415.888 167.11 415.658 167.29C415.608 167.33 415.548 167.36 415.488 167.38C414.698 167.73 414.288 168.61 414.538 169.44C414.558 169.5 414.568 169.56 414.578 169.63C414.608 170.1 414.248 170.51 413.778 170.54C413.488 170.56 413.218 170.43 413.038 170.2C412.998 170.15 412.968 170.09 412.948 170.03C412.598 169.24 411.718 168.83 410.888 169.08C410.828 169.1 410.768 169.11 410.698 169.12C410.228 169.15 409.818 168.79 409.788 168.32C409.768 168.03 409.898 167.76 410.128 167.58C410.188 167.54 410.248 167.51 410.298 167.49Z" fill="#4D8AF0"/>
<path opacity="0.5" d="M59.2579 256.18C60.0479 255.83 60.4579 254.95 60.2079 254.12C60.1879 254.06 60.1779 254 60.1679 253.93C60.1379 253.46 60.498 253.05 60.968 253.02C61.258 253 61.5279 253.13 61.7079 253.36C61.7479 253.41 61.7779 253.47 61.7979 253.53C62.1479 254.32 63.0279 254.73 63.8579 254.48C63.9179 254.46 63.9779 254.45 64.0479 254.44C64.5179 254.41 64.9279 254.77 64.9579 255.24C64.9779 255.53 64.8479 255.8 64.6179 255.98C64.5679 256.02 64.5079 256.05 64.4479 256.07C63.6579 256.42 63.248 257.3 63.498 258.13C63.518 258.19 63.5279 258.25 63.5379 258.32C63.5679 258.79 63.2079 259.2 62.7379 259.23C62.4479 259.25 62.178 259.12 61.998 258.89C61.958 258.84 61.928 258.78 61.908 258.72C61.558 257.93 60.6779 257.52 59.8479 257.77C59.7879 257.79 59.728 257.8 59.658 257.81C59.188 257.84 58.778 257.48 58.748 257.01C58.728 256.72 58.858 256.45 59.088 256.27C59.138 256.23 59.1979 256.2 59.2579 256.18Z" fill="#4D8AF0"/>
<path opacity="0.5" d="M83.8678 114.55C84.6578 114.2 85.0678 113.32 84.8178 112.49C84.7978 112.43 84.7878 112.37 84.7778 112.3C84.7478 111.83 85.1078 111.42 85.5778 111.39C85.8678 111.37 86.1378 111.5 86.3178 111.73C86.3578 111.78 86.3878 111.84 86.4078 111.9C86.7578 112.69 87.6378 113.1 88.4678 112.85C88.5278 112.83 88.5878 112.82 88.6578 112.81C89.1278 112.78 89.5378 113.14 89.5678 113.61C89.5878 113.9 89.4578 114.17 89.2278 114.35C89.1778 114.39 89.1178 114.42 89.0578 114.44C88.2678 114.79 87.8578 115.67 88.1078 116.5C88.1278 116.56 88.1378 116.62 88.1478 116.69C88.1778 117.16 87.8178 117.57 87.3478 117.6C87.0578 117.62 86.7878 117.49 86.6078 117.26C86.5678 117.21 86.5378 117.15 86.5178 117.09C86.1678 116.3 85.2878 115.89 84.4578 116.14C84.3978 116.16 84.3378 116.17 84.2678 116.18C83.7978 116.21 83.3878 115.85 83.3578 115.38C83.3378 115.09 83.4678 114.82 83.6978 114.64C83.7478 114.61 83.8078 114.57 83.8678 114.55Z" fill="#4D8AF0"/>
<path opacity="0.5" d="M72.7179 195.35C73.5079 195 73.9179 194.12 73.6679 193.29C73.6479 193.23 73.6379 193.17 73.6279 193.1C73.5979 192.63 73.9579 192.22 74.4279 192.19C74.7179 192.17 74.9879 192.3 75.1679 192.53C75.2079 192.58 75.2379 192.64 75.2579 192.7C75.6079 193.49 76.4879 193.9 77.3179 193.65C77.3779 193.63 77.4379 193.62 77.5079 193.61C77.9779 193.58 78.3879 193.94 78.4179 194.41C78.4379 194.7 78.3079 194.97 78.0779 195.15C78.0279 195.19 77.9679 195.22 77.9079 195.24C77.1179 195.59 76.7079 196.47 76.9579 197.3C76.9779 197.36 76.9879 197.42 76.9979 197.49C77.0279 197.96 76.6679 198.37 76.1979 198.4C75.9079 198.42 75.6379 198.29 75.4579 198.06C75.4179 198.01 75.3879 197.95 75.3679 197.89C75.0179 197.1 74.1379 196.69 73.3079 196.94C73.2479 196.96 73.1879 196.97 73.1179 196.98C72.6479 197.01 72.2379 196.65 72.2079 196.18C72.1879 195.89 72.3179 195.62 72.5479 195.44C72.6079 195.4 72.6579 195.37 72.7179 195.35Z" fill="#4D8AF0"/>
<path opacity="0.5" d="M382.488 258.82C380.947 258.82 379.698 257.571 379.698 256.03C379.698 254.489 380.947 253.24 382.488 253.24C384.029 253.24 385.278 254.489 385.278 256.03C385.278 257.571 384.029 258.82 382.488 258.82Z" fill="#F55F44"/>
<path opacity="0.5" d="M144.738 166.88C143.197 166.88 141.948 165.631 141.948 164.09C141.948 162.549 143.197 161.3 144.738 161.3C146.279 161.3 147.528 162.549 147.528 164.09C147.528 165.631 146.279 166.88 144.738 166.88Z" fill="#4D8AF0"/>
<path opacity="0.5" d="M121.988 237.46C120.447 237.46 119.198 236.211 119.198 234.67C119.198 233.129 120.447 231.88 121.988 231.88C123.529 231.88 124.778 233.129 124.778 234.67C124.778 236.211 123.529 237.46 121.988 237.46Z" fill="#47E6B1"/>
<path opacity="0.5" d="M409.878 90.7299C408.337 90.7299 407.088 89.4808 407.088 87.9399C407.088 86.399 408.337 85.1499 409.878 85.1499C411.419 85.1499 412.668 86.399 412.668 87.9399C412.668 89.4808 411.419 90.7299 409.878 90.7299Z" fill="#F55F44"/>
<path d="M179.412 167.241L189.734 167.641L189.22 180.91L178.898 180.511L179.412 167.241Z" fill="#6C63FF"/>
<path d="M225.948 213.71C225.948 213.71 240.238 206.88 240.008 212.78C239.778 218.68 225.598 222.56 225.598 222.56L225.948 213.71Z" fill="#FFB9B9"/>
<path d="M218.108 263.61C218.108 263.61 224.848 280.11 227.338 292.02C229.828 303.93 233.628 320.32 228.748 331.94C223.868 343.56 209.988 377.72 209.848 381.41C209.708 385.1 211.038 388.84 208.088 388.72C205.138 388.61 189.088 383.55 188.438 381.31C187.788 379.07 193.908 373.4 193.908 373.4L209.038 326L193.258 295.12L181.878 341.19L179.648 398.69C179.648 398.69 168.708 395.31 167.118 398.2C167.118 398.2 162.218 391.37 161.588 388.39C160.968 385.41 163.908 328.68 163.908 328.68C163.908 328.68 153.868 264.06 161.968 264.37C170.068 264.68 201.838 245.26 218.108 263.61Z" fill="#2F2E41"/>
<path d="M208.198 385.78C208.198 385.78 215.678 402.31 216.388 403.08C217.098 403.85 221.968 411.42 218.288 411.27C214.598 411.13 205.898 407.1 199.498 400.94C193.088 394.79 184.648 384.12 185.408 383.41C186.178 382.7 191.418 380.69 191.418 380.69L208.198 385.78Z" fill="#2F2E41"/>
<path d="M178.318 394.96C178.318 394.96 178.768 402.36 180.128 405.37C181.488 408.38 181.318 412.8 177.628 412.66C173.938 412.52 164.418 410.67 164.418 410.67C164.418 410.67 163.848 406.22 164.618 405.51C165.388 404.8 168.648 396.81 167.258 394.54C165.868 392.26 178.318 394.96 178.318 394.96Z" fill="#2F2E41"/>
<path d="M172.858 154.8C172.858 154.8 164.998 167.05 161.938 169.88C158.878 172.71 167.488 178.95 167.488 178.95L182.908 181.02C182.908 181.02 182.718 166.99 183.508 165.54C184.308 164.11 172.858 154.8 172.858 154.8Z" fill="#FFB9B9"/>
<path d="M186.268 170.83C186.268 170.83 183.088 176.61 180.138 176.5C177.188 176.39 161.938 169.89 161.288 167.65C160.638 165.41 156.238 183.7 156.238 183.7L193.558 249.38L202.658 243.09L198.248 204.53L194.628 183.72L186.268 170.83Z" fill="#6C63FF"/>
<path d="M159.908 229.61C161.398 232.72 162.328 235.97 162.198 239.3C162.188 239.45 162.188 239.59 162.178 239.74C161.828 246.56 159.308 254.45 158.408 260.19C157.758 264.31 157.938 267.31 160.348 268.02C166.188 269.72 159.498 270.94 182.088 278.46C204.688 285.98 208.628 279.49 208.688 278.01C208.748 276.54 205.488 265.34 206.258 264.63C207.028 263.92 216.968 273.9 219.978 272.54C222.988 271.18 220.318 263.69 220.318 263.69C220.318 263.69 213.548 247.92 213.688 244.24C213.828 240.56 203.428 223.17 203.428 223.17L196.358 177.12C196.358 177.12 193.638 171.11 189.978 170.23C186.318 169.35 183.288 171.45 183.288 171.45L189.408 184.98L195.868 208.86L194.788 217.68C194.788 217.68 187.278 201.88 182.348 195.79C177.418 189.7 166.898 175.26 166.898 175.26C166.898 175.26 164.448 166.98 166.298 164.5C168.148 162.02 158.568 161.65 154.478 171.82C152.308 177.21 148.798 185.26 146.598 192.75C144.638 199.38 143.708 205.59 145.648 209.13C148.628 214.53 156.098 221.65 159.908 229.61Z" fill="#575A89"/>
<path opacity="0.1" d="M145.658 209.12C148.628 214.54 156.108 221.66 159.918 229.61C160.918 226.02 162.128 222.31 162.128 222.31C162.128 222.31 166.788 197.39 153.008 190.95C150.728 190.73 148.438 191.37 146.608 192.74C144.638 199.37 143.708 205.57 145.658 209.12Z" fill="black"/>
<path d="M200.348 207.55L212.028 210.96L228.248 211.59L229.918 225.68L203.268 227.6C203.258 227.59 196.608 208.88 200.348 207.55Z" fill="#575A89"/>
<path d="M181.298 254.93C181.298 254.93 196.928 257.52 193.358 262.22C189.788 266.92 175.948 261.98 175.948 261.98L181.298 254.93Z" fill="#FFB9B9"/>
<path opacity="0.1" d="M162.178 239.73C161.828 246.55 159.308 254.44 158.408 260.18C163.388 264.89 168.118 269.05 169.908 269.12C173.598 269.26 179.518 268.75 181.698 269.58C183.878 270.41 185.158 256.43 185.158 256.43C185.158 256.43 183.858 251.95 178.048 249.51C174.128 247.85 166.608 243.38 162.178 239.73Z" fill="black"/>
<path d="M153.178 186.52C153.178 186.52 140.708 184.56 141.378 205.26C142.048 225.96 140.068 239.17 145.078 243.06C150.098 246.95 166.388 264.56 170.078 264.7C173.768 264.84 179.688 264.33 181.868 265.16C184.048 265.98 185.328 252.01 185.328 252.01C185.328 252.01 184.028 247.53 178.218 245.09C172.408 242.65 158.718 234 158.828 231.05C158.938 228.1 162.288 217.9 162.288 217.9C162.288 217.9 166.948 192.96 153.178 186.52Z" fill="#575A89"/>
<path d="M183.858 172.94C174.894 172.94 167.628 165.674 167.628 156.71C167.628 147.746 174.894 140.48 183.858 140.48C192.821 140.48 200.088 147.746 200.088 156.71C200.088 165.674 192.821 172.94 183.858 172.94Z" fill="#FFB9B9"/>
<path d="M194.788 133.44C195.178 133.78 195.648 134.01 196.148 134.12C196.678 134.21 197.178 133.86 197.278 133.34C197.648 134.11 198.068 134.93 198.828 135.33C199.588 135.73 200.758 135.39 200.868 134.55C200.978 135.19 201.268 135.8 201.688 136.29C202.158 136.74 203.008 136.85 203.418 136.35C203.088 138.16 203.288 140.03 203.188 141.87C203.088 143.71 202.588 145.66 201.198 146.87C199.168 148.64 196.118 148.2 193.448 147.87C193.048 147.79 192.628 147.81 192.238 147.94C191.238 148.37 191.288 149.76 191.268 150.84C191.098 154.78 188.118 158.01 184.208 158.5C183.148 158.66 182.068 158.4 181.198 157.77C180.438 157.13 180.058 156.08 179.188 155.6C177.778 154.82 176.058 155.96 175.028 157.2C173.998 158.44 172.978 159.97 171.378 160.2C169.258 160.5 167.648 158.34 166.858 156.36C164.658 150.74 164.818 144.46 167.308 138.96C171.728 129.32 186.828 127.8 194.788 133.44Z" fill="#2F2E41"/>
<path d="M209.568 177.19C211.718 192.74 243.708 225.25 243.708 225.25C243.708 225.25 267.888 184.95 265.738 169.4C263.628 153.89 249.338 143.02 233.818 145.13C218.308 147.24 207.438 161.53 209.548 177.05C209.558 177.1 209.558 177.15 209.568 177.19Z" fill="url(#paint1_linear)"/>
<path d="M211.408 177.68C213.428 192.26 243.428 222.76 243.428 222.76C243.428 222.76 266.108 184.96 264.088 170.38C262.108 155.83 248.708 145.63 234.158 147.61C219.608 149.59 209.408 162.99 211.388 177.54C211.398 177.59 211.408 177.64 211.408 177.68Z" fill="#6C63FF"/>
<path d="M224.285 173.756C223.274 166.464 228.353 159.735 235.628 158.726C242.904 157.718 249.621 162.812 250.632 170.104C251.643 177.396 246.564 184.125 239.289 185.133C232.013 186.142 225.296 181.048 224.285 173.756Z" fill="white"/>
</g>
<defs>
<linearGradient id="paint0_linear" x1="329.709" y1="390.878" x2="198.344" y2="78.5702" gradientUnits="userSpaceOnUse">
<stop stop-color="#808080" stop-opacity="0.25"/>
<stop offset="0.5351" stop-color="#808080" stop-opacity="0.12"/>
<stop offset="1" stop-color="#808080" stop-opacity="0.1"/>
</linearGradient>
<linearGradient id="paint1_linear" x1="244.866" y1="225.062" x2="233.784" y2="145.116" gradientUnits="userSpaceOnUse">
<stop stop-color="#808080" stop-opacity="0.25"/>
<stop offset="0.5351" stop-color="#808080" stop-opacity="0.12"/>
<stop offset="1" stop-color="#808080" stop-opacity="0.1"/>
</linearGradient>
<clipPath id="clip0">
<rect width="500" height="485.65" transform="matrix(-1 0 0 1 500 0)" fill="white"/>
</clipPath>
</defs>
</svg>
