<svg width="528" height="390" viewBox="0 0 528 390" fill="none" xmlns="http://www.w3.org/2000/svg">
<path d="M371.243 376.175C371.243 376.175 375.762 360.962 358.574 352.301L371.243 376.175Z" fill="#E6E6E6"/>
<path d="M371.807 376.256C371.807 376.256 373.599 361.243 393.619 360.302L371.807 376.256Z" fill="#E6E6E6"/>
<path d="M527.884 380.595C524.705 393.679 357.791 392.58 358.043 380.595C361.222 367.512 528.137 368.611 527.884 380.595Z" fill="#E6E6E6"/>
<path d="M57.6331 37.3456C59.1215 37.3456 60.3282 36.1387 60.3282 34.6499C60.3282 33.161 59.1215 31.9541 57.6331 31.9541C56.1446 31.9541 54.938 33.161 54.938 34.6499C54.938 36.1387 56.1446 37.3456 57.6331 37.3456Z" fill="white"/>
<path d="M67.8621 37.3456C69.3505 37.3456 70.5572 36.1387 70.5572 34.6499C70.5572 33.161 69.3505 31.9541 67.8621 31.9541C66.3736 31.9541 65.167 33.161 65.167 34.6499C65.167 36.1387 66.3736 37.3456 67.8621 37.3456Z" fill="white"/>
<path d="M78.0906 37.3456C79.579 37.3456 80.7857 36.1387 80.7857 34.6499C80.7857 33.161 79.579 31.9541 78.0906 31.9541C76.6021 31.9541 75.3955 33.161 75.3955 34.6499C75.3955 36.1387 76.6021 37.3456 78.0906 37.3456Z" fill="white"/>
<path d="M393.325 40.9829H51.085V42.8855H393.325V40.9829Z" fill="white"/>
<path d="M492.267 314.002C492.267 314.002 490.286 307.287 493.513 309.478C496.741 311.668 506.135 314.958 502.751 320.226C499.366 325.494 479.108 354.615 475.832 348.844C474.014 345.641 480.351 318.468 480.351 318.468C480.351 318.468 484.859 317.426 485.505 318.468C486.15 319.51 492.267 314.002 492.267 314.002Z" fill="#2F2E41"/>
<path d="M463.203 142.631L462.597 153.528L454.728 169.272L480.759 168.061L478.943 151.712L480.153 145.051L463.203 142.631Z" fill="#FFB8B8"/>
<path d="M460.176 161.4C460.176 161.4 464.414 166.245 475.311 160.795L483.786 201.968L484.997 238.905L448.674 237.694L449.28 200.151L460.176 161.4Z" fill="#D1D1D1"/>
<path d="M439.872 239.788C439.872 239.788 443.782 259.005 451.094 254.349C458.405 249.693 449.518 236.202 449.518 236.202L439.872 239.788Z" fill="#FFB8B8"/>
<path d="M475.915 343.06L475.31 353.354L484.996 356.381V342.454L475.915 343.06Z" fill="#FFB8B8"/>
<path d="M443.831 235.277V295.829L478.337 325.5L486.812 310.967L462.597 290.986L468.651 275.847L494.076 259.498V235.882L443.831 235.277Z" fill="#2F2E41"/>
<path d="M469.256 272.818L472.889 303.7L474.099 344.873H489.839C489.839 344.873 495.286 308.542 489.234 299.459L494.077 259.5L489.234 243.756L469.256 272.818Z" fill="#2F2E41"/>
<path d="M483.181 352.748C483.181 352.748 483.786 350.326 479.548 350.326C475.311 350.326 473.495 350.931 473.495 351.537C473.352 352.557 473.15 353.568 472.889 354.564C472.889 354.564 461.995 381.813 472.889 380.602C483.784 379.391 485.602 373.942 485.602 373.942L486.813 356.382C486.813 356.382 485.602 354.899 484.997 355.036C484.391 355.172 483.181 352.748 483.181 352.748Z" fill="#2F2E41"/>
<path d="M472.889 148.686C480.245 148.686 486.207 142.722 486.207 135.365C486.207 128.008 480.245 122.043 472.889 122.043C465.534 122.043 459.571 128.008 459.571 135.365C459.571 142.722 465.534 148.686 472.889 148.686Z" fill="#FFB8B8"/>
<path d="M475.311 165.036L471.073 160.192L479.266 149.935L482.575 153.526L501.95 162.003L496.502 215.289C496.502 215.289 495.897 231.033 499.529 241.932C499.529 241.932 491.659 251.621 479.552 249.199L463.812 252.226C463.812 252.226 461.993 174.119 475.311 165.036Z" fill="#575A89"/>
<path d="M461.993 162.008L462.688 151.916L459.572 155.952L443.227 168.063L445.043 235.276L450.49 238.304L459.571 166.25L461.993 162.008Z" fill="#575A89"/>
<path d="M447.464 167.458L443.226 168.064C443.226 168.064 440.199 173.512 440.199 174.119C440.199 174.726 438.988 206.211 438.988 206.211C438.988 206.211 436.87 238.001 440.502 244.057L451.219 232.523L447.464 221.955V167.458Z" fill="#575A89"/>
<path opacity="0.3" d="M472.571 300.99L473.406 321.258L470.888 319.091L472.571 300.99Z" fill="black"/>
<path opacity="0.3" d="M492.697 309.076L491.813 309.513L490.866 336.666L493.054 333.849L492.697 309.076Z" fill="black"/>
<path d="M510.423 242.542C510.423 242.542 507.396 261.922 515.87 260.103C524.344 258.284 520.713 242.542 520.713 242.542H510.423Z" fill="#FFB8B8"/>
<path d="M496.498 162.008H501.946C501.946 162.008 505.578 163.825 506.183 169.275C506.789 174.724 515.264 198.945 515.264 198.945C515.264 198.945 524.95 238.91 524.344 244.359H509.21L510.421 233.462L494.076 189.865L496.498 162.008Z" fill="#575A89"/>
<path d="M461.56 122.568L459.023 121.551C459.023 121.551 464.331 115.706 471.717 116.214L469.64 113.926C469.64 113.926 474.715 111.893 479.334 117.23C481.76 120.036 484.568 123.335 486.318 127.049H489.038L487.903 129.549L491.875 132.048L487.798 131.6C488.042 132.969 488.079 134.367 487.909 135.748C487.734 137.128 487.03 138.386 485.946 139.257C485.946 139.257 482.797 132.738 482.797 131.721V134.263C482.797 134.263 480.259 131.975 480.259 130.45L478.874 132.229L478.182 129.433L469.64 132.229L471.024 129.942L465.716 130.704L467.793 127.908C467.793 127.908 461.792 131.213 461.561 134.008C461.303 135.946 460.625 137.805 459.573 139.453C459.573 139.453 454.867 126.381 461.56 122.568Z" fill="#2F2E41"/>
<path d="M393.618 0.223145H0.167969V252.268H393.618V0.223145Z" fill="#E6E6E6"/>
<path d="M393.45 0H0V16.7194H393.45V0Z" fill="#6C63FF"/>
<path d="M382.693 30.2051H11.7437V126.287H382.693V30.2051Z" fill="white"/>
<path d="M382.927 142.075H11.978V238.157H382.927V142.075Z" fill="white"/>
<path d="M337.766 51.46H137.008V60.4097H337.766V51.46Z" fill="#E6E6E6"/>
<path d="M208.587 73.834H137.008V82.7837H208.587V73.834Z" fill="#E6E6E6"/>
<path d="M279.608 96.208H137.008V105.158H279.608V96.208Z" fill="#E6E6E6"/>
<path d="M123.539 78.29C123.55 84.8016 121.655 91.1739 118.088 96.621C117.341 97.7696 116.521 98.8699 115.636 99.9155C113.558 102.377 111.138 104.528 108.45 106.302C107.719 106.787 106.967 107.241 106.195 107.664C102.177 109.887 97.7425 111.253 93.1705 111.676C92.1312 111.778 91.0746 111.826 90.0087 111.826C87.0875 111.829 84.1786 111.448 81.3564 110.694C79.7566 110.274 78.1917 109.73 76.6756 109.069C75.9006 108.734 75.1432 108.37 74.4033 107.977C72.6238 107.042 70.9333 105.947 69.3529 104.705C68.6175 104.132 67.9086 103.529 67.226 102.894C63.1409 99.1094 60.0624 94.3666 58.2686 89.0939C56.4747 83.8213 56.0219 78.1847 56.9511 72.6932C57.8803 67.2017 60.1622 62.028 63.5908 57.6395C67.0194 53.2509 71.4867 49.7855 76.5894 47.5562C81.6922 45.3268 87.2697 44.4038 92.8184 44.8703C98.3671 45.3368 103.712 47.1783 108.371 50.2284C113.03 53.2785 116.857 57.4412 119.505 62.3407C122.153 67.2402 123.539 72.7222 123.539 78.2918L123.539 78.29Z" fill="#E6E6E6"/>
<path d="M81.8833 81.3195C81.8833 81.3195 84.9356 89.8018 82.5642 94.5494C80.1928 99.297 86.2948 104.726 86.2948 104.726C86.2948 104.726 102.235 96.5845 100.2 92.5136C98.1646 88.4428 94.7738 83.0153 95.4516 79.623L81.8833 81.3195Z" fill="#FFB8B8"/>
<path d="M87.8186 84.542C93.8124 84.542 98.6714 79.6818 98.6714 73.6865C98.6714 67.6912 93.8124 62.8311 87.8186 62.8311C81.8248 62.8311 76.9658 67.6912 76.9658 73.6865C76.9658 79.6818 81.8248 84.542 87.8186 84.542Z" fill="#FFB8B8"/>
<path d="M81.3566 110.692C79.7568 110.272 78.1919 109.729 76.6758 109.067L76.9667 100.826L80.0183 94.0394C80.7044 94.5769 81.4385 95.0501 82.2114 95.4529C82.3971 95.5544 82.5828 95.651 82.7883 95.7482C85.6505 97.1314 90.3264 98.3486 94.8587 94.9557C96.524 93.6589 97.9375 92.0676 99.0288 90.2607L107.492 95.0572L107.936 100.254L108.451 106.302C107.72 106.786 106.969 107.24 106.197 107.664C102.179 109.886 97.744 111.253 93.1719 111.676C92.1326 111.777 91.076 111.826 90.0101 111.826C87.0885 111.828 84.1791 111.447 81.3566 110.692Z" fill="#575A89"/>
<path d="M83.4392 88.9614V88.9744L83.012 93.405L82.7874 95.7479L82.4574 99.2318L81.3569 110.692C79.7571 110.272 78.1922 109.728 76.6761 109.067C75.9011 108.732 75.1436 108.368 74.4037 107.975C72.6243 107.04 70.9338 105.945 69.3534 104.703L68.147 99.1303L68.2392 99.0683L83.4392 88.9614Z" fill="#575A89"/>
<path d="M106.195 107.663C102.177 109.885 97.742 111.251 93.1699 111.675C93.4175 107.552 93.7778 103.571 94.1869 100.025C94.398 98.2064 94.6202 96.5062 94.8561 94.9559C95.5914 89.9748 96.3837 86.5918 96.952 86.1343L100.704 88.6109L115.966 94.037L115.635 99.9127C113.557 102.374 111.137 104.525 108.449 106.299C107.718 106.785 106.967 107.24 106.195 107.663Z" fill="#575A89"/>
<path d="M69.3529 104.702C68.6176 104.13 67.9086 103.527 67.2261 102.892L67.8073 99.1308L68.2406 99.0689L70.1824 98.7915L74.4051 107.975C72.6256 107.04 70.9352 105.945 69.3548 104.702H69.3529Z" fill="#575A89"/>
<path d="M118.089 96.6202C117.341 97.7689 116.522 98.8692 115.636 99.9147C113.559 102.376 111.139 104.527 108.45 106.301C107.719 106.786 106.968 107.24 106.196 107.663L105.795 105.915L107.935 100.255L110.542 93.3623L115.967 94.0433C116.719 94.8645 117.427 95.7247 118.089 96.6202Z" fill="#575A89"/>
<path d="M98.1678 63.8687C96.527 61.2034 93.9587 59.2392 90.9572 58.354L88.7523 60.1185L89.6096 58.0605C88.8886 57.9512 88.1589 57.9097 87.4301 57.9367L85.4463 60.4882L86.2677 58.024C84.5461 58.238 82.8875 58.8065 81.3966 59.6936C79.9056 60.5807 78.6146 61.7673 77.6049 63.1783C75.08 66.8202 74.6536 71.8847 77.1376 75.555C77.8185 73.4592 78.6467 71.4928 79.3288 69.397C79.8647 69.4702 80.4078 69.4729 80.9444 69.4051L81.7738 67.469L82.0053 69.3227C84.576 69.0986 88.3896 68.607 90.8266 68.1563L90.5895 66.7322L92.0076 67.9142C92.7541 67.7421 93.1979 67.586 93.1608 67.4672C94.9732 70.3901 96.7695 72.2569 98.5819 75.1798C99.2684 71.0588 100.483 67.63 98.1678 63.8687Z" fill="#2F2E41"/>
<path d="M97.5668 74.8162C97.9726 74.8162 98.3015 74.1581 98.3015 73.3463C98.3015 72.5345 97.9726 71.8765 97.5668 71.8765C97.161 71.8765 96.832 72.5345 96.832 73.3463C96.832 74.1581 97.161 74.8162 97.5668 74.8162Z" fill="#FFB8B8"/>
<path d="M121.909 189.625C121.919 196.141 120.023 202.517 116.454 207.968C115.706 209.118 114.886 210.219 113.999 211.265C111.92 213.728 109.499 215.881 106.808 217.656C106.077 218.141 105.325 218.595 104.552 219.018C100.531 221.242 96.0934 222.61 91.5181 223.033C90.4782 223.135 89.421 223.183 88.3545 223.183C85.4312 223.186 82.5202 222.805 79.696 222.051C78.0952 221.63 76.5292 221.086 75.0121 220.424C74.2367 220.089 73.4788 219.725 72.7385 219.331C70.9577 218.396 69.266 217.3 67.6845 216.057C66.9487 215.484 66.2393 214.88 65.5564 214.245C61.47 210.457 58.3909 205.712 56.597 200.436C54.8031 195.161 54.3508 189.521 55.2811 184.027C56.2113 178.533 58.4948 173.357 61.9253 168.966C65.3559 164.576 69.8255 161.109 74.9308 158.878C80.0361 156.648 85.6163 155.724 91.1678 156.191C96.7193 156.657 102.067 158.499 106.729 161.55C111.391 164.601 115.219 168.765 117.87 173.667C120.52 178.568 121.908 184.053 121.909 189.625V189.625Z" fill="#6C63FF"/>
<path d="M90.4135 173.958H86.3003V205.282H90.4135V173.958Z" fill="white"/>
<path d="M104.015 191.678V187.563H72.6986V191.678H104.015Z" fill="white"/>
<path d="M332.733 163.331H131.975V172.281H332.733V163.331Z" fill="#E6E6E6"/>
<path d="M203.554 185.705H131.975V194.655H203.554V185.705Z" fill="#E6E6E6"/>
<path d="M274.575 208.079H131.975V217.029H274.575V208.079Z" fill="#E6E6E6"/>
<path d="M26.0219 11.0827C27.549 11.0827 28.7869 9.84445 28.7869 8.31699C28.7869 6.78952 27.549 5.55127 26.0219 5.55127C24.4948 5.55127 23.2568 6.78952 23.2568 8.31699C23.2568 9.84445 24.4948 11.0827 26.0219 11.0827Z" fill="white"/>
<path d="M36.5175 11.0827C38.0446 11.0827 39.2825 9.84445 39.2825 8.31699C39.2825 6.78952 38.0446 5.55127 36.5175 5.55127C34.9904 5.55127 33.7524 6.78952 33.7524 8.31699C33.7524 9.84445 34.9904 11.0827 36.5175 11.0827Z" fill="white"/>
<path d="M15.4994 11.0827C17.0265 11.0827 18.2644 9.84445 18.2644 8.31699C18.2644 6.78952 17.0265 5.55127 15.4994 5.55127C13.9723 5.55127 12.7344 6.78952 12.7344 8.31699C12.7344 9.84445 13.9723 11.0827 15.4994 11.0827Z" fill="white"/>
</svg>
