<svg width="440" height="414" viewBox="0 0 440 414" fill="none" xmlns="http://www.w3.org/2000/svg">
<path d="M319.439 234.94V349.288L338.589 380.467L340.047 382.834H415.578L417.114 234.94H319.439Z" fill="#E6E6E6"/>
<path opacity="0.1" d="M319.439 234.94V349.288L338.589 380.467L339.76 234.94H319.439Z" fill="black"/>
<path d="M137.081 231.883V346.244L117.931 377.423L116.473 379.791H40.942L39.4059 231.883H137.081Z" fill="#E6E6E6"/>
<path opacity="0.1" d="M137.081 231.883V346.245L117.931 377.423L116.76 231.883H137.081Z" fill="black"/>
<path d="M440 229.594V236.462H29.4991V226.55L67.6422 206.727H406.426L440 229.594Z" fill="#E6E6E6"/>
<path opacity="0.1" d="M440 229.594V236.462H29.4991V226.55L440 229.594Z" fill="black"/>
<path d="M88.25 263.908H69.9334L62.3048 258.575H96.6336L88.25 263.908Z" fill="#3F3D56"/>
<path d="M88.25 286.02H69.9334L62.3048 280.674H96.6336L88.25 286.02Z" fill="#3F3D56"/>
<path d="M88.25 317.277H69.9334L62.3048 311.931H96.6336L88.25 317.277Z" fill="#3F3D56"/>
<path d="M88.25 348.533H69.9334L62.3048 343.2H96.6336L88.25 348.533Z" fill="#3F3D56"/>
<path d="M368.27 266.951H386.587L394.215 261.618H359.886L368.27 266.951Z" fill="#3F3D56"/>
<path d="M368.27 289.064H386.587L394.215 283.731H359.886L368.27 289.064Z" fill="#3F3D56"/>
<path d="M368.27 320.321H386.587L394.215 314.988H359.886L368.27 320.321Z" fill="#3F3D56"/>
<path d="M368.27 351.577H386.587L394.215 346.244H359.886L368.27 351.577Z" fill="#3F3D56"/>
<path d="M380.741 74.4805H226.581C223.365 74.4805 220.749 77.082 220.749 80.3078V184.068C220.749 187.281 223.352 189.895 226.581 189.895H285.097L282.91 203.878C282.91 203.878 270.374 210.525 279.187 210.72C288 210.915 329.502 210.72 329.502 210.72C329.502 210.72 337.534 210.72 324.802 203.683L322.746 189.895H380.741C383.957 189.895 386.574 187.294 386.574 184.068V80.3078C386.574 77.095 383.97 74.4805 380.741 74.4805Z" fill="#3F3D56"/>
<path d="M381.002 80.646H226.333V167.106H381.002V80.646Z" fill="#F2F2F2"/>
<path d="M303.661 78.8769C304.2 78.8769 304.637 78.4401 304.637 77.9013C304.637 77.3626 304.2 76.9258 303.661 76.9258C303.122 76.9258 302.685 77.3626 302.685 77.9013C302.685 78.4401 303.122 78.8769 303.661 78.8769Z" fill="#F2F2F2"/>
<path d="M303.661 185.694C305.717 185.694 307.384 184.029 307.384 181.974C307.384 179.919 305.717 178.254 303.661 178.254C301.605 178.254 299.938 179.919 299.938 181.974C299.938 184.029 301.605 185.694 303.661 185.694Z" fill="#F2F2F2"/>
<path d="M297.868 221.295V223.246H192.538V221.686L192.681 221.295L195.272 214.258H295.707L297.868 221.295Z" fill="#3F3D56"/>
<path d="M338.406 219.383C338.211 220.203 337.495 221.061 335.855 221.881C329.984 224.82 318.033 221.1 318.033 221.1C318.033 221.1 308.829 219.539 308.829 215.429C309.09 215.247 309.363 215.091 309.636 214.948C312.11 213.647 320.298 210.421 334.813 215.078C335.881 215.416 336.844 216.04 337.573 216.886C338.237 217.536 338.537 218.46 338.406 219.383Z" fill="#3F3D56"/>
<path opacity="0.1" d="M338.406 219.383C331.22 222.141 324.815 222.336 318.228 217.783C315.742 215.949 312.735 214.96 309.636 214.96C312.11 213.66 320.298 210.434 334.813 215.091C335.881 215.429 336.844 216.053 337.573 216.899C338.237 217.536 338.537 218.459 338.406 219.383Z" fill="black"/>
<path d="M329.385 217.77C330.794 217.77 331.936 217.421 331.936 216.99C331.936 216.559 330.794 216.209 329.385 216.209C327.976 216.209 326.833 216.559 326.833 216.99C326.833 217.421 327.976 217.77 329.385 217.77Z" fill="#F2F2F2"/>
<path opacity="0.1" d="M297.868 221.295V223.247H192.538V221.686L192.681 221.295H297.868Z" fill="black"/>
<path d="M58.5686 0.0131433C57.5011 -0.0779086 56.4336 0.169232 55.4963 0.702536C54.585 1.32689 54.0122 2.41952 53.4264 3.4471C51.1743 7.38835 48.1411 10.8223 44.496 13.5278C41.8403 15.466 38.4686 17.8983 38.9242 21.4754C39.1585 22.6591 39.6012 23.7907 40.213 24.8313C42.6604 29.7741 49.3387 33.5853 48.6878 39.2175C51.1222 35.1462 47.8677 33.143 50.3021 29.0717C51.4607 27.1336 53.4785 24.9484 55.2229 26.158C55.8087 26.5613 56.1993 27.2897 56.7981 27.6539C58.2562 28.5124 59.8053 26.8735 61.0941 25.7158C65.5333 21.7355 71.8471 22.7761 77.3798 24.0118C79.9834 24.5972 82.8474 25.3646 84.3966 27.862C86.4274 31.1399 82.4699 34.6779 81.4675 38.372C81.1941 39.4516 81.832 40.5573 82.9125 40.8304C83.1468 40.8954 83.3942 40.9085 83.6285 40.8824C85.2818 40.7133 87.2475 40.5833 87.3517 39.8549C89.4346 39.9329 91.9992 39.6988 92.8844 37.5265C93.1578 36.668 93.301 35.7705 93.314 34.873C93.6394 31.2309 95.1886 27.901 96.217 24.4281C97.2455 20.9551 97.6881 16.8968 95.9567 13.814C95.3448 12.7864 94.5768 11.8629 93.6915 11.0564C83.8498 1.57403 70.9358 0.000135905 58.5686 0.0131433Z" fill="#2F2E41"/>
<path d="M50.8228 46.3194C50.8228 46.3194 52.9578 64.1135 45.1209 65.5313C37.2839 66.9491 52.2418 91.1429 52.2418 91.1429L87.8464 95.4094L79.3065 66.9491C79.3065 66.9491 73.6045 64.8159 77.1715 50.5858C80.7255 36.3557 50.8228 46.3194 50.8228 46.3194Z" fill="#FFB8B8"/>
<path d="M29.0955 351.955L31.9465 391.094H46.9043L42.6214 351.955H29.0955Z" fill="#FFB8B8"/>
<path d="M138.773 277.943L140.908 310.682L157.285 303.567L150.88 276.525L138.773 277.943Z" fill="#FFB8B8"/>
<path d="M18.4076 202.513C18.4076 202.513 19.1236 243.785 23.3936 257.3C27.6635 270.815 26.9606 271.53 26.2446 273.663C25.5286 275.796 24.8256 274.379 24.8256 277.93C24.8256 281.481 23.4066 337.699 24.8256 342.681C26.2446 347.662 20.5556 356.195 24.8256 356.911C29.0955 357.626 49.0393 356.911 49.7553 352.644C50.4713 348.378 44.0534 346.947 46.9043 344.111C49.7553 341.263 54.0253 282.912 54.0253 282.912L63.9972 242.354L82.5089 221.009H121.681L133.787 267.979C133.787 267.979 128.801 281.494 132.368 281.494C135.935 281.494 157.298 285.76 157.298 270.112C157.298 254.451 150.177 208.197 148.758 206.779C147.339 205.361 149.474 200.38 147.339 198.246C145.204 196.113 120.275 181.168 111.019 178.319C101.763 175.47 88.7707 172.088 88.7707 172.088L18.4076 202.513Z" fill="#2F2E41"/>
<path d="M157.285 297.87C157.285 297.87 146.597 294.306 141.611 304.985C136.625 315.664 138.76 318.5 138.76 318.5C138.76 318.5 155.137 324.197 157.988 321.348C159.225 320.113 163.169 319.683 167.218 319.592C173.389 319.449 175.029 310.734 169.197 308.705C169.027 308.64 168.845 308.588 168.663 308.549C162.987 307.118 157.285 297.87 157.285 297.87Z" fill="#2F2E41"/>
<path d="M66.8351 58.0653C78.6334 58.0653 88.1979 48.5088 88.1979 36.7202C88.1979 24.9316 78.6334 15.375 66.8351 15.375C55.0368 15.375 45.4724 24.9316 45.4724 36.7202C45.4724 48.5088 55.0368 58.0653 66.8351 58.0653Z" fill="#FFB8B8"/>
<path d="M39.0674 74.4286C39.0674 74.4286 73.969 81.5436 82.5089 70.1621C91.0488 58.7807 94.6158 102.186 94.6158 102.186L98.8858 147.725L92.4808 172.635C92.4808 172.635 59.0112 199.677 48.3233 201.81C37.6354 203.943 21.2586 205.374 21.2586 205.374C21.2586 205.374 26.2446 126.38 26.2446 124.962C26.2446 123.532 39.0674 74.4286 39.0674 74.4286Z" fill="#6C63FF"/>
<path d="M49.6772 61.0829C49.6772 61.0829 41.9184 56.6344 39.7704 60.9138C37.6354 65.1802 17.6916 75.8593 15.5567 75.8593C13.4217 75.8593 19.8266 134.926 16.9756 142.041C14.1247 149.156 0.598828 201.108 8.43575 205.374C16.2727 209.641 10.5707 201.108 18.4076 211.774C26.2446 222.453 64.7001 222.453 66.8351 218.173C68.9701 213.907 49.7423 181.883 53.3093 151.992C56.8762 122.101 62.5652 80.8281 57.5792 75.1439C52.5933 69.4597 49.6772 61.0829 49.6772 61.0829Z" fill="#2F2E41"/>
<path d="M75.388 65.8957L76.3774 62.4878C76.3774 62.4878 106.007 72.3084 107.439 78.708C108.858 85.1077 108.155 129.944 103.169 133.495C98.1828 137.059 91.0619 142.744 96.0478 151.289C101.034 159.835 106.736 169.084 111.006 169.786C115.276 170.488 123.113 175.483 120.978 180.465C118.843 185.447 93.1968 176.199 93.1968 176.199C93.1968 176.199 76.104 163.386 76.807 143.459C77.523 123.532 75.388 65.8957 75.388 65.8957Z" fill="#2F2E41"/>
<path d="M100.318 149.858L83.2249 181.883C83.2249 181.883 58.2952 207.494 72.5371 210.343C86.7789 213.192 94.6158 186.865 94.6158 186.865L113.128 160.537L100.318 149.858Z" fill="#FFB8B8"/>
<path d="M59.61 5.60639C58.7508 5.54136 57.8916 5.71045 57.1106 6.08767C56.4076 6.59496 55.8348 7.25834 55.4182 8.02577C53.5175 10.8744 51.0441 13.3068 48.1541 15.1538C45.9931 16.5326 43.2462 18.2366 43.6238 20.773C43.819 21.6185 44.1835 22.425 44.6782 23.1404C46.683 26.6654 47.4771 30.7497 46.9434 34.756L52.8797 26.1321C53.817 24.7663 55.4573 23.2184 56.8892 24.0769C57.3709 24.3631 57.6834 24.8834 58.178 25.1305C59.3627 25.7289 60.6255 24.5842 61.6669 23.7647C65.2859 20.9551 70.4151 21.6836 74.9194 22.5681C77.0413 22.9843 79.3716 23.5306 80.6343 25.2866C82.7172 28.2133 80.5432 32.4407 81.7539 35.8226C82.4439 35.3413 82.9125 34.5999 83.0427 33.7674C84.7351 33.8195 86.818 33.6504 87.547 32.1155C87.7683 31.5172 87.8854 30.8798 87.8984 30.2424C88.1718 27.667 89.4216 25.3126 90.2547 22.8672C91.0879 20.4218 91.4524 17.5472 90.0464 15.362C89.5257 14.6205 88.9139 13.9702 88.1979 13.4108C80.1917 6.69902 69.6731 5.59339 59.61 5.60639Z" fill="#2F2E41"/>
<path d="M100.318 75.8594L106.957 77.6154C106.957 77.6154 122.397 117.132 118.843 144.174C115.289 171.217 113.141 165.519 113.141 165.519C113.141 165.519 107.439 152.707 94.6288 155.556L100.318 75.8594Z" fill="#2F2E41"/>
<path d="M30.0849 385.917C28.3665 388.245 28.718 391.588 27.1949 394.047C25.8801 396.18 23.3936 397.299 21.7403 399.198C21.2196 399.822 20.7509 400.498 20.3343 401.214C18.7982 403.776 17.5615 407.054 19.0716 409.63C20.2823 411.698 22.8338 412.504 25.1641 413.064C28.1192 413.766 31.1915 414.325 34.1726 413.792C37.1668 413.259 40.0828 411.438 41.1503 408.589C41.3586 407.874 41.606 407.171 41.8924 406.482C43.5066 403.295 48.5967 403.256 50.25 400.095C51.4086 397.884 50.3411 395.204 49.2736 392.941L46.0191 386.034C44.9386 383.745 40.5645 385.059 38.2733 384.512C35.3052 383.797 32.2199 383.003 30.0849 385.917Z" fill="#2F2E41"/>
<path d="M6.30077 164.088L36.2164 210.343C36.2164 210.343 54.7282 233.821 60.4302 223.155C66.1321 212.476 40.4864 194.695 40.4864 194.695L21.2586 159.12L6.30077 164.088Z" fill="#FFB8B8"/>
<path d="M21.2586 77.2772L15.5567 75.8594C15.5567 75.8594 4.1658 79.4234 1.31483 94.3559C-1.53614 109.288 0.598831 169.071 4.1658 169.786C7.73277 170.501 21.7533 159.38 23.9924 161.734C26.2315 164.089 19.1106 151.992 21.2586 145.592C23.4066 139.192 21.2586 77.2772 21.2586 77.2772Z" fill="#2F2E41"/>
<path d="M289.029 109.042H270.621V113.464H289.029V109.042Z" fill="#6C63FF"/>
<path d="M352.778 109.042H346.295V113.464H352.778V109.042Z" fill="#6C63FF"/>
<path d="M365.732 109.042H359.248V113.464H365.732V109.042Z" fill="#6C63FF"/>
<path d="M339.474 109.042H295.499V113.464H339.474V109.042Z" fill="#6C63FF"/>
<path d="M265.843 137.645H247.436V142.068H265.843V137.645Z" fill="#6C63FF"/>
<path d="M329.593 137.645H323.11V142.068H329.593V137.645Z" fill="#6C63FF"/>
<path d="M342.546 137.645H336.063V142.068H342.546V137.645Z" fill="#6C63FF"/>
<path d="M316.302 137.645H272.326V142.068H316.302V137.645Z" fill="#6C63FF"/>
<path d="M341.856 118.914H323.449V123.337H341.856V118.914Z" fill="#6C63FF"/>
<path d="M366.747 118.914H348.339V123.337H366.747V118.914Z" fill="#6C63FF"/>
<path d="M253.919 118.914H247.436V123.337H253.919V118.914Z" fill="#6C63FF"/>
<path d="M266.872 118.914H260.389V123.337H266.872V118.914Z" fill="#6C63FF"/>
<path d="M317.317 118.914H273.342V123.337H317.317V118.914Z" fill="#6C63FF"/>
<path d="M303.687 128.449H285.279V132.871H303.687V128.449Z" fill="#6C63FF"/>
<path d="M278.796 128.449H260.389V132.871H278.796V128.449Z" fill="#6C63FF"/>
<path d="M253.919 128.449H247.436V132.871H253.919V128.449Z" fill="#6C63FF"/>
<path d="M366.747 128.449H360.264V132.871H366.747V128.449Z" fill="#6C63FF"/>
<path d="M353.794 128.449H309.819V132.871H353.794V128.449Z" fill="#6C63FF"/>
</svg>
