<svg width="1028" height="784" viewBox="0 0 1028 784" fill="none" xmlns="http://www.w3.org/2000/svg">
<path opacity="0.1" d="M586.537 124C521.817 121.75 460.177 100.86 401.307 78C342.437 55.14 284.147 29.82 220.977 17.7C180.347 9.90999 133.887 8.80999 101.147 30.59C69.6466 51.59 59.4666 87.74 53.9866 121.32C49.8766 146.58 47.4566 173.17 58.7366 196.82C66.5666 213.24 80.4766 227.04 90.0966 242.76C123.557 297.48 99.9066 365 63.6566 418.39C46.6566 443.46 26.9166 467.39 13.7866 494.05C0.656636 520.71 -5.41336 551.3 6.06664 578.52C17.4566 605.52 44.5866 625.76 73.9766 640.01C133.657 669.01 203.977 677.24 272.587 681.93C424.407 692.32 577.047 687.82 729.267 683.32C785.607 681.65 842.187 679.96 897.617 671.25C928.387 666.42 960.167 658.74 982.507 640.25C1010.87 616.72 1017.9 576.88 998.897 547.37C967.017 497.88 878.897 485.59 856.587 432.48C844.317 403.24 856.917 370.68 874.737 343.56C912.977 285.4 977.067 234.37 980.447 167.89C982.767 122.23 951.957 76.5 904.317 54.89C854.377 32.25 785.137 35.1 748.317 72.58C710.337 111.13 643.657 126 586.537 124Z" fill="#6C63FF"/>
<path opacity="0.1" d="M579.767 754.18C784.653 754.18 950.747 741.832 950.747 726.6C950.747 711.368 784.653 699.02 579.767 699.02C374.88 699.02 208.787 711.368 208.787 726.6C208.787 741.832 374.88 754.18 579.767 754.18Z" fill="#6C63FF"/>
<path d="M292.917 637.27C292.917 637.27 313.916 633.91 326.516 648.76C326.516 648.76 317.276 656.04 297.396 645.96L292.917 637.27Z" fill="#6C63FF"/>
<path d="M290.656 637C290.656 637 277.266 653.52 283.836 671.85C283.836 671.85 294.756 667.47 295.946 645.21L290.656 637Z" fill="#6C63FF"/>
<path d="M278.656 609.83C278.656 609.83 287.056 594.43 320.656 615.99C320.656 615.99 316.176 626.35 301.336 625.51C286.496 624.67 282.556 618 278.656 609.83Z" fill="#6C63FF"/>
<path d="M276.467 608.72C276.467 608.72 259.037 606.72 257.347 646.63C257.347 646.63 268.397 648.92 276.247 636.3C284.097 623.68 280.857 616.6 276.467 608.72Z" fill="#6C63FF"/>
<path d="M266.317 576.9C266.317 576.9 276.117 549.74 311.677 569.06C311.677 569.06 303.557 593.98 269.957 586.14L266.317 576.9Z" fill="#6C63FF"/>
<path d="M255.386 536.3C255.386 536.3 273.876 508.85 306.636 534.3C306.636 534.3 295.156 560.06 258.186 546.06L255.386 536.3Z" fill="#6C63FF"/>
<path d="M251.467 497.65C251.467 497.65 273.037 472.45 305.517 497.65C305.517 497.65 285.077 519.77 251.467 504.09V497.65Z" fill="#6C63FF"/>
<path d="M248.106 460.13C248.106 460.13 269.956 433.81 301.036 458.73C301.036 458.73 276.396 481.97 248.106 466.29V460.13Z" fill="#6C63FF"/>
<path d="M250.067 426.81C250.067 426.81 273.067 392.92 302.157 415.89C302.157 415.89 277.517 445.01 250.067 433.25V426.81Z" fill="#6C63FF"/>
<path d="M255.386 387.88C255.386 387.88 279.756 354.28 308.036 380.04C308.036 380.04 279.196 409.17 255.386 394.04V387.88Z" fill="#6C63FF"/>
<path d="M263.517 353.09C263.517 353.09 292.357 321.52 317.517 334.09C317.517 334.09 287.457 367.62 262.257 361.46L263.517 353.09Z" fill="#6C63FF"/>
<path d="M273.597 320.12C273.597 320.12 306.917 281.48 326.237 294.36C326.237 294.36 301.717 324.36 271.237 327.36L273.597 320.12Z" fill="#6C63FF"/>
<path d="M288.147 281.87C288.147 281.87 317.277 250.29 338.557 258.13C338.557 258.13 313.637 290.89 284.237 291.73L288.147 281.87Z" fill="#6C63FF"/>
<path d="M301.316 246.09C301.316 246.09 333.516 215.84 347.516 221.16C347.516 221.16 324.277 254.77 299.917 252.81L301.316 246.09Z" fill="#6C63FF"/>
<path d="M314.197 213C314.197 213 341.917 176.88 357.037 179.68C357.037 179.68 340.237 211.88 314.197 216.68V213Z" fill="#6C63FF"/>
<path d="M328.176 168.5C328.176 168.5 352.676 140.8 365.906 140.87C365.906 140.87 346.567 177.87 327.167 177.53L328.176 168.5Z" fill="#6C63FF"/>
<path d="M336.457 138.84L360.117 81.15C360.117 81.15 361.307 133.3 333.447 149.54L336.457 138.84Z" fill="#6C63FF"/>
<path d="M346.066 75.22C346.066 75.22 349.986 27.06 347.466 23.14C347.466 23.14 364.386 63.14 345.896 96.5L346.066 75.22Z" fill="#6C63FF"/>
<path d="M265.397 576.25C265.397 576.25 240.857 561.04 224.967 598.25C224.967 598.25 246.807 612.74 268.277 585.74L265.397 576.25Z" fill="#6C63FF"/>
<path d="M254.657 534.75C254.657 534.75 224.557 521.02 209.947 559.87C209.947 559.87 233.207 575.87 257.397 544.57L254.657 534.75Z" fill="#6C63FF"/>
<path d="M250.067 500C250.067 500 228.507 474.8 196.067 500C196.067 500 216.507 522.12 250.067 506.44V500Z" fill="#6C63FF"/>
<path d="M247.377 460.13C247.377 460.13 225.537 433.81 194.447 458.73C194.447 458.73 219.097 481.97 247.377 466.29V460.13Z" fill="#6C63FF"/>
<path d="M250.067 427.77C250.067 427.77 234.747 389.77 201.447 406.14C201.447 406.14 219.447 439.79 248.717 434.06L250.067 427.77Z" fill="#6C63FF"/>
<path d="M257.317 387.69C257.317 387.69 242.097 349.08 208.317 366.99C208.317 366.99 228.997 402.38 255.817 393.66L257.317 387.69Z" fill="#6C63FF"/>
<path d="M266.757 353.29C266.757 353.29 260.757 310.96 232.757 307.17C232.757 307.17 238.687 351.81 262.977 360.92L266.757 353.29Z" fill="#6C63FF"/>
<path d="M274.307 320.19C274.307 320.19 271.967 269.19 248.817 267.42C248.817 267.42 249.597 306.13 271.697 327.42L274.307 320.19Z" fill="#6C63FF"/>
<path d="M290.547 280.41C290.547 280.41 283.637 238 261.547 232.81C261.547 232.81 264.287 273.89 288.367 290.81L290.547 280.41Z" fill="#6C63FF"/>
<path d="M303.936 246.39C303.936 246.39 303.696 202.22 290.206 195.72C290.206 195.72 281.826 235.72 300.026 252.03L303.936 246.39Z" fill="#6C63FF"/>
<path d="M315.226 212.55C315.226 212.55 313.336 167.06 299.356 160.65C299.356 160.65 294.566 196.65 313.126 215.53L315.226 212.55Z" fill="#6C63FF"/>
<path d="M330.126 172.12C330.126 172.12 330.037 135.12 320.067 126.45C320.067 126.45 310.137 166.98 324.917 179.57L330.126 172.12Z" fill="#6C63FF"/>
<path d="M335.277 137L325.577 75.41C325.577 75.41 312.387 125.87 335.747 148.1L335.277 137Z" fill="#6C63FF"/>
<path d="M337.177 75.8101C337.177 75.8101 312.257 34.4101 312.767 29.8101C312.767 29.8101 315.417 73.2001 346.767 94.8101L337.177 75.8101Z" fill="#6C63FF"/>
<path d="M340.097 63.58C340.097 63.58 316.577 4.78 305.937 0C305.937 0 339.537 17.08 342.057 61.88L340.097 63.58Z" fill="#6C63FF"/>
<path d="M327.037 177.88L325.437 177.38C345.287 112.66 350.237 71.3801 339.377 61.0401L340.537 59.8201C352.047 70.7401 347.377 111.56 327.037 177.88Z" fill="#444053"/>
<path d="M272.387 329.39L270.007 328.55C272.107 322.62 274.387 316.6 276.767 310.67C297.487 259 315.117 211 326.427 174.11L328.497 173.11C317.167 210 299.847 259.9 279.107 311.61C276.737 317.51 274.477 323.49 272.387 329.39Z" fill="#444053"/>
<path d="M322.466 685.72C322.146 685.36 289.966 649.14 267.546 587.28C254.399 551.073 247.074 513.011 245.846 474.51C244.316 426.38 254.406 372.63 271.716 323.82L273.596 326.02C234.756 435.58 250.186 529.47 270.656 586C292.846 647.29 324.656 683.12 324.966 683.48L322.466 685.72Z" fill="#444053"/>
<path d="M182.257 677.82C182.257 677.82 144.207 675.53 148.697 702.19C148.697 702.19 147.807 706.9 152.077 709.04C152.077 709.04 152.137 707.04 155.977 707.73C157.341 707.96 158.727 708.027 160.107 707.93C161.974 707.805 163.751 707.074 165.167 705.85C165.167 705.85 175.857 701.43 180.017 683.95C180.017 683.95 183.097 680.14 182.967 679.16L176.547 681.9C176.547 681.9 178.747 686.53 177.017 690.38C177.017 690.38 176.807 682.07 175.577 682.26C175.327 682.26 172.237 683.87 172.237 683.87C172.237 683.87 176.017 691.94 173.167 697.8C173.167 697.8 174.247 687.86 171.067 684.45L166.547 687.09C166.547 687.09 170.957 695.42 167.967 702.22C167.967 702.22 168.727 691.79 165.597 687.73L161.497 690.93C161.497 690.93 165.637 699.14 163.117 704.78C163.117 704.78 162.787 692.64 160.607 691.72C160.607 691.72 157.027 694.88 156.477 696.18C156.477 696.18 159.317 702.18 157.557 705.29C157.557 705.29 156.477 697.2 155.557 697.16C155.557 697.16 151.987 702.52 151.617 706.16C151.79 702.767 152.848 699.477 154.687 696.62C152.629 697.009 150.731 697.993 149.227 699.45C149.227 699.45 149.777 695.66 155.567 695.33C155.567 695.33 158.567 691.26 159.307 691.01C159.307 691.01 153.547 690.53 150.057 692.08C150.057 692.08 153.127 688.51 160.367 690.08L164.367 686.78C164.367 686.78 156.787 685.78 153.567 686.89C153.567 686.89 157.267 683.73 165.457 686.03L169.857 683.4C169.857 683.4 163.397 682.01 159.537 682.51C159.537 682.51 163.607 680.32 171.147 682.69L174.297 681.28C174.297 681.28 169.557 680.35 168.177 680.2C166.797 680.05 166.707 679.67 166.707 679.67C169.709 679.171 172.79 679.517 175.607 680.67C175.607 680.67 182.367 678.24 182.257 677.82Z" fill="#6C63FF"/>
<path d="M71.6566 690.19C71.6566 690.19 33.6566 687.9 38.1066 714.56C38.1066 714.56 37.2066 719.27 41.4766 721.41C41.4766 721.41 41.5466 719.41 45.3866 720.1C46.75 720.334 48.1369 720.402 49.5166 720.3C51.3819 720.177 53.1555 719.446 54.5666 718.22C54.5666 718.22 65.2666 713.8 69.4266 696.32C69.4266 696.32 72.4966 692.51 72.4266 691.53L66.0066 694.27C66.0066 694.27 68.2066 698.9 66.4766 702.75C66.4766 702.75 66.2666 694.44 65.0366 694.63C64.7866 694.63 61.6965 696.24 61.6965 696.24C61.6965 696.24 65.4766 704.31 62.6266 710.17C62.6266 710.17 63.7066 700.23 60.5166 696.82L55.9966 699.46C55.9966 699.46 60.4065 707.79 57.4165 714.59C57.4165 714.59 58.1866 704.16 55.0466 700.1L50.9566 703.3C50.9566 703.3 55.0966 711.51 52.5766 717.15C52.5766 717.15 52.2466 705.01 50.0666 704.09C50.0666 704.09 46.4866 707.25 45.9366 708.55C45.9366 708.55 48.7766 714.55 47.0166 717.66C47.0166 717.66 45.9366 709.57 45.0166 709.53C45.0166 709.53 41.4566 714.89 41.0766 718.53C41.2552 715.136 42.3169 711.848 44.1566 708.99C42.0964 709.38 40.1952 710.364 38.6866 711.82C38.6866 711.82 39.2466 708.03 45.0366 707.7C45.0366 707.7 48.0366 703.63 48.7766 703.39C48.7766 703.39 43.0166 702.9 39.5266 704.45C39.5266 704.45 42.5965 700.88 49.8365 702.45L53.8365 699.15C53.8365 699.15 46.2566 698.15 43.0366 699.26C43.0366 699.26 46.7366 696.1 54.9266 698.4L59.3266 695.77C59.3266 695.77 52.8566 694.38 49.0066 694.88C49.0066 694.88 53.0766 692.69 60.6166 695.06L63.7666 693.65C63.7666 693.65 59.0266 692.72 57.6366 692.57C56.2466 692.42 56.1766 692.04 56.1766 692.04C59.1787 691.547 62.2587 691.893 65.0766 693.04C65.0766 693.04 71.7366 690.61 71.6566 690.19Z" fill="#6C63FF"/>
<path d="M133.297 719.23C133.297 719.23 95.2966 716.94 99.7366 743.6C99.7366 743.6 98.8466 748.31 103.117 750.45C103.117 750.45 103.187 748.45 107.017 749.14C108.384 749.37 109.774 749.437 111.157 749.34C113.021 749.212 114.793 748.482 116.207 747.26C116.207 747.26 126.897 742.84 131.057 725.36C131.057 725.36 134.137 721.55 134.057 720.57L127.637 723.31C127.637 723.31 129.827 727.94 128.107 731.79C128.107 731.79 127.897 723.48 126.657 723.67C126.407 723.67 123.327 725.28 123.327 725.28C123.327 725.28 127.097 733.34 124.247 739.21C124.247 739.21 125.327 729.27 122.147 725.86L117.627 728.5C117.627 728.5 122.037 736.83 119.047 743.63C119.047 743.63 119.817 733.2 116.677 729.14L112.577 732.34C112.577 732.34 116.727 740.55 114.197 746.19C114.197 746.19 113.867 734.05 111.697 733.13C111.697 733.13 108.107 736.29 107.567 737.59C107.567 737.59 110.407 743.59 108.637 746.7C108.637 746.7 107.557 738.61 106.637 738.57C106.637 738.57 103.067 743.93 102.697 747.57C102.869 744.177 103.928 740.887 105.767 738.03C103.709 738.419 101.811 739.403 100.307 740.86C100.307 740.86 100.857 737.07 106.657 736.74C106.657 736.74 109.597 732.67 110.387 732.42C110.387 732.42 104.627 731.94 101.137 733.49C101.137 733.49 104.217 729.92 111.447 731.54L115.447 728.24C115.447 728.24 107.867 727.24 104.647 728.35C104.647 728.35 108.357 725.19 116.537 727.49L120.947 724.86C120.947 724.86 114.517 723.5 110.657 724C110.657 724 114.717 721.81 122.267 724.18L125.407 722.77C125.407 722.77 120.677 721.84 119.287 721.69C117.897 721.54 117.827 721.16 117.827 721.16C120.829 720.661 123.91 721.007 126.727 722.16C126.727 722.16 133.407 719.65 133.297 719.23Z" fill="#6C63FF"/>
<path opacity="0.1" d="M103.637 757.8C118.51 757.8 130.567 755.763 130.567 753.25C130.567 750.737 118.51 748.7 103.637 748.7C88.7635 748.7 76.7065 750.737 76.7065 753.25C76.7065 755.763 88.7635 757.8 103.637 757.8Z" fill="#6C63FF"/>
<path opacity="0.1" d="M957.817 757.8C972.69 757.8 984.747 755.763 984.747 753.25C984.747 750.737 972.69 748.7 957.817 748.7C942.943 748.7 930.886 750.737 930.886 753.25C930.886 755.763 942.943 757.8 957.817 757.8Z" fill="#6C63FF"/>
<path opacity="0.1" d="M699.927 783.99C714.8 783.99 726.857 781.953 726.857 779.44C726.857 776.927 714.8 774.89 699.927 774.89C685.054 774.89 672.997 776.927 672.997 779.44C672.997 781.953 685.054 783.99 699.927 783.99Z" fill="#6C63FF"/>
<path opacity="0.1" d="M1000.41 718.36C1015.28 718.36 1027.34 716.323 1027.34 713.81C1027.34 711.297 1015.28 709.26 1000.41 709.26C985.534 709.26 973.477 711.297 973.477 713.81C973.477 716.323 985.534 718.36 1000.41 718.36Z" fill="#6C63FF"/>
<path opacity="0.1" d="M156.046 715.52C170.919 715.52 182.976 713.483 182.976 710.97C182.976 708.457 170.919 706.42 156.046 706.42C141.173 706.42 129.116 708.457 129.116 710.97C129.116 713.483 141.173 715.52 156.046 715.52Z" fill="#6C63FF"/>
<path opacity="0.1" d="M45.4166 728.29C60.2896 728.29 72.3466 726.253 72.3466 723.74C72.3466 721.227 60.2896 719.19 45.4166 719.19C30.5435 719.19 18.4866 721.227 18.4866 723.74C18.4866 726.253 30.5435 728.29 45.4166 728.29Z" fill="#6C63FF"/>
<path d="M724.267 79.76H312.517C307.104 79.76 302.717 84.1476 302.717 89.56V711.34C302.717 716.752 307.104 721.14 312.517 721.14H724.267C729.679 721.14 734.067 716.752 734.067 711.34V89.56C734.067 84.1476 729.679 79.76 724.267 79.76Z" fill="#3A3768"/>
<path opacity="0.1" d="M670.717 134.89H371.407C355.274 134.89 342.197 147.968 342.197 164.1V231.77C342.197 247.902 355.274 260.98 371.407 260.98H670.717C686.849 260.98 699.927 247.902 699.927 231.77V164.1C699.927 147.968 686.849 134.89 670.717 134.89Z" fill="black"/>
<path d="M686.607 137.35H354.697C349.063 137.35 344.497 141.917 344.497 147.55V249.1C344.497 254.733 349.063 259.3 354.697 259.3H686.607C692.24 259.3 696.807 254.733 696.807 249.1V147.55C696.807 141.917 692.24 137.35 686.607 137.35Z" fill="#E6E8EC"/>
<path opacity="0.1" d="M415.007 313.5H365.447C359.487 313.5 354.656 318.331 354.656 324.29V381.75C354.656 387.709 359.487 392.54 365.447 392.54H415.007C420.966 392.54 425.797 387.709 425.797 381.75V324.29C425.797 318.331 420.966 313.5 415.007 313.5Z" fill="black"/>
<path opacity="0.1" d="M501.956 313.5H452.396C446.437 313.5 441.606 318.331 441.606 324.29V381.75C441.606 387.709 446.437 392.54 452.396 392.54H501.956C507.916 392.54 512.746 387.709 512.746 381.75V324.29C512.746 318.331 507.916 313.5 501.956 313.5Z" fill="black"/>
<path opacity="0.1" d="M588.907 313.5H539.347C533.387 313.5 528.557 318.331 528.557 324.29V381.75C528.557 387.709 533.387 392.54 539.347 392.54H588.907C594.866 392.54 599.697 387.709 599.697 381.75V324.29C599.697 318.331 594.866 313.5 588.907 313.5Z" fill="black"/>
<path opacity="0.1" d="M657.807 315.18H644.347C628.419 315.18 615.507 328.092 615.507 344.02V365.38C615.507 381.308 628.419 394.22 644.347 394.22H657.807C673.734 394.22 686.647 381.308 686.647 365.38V344.02C686.647 328.092 673.734 315.18 657.807 315.18Z" fill="black"/>
<path d="M675.857 313.5H626.297C620.337 313.5 615.507 318.331 615.507 324.29V381.75C615.507 387.709 620.337 392.54 626.297 392.54H675.857C681.816 392.54 686.647 387.709 686.647 381.75V324.29C686.647 318.331 681.816 313.5 675.857 313.5Z" fill="#6C63FF"/>
<path opacity="0.1" d="M415.007 400.45H365.447C359.487 400.45 354.656 405.281 354.656 411.24V468.7C354.656 474.659 359.487 479.49 365.447 479.49H415.007C420.966 479.49 425.797 474.659 425.797 468.7V411.24C425.797 405.281 420.966 400.45 415.007 400.45Z" fill="black"/>
<path opacity="0.1" d="M501.956 400.45H452.396C446.437 400.45 441.606 405.281 441.606 411.24V468.7C441.606 474.659 446.437 479.49 452.396 479.49H501.956C507.916 479.49 512.746 474.659 512.746 468.7V411.24C512.746 405.281 507.916 400.45 501.956 400.45Z" fill="black"/>
<path opacity="0.1" d="M588.907 400.45H539.347C533.387 400.45 528.557 405.281 528.557 411.24V468.7C528.557 474.659 533.387 479.49 539.347 479.49H588.907C594.866 479.49 599.697 474.659 599.697 468.7V411.24C599.697 405.281 594.866 400.45 588.907 400.45Z" fill="black"/>
<path opacity="0.1" d="M415.007 496.43H365.447C359.487 496.43 354.656 501.261 354.656 507.22V564.68C354.656 570.639 359.487 575.47 365.447 575.47H415.007C420.966 575.47 425.797 570.639 425.797 564.68V507.22C425.797 501.261 420.966 496.43 415.007 496.43Z" fill="black"/>
<path opacity="0.1" d="M501.956 496.43H452.396C446.437 496.43 441.606 501.261 441.606 507.22V564.68C441.606 570.639 446.437 575.47 452.396 575.47H501.956C507.916 575.47 512.746 570.639 512.746 564.68V507.22C512.746 501.261 507.916 496.43 501.956 496.43Z" fill="black"/>
<path opacity="0.1" d="M588.907 496.43H539.347C533.387 496.43 528.557 501.261 528.557 507.22V564.68C528.557 570.639 533.387 575.47 539.347 575.47H588.907C594.866 575.47 599.697 570.639 599.697 564.68V507.22C599.697 501.261 594.866 496.43 588.907 496.43Z" fill="black"/>
<path opacity="0.1" d="M588.907 592.41H539.347C533.387 592.41 528.557 597.241 528.557 603.2V660.66C528.557 666.619 533.387 671.45 539.347 671.45H588.907C594.866 671.45 599.697 666.619 599.697 660.66V603.2C599.697 597.241 594.866 592.41 588.907 592.41Z" fill="black"/>
<path opacity="0.1" d="M657.807 402.13H644.347C628.419 402.13 615.507 415.042 615.507 430.97V452.33C615.507 468.258 628.419 481.17 644.347 481.17H657.807C673.734 481.17 686.647 468.258 686.647 452.33V430.97C686.647 415.042 673.734 402.13 657.807 402.13Z" fill="black"/>
<path d="M675.347 400.45H626.807C620.566 400.45 615.507 405.509 615.507 411.75V468.19C615.507 474.431 620.566 479.49 626.807 479.49H675.347C681.587 479.49 686.647 474.431 686.647 468.19V411.75C686.647 405.509 681.587 400.45 675.347 400.45Z" fill="#6C63FF"/>
<path opacity="0.2" d="M675.347 400.45H626.807C620.566 400.45 615.507 405.509 615.507 411.75V468.19C615.507 474.431 620.566 479.49 626.807 479.49H675.347C681.587 479.49 686.647 474.431 686.647 468.19V411.75C686.647 405.509 681.587 400.45 675.347 400.45Z" fill="black"/>
<path opacity="0.1" d="M502.707 592.41H364.697C359.152 592.41 354.656 596.905 354.656 602.45V661.41C354.656 666.955 359.152 671.45 364.697 671.45H502.707C508.251 671.45 512.747 666.955 512.747 661.41V602.45C512.747 596.905 508.251 592.41 502.707 592.41Z" fill="black"/>
<path opacity="0.1" d="M674.977 496.43H620.387C613.947 496.43 608.727 501.65 608.727 508.09V659.8C608.727 666.24 613.947 671.46 620.387 671.46H674.977C681.416 671.46 686.637 666.24 686.637 659.8V508.09C686.637 501.65 681.416 496.43 674.977 496.43Z" fill="black"/>
<path d="M680.987 238H649.847V241.37H680.987V238Z" fill="#6C63FF"/>
<path d="M635.397 238H604.257V241.37H635.397V238Z" fill="#6C63FF"/>
<path d="M589.797 238H558.656V241.37H589.797V238Z" fill="#6C63FF"/>
<path d="M544.207 238H513.067V241.37H544.207V238Z" fill="#6C63FF"/>
<path d="M879.847 474.56C883.057 463.76 879.847 452.96 879.847 452.96V442.77C879.847 442.77 883.517 422.85 867.137 410.07L856.277 400.49C856.277 400.49 850.187 395.26 848.417 394.93C848.087 394.859 847.753 394.809 847.417 394.78L847.097 394.59C846.163 392.994 845.367 391.321 844.717 389.59C845.42 389.681 846.134 389.609 846.805 389.38C847.476 389.152 848.086 388.772 848.587 388.27C848.979 387.819 849.287 387.3 849.497 386.74C850.127 385.33 850.237 383.62 850.767 382.12C851.231 380.904 851.909 379.78 852.767 378.8C852.657 378.98 852.537 379.15 852.437 379.34C853.977 377.42 855.987 375.78 857.437 373.76C857.724 373.359 857.988 372.942 858.227 372.51C858.167 372.6 858.087 372.68 858.017 372.77C860.017 369.56 860.627 365.67 861.207 361.92C861.486 360.644 861.506 359.324 861.267 358.04C860.986 357.188 860.624 356.364 860.187 355.58C857.827 350.71 857.867 344.58 854.097 340.69C851.257 337.78 846.957 336.89 842.907 336.39C838.857 335.89 834.597 335.6 831.117 333.48C830.145 332.744 829.07 332.154 827.927 331.73C827.351 331.529 826.724 331.535 826.153 331.747C825.582 331.959 825.102 332.363 824.797 332.89C824.725 333.202 824.581 333.493 824.377 333.74C824.195 333.843 823.993 333.903 823.785 333.915C823.577 333.927 823.369 333.891 823.177 333.81L817.787 332.37L817.847 332.64H817.707L817.907 333.49C818.012 333.471 818.121 333.49 818.214 333.543C818.307 333.596 818.379 333.68 818.417 333.78L817.547 335.12C815.879 335.09 814.231 334.751 812.687 334.12C812.677 334.206 812.677 334.294 812.687 334.38H812.607C812.507 335.9 814.237 336.89 814.767 338.32C814.979 338.946 814.979 339.624 814.767 340.25C814.55 340.83 814.209 341.356 813.767 341.79C811.857 343.68 809.407 343.31 807.207 344.5C807.017 344.581 806.846 344.703 806.708 344.857C806.57 345.01 806.467 345.192 806.407 345.39C806.32 345.538 806.294 345.714 806.337 345.88C806.424 346.11 806.581 346.306 806.787 346.44C807.427 346.958 808.129 347.394 808.877 347.74C808.657 347.94 808.447 348.14 808.247 348.35C805.454 351.188 803.409 354.673 802.292 358.494C801.176 362.315 801.023 366.353 801.848 370.248C802.673 374.142 804.45 377.772 807.02 380.812C809.59 383.852 812.874 386.208 816.577 387.67C816.657 388.09 816.717 388.52 816.777 388.97C816.777 389.02 816.777 389.05 816.777 389.1L816.837 389.68L809.577 392.77C808.482 392.762 807.411 392.442 806.491 391.849C805.57 391.256 804.837 390.414 804.377 389.42C802.687 385.93 796.717 389.42 796.717 389.42C796.717 389.42 778.507 388.06 771.717 391.42C771.717 391.42 760.847 386.86 759.317 386.55C757.787 386.24 755.497 385.03 754.427 385.34C753.357 385.65 751.977 383.34 751.207 383.51C750.437 383.68 750.137 381.99 747.687 381.38C745.237 380.77 744.317 381.54 741.567 378.8C738.817 376.06 716.457 365.26 716.457 365.26L706.417 357L695.707 348.48L695.517 348.83C695.447 348.58 695.377 348.32 695.307 348.04C694.241 343.796 692.905 339.624 691.307 335.55C690.617 333.9 690.307 331.82 689.377 332.92C688.807 333.58 687.837 332.13 686.377 331.15C686.067 330.936 685.714 330.794 685.342 330.734C684.971 330.674 684.591 330.697 684.23 330.803C683.869 330.908 683.536 331.093 683.255 331.343C682.974 331.593 682.753 331.903 682.607 332.25C674.267 345.33 671.277 346.25 676.107 351.06C680.417 355.33 683.277 359.06 686.787 360.24L687.207 360.37C687.131 360.39 687.052 360.39 686.977 360.37L707.337 384.71C707.337 384.71 722.027 397.49 732.137 401.59C742.247 405.69 741.467 406.92 741.467 406.92C741.467 406.92 772.087 422.43 776.827 422.13C781.567 421.83 780.657 453.92 778.667 459.13C776.677 464.34 773.467 501.72 773.467 501.72C773.467 501.72 770.397 509.63 773.617 515.1C773.617 515.1 774.327 525.58 773.687 528.1C770.897 532.4 766.917 539.7 766.267 547.21C766.267 547.61 766.187 547.98 766.147 548.37C765.943 548.607 765.699 548.807 765.427 548.96L766.107 548.76C765.817 551.89 765.146 554.973 764.107 557.94C762.488 562.107 761.631 566.53 761.577 571V595.16L759.577 610.16C759.577 610.16 757.127 621.51 759.577 624.16C760.609 625.481 761.09 627.152 760.917 628.82C760.814 630.757 761.363 632.672 762.477 634.26C762.902 634.725 763.214 635.282 763.387 635.887C763.561 636.493 763.591 637.131 763.477 637.75C762.667 640.38 764.677 668.37 764.677 668.37C764.677 668.37 764.087 676.08 763.277 676.49C762.467 676.9 764.677 685.41 764.677 685.41C764.677 685.41 756.407 692.31 758.517 695.96L760.627 699.2L760.067 699.75L759.727 700.1C759.089 699.732 758.345 699.591 757.617 699.7C755.017 702.359 752.238 704.835 749.297 707.11C745.567 709.8 735.417 713.7 735.417 713.7L727.417 714.35H727.267C727.267 714.35 723.437 713.99 725.587 719.92C727.737 725.85 746.957 724.03 746.957 724.03L758.177 722.26C758.177 722.26 778.177 722.36 783.907 721.09C786.297 720.56 786.907 719.28 786.707 717.99L786.647 717.93C786.372 716.7 785.81 715.552 785.007 714.58C784.965 714.516 784.919 714.456 784.867 714.4L785.227 710.3C793.717 705.41 782.827 695.79 782.827 695.79C782.827 695.79 786.557 687.68 788.467 685.05C790.377 682.42 790.377 643.67 790.377 643.67C790.377 643.67 791.377 629.67 788.747 626.43C788.701 625.375 788.943 624.327 789.447 623.399C789.951 622.471 790.697 621.697 791.607 621.16C793.497 619.87 799.207 602.1 803.687 587.35L806.507 604.73C806.507 604.73 805.897 613.05 807.727 615.48C808.071 615.938 808.316 616.463 808.447 617.02C808.577 617.578 808.591 618.157 808.487 618.72C808.053 621.052 808.193 623.455 808.897 625.72C809.112 626.692 809.634 627.569 810.387 628.22C812.017 629.03 812.117 631.92 812.727 632.53C813.337 633.14 817.117 631.67 817.317 633.9C817.431 635.858 817.431 637.822 817.317 639.78L818.547 675.88C818.547 675.88 816.547 678.88 816.097 686.88C815.927 690.29 815.287 692.23 814.627 693.34C814.26 693.936 814.092 694.632 814.146 695.329C814.2 696.026 814.473 696.688 814.927 697.22L815.277 697.63L813.767 698.79C813.16 699.261 812.735 699.928 812.563 700.677C812.392 701.426 812.485 702.212 812.827 702.9C812.34 703.324 811.991 703.884 811.825 704.507C811.659 705.131 811.684 705.791 811.897 706.4C811.958 706.6 812.046 706.792 812.157 706.97C811.009 707.15 809.945 707.677 809.107 708.48C807.598 710.552 805.78 712.38 803.717 713.9C800.722 716.195 797.854 718.652 795.127 721.26C793.841 723.01 792.116 724.39 790.127 725.26C789.639 725.458 789.133 725.609 788.617 725.71C784.617 726.53 785.867 730.71 789.127 731.4C792.387 732.09 803.207 735.4 811.627 733.47C811.627 733.47 814.127 734.47 817.797 732.61C821.467 730.75 829.657 728.47 829.657 728.47C829.657 728.47 834.247 728.47 834.867 726.65C835.028 726.07 835.115 725.472 835.127 724.87L835.257 724.74L835.137 724.63C835.148 723.267 835.044 721.906 834.827 720.56C834.707 719.86 834.577 719.24 834.457 718.74C834.067 717.22 833.337 715.25 833.027 714.42C833.079 714.354 833.126 714.284 833.167 714.21C834.917 711.21 832.007 704.09 832.007 704.09C832.962 702.574 834.123 701.198 835.457 700C837.087 698.78 841.377 667.14 841.377 667.14C841.377 667.14 841.167 659.03 843.377 655.38C845.587 651.73 840.317 629.63 840.317 629.63C840.317 629.63 838.067 624.56 838.887 622.73C839.707 620.9 838.067 614.21 838.067 614.21V606.21C838.062 605.258 837.903 604.312 837.597 603.41C836.967 601.53 836.037 597.92 837.047 595.33C838.477 591.68 841.737 569.17 841.737 569.17C841.737 569.17 839.187 559.24 842.927 551.33C843.219 550.698 843.553 550.087 843.927 549.5C846.697 545.15 845.867 537.42 844.497 531.19C844.297 530.19 844.067 529.29 843.837 528.42C843.747 528.04 843.647 527.68 843.547 527.32L843.987 527.14C843.987 527.14 843.987 526.55 844.127 525.54C845.637 525.241 847.069 524.635 848.335 523.759C849.601 522.884 850.674 521.757 851.487 520.45C851.487 520.45 860.827 509.95 869.087 505.54C877.347 501.13 877.967 494.74 877.967 494.74C876.747 492.61 880.157 483.94 880.157 483.94L879.847 474.56ZM852.907 488.56L844.067 498.81V498.75C841.767 495.55 846.207 488.4 846.207 488.4L853.557 472C853.497 474.1 853.237 476 852.557 476.83C850.557 479.57 856.237 484.14 856.237 484.14C853.207 484.15 852.907 488.56 852.907 488.56Z" fill="url(#paint0_linear)"/>
<path d="M697.267 354.17L692.437 363.54C690.908 363.409 689.4 363.094 687.947 362.6C685.643 361.912 683.512 360.744 681.694 359.172C679.875 357.6 678.41 355.66 677.397 353.48C673.087 343.96 680.217 337.81 683.537 335.99C686.857 334.17 689.947 332.1 692.437 338.07C694 342.12 695.306 346.265 696.347 350.48C696.927 352.67 697.267 354.17 697.267 354.17Z" fill="#CC818C"/>
<path d="M850.657 402.91L842.947 414.39C842.947 414.39 806.517 431.77 813.477 411.39C816.537 402.39 816.897 395.82 816.347 391.27C816.347 391.22 816.347 391.19 816.347 391.14C815.627 385.45 813.487 382.98 813.487 382.98C813.487 382.98 848.997 364.8 843.707 377.23C842.627 379.813 842.198 382.622 842.457 385.41C842.893 389.425 844.196 393.298 846.277 396.76C847.527 398.951 848.995 401.012 850.657 402.91Z" fill="#CC818C"/>
<path d="M839.567 630.32C839.567 630.32 844.807 652.32 842.567 655.91C840.327 659.5 840.567 667.6 840.567 667.6C840.567 667.6 836.337 699.04 834.727 700.24C833.405 701.409 832.251 702.755 831.297 704.24C831.297 704.24 834.177 711.36 832.447 714.3C832.18 714.748 831.777 715.098 831.297 715.3C828.597 716.44 818.617 711.38 812.937 708.3C812.479 708.05 812.089 707.693 811.799 707.26C811.509 706.826 811.328 706.329 811.271 705.811C811.214 705.293 811.283 704.769 811.472 704.283C811.661 703.797 811.964 703.364 812.357 703.02C812.015 702.338 811.92 701.559 812.088 700.816C812.255 700.072 812.675 699.409 813.277 698.94L814.777 697.78L814.427 697.37C813.978 696.84 813.707 696.181 813.653 695.488C813.599 694.796 813.765 694.103 814.127 693.51C814.777 692.42 815.407 690.51 815.577 687.1C815.987 679.24 817.997 676.22 817.997 676.22L816.787 640.34C816.901 638.395 816.901 636.445 816.787 634.5C816.587 632.29 812.857 633.75 812.257 633.14C811.657 632.53 811.547 629.67 809.937 628.86C809.195 628.209 808.683 627.335 808.477 626.37C807.765 624.106 807.624 621.701 808.067 619.37C808.17 618.811 808.157 618.236 808.028 617.682C807.899 617.128 807.657 616.606 807.317 616.15C805.507 613.73 806.107 605.48 806.107 605.48L803.327 588.2C798.897 602.86 793.267 620.52 791.397 621.8C790.499 622.337 789.764 623.107 789.267 624.027C788.771 624.948 788.532 625.985 788.577 627.03C791.197 630.26 790.187 644.17 790.187 644.17C790.187 644.17 790.187 682.65 788.297 685.28C786.407 687.91 782.747 696 782.747 696C782.747 696 793.547 705.61 785.047 710.46H784.957C776.287 715.3 758.357 701.8 758.357 701.8L760.227 699.93L760.777 699.38L758.657 696.22C756.577 692.59 764.737 685.74 764.737 685.74C764.737 685.74 762.557 677.27 763.357 676.87C764.157 676.47 764.737 668.81 764.737 668.81C764.737 668.81 762.737 641 763.557 638.38C763.666 637.764 763.632 637.13 763.459 636.529C763.286 635.928 762.977 635.374 762.557 634.91C761.456 633.332 760.914 631.431 761.017 629.51C761.191 627.853 760.714 626.192 759.687 624.88C757.267 622.26 759.687 610.98 759.687 610.98L761.687 596.06V572.37C761.714 567.797 762.571 563.267 764.217 559C765.438 555.541 766.179 551.931 766.417 548.27C767.077 540.63 771.187 533.21 773.947 528.98C775.407 526.74 776.497 525.4 776.497 525.4L840.977 522.88C840.977 522.88 841.977 525.75 843.057 529.74C843.277 530.61 843.497 531.53 843.707 532.49C845.057 538.69 845.867 546.37 843.137 550.69C842.766 551.276 842.432 551.883 842.137 552.51C838.447 560.37 840.967 570.24 840.967 570.24C840.967 570.24 837.747 592.6 836.337 596.24C835.337 598.81 836.257 602.4 836.887 604.24C837.181 605.141 837.333 606.082 837.337 607.03V615C837.337 615 838.957 621.65 838.147 623.47C837.337 625.29 839.567 630.32 839.567 630.32Z" fill="#444053"/>
<path opacity="0.1" d="M842.537 551.33C842.163 551.91 841.829 552.515 841.537 553.14L837.907 552.94C838.257 551.07 835.787 533.54 835.787 533.54L843.097 533.13C844.447 539.32 845.267 547 842.537 551.33Z" fill="black"/>
<path d="M843.136 550.72C842.766 551.306 842.432 551.913 842.136 552.54L838.506 552.33C838.856 550.47 836.386 532.93 836.386 532.93L843.696 532.52C845.056 538.72 845.866 546.4 843.136 550.72Z" fill="#444053"/>
<path opacity="0.05" d="M843.136 550.72C842.766 551.306 842.432 551.913 842.136 552.54L838.506 552.33C838.856 550.47 836.386 532.93 836.386 532.93L843.696 532.52C845.056 538.72 845.866 546.4 843.136 550.72Z" fill="black"/>
<path opacity="0.1" d="M832.456 714.34C832.19 714.788 831.787 715.138 831.307 715.34C828.607 716.48 818.626 711.42 812.946 708.34C812.238 707.948 811.699 707.306 811.437 706.54C814.677 705.95 816.797 709.54 816.797 709.54C817.337 709.201 817.939 708.974 818.568 708.872C819.198 708.769 819.841 708.794 820.461 708.944C821.08 709.094 821.664 709.366 822.177 709.745C822.689 710.124 823.121 710.602 823.446 711.15C826.216 715.23 832.156 713.51 832.156 713.51L832.456 714.34Z" fill="black"/>
<path d="M834.127 726.69C833.527 728.51 828.987 728.51 828.987 728.51C828.987 728.51 820.877 730.83 817.247 732.64C813.617 734.45 811.157 733.5 811.157 733.5C802.847 735.41 792.157 732.09 788.937 731.43C785.717 730.77 784.457 726.6 788.437 725.79C788.947 725.685 789.446 725.531 789.927 725.33C791.921 724.467 793.647 723.086 794.927 721.33C797.621 718.74 800.455 716.3 803.417 714.02C805.455 712.506 807.249 710.688 808.737 708.63C813.477 704.45 816.847 710.19 816.847 710.19C817.387 709.852 817.99 709.625 818.62 709.523C819.25 709.422 819.893 709.447 820.513 709.598C821.133 709.749 821.716 710.023 822.228 710.402C822.741 710.782 823.172 711.261 823.497 711.81C826.267 715.89 832.207 714.16 832.207 714.16C832.207 714.16 833.277 716.89 833.777 718.85C833.897 719.35 834.027 719.97 834.147 720.67C834.417 722.7 834.587 725.33 834.127 726.69Z" fill="#FF748F"/>
<path d="M820.267 713.95C820.57 713.95 820.817 713.704 820.817 713.4C820.817 713.096 820.57 712.85 820.267 712.85C819.963 712.85 819.717 713.096 819.717 713.4C819.717 713.704 819.963 713.95 820.267 713.95Z" fill="#575988"/>
<path d="M815.537 718.38C815.84 718.38 816.087 718.134 816.087 717.83C816.087 717.526 815.84 717.28 815.537 717.28C815.233 717.28 814.987 717.526 814.987 717.83C814.987 718.134 815.233 718.38 815.537 718.38Z" fill="#575988"/>
<path d="M810.727 722.36C811.03 722.36 811.276 722.114 811.276 721.81C811.276 721.506 811.03 721.26 810.727 721.26C810.423 721.26 810.177 721.506 810.177 721.81C810.177 722.114 810.423 722.36 810.727 722.36Z" fill="#575988"/>
<path d="M813.216 720.58C813.52 720.58 813.766 720.334 813.766 720.03C813.766 719.726 813.52 719.48 813.216 719.48C812.913 719.48 812.667 719.726 812.667 720.03C812.667 720.334 812.913 720.58 813.216 720.58Z" fill="#575988"/>
<path d="M818.007 716.03C818.31 716.03 818.557 715.784 818.557 715.48C818.557 715.176 818.31 714.93 818.007 714.93C817.703 714.93 817.457 715.176 817.457 715.48C817.457 715.784 817.703 716.03 818.007 716.03Z" fill="#575988"/>
<path d="M834.127 726.69C833.527 728.51 828.987 728.51 828.987 728.51C828.987 728.51 820.877 730.83 817.247 732.64C813.617 734.45 811.157 733.5 811.157 733.5C802.847 735.41 792.157 732.09 788.937 731.43C785.717 730.77 784.457 726.6 788.437 725.79C788.947 725.685 789.446 725.531 789.927 725.33C793.442 726.54 797.113 727.237 800.827 727.4C809.037 727.75 815.537 727.4 815.537 727.4L823.847 724.73C825.42 723.776 827.167 723.143 828.987 722.87C830.826 722.495 832.567 721.739 834.097 720.65C834.417 722.7 834.587 725.33 834.127 726.69Z" fill="#DCE6F2"/>
<path opacity="0.5" d="M813.446 731.9C812.983 731.903 812.521 731.86 812.066 731.77L812.186 731.18C813.886 731.44 815.624 731.197 817.186 730.48C817.926 730.19 818.666 729.84 819.386 729.48C820.106 729.12 821.116 728.67 822.016 728.34L822.836 728.06C823.286 727.9 823.746 727.75 824.186 727.56C824.436 727.46 824.686 727.34 824.926 727.22C825.517 726.911 826.141 726.673 826.786 726.51C827.117 726.448 827.451 726.405 827.786 726.38C828.095 726.359 828.402 726.323 828.706 726.27C829.311 726.117 829.898 725.899 830.456 725.62C831.053 725.313 831.684 725.078 832.336 724.92L832.776 724.85C833.251 724.838 833.708 724.669 834.076 724.37L834.526 724.78C834.068 725.183 833.486 725.419 832.876 725.45L832.456 725.52C831.85 725.668 831.263 725.887 830.706 726.17C830.107 726.468 829.476 726.699 828.826 726.86C828.497 726.925 828.162 726.965 827.826 726.98C827.511 727.003 827.197 727.043 826.886 727.1C826.286 727.255 825.705 727.48 825.156 727.77L824.396 728.12C823.936 728.31 823.456 728.47 822.996 728.63L822.196 728.91C821.316 729.23 820.456 729.64 819.616 730.03C818.776 730.42 818.136 730.73 817.376 731.03C816.132 731.561 814.799 731.856 813.446 731.9Z" fill="#575988"/>
<path opacity="0.1" d="M815.386 631.78C815.386 631.78 819.567 625.78 826.727 625.78C833.887 625.78 836.946 624.97 836.946 624.97C836.946 624.97 832.366 627.69 829.196 628.04C826.026 628.39 815.386 631.78 815.386 631.78Z" fill="black"/>
<path opacity="0.1" d="M817.807 633.19C817.807 633.19 821.587 630.57 823.747 630.47C825.907 630.37 827.747 630.17 827.747 630.17C826.733 630.881 825.612 631.425 824.427 631.78C822.657 632.28 817.807 633.19 817.807 633.19Z" fill="black"/>
<path opacity="0.1" d="M818.656 635C818.656 635 824.346 635.45 824.396 637L818.656 635Z" fill="black"/>
<path opacity="0.1" d="M765.586 550C765.886 550.05 770.976 544.71 771.326 542.6C771.604 541.264 772.399 540.093 773.536 539.34C773.536 539.34 776.816 540.65 773.896 544.67C770.976 548.69 765.586 550 765.586 550Z" fill="black"/>
<path opacity="0.1" d="M843.656 377.21C842.496 379.95 841.476 380.21 841.656 382.82C840.307 384.25 838.753 385.473 837.047 386.45C833.447 388.59 829.527 392.78 825.047 392.78C822.045 392.782 819.07 392.219 816.276 391.12C815.556 385.43 813.417 382.96 813.417 382.96C813.417 382.96 848.936 364.78 843.656 377.21Z" fill="black"/>
<path d="M849.096 367.54C849.096 372.287 847.689 376.927 845.052 380.874C842.415 384.82 838.666 387.897 834.281 389.713C829.895 391.53 825.07 392.005 820.414 391.079C815.759 390.153 811.482 387.867 808.126 384.511C804.769 381.154 802.484 376.878 801.558 372.222C800.632 367.567 801.107 362.741 802.923 358.356C804.74 353.97 807.816 350.222 811.763 347.585C815.71 344.948 820.35 343.54 825.096 343.54C831.462 343.54 837.566 346.069 842.067 350.569C846.568 355.07 849.096 361.175 849.096 367.54Z" fill="#CC818C"/>
<path opacity="0.1" d="M850.657 402.91L842.947 414.39C842.947 414.39 806.517 431.77 813.477 411.39C816.537 402.39 816.897 395.82 816.347 391.27H816.407C816.837 392.778 817.083 394.333 817.137 395.9C817.247 399.04 817.327 403.01 825.137 404.32C838.137 406.5 845.077 398.38 846.297 396.79C847.543 398.97 849.003 401.02 850.657 402.91Z" fill="black"/>
<path opacity="0.1" d="M697.267 354.17L692.437 363.54C690.908 363.409 689.4 363.094 687.947 362.6L687.527 362.1C689.527 362.86 696.137 350.31 696.137 350.31L696.347 350.48C696.927 352.67 697.267 354.17 697.267 354.17Z" fill="black"/>
<path opacity="0.1" d="M843.057 529.77C827.497 536.53 773.677 530.77 773.677 530.77C773.837 530.196 773.928 529.605 773.946 529.01C775.406 526.77 776.497 525.43 776.497 525.43L840.977 522.91C840.977 522.91 842.027 525.78 843.057 529.77Z" fill="black"/>
<path d="M816.367 391.83L809.187 394.9C808.103 394.891 807.045 394.573 806.136 393.983C805.227 393.393 804.506 392.556 804.057 391.57C802.387 388.1 796.497 391.57 796.497 391.57C796.497 391.57 778.497 390.21 771.857 393.57C771.857 393.57 761.127 389.03 759.617 388.73C758.107 388.43 755.836 387.22 754.776 387.52C753.716 387.82 752.367 385.52 751.607 385.71C750.847 385.9 750.546 384.2 748.126 383.59C745.706 382.98 744.806 383.74 742.126 381.02C739.446 378.3 717.336 367.57 717.336 367.57L707.336 359.41L696.756 350.95C696.756 350.95 690.106 363.49 688.136 362.73L708.237 386.92C708.237 386.92 722.747 399.61 732.727 403.69C742.707 407.77 741.946 408.98 741.946 408.98C741.946 408.98 772.177 424.4 776.857 424.1C781.537 423.8 780.656 455.65 778.656 460.79C776.656 465.93 773.526 503.11 773.526 503.11C773.526 503.11 770.527 510.97 773.677 516.41C773.677 516.41 774.427 527.6 773.677 529.56C773.677 529.56 827.826 535.35 843.196 528.5C843.196 528.5 845.466 503.41 843.196 500.24C840.926 497.07 845.316 490 845.316 490L854.987 468.39L878.566 444.66C878.566 444.66 882.186 424.86 866.016 412.17L855.286 402.64C855.286 402.64 849.286 397.45 847.526 397.12C845.766 396.79 846.417 397.12 846.417 397.12C846.417 397.12 839.417 407.33 825.057 404.91C817.277 403.6 817.197 399.63 817.057 396.5C817.016 394.921 816.784 393.353 816.367 391.83Z" fill="#67647E"/>
<path opacity="0.1" d="M845.917 473.19C845.917 473.19 812.657 474.55 806.017 485C806.017 485 814.637 480.91 822.337 482.12C830.037 483.33 845.917 473.19 845.917 473.19Z" fill="black"/>
<path opacity="0.1" d="M809.187 509.61C809.187 509.61 824.907 510.67 828.237 507.34C831.567 504.01 831.576 502.05 831.576 502.05L809.187 509.61Z" fill="black"/>
<path opacity="0.1" d="M849.097 441.14C849.097 441.14 835.787 456.86 851.967 463.66L849.097 441.14Z" fill="black"/>
<path opacity="0.1" d="M770.347 410.77C770.347 410.77 775.187 420.64 777.607 421.29L770.347 410.77Z" fill="black"/>
<path opacity="0.1" d="M754.027 406.53C754.027 406.53 766.117 417.42 768.387 418.47C768.387 418.47 755.837 406.53 754.027 406.53Z" fill="black"/>
<path opacity="0.1" d="M802.237 396.11C802.237 396.11 790.597 413.49 798.157 424.11C798.157 424.07 793.927 411.52 802.237 396.11Z" fill="black"/>
<path d="M831.577 527.75L828.017 531.1L827.517 531.56L823.397 535.46C823.107 535.68 822.817 535.9 822.517 536.1C805.747 548.1 802.387 529.86 802.387 529.86C802.387 529.86 794.987 534.7 793.927 530.77C792.867 526.84 811.157 521.25 813.927 521.55C814.169 521.575 814.414 521.575 814.657 521.55C815.978 521.33 817.251 520.88 818.417 520.22L819.227 519.79C820.158 519.266 821.062 518.695 821.937 518.08L831.577 527.75Z" fill="#CC818C"/>
<path opacity="0.1" d="M849.657 367.54C849.665 371.703 848.592 375.796 846.54 379.418C844.489 383.04 841.531 386.067 837.957 388.2C837.622 387.639 837.328 387.054 837.077 386.45C836.217 384.45 835.687 382.29 834.817 380.28C833.865 378.086 832.508 376.091 830.817 374.4C830.53 374.065 830.161 373.81 829.747 373.66C829.358 373.606 828.962 373.633 828.584 373.738C828.205 373.843 827.852 374.024 827.547 374.27C826.529 374.96 825.393 375.458 824.197 375.74C823.598 375.877 822.974 375.858 822.385 375.682C821.796 375.507 821.263 375.182 820.837 374.74C819.897 373.62 820.027 371.98 820.297 370.55C820.887 367.42 821.867 364.34 821.877 361.16C821.887 357.98 820.667 354.56 817.877 352.98C815.437 351.59 812.407 351.98 809.697 351.2C809.277 351.09 808.866 350.95 808.467 350.78C811.798 347.36 816.074 345.012 820.748 344.036C825.421 343.059 830.28 343.499 834.702 345.298C839.124 347.098 842.909 350.175 845.573 354.137C848.237 358.099 849.659 362.766 849.657 367.54Z" fill="black"/>
<path d="M806.827 346.94C806.397 347.17 805.917 347.59 806.047 348.07C806.13 348.299 806.284 348.495 806.487 348.63C807.606 349.534 808.9 350.197 810.287 350.58C812.997 351.32 816.037 350.97 818.477 352.36C821.237 353.93 822.477 357.36 822.477 360.54C822.477 363.72 821.477 366.8 820.907 369.92C820.637 371.36 820.497 373 821.437 374.12C821.864 374.56 822.398 374.883 822.986 375.058C823.574 375.233 824.198 375.254 824.797 375.12C825.993 374.843 827.129 374.348 828.147 373.66C828.454 373.412 828.808 373.229 829.188 373.123C829.568 373.016 829.965 372.988 830.357 373.04C830.768 373.197 831.135 373.45 831.427 373.78C833.119 375.474 834.476 377.472 835.427 379.67C836.307 381.67 836.827 383.82 837.687 385.84C838.436 387.9 839.841 389.657 841.687 390.84C843.607 391.9 846.267 391.84 847.747 390.2C849.227 388.56 849.107 386.31 849.807 384.34C851.007 380.91 854.357 378.76 856.457 375.8C858.807 372.47 859.457 368.29 860.097 364.26C860.381 362.991 860.402 361.677 860.157 360.4C859.882 359.555 859.527 358.737 859.097 357.96C856.757 353.12 856.807 347.03 853.097 343.17C850.297 340.27 846.047 339.39 842.047 338.89C838.047 338.39 833.847 338.11 830.417 336C829.455 335.273 828.394 334.687 827.267 334.26C826.696 334.059 826.073 334.065 825.506 334.277C824.939 334.489 824.465 334.894 824.167 335.42C824.096 335.728 823.956 336.015 823.757 336.26C823.577 336.363 823.376 336.424 823.17 336.436C822.963 336.448 822.757 336.412 822.567 336.33L817.247 334.9L817.857 337.58C815.923 337.661 813.995 337.32 812.207 336.58C812.107 338.1 813.817 339.08 814.347 340.5C814.538 341.146 814.545 341.832 814.369 342.482C814.192 343.132 813.838 343.72 813.347 344.18C811.417 346.12 809.007 345.75 806.827 346.94Z" fill="#585268"/>
<path opacity="0.1" d="M785.266 708.06L785.046 710.47H784.956C776.286 715.31 758.356 701.81 758.356 701.81L760.226 699.94C760.533 700.28 760.765 700.682 760.906 701.118C761.047 701.553 761.095 702.014 761.046 702.47L764.706 702.67L769.086 707.4C769.086 707.4 780.936 708.77 784.146 708.01L785.266 708.06Z" fill="black"/>
<path d="M783.747 721.2C778.107 722.46 758.357 722.37 758.357 722.37L747.276 724.12C747.276 724.12 728.277 725.94 726.167 720.04C724.057 714.14 727.826 714.51 727.826 714.51H727.977L735.886 713.87C735.886 713.87 745.886 709.99 749.596 707.32C752.5 705.059 755.243 702.6 757.807 699.96C757.807 699.96 761.107 699.32 761.047 703.14L764.706 703.34L769.086 708.08C769.086 708.08 780.936 709.45 784.146 708.68H785.266L784.756 714.53L784.896 714.7C785.656 715.62 788.787 720.08 783.747 721.2Z" fill="#FF748F"/>
<path d="M763.297 707.09C763.6 707.09 763.847 706.844 763.847 706.54C763.847 706.236 763.6 705.99 763.297 705.99C762.993 705.99 762.747 706.236 762.747 706.54C762.747 706.844 762.993 707.09 763.297 707.09Z" fill="#575988"/>
<path d="M749.087 713.25C749.39 713.25 749.637 713.004 749.637 712.7C749.637 712.396 749.39 712.15 749.087 712.15C748.783 712.15 748.537 712.396 748.537 712.7C748.537 713.004 748.783 713.25 749.087 713.25Z" fill="#575988"/>
<path d="M741.767 715.47C742.07 715.47 742.317 715.224 742.317 714.92C742.317 714.616 742.07 714.37 741.767 714.37C741.463 714.37 741.217 714.616 741.217 714.92C741.217 715.224 741.463 715.47 741.767 715.47Z" fill="#575988"/>
<path d="M752.817 712.07C753.12 712.07 753.367 711.824 753.367 711.52C753.367 711.216 753.12 710.97 752.817 710.97C752.513 710.97 752.267 711.216 752.267 711.52C752.267 711.824 752.513 712.07 752.817 712.07Z" fill="#575988"/>
<path d="M745.417 714.36C745.72 714.36 745.967 714.114 745.967 713.81C745.967 713.506 745.72 713.26 745.417 713.26C745.113 713.26 744.867 713.506 744.867 713.81C744.867 714.114 745.113 714.36 745.417 714.36Z" fill="#575988"/>
<path d="M756.587 710.32C756.89 710.32 757.137 710.074 757.137 709.77C757.137 709.466 756.89 709.22 756.587 709.22C756.283 709.22 756.037 709.466 756.037 709.77C756.037 710.074 756.283 710.32 756.587 710.32Z" fill="#575988"/>
<path d="M760.317 708.7C760.62 708.7 760.867 708.454 760.867 708.15C760.867 707.846 760.62 707.6 760.317 707.6C760.013 707.6 759.767 707.846 759.767 708.15C759.767 708.454 760.013 708.7 760.317 708.7Z" fill="#575988"/>
<path d="M783.747 721.2C778.107 722.46 758.357 722.37 758.357 722.37L747.276 724.12C747.276 724.12 728.277 725.94 726.167 720.04C724.057 714.14 727.826 714.51 727.826 714.51H727.977C729.187 716.08 731.616 717.86 736.386 717.95L750.047 718.5L764.196 717.5C764.196 717.5 777.457 717.11 779.617 716.65C781.431 716.162 783.198 715.512 784.896 714.71C785.656 715.62 788.787 720.08 783.747 721.2Z" fill="#DCE6F2"/>
<path opacity="0.5" d="M748.346 722.79C747.59 722.8 746.837 722.706 746.106 722.51L746.266 721.93C748.13 722.331 750.066 722.245 751.886 721.68C752.556 721.5 753.216 721.31 753.886 721.11C755.097 720.726 756.329 720.416 757.576 720.18C759.592 719.918 761.629 719.858 763.656 720H764.086C770.145 720.318 776.22 720.047 782.226 719.19C783.652 719.091 785.009 718.545 786.106 717.63L786.536 718.06C785.351 719.067 783.877 719.673 782.326 719.79C776.28 720.652 770.165 720.923 764.066 720.6H763.626C761.625 720.46 759.615 720.52 757.626 720.78C756.405 721.008 755.2 721.312 754.016 721.69C753.346 721.89 752.676 722.09 752.016 722.26C750.819 722.586 749.587 722.764 748.346 722.79Z" fill="#575988"/>
<path opacity="0.1" d="M831.576 527.75L828.016 531.1L819.177 519.78C820.108 519.256 821.012 518.685 821.886 518.07L831.576 527.75Z" fill="black"/>
<path d="M871.657 435L878.657 444.67V454.8C878.657 454.8 881.827 465.53 878.657 476.26L878.997 485.63C878.997 485.63 875.627 494.24 876.837 496.36C876.837 496.36 876.237 502.71 868.077 507.09C859.917 511.47 850.657 521.85 850.657 521.85C850.657 521.85 847.177 528.5 837.807 526.99L828.887 530.77L818.617 517.62L832.517 510.06C832.517 510.06 837.357 503.57 840.227 503.87L852.017 490.11C852.017 490.11 852.317 485.73 855.337 485.73C855.337 485.73 849.747 481.2 851.707 478.48C853.667 475.76 852.017 463.66 852.017 463.66L871.657 435Z" fill="#67647E"/>
<path opacity="0.1" d="M858.656 479.08C858.656 479.08 874.527 478.78 876.487 482.86C878.447 486.94 863.446 476.81 858.656 479.08Z" fill="black"/>
<path opacity="0.1" d="M827.587 530.77C827.589 531.035 827.565 531.3 827.517 531.56C827.334 532.777 826.737 533.894 825.825 534.721C824.914 535.548 823.745 536.035 822.517 536.1H822.237C820.82 536.1 819.462 535.537 818.461 534.536C817.459 533.535 816.897 532.176 816.897 530.76C816.898 530.171 816.999 529.586 817.197 529.03C814.677 527.03 814.537 523.35 814.607 521.53C815.928 521.31 817.201 520.86 818.367 520.2C819.024 522.089 819.907 523.892 820.997 525.57C821.403 525.474 821.819 525.424 822.237 525.42C822.939 525.42 823.635 525.558 824.284 525.827C824.933 526.096 825.523 526.49 826.02 526.987C826.516 527.484 826.91 528.074 827.179 528.723C827.448 529.372 827.587 530.067 827.587 530.77Z" fill="black"/>
<path d="M818.847 519C818.847 519 815.267 519.81 815.267 520.46C815.267 521.11 814.457 527.01 818.387 529.46C822.317 531.91 821.917 526.08 821.917 526.08C821.917 526.08 818.537 520.9 818.847 519Z" fill="#575988"/>
<path d="M822.837 536.11C825.786 536.11 828.177 533.719 828.177 530.77C828.177 527.821 825.786 525.43 822.837 525.43C819.887 525.43 817.497 527.821 817.497 530.77C817.497 533.719 819.887 536.11 822.837 536.11Z" fill="#E4AAB4"/>
<path d="M822.837 535.35C825.366 535.35 827.417 533.299 827.417 530.77C827.417 528.241 825.366 526.19 822.837 526.19C820.307 526.19 818.257 528.241 818.257 530.77C818.257 533.299 820.307 535.35 822.837 535.35Z" fill="#DCE6F2"/>
<path opacity="0.1" d="M802.036 532.84C802.036 532.84 813.326 542.2 827.826 536.26V540.8C827.826 540.8 818.156 547.45 809.396 543.42C800.636 539.39 802.036 532.84 802.036 532.84Z" fill="black"/>
<path opacity="0.1" d="M802.036 531.63C802.036 531.63 813.326 541 827.826 535.05V539.59C827.826 539.59 818.156 546.24 809.396 542.21C800.636 538.18 802.036 531.63 802.036 531.63Z" fill="black"/>
<path d="M802.036 531.63C802.036 531.63 813.326 541 827.826 535.05V539.59C827.826 539.59 818.156 546.24 809.396 542.21C800.636 538.18 802.036 531.63 802.036 531.63Z" fill="#444053"/>
<path opacity="0.05" d="M802.336 531.63C802.336 531.63 813.626 541 828.136 535.05V539.59C828.136 539.59 818.466 546.24 809.696 542.21C800.926 538.18 802.336 531.63 802.336 531.63Z" fill="black"/>
<path opacity="0.1" d="M766.566 699.94C766.566 699.94 781.686 702.72 783.896 703.32C786.106 703.92 783.296 704.98 783.296 704.98C783.296 704.98 769.496 702.51 766.566 699.94Z" fill="black"/>
<path opacity="0.1" d="M766.217 691.93C766.467 691.93 776.497 689.11 778.657 684.28L766.217 691.93Z" fill="black"/>
<path opacity="0.1" d="M780.847 634.1C780.847 634.1 784.907 639.44 787.527 639.29C790.147 639.14 783.227 633.9 780.847 634.1Z" fill="black"/>
<path opacity="0.1" d="M783.097 643C783.097 643 784.807 646.77 787.327 645.56L783.097 643Z" fill="black"/>
<path opacity="0.05" d="M792.656 560L803.376 588.27C803.376 588.27 804.886 570.08 801.696 564.64C800.79 563.084 799.457 561.82 797.855 560.998C796.253 560.176 794.449 559.83 792.656 560Z" fill="black"/>
<g opacity="0.1">
<path opacity="0.1" d="M818.997 336L818.906 335.59L817.187 335.13L817.376 335.97C817.915 336.01 818.456 336.02 818.997 336Z" fill="black"/>
<path opacity="0.1" d="M814.267 342.82L814.446 342.66C814.939 342.2 815.294 341.612 815.47 340.962C815.647 340.312 815.639 339.626 815.446 338.98C815.239 338.478 814.948 338.015 814.587 337.61C813.739 337.443 812.909 337.199 812.107 336.88C812.007 338.39 813.707 339.37 814.237 340.79C814.482 341.443 814.493 342.16 814.267 342.82Z" fill="black"/>
<path opacity="0.1" d="M842.857 389.29C840.993 388.115 839.569 386.357 838.807 384.29C837.957 382.29 837.427 380.13 836.557 378.13C835.606 375.932 834.249 373.934 832.557 372.24C832.268 371.907 831.9 371.653 831.487 371.5C831.098 371.449 830.702 371.476 830.324 371.581C829.946 371.686 829.593 371.866 829.287 372.11C828.269 372.8 827.133 373.298 825.937 373.58C825.338 373.715 824.714 373.695 824.126 373.519C823.537 373.344 823.004 373.021 822.577 372.58C821.637 371.46 821.767 369.81 822.037 368.38C822.627 365.26 823.607 362.17 823.617 359C823.627 355.83 822.407 352.39 819.617 350.82C817.177 349.43 814.147 349.82 811.437 349.04C810.046 348.658 808.75 347.994 807.626 347.09C807.555 347.032 807.488 346.968 807.427 346.9C807.199 346.987 806.979 347.091 806.767 347.21C806.327 347.44 805.857 347.86 805.977 348.34C806.067 348.568 806.224 348.763 806.427 348.9C807.545 349.806 808.839 350.47 810.227 350.85C812.937 351.59 815.967 351.24 818.407 352.63C821.167 354.2 822.407 357.63 822.407 360.81C822.407 363.99 821.407 367.07 820.827 370.19C820.557 371.63 820.427 373.27 821.367 374.39C821.794 374.831 822.327 375.154 822.916 375.329C823.504 375.505 824.128 375.525 824.727 375.39C825.923 375.113 827.059 374.618 828.077 373.93C828.382 373.683 828.734 373.5 829.113 373.393C829.491 373.287 829.887 373.258 830.277 373.31C830.689 373.464 831.057 373.718 831.347 374.05C833.035 375.747 834.392 377.745 835.347 379.94C836.227 381.94 836.747 384.09 837.607 386.11C838.356 388.17 839.761 389.927 841.607 391.11C843.517 392.17 846.187 392.11 847.607 390.47C848 390.025 848.305 389.509 848.507 388.95C847.7 389.551 846.736 389.903 845.732 389.964C844.729 390.024 843.729 389.79 842.857 389.29Z" fill="black"/>
<path opacity="0.1" d="M851.497 381.6C853.007 379.69 854.997 378.06 856.417 376.06C856.697 375.66 856.957 375.24 857.197 374.82C855.367 377.15 852.857 379 851.497 381.6Z" fill="black"/>
</g>
<defs>
<linearGradient id="paint0_linear" x1="777.537" y1="734.08" x2="777.537" y2="330.7" gradientUnits="userSpaceOnUse">
<stop stop-color="#808080" stop-opacity="0.25"/>
<stop offset="0.54" stop-color="#808080" stop-opacity="0.12"/>
<stop offset="1" stop-color="#808080" stop-opacity="0.1"/>
</linearGradient>
</defs>
</svg>
