<svg width="538" height="410" viewBox="0 0 538 410" fill="none" xmlns="http://www.w3.org/2000/svg">
<g clip-path="url(#clip0)">
<path opacity="0.1" d="M306.735 64.8471C272.889 63.6704 240.654 52.7458 209.867 40.7909C179.081 28.8361 148.597 15.5948 115.562 9.2565C94.3141 5.18265 70.0174 4.60739 52.8958 15.9974C36.4223 26.9796 31.0986 45.8846 28.2328 63.4455C26.0834 76.6555 24.8179 90.561 30.7168 102.929C34.8116 111.516 42.086 118.733 47.1168 126.954C64.6153 155.57 52.2471 190.88 33.2898 218.801C24.3995 231.912 14.0763 244.426 7.20983 258.368C0.343396 272.31 -2.83096 288.308 3.17261 302.542C9.12909 316.662 23.317 327.247 38.6867 334.699C69.8972 349.865 106.672 354.169 142.552 356.622C221.948 362.055 301.772 359.702 381.377 357.349C410.84 356.475 440.429 355.591 469.417 351.036C485.509 348.511 502.128 344.494 513.811 334.825C528.644 322.52 532.32 301.685 522.382 286.252C505.71 260.371 459.627 253.944 447.96 226.17C441.543 210.878 448.133 193.851 457.452 179.668C477.45 149.253 510.966 122.566 512.734 87.7997C513.947 63.9214 497.835 40.0065 472.921 28.7054C446.804 16.8656 410.595 18.356 391.339 37.9565C371.477 58.1166 336.606 65.893 306.735 64.8471Z" fill="#6C63FF"/>
<path opacity="0.1" d="M303.194 394.405C410.341 394.405 497.202 387.948 497.202 379.982C497.202 372.017 410.341 365.559 303.194 365.559C196.047 365.559 109.187 372.017 109.187 379.982C109.187 387.948 196.047 394.405 303.194 394.405Z" fill="#6C63FF"/>
<path d="M153.184 333.266C153.184 333.266 164.165 331.509 170.755 339.275C170.755 339.275 165.922 343.082 155.526 337.811L153.184 333.266Z" fill="#6C63FF"/>
<path d="M152.001 333.125C152.001 333.125 144.999 341.764 148.435 351.35C148.435 351.35 154.145 349.06 154.768 337.419L152.001 333.125Z" fill="#6C63FF"/>
<path d="M145.726 318.917C145.726 318.917 150.119 310.863 167.69 322.138C167.69 322.138 165.347 327.556 157.586 327.117C149.826 326.677 147.765 323.189 145.726 318.917Z" fill="#6C63FF"/>
<path d="M144.581 318.336C144.581 318.336 135.466 317.29 134.582 338.161C134.582 338.161 140.361 339.359 144.466 332.759C148.571 326.159 146.877 322.457 144.581 318.336Z" fill="#6C63FF"/>
<path d="M139.273 301.695C139.273 301.695 144.398 287.492 162.994 297.595C162.994 297.595 158.748 310.627 141.176 306.527L139.273 301.695Z" fill="#6C63FF"/>
<path d="M133.556 280.463C133.556 280.463 143.226 266.108 160.358 279.417C160.358 279.417 154.355 292.888 135.021 285.567L133.556 280.463Z" fill="#6C63FF"/>
<path d="M131.507 260.251C131.507 260.251 142.787 247.072 159.773 260.251C159.773 260.251 149.084 271.819 131.507 263.619V260.251Z" fill="#6C63FF"/>
<path d="M129.749 240.629C129.749 240.629 141.176 226.865 157.43 239.897C157.43 239.897 144.544 252.051 129.749 243.851V240.629Z" fill="#6C63FF"/>
<path d="M130.775 223.204C130.775 223.204 142.803 205.481 158.016 217.493C158.016 217.493 145.13 232.722 130.775 226.572V223.204Z" fill="#6C63FF"/>
<path d="M133.556 202.845C133.556 202.845 146.301 185.274 161.09 198.745C161.09 198.745 146.008 213.979 133.556 206.067V202.845Z" fill="#6C63FF"/>
<path d="M137.809 184.652C137.809 184.652 152.891 168.142 166.048 174.715C166.048 174.715 150.328 192.25 137.15 189.029L137.809 184.652Z" fill="#6C63FF"/>
<path d="M143.08 167.41C143.08 167.41 160.505 147.202 170.609 153.938C170.609 153.938 157.786 169.627 141.846 171.196L143.08 167.41Z" fill="#6C63FF"/>
<path d="M150.689 147.407C150.689 147.407 165.923 130.892 177.051 134.992C177.051 134.992 164.019 152.124 148.644 152.563L150.689 147.407Z" fill="#6C63FF"/>
<path d="M157.576 128.695C157.576 128.695 174.415 112.876 181.737 115.658C181.737 115.658 169.584 133.234 156.844 132.209L157.576 128.695Z" fill="#6C63FF"/>
<path d="M164.312 111.39C164.312 111.39 178.809 92.5009 186.716 93.9652C186.716 93.9652 177.93 110.805 164.312 113.315V111.39Z" fill="#6C63FF"/>
<path d="M171.623 88.1189C171.623 88.1189 184.435 73.6329 191.354 73.6695C191.354 73.6695 181.24 93.019 171.095 92.8412L171.623 88.1189Z" fill="#6C63FF"/>
<path d="M175.953 72.6075L188.326 42.438C188.326 42.438 188.949 69.7103 174.379 78.2032L175.953 72.6075Z" fill="#6C63FF"/>
<path d="M180.978 39.3368C180.978 39.3368 183.028 14.1511 181.71 12.1011C181.71 12.1011 190.559 33.0194 180.889 50.4654L180.978 39.3368Z" fill="#6C63FF"/>
<path d="M138.792 301.355C138.792 301.355 125.958 293.401 117.649 312.86C117.649 312.86 129.07 320.438 140.298 306.318L138.792 301.355Z" fill="#6C63FF"/>
<path d="M133.175 279.652C133.175 279.652 117.434 272.472 109.794 292.789C109.794 292.789 121.958 301.156 134.608 284.788L133.175 279.652Z" fill="#6C63FF"/>
<path d="M130.775 261.48C130.775 261.48 119.5 248.301 102.535 261.48C102.535 261.48 113.224 273.048 130.775 264.848V261.48Z" fill="#6C63FF"/>
<path d="M129.368 240.629C129.368 240.629 117.947 226.865 101.688 239.897C101.688 239.897 114.579 252.051 129.368 243.851V240.629Z" fill="#6C63FF"/>
<path d="M130.775 223.706C130.775 223.706 122.763 203.834 105.349 212.395C105.349 212.395 114.762 229.992 130.069 226.996L130.775 223.706Z" fill="#6C63FF"/>
<path d="M134.566 202.746C134.566 202.746 126.607 182.555 108.941 191.921C108.941 191.921 119.756 210.428 133.782 205.868L134.566 202.746Z" fill="#6C63FF"/>
<path d="M139.503 184.756C139.503 184.756 136.365 162.619 121.722 160.637C121.722 160.637 124.824 183.982 137.526 188.746L139.503 184.756Z" fill="#6C63FF"/>
<path d="M143.451 167.446C143.451 167.446 142.228 140.775 130.121 139.85C130.121 139.85 130.529 160.093 142.086 171.227L143.451 167.446Z" fill="#6C63FF"/>
<path d="M151.944 146.643C151.944 146.643 148.331 124.464 136.778 121.75C136.778 121.75 138.211 143.233 150.804 152.082L151.944 146.643Z" fill="#6C63FF"/>
<path d="M158.946 128.852C158.946 128.852 158.821 105.753 151.766 102.354C151.766 102.354 147.383 123.272 156.901 131.801L158.946 128.852Z" fill="#6C63FF"/>
<path d="M164.85 111.155C164.85 111.155 163.862 87.3654 156.551 84.0132C156.551 84.0132 154.046 102.84 163.752 112.713L164.85 111.155Z" fill="#6C63FF"/>
<path d="M172.642 90.0115C172.642 90.0115 172.596 70.662 167.382 66.1279C167.382 66.1279 162.189 87.3235 169.918 93.9075L172.642 90.0115Z" fill="#6C63FF"/>
<path d="M175.336 71.6456L170.263 39.4365C170.263 39.4365 163.366 65.825 175.582 77.4504L175.336 71.6456Z" fill="#6C63FF"/>
<path d="M176.33 39.6455C176.33 39.6455 163.298 17.995 163.564 15.5894C163.564 15.5894 164.95 38.2806 181.345 49.5817L176.33 39.6455Z" fill="#6C63FF"/>
<path d="M177.857 33.2497C177.857 33.2497 165.557 2.49974 159.993 0C159.993 0 177.564 8.93214 178.882 32.3607L177.857 33.2497Z" fill="#6C63FF"/>
<path d="M171.027 93.0237L170.19 92.7622C180.571 58.9163 183.16 37.3286 177.48 31.9212L178.087 31.2832C184.106 36.9939 181.664 58.3411 171.027 93.0237Z" fill="#444053"/>
<path d="M142.447 172.257L141.203 171.818C142.301 168.717 143.493 165.569 144.738 162.468C155.574 135.446 164.793 110.344 170.708 91.0523L171.791 90.5293C165.865 109.821 156.808 135.917 145.962 162.959C144.722 166.045 143.54 169.172 142.447 172.257Z" fill="#444053"/>
<path d="M168.637 358.604C168.469 358.415 151.64 339.474 139.916 307.124C133.04 288.189 129.21 268.284 128.567 248.149C127.767 222.979 133.044 194.87 142.096 169.345L143.08 170.495C122.768 227.791 130.837 276.891 141.542 306.454C153.147 338.506 169.782 357.244 169.944 357.432L168.637 358.604Z" fill="#444053"/>
<path d="M95.313 354.473C95.313 354.473 75.4144 353.275 77.7625 367.217C77.7625 367.217 77.297 369.68 79.5301 370.799C79.5301 370.799 79.5615 369.753 81.5696 370.114C82.2829 370.235 83.0077 370.27 83.7294 370.219C84.7058 370.153 85.6351 369.771 86.3756 369.131C86.3756 369.131 91.966 366.82 94.1416 357.678C94.1416 357.678 95.7523 355.686 95.6843 355.173L92.3269 356.606C92.3269 356.606 93.4774 359.027 92.5727 361.041C92.5727 361.041 92.4628 356.695 91.8196 356.794C91.6889 356.794 90.0729 357.636 90.0729 357.636C90.0729 357.636 92.0497 361.857 90.5593 364.921C90.5593 364.921 91.1241 359.723 89.4611 357.94L87.0973 359.32C87.0973 359.32 89.4035 363.677 87.8399 367.233C87.8399 367.233 88.2373 361.778 86.6005 359.655L84.4563 361.329C84.4563 361.329 86.6214 365.622 85.3035 368.572C85.3035 368.572 85.131 362.223 83.9909 361.742C83.9909 361.742 82.1187 363.394 81.8311 364.074C81.8311 364.074 83.3163 367.212 82.3959 368.838C82.3959 368.838 81.8311 364.607 81.35 364.587C81.35 364.587 79.483 367.39 79.2895 369.293C79.38 367.519 79.9333 365.798 80.895 364.304C79.8187 364.508 78.8262 365.022 78.0396 365.784C78.0396 365.784 78.3273 363.802 81.3552 363.63C81.3552 363.63 82.9241 361.501 83.3111 361.37C83.3111 361.37 80.2988 361.119 78.4737 361.93C78.4737 361.93 80.0792 360.063 83.8654 360.884L85.9572 359.158C85.9572 359.158 81.9932 358.635 80.3093 359.216C80.3093 359.216 82.2442 357.563 86.5273 358.766L88.8283 357.391C88.8283 357.391 85.45 356.664 83.4313 356.925C83.4313 356.925 85.5598 355.78 89.5029 357.019L91.1502 356.282C91.1502 356.282 88.6714 355.796 87.9497 355.717C87.228 355.639 87.181 355.44 87.181 355.44C88.7509 355.179 90.3621 355.36 91.8353 355.963C91.8353 355.963 95.3705 354.692 95.313 354.473Z" fill="#6C63FF"/>
<path d="M37.4735 360.941C37.4735 360.941 17.6011 359.744 19.9282 373.686C19.9282 373.686 19.4576 376.149 21.6906 377.268C21.6906 377.268 21.7272 376.222 23.7354 376.583C24.4484 376.705 25.1737 376.741 25.8952 376.688C26.8707 376.623 27.7982 376.241 28.5361 375.6C28.5361 375.6 34.1318 373.288 36.3073 364.147C36.3073 364.147 37.9128 362.155 37.8762 361.642L34.5188 363.075C34.5188 363.075 35.6693 365.496 34.7646 367.51C34.7646 367.51 34.6548 363.164 34.0115 363.263C33.8808 363.263 32.2648 364.105 32.2648 364.105C32.2648 364.105 34.2416 368.325 32.7512 371.39C32.7512 371.39 33.316 366.192 31.6477 364.408L29.284 365.789C29.284 365.789 31.5902 370.145 30.0265 373.701C30.0265 373.701 30.4293 368.247 28.7872 366.124L26.6483 367.797C26.6483 367.797 28.8133 372.091 27.4955 375.04C27.4955 375.04 27.3229 368.692 26.1828 368.21C26.1828 368.21 24.3106 369.863 24.023 370.543C24.023 370.543 25.5082 373.681 24.5878 375.307C24.5878 375.307 24.023 371.076 23.5419 371.055C23.5419 371.055 21.6801 373.858 21.4814 375.762C21.5748 373.987 22.13 372.268 23.0921 370.773C22.0147 370.977 21.0205 371.491 20.2316 372.253C20.2316 372.253 20.5244 370.271 23.5523 370.098C23.5523 370.098 25.1212 367.97 25.5082 367.844C25.5082 367.844 22.496 367.588 20.6708 368.399C20.6708 368.399 22.2763 366.532 26.0625 367.353L28.1543 365.627C28.1543 365.627 24.1904 365.104 22.5064 365.685C22.5064 365.685 24.4414 364.032 28.7244 365.235L31.0254 363.859C31.0254 363.859 27.6419 363.132 25.6285 363.394C25.6285 363.394 27.7569 362.249 31.7 363.488L33.3474 362.751C33.3474 362.751 30.8685 362.264 30.1416 362.186C29.4147 362.107 29.3781 361.909 29.3781 361.909C30.9481 361.651 32.5588 361.832 34.0324 362.432C34.0324 362.432 37.5154 361.161 37.4735 360.941Z" fill="#6C63FF"/>
<path d="M69.7089 376.128C69.7089 376.128 49.8362 374.93 52.1582 388.872C52.1582 388.872 51.6928 391.335 53.926 392.455C53.926 392.455 53.9626 391.409 55.9655 391.77C56.6804 391.89 57.4073 391.925 58.1306 391.874C59.1054 391.807 60.0321 391.425 60.7715 390.786C60.7715 390.786 66.362 388.475 68.5375 379.334C68.5375 379.334 70.1482 377.341 70.1064 376.829L66.749 378.261C66.749 378.261 67.8942 380.683 66.9948 382.696C66.9948 382.696 66.8849 378.35 66.2365 378.45C66.1057 378.45 64.495 379.292 64.495 379.292C64.495 379.292 66.4666 383.507 64.9761 386.577C64.9761 386.577 65.5409 381.378 63.8779 379.595L61.5141 380.976C61.5141 380.976 63.8204 385.332 62.2567 388.888C62.2567 388.888 62.6594 383.434 61.0173 381.31L58.8732 382.984C58.8732 382.984 61.0435 387.277 59.7204 390.227C59.7204 390.227 59.5478 383.878 58.413 383.397C58.413 383.397 56.5356 385.049 56.2532 385.729C56.2532 385.729 57.7384 388.867 56.8127 390.493C56.8127 390.493 56.2479 386.263 55.7668 386.242C55.7668 386.242 53.8998 389.045 53.7064 390.948C53.7963 389.174 54.3501 387.454 55.3118 385.959C54.2356 386.163 53.243 386.677 52.4565 387.439C52.4565 387.439 52.7441 385.457 55.7773 385.285C55.7773 385.285 57.3148 383.156 57.7279 383.026C57.7279 383.026 54.7157 382.775 52.8905 383.585C52.8905 383.585 54.5013 381.718 58.2822 382.565L60.3741 380.84C60.3741 380.84 56.4101 380.317 54.7261 380.897C54.7261 380.897 56.6663 379.245 60.9441 380.447L63.2504 379.072C63.2504 379.072 59.8877 378.361 57.8691 378.622C57.8691 378.622 59.9923 377.477 63.9407 378.716L65.5828 377.979C65.5828 377.979 63.1092 377.493 62.3823 377.414C61.6553 377.336 61.6187 377.137 61.6187 377.137C63.1887 376.876 64.7999 377.057 66.2731 377.66C66.2731 377.66 69.7664 376.347 69.7089 376.128Z" fill="#6C63FF"/>
<path opacity="0.1" d="M54.1979 396.298C61.9758 396.298 68.2812 395.233 68.2812 393.919C68.2812 392.605 61.9758 391.54 54.1979 391.54C46.4196 391.54 40.1143 392.605 40.1143 393.919C40.1143 395.233 46.4196 396.298 54.1979 396.298Z" fill="#6C63FF"/>
<path opacity="0.1" d="M500.899 396.298C508.677 396.298 514.982 395.233 514.982 393.919C514.982 392.605 508.677 391.54 500.899 391.54C493.121 391.54 486.815 392.605 486.815 393.919C486.815 395.233 493.121 396.298 500.899 396.298Z" fill="#6C63FF"/>
<path opacity="0.1" d="M366.033 409.995C373.811 409.995 380.116 408.929 380.116 407.615C380.116 406.301 373.811 405.236 366.033 405.236C358.255 405.236 351.95 406.301 351.95 407.615C351.95 408.929 358.255 409.995 366.033 409.995Z" fill="#6C63FF"/>
<path opacity="0.1" d="M523.173 375.673C530.95 375.673 537.257 374.608 537.257 373.294C537.257 371.979 530.95 370.914 523.173 370.914C515.394 370.914 509.089 371.979 509.089 373.294C509.089 374.608 515.394 375.673 523.173 375.673Z" fill="#6C63FF"/>
<path opacity="0.1" d="M81.6057 374.188C89.3837 374.188 95.689 373.122 95.689 371.808C95.689 370.494 89.3837 369.429 81.6057 369.429C73.8277 369.429 67.5224 370.494 67.5224 371.808C67.5224 373.122 73.8277 374.188 81.6057 374.188Z" fill="#6C63FF"/>
<path opacity="0.1" d="M23.751 380.866C31.529 380.866 37.8343 379.801 37.8343 378.486C37.8343 377.172 31.529 376.107 23.751 376.107C15.973 376.107 9.66772 377.172 9.66772 378.486C9.66772 379.801 15.973 380.866 23.751 380.866Z" fill="#6C63FF"/>
<path d="M378.762 41.7114H163.434C160.603 41.7114 158.309 44.006 158.309 46.8364V372.002C158.309 374.832 160.603 377.127 163.434 377.127H378.762C381.592 377.127 383.887 374.832 383.887 372.002V46.8364C383.887 44.006 381.592 41.7114 378.762 41.7114Z" fill="#3A3768"/>
<path opacity="0.1" d="M350.758 70.542H194.231C185.794 70.542 178.955 77.3813 178.955 85.8176V121.206C178.955 129.643 185.794 136.482 194.231 136.482H350.758C359.194 136.482 366.033 129.643 366.033 121.206V85.8176C366.033 77.3813 359.194 70.542 350.758 70.542Z" fill="black"/>
<path d="M359.067 71.8286H185.492C182.546 71.8286 180.158 74.217 180.158 77.1628V130.269C180.158 133.215 182.546 135.603 185.492 135.603H359.067C362.013 135.603 364.402 133.215 364.402 130.269V77.1628C364.402 74.217 362.013 71.8286 359.067 71.8286Z" fill="#E6E8EC"/>
<path opacity="0.1" d="M217.032 163.948H191.114C187.997 163.948 185.471 166.474 185.471 169.59V199.64C185.471 202.756 187.997 205.282 191.114 205.282H217.032C220.148 205.282 222.674 202.756 222.674 199.64V169.59C222.674 166.474 220.148 163.948 217.032 163.948Z" fill="black"/>
<path opacity="0.1" d="M262.502 163.948H236.585C233.468 163.948 230.942 166.474 230.942 169.59V199.64C230.942 202.756 233.468 205.282 236.585 205.282H262.502C265.619 205.282 268.145 202.756 268.145 199.64V169.59C268.145 166.474 265.619 163.948 262.502 163.948Z" fill="black"/>
<path opacity="0.1" d="M307.974 163.948H282.056C278.94 163.948 276.414 166.474 276.414 169.59V199.64C276.414 202.756 278.94 205.282 282.056 205.282H307.974C311.091 205.282 313.617 202.756 313.617 199.64V169.59C313.617 166.474 311.091 163.948 307.974 163.948Z" fill="black"/>
<path opacity="0.1" d="M344.006 164.826H336.967C328.637 164.826 321.885 171.579 321.885 179.908V191.079C321.885 199.408 328.637 206.161 336.967 206.161H344.006C352.335 206.161 359.088 199.408 359.088 191.079V179.908C359.088 171.579 352.335 164.826 344.006 164.826Z" fill="black"/>
<path d="M353.446 163.948H327.528C324.411 163.948 321.885 166.474 321.885 169.59V199.64C321.885 202.756 324.411 205.282 327.528 205.282H353.446C356.562 205.282 359.088 202.756 359.088 199.64V169.59C359.088 166.474 356.562 163.948 353.446 163.948Z" fill="#6C63FF"/>
<path opacity="0.1" d="M217.032 209.419H191.114C187.997 209.419 185.471 211.945 185.471 215.062V245.111C185.471 248.227 187.997 250.754 191.114 250.754H217.032C220.148 250.754 222.674 248.227 222.674 245.111V215.062C222.674 211.945 220.148 209.419 217.032 209.419Z" fill="black"/>
<path opacity="0.1" d="M262.502 209.419H236.585C233.468 209.419 230.942 211.945 230.942 215.062V245.111C230.942 248.227 233.468 250.754 236.585 250.754H262.502C265.619 250.754 268.145 248.227 268.145 245.111V215.062C268.145 211.945 265.619 209.419 262.502 209.419Z" fill="black"/>
<path opacity="0.1" d="M307.974 209.419H282.056C278.94 209.419 276.414 211.945 276.414 215.062V245.111C276.414 248.227 278.94 250.754 282.056 250.754H307.974C311.091 250.754 313.617 248.227 313.617 245.111V215.062C313.617 211.945 311.091 209.419 307.974 209.419Z" fill="black"/>
<path opacity="0.1" d="M217.032 259.613H191.114C187.997 259.613 185.471 262.139 185.471 265.256V295.305C185.471 298.421 187.997 300.947 191.114 300.947H217.032C220.148 300.947 222.674 298.421 222.674 295.305V265.256C222.674 262.139 220.148 259.613 217.032 259.613Z" fill="black"/>
<path opacity="0.1" d="M262.502 259.613H236.585C233.468 259.613 230.942 262.139 230.942 265.256V295.305C230.942 298.421 233.468 300.947 236.585 300.947H262.502C265.619 300.947 268.145 298.421 268.145 295.305V265.256C268.145 262.139 265.619 259.613 262.502 259.613Z" fill="black"/>
<path opacity="0.1" d="M307.974 259.613H282.056C278.94 259.613 276.414 262.139 276.414 265.256V295.305C276.414 298.421 278.94 300.947 282.056 300.947H307.974C311.091 300.947 313.617 298.421 313.617 295.305V265.256C313.617 262.139 311.091 259.613 307.974 259.613Z" fill="black"/>
<path opacity="0.1" d="M307.974 309.806H282.056C278.94 309.806 276.414 312.333 276.414 315.449V345.498C276.414 348.614 278.94 351.141 282.056 351.141H307.974C311.091 351.141 313.617 348.614 313.617 345.498V315.449C313.617 312.333 311.091 309.806 307.974 309.806Z" fill="black"/>
<path opacity="0.1" d="M344.006 210.297H336.967C328.637 210.297 321.885 217.05 321.885 225.38V236.55C321.885 244.88 328.637 251.632 336.967 251.632H344.006C352.335 251.632 359.088 244.88 359.088 236.55V225.38C359.088 217.05 352.335 210.297 344.006 210.297Z" fill="black"/>
<path d="M353.179 209.419H327.794C324.531 209.419 321.885 212.065 321.885 215.328V244.844C321.885 248.108 324.531 250.754 327.794 250.754H353.179C356.442 250.754 359.088 248.108 359.088 244.844V215.328C359.088 212.065 356.442 209.419 353.179 209.419Z" fill="#6C63FF"/>
<path opacity="0.2" d="M353.179 209.419H327.794C324.531 209.419 321.885 212.065 321.885 215.328V244.844C321.885 248.108 324.531 250.754 327.794 250.754H353.179C356.442 250.754 359.088 248.108 359.088 244.844V215.328C359.088 212.065 356.442 209.419 353.179 209.419Z" fill="black"/>
<path opacity="0.1" d="M262.895 309.806H190.722C187.822 309.806 185.471 312.157 185.471 315.057V345.89C185.471 348.79 187.822 351.141 190.722 351.141H262.895C265.795 351.141 268.146 348.79 268.146 345.89V315.057C268.146 312.157 265.795 309.806 262.895 309.806Z" fill="black"/>
<path opacity="0.1" d="M352.985 259.613H324.437C321.069 259.613 318.339 262.343 318.339 265.71V345.049C318.339 348.416 321.069 351.146 324.437 351.146H352.985C356.353 351.146 359.083 348.416 359.083 345.049V265.71C359.083 262.343 356.353 259.613 352.985 259.613Z" fill="black"/>
<path d="M356.128 124.464H339.844V126.227H356.128V124.464Z" fill="#6C63FF"/>
<path d="M332.287 124.464H316.002V126.227H332.287V124.464Z" fill="#6C63FF"/>
<path d="M308.44 124.464H292.154V126.227H308.44V124.464Z" fill="#6C63FF"/>
<path d="M284.598 124.464H268.313V126.227H284.598V124.464Z" fill="#6C63FF"/>
<path d="M460.124 248.175C461.803 242.528 460.124 236.88 460.124 236.88V231.551C460.124 231.551 462.043 221.133 453.477 214.45L447.798 209.44C447.798 209.44 444.613 206.705 443.687 206.532C443.515 206.495 443.34 206.469 443.164 206.454L442.997 206.354C442.509 205.52 442.092 204.645 441.753 203.74C442.12 203.787 442.494 203.75 442.844 203.63C443.195 203.511 443.514 203.312 443.776 203.049C443.981 202.813 444.142 202.542 444.252 202.249C444.582 201.512 444.639 200.618 444.916 199.833C445.159 199.197 445.514 198.609 445.962 198.097C445.905 198.191 445.842 198.28 445.79 198.379C446.595 197.375 447.646 196.518 448.405 195.461C448.555 195.252 448.693 195.033 448.818 194.808C448.786 194.855 448.744 194.896 448.708 194.943C449.754 193.265 450.073 191.23 450.376 189.269C450.522 188.602 450.532 187.912 450.408 187.24C450.261 186.795 450.071 186.364 449.843 185.954C448.609 183.407 448.629 180.201 446.658 178.167C445.173 176.645 442.924 176.18 440.806 175.918C438.688 175.657 436.46 175.505 434.64 174.396C434.132 174.012 433.57 173.703 432.972 173.481C432.671 173.376 432.343 173.379 432.044 173.49C431.746 173.601 431.495 173.812 431.335 174.088C431.298 174.251 431.222 174.403 431.116 174.532C431.02 174.586 430.915 174.618 430.806 174.624C430.697 174.63 430.588 174.611 430.488 174.569L427.669 173.816L427.701 173.957H427.627L427.732 174.402C427.787 174.392 427.844 174.402 427.893 174.429C427.941 174.457 427.979 174.501 427.999 174.553L427.544 175.254C426.671 175.238 425.81 175.061 425.002 174.731C424.997 174.776 424.997 174.822 425.002 174.867H424.96C424.908 175.662 425.813 176.18 426.09 176.928C426.201 177.255 426.201 177.609 426.09 177.937C425.976 178.24 425.798 178.515 425.567 178.742C424.568 179.731 423.287 179.537 422.136 180.159C422.037 180.202 421.948 180.266 421.875 180.346C421.803 180.426 421.749 180.521 421.718 180.625C421.672 180.702 421.659 180.794 421.681 180.881C421.727 181.001 421.809 181.104 421.917 181.174C422.251 181.445 422.618 181.673 423.01 181.854C422.895 181.958 422.785 182.063 422.68 182.173C421.22 183.657 420.15 185.479 419.566 187.478C418.982 189.476 418.902 191.588 419.334 193.625C419.765 195.661 420.695 197.559 422.039 199.149C423.383 200.739 425.1 201.971 427.036 202.736C427.078 202.955 427.11 203.18 427.141 203.415C427.141 203.442 427.141 203.457 427.141 203.483L427.172 203.787L423.376 205.403C422.803 205.398 422.243 205.231 421.762 204.921C421.28 204.611 420.897 204.171 420.656 203.651C419.773 201.826 416.65 203.651 416.65 203.651C416.65 203.651 407.127 202.94 403.576 204.697C403.576 204.697 397.892 202.312 397.092 202.15C396.292 201.988 395.094 201.355 394.535 201.517C393.975 201.679 393.253 200.471 392.851 200.56C392.448 200.649 392.291 199.765 391.01 199.446C389.729 199.127 389.247 199.53 387.809 198.097C386.371 196.664 374.678 191.016 374.678 191.016L369.427 186.696L363.826 182.241L363.727 182.424C363.69 182.293 363.654 182.157 363.617 182.011C363.06 179.791 362.361 177.609 361.525 175.479C361.164 174.616 361.002 173.528 360.516 174.104C360.218 174.449 359.711 173.69 358.947 173.178C358.785 173.066 358.6 172.992 358.406 172.96C358.212 172.929 358.013 172.941 357.824 172.996C357.636 173.051 357.461 173.148 357.314 173.279C357.167 173.41 357.052 173.572 356.976 173.753C352.614 180.593 351.05 181.075 353.576 183.59C355.83 185.823 357.326 187.774 359.162 188.391L359.381 188.459C359.341 188.469 359.3 188.469 359.261 188.459L369.908 201.188C369.908 201.188 377.591 207.871 382.878 210.015C388.165 212.159 387.757 212.803 387.757 212.803C387.757 212.803 403.77 220.914 406.249 220.757C408.728 220.6 408.252 237.382 407.211 240.106C406.17 242.831 404.492 262.379 404.492 262.379C404.492 262.379 402.886 266.516 404.57 269.376C404.57 269.376 404.941 274.857 404.607 276.175C403.148 278.423 401.066 282.241 400.726 286.169C400.726 286.378 400.684 286.571 400.664 286.775C400.557 286.899 400.429 287.004 400.287 287.084L400.643 286.979C400.491 288.616 400.14 290.228 399.597 291.78C398.75 293.959 398.302 296.272 398.274 298.61V311.244L397.228 319.089C397.228 319.089 395.947 325.024 397.228 326.41C397.767 327.101 398.019 327.975 397.929 328.847C397.875 329.86 398.162 330.862 398.744 331.692C398.967 331.935 399.13 332.227 399.22 332.543C399.311 332.86 399.327 333.194 399.267 333.517C398.844 334.893 399.895 349.53 399.895 349.53C399.895 349.53 399.586 353.562 399.163 353.777C398.739 353.991 399.895 358.441 399.895 358.441C399.895 358.441 395.57 362.05 396.673 363.959L397.777 365.653L397.484 365.941L397.306 366.124C396.973 365.931 396.583 365.858 396.203 365.915C394.843 367.305 393.39 368.6 391.852 369.79C389.901 371.196 384.593 373.236 384.593 373.236L380.409 373.576H380.331C380.331 373.576 378.328 373.388 379.452 376.489C380.577 379.59 390.628 378.638 390.628 378.638L396.496 377.713C396.496 377.713 406.955 377.765 409.951 377.101C411.201 376.823 411.52 376.154 411.416 375.479L411.384 375.448C411.24 374.805 410.947 374.204 410.527 373.696C410.505 373.663 410.481 373.631 410.453 373.602L410.642 371.458C415.082 368.901 409.387 363.87 409.387 363.87C409.387 363.87 411.337 359.629 412.336 358.253C413.335 356.878 413.335 336.613 413.335 336.613C413.335 336.613 413.858 329.292 412.482 327.597C412.458 327.046 412.585 326.498 412.849 326.012C413.112 325.527 413.502 325.122 413.978 324.841C414.967 324.167 417.953 314.874 420.295 307.16L421.77 316.249C421.77 316.249 421.451 320.6 422.408 321.871C422.588 322.11 422.716 322.385 422.785 322.676C422.853 322.968 422.86 323.271 422.806 323.565C422.579 324.785 422.652 326.042 423.02 327.226C423.133 327.734 423.406 328.193 423.799 328.533C424.652 328.957 424.704 330.468 425.023 330.787C425.342 331.106 427.319 330.338 427.423 331.504C427.483 332.528 427.483 333.555 427.423 334.579L428.067 353.458C428.067 353.458 427.021 355.027 426.785 359.21C426.697 360.993 426.362 362.008 426.017 362.589C425.825 362.9 425.737 363.264 425.765 363.629C425.793 363.993 425.936 364.339 426.174 364.618L426.357 364.832L425.567 365.439C425.249 365.685 425.027 366.034 424.937 366.425C424.848 366.817 424.896 367.228 425.075 367.588C424.821 367.81 424.638 368.103 424.551 368.428C424.465 368.755 424.478 369.1 424.589 369.418C424.621 369.523 424.667 369.623 424.725 369.716C424.125 369.811 423.568 370.086 423.13 370.506C422.341 371.59 421.39 372.546 420.311 373.341C418.745 374.541 417.245 375.826 415.819 377.19C415.146 378.105 414.244 378.826 413.204 379.281C412.949 379.385 412.684 379.464 412.414 379.517C410.323 379.946 410.976 382.132 412.681 382.492C414.386 382.853 420.044 384.584 424.448 383.575C424.448 383.575 425.755 384.098 427.674 383.125C429.594 382.152 433.877 380.96 433.877 380.96C433.877 380.96 436.277 380.96 436.601 380.008C436.686 379.705 436.731 379.392 436.737 379.077L436.805 379.009L436.743 378.952C436.748 378.239 436.694 377.527 436.58 376.823C436.518 376.457 436.45 376.133 436.387 375.872C436.183 375.077 435.801 374.047 435.639 373.612C435.666 373.578 435.691 373.541 435.712 373.503C436.628 371.934 435.106 368.21 435.106 368.21C435.605 367.418 436.212 366.698 436.91 366.071C437.762 365.433 440.006 348.887 440.006 348.887C440.006 348.887 439.896 344.646 441.052 342.737C442.207 340.828 439.451 329.271 439.451 329.271C439.451 329.271 438.275 326.619 438.704 325.662C439.132 324.705 438.275 321.207 438.275 321.207V317.023C438.272 316.525 438.189 316.03 438.029 315.559C437.7 314.576 437.213 312.688 437.741 311.333C438.489 309.424 440.194 297.653 440.194 297.653C440.194 297.653 438.861 292.46 440.816 288.323C440.969 287.993 441.144 287.673 441.339 287.366C442.788 285.091 442.354 281.049 441.637 277.791C441.533 277.268 441.413 276.797 441.292 276.342C441.245 276.143 441.193 275.955 441.141 275.767L441.371 275.673C441.371 275.673 441.371 275.364 441.444 274.836C442.234 274.68 442.983 274.363 443.645 273.905C444.307 273.447 444.868 272.858 445.293 272.174C445.293 272.174 450.177 266.683 454.497 264.377C458.817 262.071 459.141 258.729 459.141 258.729C458.503 257.615 460.286 253.081 460.286 253.081L460.124 248.175ZM446.036 255.497L441.413 260.857V260.826C440.21 259.152 442.532 255.413 442.532 255.413L446.375 246.837C446.344 247.935 446.208 248.929 445.853 249.363C444.807 250.796 447.777 253.185 447.777 253.185C446.192 253.191 446.036 255.497 446.036 255.497Z" fill="url(#paint0_linear)"/>
<path d="M364.642 185.216L362.116 190.116C361.317 190.048 360.528 189.883 359.768 189.625C358.563 189.265 357.449 188.654 356.498 187.832C355.547 187.01 354.781 185.996 354.251 184.855C351.997 179.877 355.726 176.661 357.462 175.709C359.198 174.757 360.814 173.675 362.116 176.797C362.934 178.915 363.617 181.082 364.161 183.287C364.464 184.432 364.642 185.216 364.642 185.216Z" fill="#FFB8B8"/>
<path d="M444.859 210.706L440.827 216.709C440.827 216.709 421.775 225.798 425.415 215.14C427.015 210.434 427.204 206.998 426.916 204.618C426.916 204.592 426.916 204.577 426.916 204.55C426.54 201.575 425.42 200.283 425.42 200.283C425.42 200.283 443.991 190.776 441.224 197.276C440.66 198.627 440.435 200.096 440.571 201.554C440.799 203.654 441.48 205.679 442.568 207.489C443.222 208.635 443.99 209.713 444.859 210.706Z" fill="#FFB8B8"/>
<path d="M439.059 329.632C439.059 329.632 441.799 341.137 440.628 343.014C439.457 344.891 439.582 349.127 439.582 349.127C439.582 349.127 437.37 365.569 436.528 366.197C435.837 366.808 435.233 367.512 434.734 368.289C434.734 368.289 436.24 372.012 435.336 373.55C435.196 373.784 434.985 373.967 434.734 374.073C433.322 374.669 428.103 372.023 425.133 370.412C424.893 370.281 424.689 370.094 424.538 369.868C424.386 369.641 424.291 369.381 424.262 369.11C424.232 368.839 424.268 368.565 424.367 368.311C424.465 368.057 424.624 367.831 424.829 367.651C424.651 367.294 424.601 366.887 424.689 366.498C424.776 366.109 424.996 365.762 425.311 365.517L426.095 364.91L425.912 364.696C425.677 364.419 425.535 364.074 425.507 363.712C425.479 363.35 425.566 362.987 425.755 362.677C426.095 362.107 426.425 361.108 426.513 359.325C426.728 355.215 427.779 353.635 427.779 353.635L427.146 334.872C427.206 333.854 427.206 332.835 427.146 331.818C427.042 330.662 425.091 331.425 424.777 331.106C424.463 330.787 424.406 329.292 423.564 328.868C423.176 328.528 422.908 328.071 422.8 327.566C422.428 326.382 422.354 325.124 422.586 323.905C422.64 323.613 422.633 323.312 422.566 323.022C422.498 322.733 422.372 322.46 422.194 322.221C421.247 320.956 421.561 316.641 421.561 316.641L420.107 307.605C417.79 315.271 414.846 324.507 413.868 325.176C413.399 325.457 413.014 325.859 412.754 326.341C412.495 326.822 412.37 327.365 412.394 327.911C413.764 329.6 413.235 336.875 413.235 336.875C413.235 336.875 413.235 356.998 412.247 358.373C411.259 359.749 409.345 363.98 409.345 363.98C409.345 363.98 414.993 369.005 410.547 371.542H410.5C405.966 374.073 396.59 367.013 396.59 367.013L397.568 366.035L397.855 365.747L396.747 364.095C395.659 362.196 399.926 358.614 399.926 358.614C399.926 358.614 398.786 354.184 399.204 353.975C399.623 353.766 399.926 349.76 399.926 349.76C399.926 349.76 398.88 335.217 399.309 333.847C399.366 333.524 399.348 333.193 399.258 332.879C399.167 332.564 399.006 332.275 398.786 332.032C398.21 331.207 397.927 330.213 397.981 329.208C398.072 328.341 397.822 327.473 397.285 326.787C396.02 325.417 397.285 319.518 397.285 319.518L398.331 311.715V299.326C398.345 296.935 398.793 294.566 399.654 292.334C400.293 290.525 400.68 288.637 400.805 286.723C401.15 282.727 403.299 278.847 404.743 276.635C405.506 275.463 406.076 274.763 406.076 274.763L439.797 273.445C439.797 273.445 440.32 274.946 440.884 277.032C440.999 277.487 441.114 277.968 441.224 278.47C441.93 281.713 442.354 285.729 440.926 287.988C440.732 288.295 440.557 288.612 440.403 288.94C438.473 293.051 439.791 298.212 439.791 298.212C439.791 298.212 438.107 309.906 437.37 311.809C436.847 313.153 437.328 315.031 437.658 315.993C437.811 316.464 437.891 316.956 437.893 317.452V321.62C437.893 321.62 438.74 325.097 438.317 326.049C437.893 327.001 439.059 329.632 439.059 329.632Z" fill="#444053"/>
<path opacity="0.1" d="M440.612 288.323C440.417 288.626 440.242 288.943 440.09 289.27L438.191 289.165C438.374 288.187 437.083 279.02 437.083 279.02L440.905 278.805C441.611 282.042 442.04 286.059 440.612 288.323Z" fill="black"/>
<path d="M440.926 288.004C440.732 288.311 440.558 288.628 440.403 288.956L438.504 288.846C438.687 287.873 437.396 278.701 437.396 278.701L441.219 278.486C441.93 281.729 442.353 285.745 440.926 288.004Z" fill="#444053"/>
<path opacity="0.05" d="M440.926 288.004C440.732 288.311 440.558 288.628 440.403 288.956L438.504 288.846C438.687 287.873 437.396 278.701 437.396 278.701L441.219 278.486C441.93 281.729 442.353 285.745 440.926 288.004Z" fill="black"/>
<path opacity="0.1" d="M435.34 373.57C435.201 373.805 434.991 373.988 434.74 374.093C433.328 374.69 428.108 372.043 425.138 370.433C424.767 370.228 424.485 369.892 424.348 369.491C426.043 369.183 427.151 371.06 427.151 371.06C427.434 370.883 427.749 370.764 428.078 370.711C428.407 370.657 428.743 370.67 429.068 370.748C429.391 370.827 429.697 370.969 429.965 371.167C430.233 371.366 430.459 371.616 430.629 371.902C432.077 374.036 435.184 373.136 435.184 373.136L435.34 373.57Z" fill="black"/>
<path d="M436.214 380.029C435.901 380.981 433.526 380.981 433.526 380.981C433.526 380.981 429.285 382.194 427.387 383.141C425.488 384.087 424.202 383.59 424.202 383.59C419.856 384.589 414.266 382.853 412.582 382.508C410.898 382.163 410.239 379.982 412.32 379.558C412.587 379.503 412.848 379.423 413.099 379.318C414.142 378.867 415.045 378.144 415.714 377.226C417.123 375.872 418.605 374.596 420.154 373.403C421.22 372.611 422.158 371.661 422.936 370.584C425.415 368.398 427.178 371.4 427.178 371.4C427.46 371.224 427.775 371.105 428.105 371.051C428.434 370.999 428.77 371.012 429.095 371.091C429.419 371.17 429.724 371.313 429.992 371.511C430.26 371.71 430.485 371.96 430.655 372.247C432.104 374.381 435.21 373.476 435.21 373.476C435.21 373.476 435.77 374.904 436.031 375.929C436.094 376.191 436.162 376.515 436.225 376.881C436.366 377.942 436.455 379.318 436.214 380.029Z" fill="#FF748F"/>
<path d="M428.966 373.367C429.125 373.367 429.254 373.238 429.254 373.079C429.254 372.92 429.125 372.792 428.966 372.792C428.807 372.792 428.678 372.92 428.678 373.079C428.678 373.238 428.807 373.367 428.966 373.367Z" fill="#575988"/>
<path d="M426.492 375.683C426.651 375.683 426.78 375.554 426.78 375.396C426.78 375.237 426.651 375.108 426.492 375.108C426.333 375.108 426.205 375.237 426.205 375.396C426.205 375.554 426.333 375.683 426.492 375.683Z" fill="#575988"/>
<path d="M423.977 377.765C424.136 377.765 424.264 377.636 424.264 377.477C424.264 377.318 424.136 377.189 423.977 377.189C423.818 377.189 423.689 377.318 423.689 377.477C423.689 377.636 423.818 377.765 423.977 377.765Z" fill="#575988"/>
<path d="M425.279 376.834C425.438 376.834 425.566 376.705 425.566 376.546C425.566 376.387 425.438 376.258 425.279 376.258C425.12 376.258 424.992 376.387 424.992 376.546C424.992 376.705 425.12 376.834 425.279 376.834Z" fill="#575988"/>
<path d="M427.784 374.455C427.943 374.455 428.072 374.326 428.072 374.167C428.072 374.008 427.943 373.879 427.784 373.879C427.625 373.879 427.497 374.008 427.497 374.167C427.497 374.326 427.625 374.455 427.784 374.455Z" fill="#575988"/>
<path d="M436.214 380.029C435.9 380.981 433.526 380.981 433.526 380.981C433.526 380.981 429.285 382.194 427.387 383.141C425.488 384.087 424.202 383.591 424.202 383.591C419.856 384.589 414.266 382.853 412.582 382.508C410.898 382.163 410.239 379.982 412.32 379.559C412.587 379.504 412.848 379.423 413.099 379.318C414.938 379.951 416.857 380.315 418.8 380.401C423.093 380.584 426.492 380.401 426.492 380.401L430.838 379.004C431.661 378.505 432.574 378.174 433.526 378.032C434.488 377.835 435.398 377.44 436.199 376.871C436.366 377.943 436.455 379.318 436.214 380.029Z" fill="#DCE6F2"/>
<path opacity="0.5" d="M425.399 382.754C425.157 382.755 424.915 382.733 424.677 382.686L424.74 382.377C425.629 382.513 426.538 382.386 427.355 382.011C427.742 381.86 428.129 381.676 428.505 381.488C428.882 381.3 429.41 381.065 429.881 380.892L430.31 380.746C430.545 380.662 430.786 380.584 431.016 380.484C431.146 380.432 431.277 380.369 431.403 380.306C431.712 380.145 432.038 380.02 432.375 379.935C432.548 379.903 432.723 379.88 432.898 379.867C433.06 379.856 433.22 379.837 433.379 379.81C433.696 379.73 434.003 379.616 434.295 379.47C434.607 379.309 434.937 379.186 435.278 379.104L435.508 379.067C435.756 379.061 435.995 378.972 436.188 378.816L436.423 379.03C436.184 379.241 435.879 379.365 435.56 379.381L435.341 379.417C435.024 379.495 434.717 379.609 434.425 379.757C434.112 379.913 433.782 380.034 433.442 380.118C433.27 380.152 433.095 380.173 432.919 380.181C432.754 380.193 432.59 380.214 432.428 380.244C432.114 380.325 431.81 380.442 431.523 380.594L431.125 380.777C430.885 380.876 430.634 380.96 430.393 381.044L429.975 381.19C429.515 381.357 429.065 381.572 428.626 381.776C428.186 381.98 427.852 382.142 427.454 382.299C426.804 382.577 426.107 382.731 425.399 382.754Z" fill="#575988"/>
<path opacity="0.1" d="M426.414 330.395C426.414 330.395 428.6 327.258 432.344 327.258C436.089 327.258 437.689 326.834 437.689 326.834C437.689 326.834 435.293 328.256 433.636 328.439C431.978 328.623 426.414 330.395 426.414 330.395Z" fill="black"/>
<path opacity="0.1" d="M427.68 331.133C427.68 331.133 429.656 329.762 430.786 329.71C431.916 329.658 432.878 329.553 432.878 329.553C432.348 329.925 431.761 330.21 431.142 330.395C430.216 330.657 427.68 331.133 427.68 331.133Z" fill="black"/>
<path opacity="0.1" d="M428.124 332.079C428.124 332.079 431.099 332.314 431.125 333.125L428.124 332.079Z" fill="black"/>
<path opacity="0.1" d="M400.37 287.627C400.527 287.654 403.189 284.861 403.372 283.758C403.517 283.059 403.933 282.447 404.528 282.053C404.528 282.053 406.243 282.738 404.716 284.84C403.189 286.942 400.37 287.627 400.37 287.627Z" fill="black"/>
<path opacity="0.1" d="M441.198 197.265C440.591 198.698 440.058 198.834 440.152 200.199C439.446 200.947 438.633 201.587 437.741 202.097C435.859 203.217 433.809 205.408 431.466 205.408C429.896 205.409 428.34 205.114 426.879 204.54C426.502 201.564 425.384 200.272 425.384 200.272C425.384 200.272 443.959 190.765 441.198 197.265Z" fill="black"/>
<path d="M444.043 192.208C444.043 194.691 443.307 197.117 441.928 199.181C440.549 201.245 438.588 202.854 436.295 203.804C434.001 204.754 431.478 205.002 429.043 204.518C426.609 204.034 424.372 202.838 422.617 201.083C420.861 199.328 419.666 197.092 419.182 194.657C418.698 192.222 418.946 189.699 419.896 187.405C420.846 185.112 422.455 183.152 424.519 181.773C426.583 180.394 429.01 179.657 431.492 179.657C434.821 179.657 438.013 180.98 440.367 183.333C442.721 185.687 444.043 188.88 444.043 192.208Z" fill="#FFB8B8"/>
<path opacity="0.1" d="M444.859 210.705L440.827 216.709C440.827 216.709 421.775 225.798 425.415 215.14C427.015 210.433 427.204 206.998 426.916 204.618H426.948C427.172 205.407 427.301 206.22 427.329 207.039C427.387 208.682 427.429 210.758 431.513 211.443C438.311 212.583 441.941 208.336 442.579 207.505C443.23 208.645 443.994 209.717 444.859 210.705Z" fill="black"/>
<path opacity="0.1" d="M364.642 185.216L362.116 190.117C361.317 190.048 360.528 189.883 359.768 189.625L359.548 189.363C360.594 189.761 364.051 183.198 364.051 183.198L364.161 183.287C364.464 184.432 364.642 185.216 364.642 185.216Z" fill="black"/>
<path opacity="0.1" d="M440.884 277.048C432.747 280.583 404.601 277.571 404.601 277.571C404.685 277.271 404.733 276.962 404.742 276.651C405.506 275.479 406.076 274.778 406.076 274.778L439.797 273.46C439.797 273.46 440.346 274.961 440.884 277.048Z" fill="black"/>
<path d="M426.927 204.911L423.172 206.517C422.605 206.512 422.051 206.346 421.576 206.037C421.101 205.729 420.724 205.291 420.489 204.775C419.616 202.961 416.535 204.775 416.535 204.775C416.535 204.775 407.122 204.064 403.65 205.821C403.65 205.821 398.038 203.447 397.249 203.29C396.459 203.133 395.271 202.5 394.717 202.657C394.163 202.814 393.457 201.611 393.06 201.711C392.662 201.81 392.505 200.921 391.239 200.602C389.974 200.283 389.503 200.681 388.101 199.258C386.7 197.836 375.137 192.224 375.137 192.224L369.908 187.957L364.375 183.533C364.375 183.533 360.897 190.091 359.867 189.693L370.379 202.344C370.379 202.344 377.967 208.98 383.186 211.114C388.405 213.247 388.007 213.88 388.007 213.88C388.007 213.88 403.817 221.944 406.264 221.787C408.712 221.63 408.251 238.287 407.205 240.975C406.159 243.663 404.522 263.106 404.522 263.106C404.522 263.106 402.954 267.217 404.601 270.062C404.601 270.062 404.994 275.913 404.601 276.938C404.601 276.938 432.919 279.966 440.957 276.384C440.957 276.384 442.144 263.263 440.957 261.605C439.77 259.947 442.066 256.25 442.066 256.25L447.123 244.949L459.454 232.539C459.454 232.539 461.347 222.185 452.891 215.548L447.28 210.564C447.28 210.564 444.142 207.85 443.221 207.678C442.301 207.505 442.641 207.678 442.641 207.678C442.641 207.678 438.981 213.017 431.471 211.752C427.402 211.067 427.361 208.99 427.287 207.353C427.266 206.528 427.145 205.708 426.927 204.911Z" fill="#67647E"/>
<path opacity="0.1" d="M442.38 247.459C442.38 247.459 424.986 248.17 421.514 253.635C421.514 253.635 426.022 251.496 430.049 252.129C434.075 252.762 442.38 247.459 442.38 247.459Z" fill="black"/>
<path opacity="0.1" d="M423.172 266.505C423.172 266.505 431.393 267.06 433.134 265.318C434.876 263.577 434.88 262.552 434.88 262.552L423.172 266.505Z" fill="black"/>
<path opacity="0.1" d="M444.043 230.698C444.043 230.698 437.082 238.919 445.544 242.475L444.043 230.698Z" fill="black"/>
<path opacity="0.1" d="M402.86 214.816C402.86 214.816 405.391 219.978 406.657 220.317L402.86 214.816Z" fill="black"/>
<path opacity="0.1" d="M394.325 212.599C394.325 212.599 400.648 218.294 401.835 218.843C401.835 218.843 395.272 212.599 394.325 212.599Z" fill="black"/>
<path opacity="0.1" d="M419.537 207.149C419.537 207.149 413.45 216.238 417.404 221.792C417.404 221.771 415.191 215.208 419.537 207.149Z" fill="black"/>
<path d="M434.881 275.992L433.019 277.743L432.758 277.984L430.603 280.024C430.451 280.139 430.3 280.254 430.143 280.358C421.373 286.634 419.616 277.095 419.616 277.095C419.616 277.095 415.746 279.626 415.191 277.571C414.637 275.516 424.202 272.592 425.651 272.749C425.777 272.762 425.905 272.762 426.032 272.749C426.723 272.634 427.389 272.399 427.999 272.054L428.422 271.829C428.909 271.555 429.382 271.256 429.839 270.935L434.881 275.992Z" fill="#FFB8B8"/>
<path opacity="0.1" d="M444.336 192.208C444.34 194.386 443.779 196.526 442.706 198.42C441.633 200.314 440.086 201.897 438.217 203.013C438.042 202.719 437.888 202.413 437.757 202.098C437.307 201.052 437.03 199.922 436.575 198.871C436.077 197.724 435.368 196.68 434.483 195.796C434.333 195.621 434.14 195.487 433.924 195.409C433.72 195.381 433.513 195.395 433.316 195.45C433.117 195.505 432.933 195.599 432.773 195.728C432.241 196.089 431.647 196.349 431.021 196.497C430.708 196.568 430.382 196.558 430.074 196.466C429.766 196.375 429.487 196.205 429.264 195.974C428.773 195.388 428.841 194.53 428.982 193.783C429.29 192.146 429.803 190.535 429.808 188.872C429.813 187.209 429.175 185.42 427.716 184.594C426.44 183.867 424.856 184.071 423.438 183.663C423.219 183.606 423.004 183.533 422.795 183.444C424.537 181.655 426.773 180.427 429.218 179.917C431.661 179.406 434.203 179.636 436.515 180.577C438.828 181.518 440.807 183.127 442.2 185.199C443.593 187.271 444.337 189.712 444.336 192.208Z" fill="black"/>
<path d="M421.938 181.436C421.713 181.556 421.462 181.776 421.53 182.027C421.573 182.146 421.654 182.249 421.76 182.32C422.345 182.792 423.022 183.139 423.747 183.339C425.164 183.726 426.754 183.543 428.03 184.27C429.473 185.091 430.122 186.885 430.122 188.548C430.122 190.211 429.599 191.822 429.301 193.453C429.16 194.206 429.086 195.064 429.578 195.65C429.801 195.88 430.081 196.049 430.388 196.14C430.696 196.232 431.022 196.243 431.335 196.173C431.961 196.028 432.555 195.769 433.087 195.409C433.248 195.28 433.433 195.184 433.631 195.128C433.83 195.072 434.038 195.058 434.243 195.085C434.458 195.167 434.65 195.299 434.802 195.472C435.687 196.358 436.397 197.403 436.894 198.552C437.354 199.598 437.626 200.722 438.076 201.779C438.468 202.856 439.202 203.775 440.168 204.394C441.172 204.948 442.563 204.917 443.337 204.059C444.111 203.201 444.048 202.025 444.414 200.994C445.042 199.201 446.794 198.076 447.892 196.528C449.121 194.787 449.461 192.601 449.796 190.493C449.944 189.83 449.955 189.143 449.827 188.475C449.683 188.033 449.497 187.605 449.273 187.199C448.049 184.668 448.075 181.483 446.135 179.464C444.671 177.948 442.448 177.487 440.356 177.226C438.264 176.964 436.068 176.818 434.274 175.715C433.771 175.334 433.216 175.028 432.627 174.805C432.328 174.7 432.002 174.703 431.706 174.814C431.409 174.924 431.161 175.136 431.006 175.411C430.969 175.572 430.895 175.722 430.791 175.851C430.697 175.904 430.592 175.936 430.484 175.943C430.376 175.949 430.268 175.93 430.169 175.887L427.387 175.139L427.706 176.541C426.694 176.583 425.686 176.405 424.751 176.018C424.699 176.813 425.593 177.325 425.87 178.068C425.97 178.406 425.974 178.764 425.882 179.104C425.789 179.444 425.604 179.752 425.347 179.992C424.338 181.007 423.078 180.813 421.938 181.436Z" fill="#585268"/>
<path opacity="0.1" d="M410.662 370.286L410.547 371.547H410.5C405.966 374.078 396.589 367.018 396.589 367.018L397.567 366.04C397.728 366.218 397.849 366.428 397.923 366.656C397.997 366.884 398.022 367.125 397.996 367.363L399.91 367.468L402.201 369.941C402.201 369.941 408.398 370.658 410.076 370.26L410.662 370.286Z" fill="black"/>
<path d="M409.868 377.158C406.918 377.817 396.59 377.77 396.59 377.77L390.795 378.685C390.795 378.685 380.859 379.637 379.756 376.551C378.652 373.466 380.623 373.659 380.623 373.659H380.702L384.838 373.325C384.838 373.325 390.068 371.296 392.008 369.899C393.527 368.717 394.961 367.431 396.302 366.05C396.302 366.05 398.028 365.716 397.996 367.713L399.91 367.818L402.2 370.297C402.2 370.297 408.398 371.013 410.076 370.611H410.662L410.395 373.67L410.468 373.759C410.866 374.24 412.503 376.572 409.868 377.158Z" fill="#FF748F"/>
<path d="M399.173 369.779C399.332 369.779 399.461 369.651 399.461 369.492C399.461 369.333 399.332 369.204 399.173 369.204C399.014 369.204 398.885 369.333 398.885 369.492C398.885 369.651 399.014 369.779 399.173 369.779Z" fill="#575988"/>
<path d="M391.742 373.001C391.9 373.001 392.03 372.872 392.03 372.713C392.03 372.554 391.9 372.425 391.742 372.425C391.583 372.425 391.454 372.554 391.454 372.713C391.454 372.872 391.583 373.001 391.742 373.001Z" fill="#575988"/>
<path d="M387.914 374.162C388.072 374.162 388.202 374.033 388.202 373.874C388.202 373.715 388.072 373.586 387.914 373.586C387.755 373.586 387.626 373.715 387.626 373.874C387.626 374.033 387.755 374.162 387.914 374.162Z" fill="#575988"/>
<path d="M393.693 372.384C393.851 372.384 393.98 372.255 393.98 372.096C393.98 371.937 393.851 371.809 393.693 371.809C393.534 371.809 393.405 371.937 393.405 372.096C393.405 372.255 393.534 372.384 393.693 372.384Z" fill="#575988"/>
<path d="M389.823 373.581C389.981 373.581 390.11 373.452 390.11 373.293C390.11 373.135 389.981 373.006 389.823 373.006C389.664 373.006 389.535 373.135 389.535 373.293C389.535 373.452 389.664 373.581 389.823 373.581Z" fill="#575988"/>
<path d="M395.664 371.468C395.823 371.468 395.952 371.34 395.952 371.181C395.952 371.022 395.823 370.893 395.664 370.893C395.505 370.893 395.376 371.022 395.376 371.181C395.376 371.34 395.505 371.468 395.664 371.468Z" fill="#575988"/>
<path d="M397.615 370.621C397.773 370.621 397.902 370.493 397.902 370.334C397.902 370.175 397.773 370.046 397.615 370.046C397.456 370.046 397.327 370.175 397.327 370.334C397.327 370.493 397.456 370.621 397.615 370.621Z" fill="#575988"/>
<path d="M409.868 377.158C406.918 377.817 396.59 377.77 396.59 377.77L390.795 378.685C390.795 378.685 380.859 379.637 379.756 376.552C378.652 373.466 380.623 373.66 380.623 373.66H380.702C381.335 374.481 382.605 375.412 385.1 375.459L392.244 375.746L399.643 375.223C399.643 375.223 406.578 375.019 407.708 374.779C408.656 374.524 409.58 374.184 410.468 373.764C410.866 374.24 412.503 376.572 409.868 377.158Z" fill="#DCE6F2"/>
<path opacity="0.5" d="M391.354 377.989C390.959 377.995 390.565 377.946 390.183 377.843L390.267 377.54C391.241 377.749 392.254 377.704 393.206 377.409C393.556 377.315 393.901 377.215 394.252 377.111C394.885 376.91 395.529 376.748 396.181 376.625C397.236 376.488 398.301 376.456 399.361 376.53H399.586C402.754 376.697 405.931 376.555 409.072 376.107C409.818 376.055 410.528 375.77 411.101 375.291L411.326 375.516C410.707 376.043 409.936 376.359 409.125 376.421C405.963 376.871 402.765 377.013 399.575 376.844H399.345C398.299 376.771 397.248 376.802 396.207 376.938C395.569 377.058 394.939 377.217 394.32 377.414C393.969 377.519 393.619 377.623 393.274 377.712C392.648 377.883 392.003 377.976 391.354 377.989Z" fill="#575988"/>
<path opacity="0.1" d="M434.88 275.991L433.019 277.743L428.396 271.823C428.883 271.549 429.356 271.251 429.813 270.929L434.88 275.991Z" fill="black"/>
<path d="M455.841 227.487L459.502 232.544V237.842C459.502 237.842 461.16 243.453 459.502 249.065L459.68 253.965C459.68 253.965 457.917 258.467 458.55 259.576C458.55 259.576 458.236 262.897 453.969 265.187C449.702 267.478 444.859 272.906 444.859 272.906C444.859 272.906 443.039 276.384 438.139 275.594L433.474 277.571L428.103 270.694L435.372 266.741C435.372 266.741 437.904 263.347 439.404 263.503L445.57 256.308C445.57 256.308 445.727 254.017 447.306 254.017C447.306 254.017 444.383 251.648 445.408 250.226C446.433 248.803 445.57 242.475 445.57 242.475L455.841 227.487Z" fill="#67647E"/>
<path opacity="0.1" d="M449.042 250.539C449.042 250.539 457.342 250.383 458.367 252.516C459.392 254.65 451.547 249.352 449.042 250.539Z" fill="black"/>
<path opacity="0.1" d="M432.794 277.571C432.795 277.71 432.783 277.848 432.758 277.984C432.662 278.621 432.35 279.205 431.873 279.637C431.396 280.07 430.785 280.324 430.143 280.358H429.996C429.255 280.358 428.545 280.064 428.022 279.541C427.498 279.017 427.204 278.306 427.204 277.566C427.204 277.258 427.257 276.952 427.361 276.661C426.043 275.615 425.969 273.691 426.006 272.739C426.697 272.624 427.363 272.389 427.972 272.043C428.316 273.031 428.778 273.974 429.348 274.852C429.56 274.802 429.778 274.775 429.996 274.773C430.363 274.773 430.727 274.845 431.067 274.986C431.406 275.127 431.715 275.333 431.975 275.593C432.234 275.853 432.44 276.161 432.581 276.501C432.721 276.84 432.794 277.203 432.794 277.571Z" fill="black"/>
<path d="M428.223 271.416C428.223 271.416 426.351 271.84 426.351 272.18C426.351 272.519 425.928 275.605 427.983 276.886C430.038 278.167 429.829 275.119 429.829 275.119C429.829 275.119 428.061 272.41 428.223 271.416Z" fill="#575988"/>
<path d="M430.31 280.364C431.852 280.364 433.103 279.113 433.103 277.571C433.103 276.029 431.852 274.778 430.31 274.778C428.767 274.778 427.518 276.029 427.518 277.571C427.518 279.113 428.767 280.364 430.31 280.364Z" fill="#E4AAB4"/>
<path d="M430.31 279.966C431.633 279.966 432.705 278.894 432.705 277.571C432.705 276.248 431.633 275.176 430.31 275.176C428.987 275.176 427.915 276.248 427.915 277.571C427.915 278.894 428.987 279.966 430.31 279.966Z" fill="#DCE6F2"/>
<path opacity="0.1" d="M419.432 278.654C419.432 278.654 425.336 283.549 432.919 280.442V282.817C432.919 282.817 427.862 286.294 423.281 284.187C418.7 282.079 419.432 278.654 419.432 278.654Z" fill="black"/>
<path opacity="0.1" d="M419.432 278.021C419.432 278.021 425.336 282.921 432.919 279.81V282.184C432.919 282.184 427.862 285.661 423.281 283.554C418.7 281.446 419.432 278.021 419.432 278.021Z" fill="black"/>
<path d="M419.432 278.021C419.432 278.021 425.336 282.921 432.919 279.81V282.184C432.919 282.184 427.862 285.661 423.281 283.554C418.7 281.446 419.432 278.021 419.432 278.021Z" fill="#444053"/>
<path opacity="0.05" d="M419.589 278.021C419.589 278.021 425.493 282.921 433.081 279.81V282.184C433.081 282.184 428.024 285.661 423.438 283.554C418.852 281.446 419.589 278.021 419.589 278.021Z" fill="black"/>
<path opacity="0.1" d="M400.883 366.04C400.883 366.04 408.79 367.494 409.946 367.808C411.101 368.121 409.632 368.676 409.632 368.676C409.632 368.676 402.415 367.384 400.883 366.04Z" fill="black"/>
<path opacity="0.1" d="M400.7 361.851C400.831 361.851 406.076 360.376 407.206 357.851L400.7 361.851Z" fill="black"/>
<path opacity="0.1" d="M408.351 331.608C408.351 331.608 410.474 334.401 411.844 334.323C413.215 334.244 409.596 331.504 408.351 331.608Z" fill="black"/>
<path opacity="0.1" d="M409.528 336.263C409.528 336.263 410.422 338.234 411.74 337.601L409.528 336.263Z" fill="black"/>
<path opacity="0.05" d="M414.527 292.857L420.133 307.641C420.133 307.641 420.923 298.128 419.254 295.284C418.78 294.47 418.083 293.809 417.246 293.379C416.408 292.949 415.464 292.768 414.527 292.857Z" fill="black"/>
<g opacity="0.1">
<path opacity="0.1" d="M428.302 175.714L428.254 175.5L427.355 175.259L427.454 175.699C427.736 175.719 428.019 175.725 428.302 175.714Z" fill="black"/>
<path opacity="0.1" d="M425.828 179.281L425.922 179.197C426.18 178.956 426.365 178.649 426.457 178.309C426.55 177.969 426.546 177.61 426.445 177.273C426.337 177.01 426.184 176.768 425.996 176.556C425.552 176.469 425.118 176.341 424.699 176.174C424.646 176.964 425.535 177.476 425.813 178.219C425.941 178.561 425.947 178.936 425.828 179.281Z" fill="black"/>
<path opacity="0.1" d="M440.78 203.583C439.805 202.968 439.06 202.049 438.662 200.968C438.217 199.922 437.94 198.792 437.485 197.747C436.988 196.597 436.278 195.552 435.393 194.666C435.242 194.492 435.05 194.359 434.834 194.279C434.63 194.253 434.423 194.267 434.225 194.322C434.028 194.377 433.843 194.471 433.683 194.598C433.151 194.959 432.557 195.22 431.931 195.367C431.618 195.438 431.292 195.427 430.984 195.335C430.676 195.244 430.397 195.075 430.174 194.844C429.683 194.258 429.75 193.396 429.892 192.648C430.2 191.016 430.713 189.4 430.718 187.742C430.723 186.085 430.085 184.286 428.626 183.465C427.35 182.738 425.766 182.942 424.348 182.534C423.621 182.334 422.943 181.987 422.355 181.514C422.318 181.484 422.283 181.45 422.251 181.415C422.132 181.46 422.017 181.514 421.906 181.577C421.676 181.697 421.43 181.917 421.493 182.168C421.54 182.287 421.622 182.389 421.728 182.46C422.313 182.934 422.99 183.282 423.716 183.48C425.133 183.867 426.717 183.684 427.993 184.411C429.437 185.232 430.085 187.026 430.085 188.689C430.085 190.352 429.562 191.963 429.259 193.594C429.118 194.347 429.05 195.205 429.541 195.791C429.765 196.021 430.043 196.19 430.351 196.282C430.659 196.374 430.985 196.384 431.298 196.314C431.924 196.169 432.518 195.91 433.05 195.55C433.21 195.421 433.394 195.325 433.592 195.269C433.79 195.214 433.997 195.199 434.201 195.226C434.416 195.306 434.609 195.439 434.76 195.613C435.643 196.5 436.353 197.545 436.852 198.693C437.312 199.739 437.584 200.863 438.034 201.92C438.426 202.997 439.161 203.916 440.126 204.535C441.125 205.089 442.521 205.058 443.264 204.2C443.469 203.967 443.629 203.697 443.734 203.405C443.312 203.719 442.808 203.903 442.283 203.935C441.759 203.967 441.236 203.844 440.78 203.583Z" fill="black"/>
<path opacity="0.1" d="M445.298 199.561C446.088 198.562 447.128 197.71 447.871 196.664C448.017 196.455 448.153 196.235 448.279 196.016C447.322 197.234 446.009 198.202 445.298 199.561Z" fill="black"/>
</g>
</g>
<defs>
<linearGradient id="paint0_linear" x1="406.62" y1="383.894" x2="406.62" y2="172.943" gradientUnits="userSpaceOnUse">
<stop stop-color="#808080" stop-opacity="0.25"/>
<stop offset="0.54" stop-color="#808080" stop-opacity="0.12"/>
<stop offset="1" stop-color="#808080" stop-opacity="0.1"/>
</linearGradient>
<clipPath id="clip0">
<rect width="537.602" height="410" fill="white"/>
</clipPath>
</defs>
</svg>
