<svg width="432" height="336" viewBox="0 0 432 336" fill="none" xmlns="http://www.w3.org/2000/svg">
<g clip-path="url(#clip0)">
<path d="M380.616 312.478C380.585 312.34 377.54 298.465 383.758 286.94C389.976 275.417 403.249 270.335 403.382 270.284L403.989 270.057L404.132 270.689C404.164 270.828 407.208 284.703 400.99 296.227C394.773 307.75 381.499 312.832 381.366 312.883L380.759 313.11L380.616 312.478ZM403.157 271.599C400.498 272.742 390.005 277.744 384.754 287.477C379.501 297.211 381.086 308.722 381.591 311.568C384.249 310.428 394.738 305.434 399.995 295.69C405.247 285.957 403.663 274.447 403.157 271.599Z" fill="#3F3D56"/>
<path d="M396.239 292.184C385.065 298.903 380.761 312.248 380.761 312.248C380.761 312.248 394.574 314.699 405.749 307.981C416.923 301.263 421.226 287.918 421.226 287.918C421.226 287.918 407.413 285.466 396.239 292.184Z" fill="#D0CDE1"/>
<path d="M153.46 251.758C152.131 251.758 150.789 251.737 149.471 251.696L149.501 250.74C151.393 250.798 153.324 250.815 155.225 250.789L155.238 251.746C154.646 251.754 154.053 251.758 153.46 251.758ZM161.001 251.536L160.945 250.581C162.839 250.469 164.758 250.312 166.648 250.114L166.749 251.066C164.844 251.265 162.91 251.424 161.001 251.536ZM143.713 251.387C141.803 251.241 139.872 251.049 137.974 250.816L138.091 249.866C139.974 250.097 141.89 250.288 143.786 250.432L143.713 251.387ZM172.468 250.334L172.325 249.388C174.207 249.103 176.104 248.771 177.961 248.402L178.148 249.341C176.276 249.713 174.365 250.047 172.468 250.334ZM132.269 249.984C130.381 249.664 128.476 249.297 126.606 248.891L126.809 247.956C128.665 248.359 130.555 248.723 132.429 249.04L132.269 249.984ZM183.777 248.088L183.547 247.159C185.395 246.702 187.253 246.197 189.07 245.659L189.343 246.577C187.512 247.119 185.639 247.628 183.777 248.088ZM121 247.539C119.149 247.047 117.286 246.506 115.463 245.929L115.751 245.017C117.561 245.589 119.409 246.126 121.246 246.614L121 247.539ZM194.832 244.81L194.518 243.906C196.311 243.283 198.115 242.61 199.879 241.904L200.235 242.793C198.457 243.504 196.639 244.183 194.832 244.81ZM109.991 244.061C108.193 243.4 106.383 242.687 104.614 241.942L104.985 241.06C106.742 241.799 108.537 242.507 110.322 243.162L109.991 244.061ZM205.526 240.534L205.13 239.663C206.852 238.881 208.583 238.046 210.275 237.182L210.711 238.034C209.006 238.905 207.262 239.746 205.526 240.534ZM215.775 235.299L215.301 234.468C216.952 233.526 218.601 232.536 220.2 231.525L220.712 232.333C219.1 233.352 217.439 234.35 215.775 235.299ZM225.508 229.145L224.96 228.36C226.515 227.275 228.067 226.137 229.573 224.981L230.157 225.74C228.64 226.905 227.076 228.051 225.508 229.145ZM79.5165 227.797C77.9705 226.674 76.4261 225.499 74.9259 224.302L75.5236 223.554C77.0123 224.742 78.545 225.908 80.0791 227.022L79.5165 227.797ZM234.645 222.127L234.028 221.395C235.477 220.173 236.92 218.899 238.316 217.609L238.966 218.312C237.559 219.612 236.106 220.895 234.645 222.127ZM70.5004 220.602C69.0606 219.342 67.6301 218.032 66.2489 216.707L66.9121 216.016C68.283 217.331 69.7025 218.632 71.1313 219.883L70.5004 220.602ZM243.109 214.303L242.427 213.631C243.764 212.278 245.085 210.877 246.355 209.469L247.067 210.109C245.787 211.529 244.456 212.94 243.109 214.303ZM62.1803 212.622C60.8593 211.234 59.5546 209.799 58.3025 208.358L59.0261 207.73C60.2685 209.161 61.5632 210.585 62.8744 211.962L62.1803 212.622ZM250.83 205.74L250.09 205.132C251.297 203.664 252.486 202.149 253.623 200.629L254.391 201.202C253.244 202.734 252.046 204.261 250.83 205.74ZM54.6237 203.922C53.4374 202.424 52.2693 200.878 51.1517 199.325L51.929 198.766C53.0382 200.307 54.1974 201.841 55.3748 203.329L54.6237 203.922ZM257.74 196.505L256.948 195.968C258.016 194.396 259.062 192.778 260.057 191.158L260.874 191.659C259.871 193.291 258.816 194.921 257.74 196.505ZM47.8941 194.577C46.8504 192.978 45.8289 191.332 44.8577 189.685L45.6827 189.199C46.6467 190.833 47.6604 192.467 48.6962 194.053L47.8941 194.577ZM263.782 186.674L262.944 186.211C263.864 184.548 264.757 182.84 265.6 181.135L266.459 181.559C265.609 183.277 264.709 184.998 263.782 186.674H263.782ZM268.897 176.326L268.02 175.941C268.783 174.199 269.516 172.415 270.199 170.639L271.093 170.982C270.405 172.772 269.666 174.57 268.898 176.326H268.897ZM37.1393 174.26C36.405 172.499 35.7018 170.697 35.0493 168.904L35.9497 168.577C36.597 170.356 37.2948 172.144 38.0233 173.892L37.1393 174.26ZM273.04 165.542L272.13 165.24C272.728 163.441 273.292 161.601 273.807 159.772L274.729 160.031C274.21 161.874 273.641 163.728 273.04 165.542ZM33.2042 163.444C32.6343 161.619 32.0988 159.756 31.6126 157.904L32.5391 157.661C33.0216 159.499 33.5531 161.348 34.1186 163.159L33.2042 163.444ZM276.162 154.448L275.228 154.231C275.657 152.386 276.049 150.502 276.394 148.632L277.336 148.805C276.989 150.69 276.594 152.588 276.162 154.448ZM30.2787 152.297C29.8793 150.427 29.5177 148.523 29.2044 146.635L30.1491 146.478C30.4604 148.352 30.8191 150.242 31.2155 152.097L30.2787 152.297ZM278.249 143.115L277.299 142.985C277.557 141.11 277.775 139.199 277.946 137.303L278.9 137.389C278.727 139.3 278.508 141.226 278.249 143.115ZM28.391 140.93C28.1651 139.035 27.9796 137.105 27.8396 135.194L28.7951 135.123C28.9338 137.021 29.1181 138.936 29.3423 140.816L28.391 140.93ZM279.29 131.64L278.334 131.597C278.419 129.7 278.462 127.776 278.462 125.879H279.42C279.42 127.791 279.377 129.729 279.29 131.64ZM27.5493 129.437C27.5166 128.264 27.5 127.066 27.4998 125.879C27.4998 125.142 27.5061 124.407 27.5187 123.673L28.4766 123.69C28.4639 124.418 28.4576 125.148 28.4576 125.879C28.4579 127.057 28.4745 128.246 28.5067 129.411L27.5493 129.437ZM28.7039 117.975L27.7479 117.916C27.8674 116.003 28.0325 114.071 28.238 112.174L29.1903 112.277C28.9861 114.16 28.8227 116.077 28.7039 117.975H28.7039ZM277.844 112.135C277.652 110.248 277.389 109.328 277.111 107.449L278.059 107.309C278.339 109.203 278.579 110.648 278.772 112.549L277.844 112.135ZM29.9361 106.607L28.9894 106.46C29.2829 104.567 29.6239 102.658 30.0029 100.787L30.9417 100.976C30.5656 102.833 30.2272 104.728 29.9361 106.607H29.9361ZM276.145 101.813C275.779 99.9455 275.367 98.0658 274.919 96.2261L275.85 95.9998C276.301 97.8536 276.717 99.7478 277.085 101.629L276.145 101.813ZM32.2049 95.3985L31.2758 95.1657C31.741 93.3118 32.2562 91.4424 32.8071 89.6092L33.7243 89.8845C33.1778 91.7036 32.6666 93.5588 32.2049 95.3985ZM273.438 90.7015C272.903 88.8789 272.32 87.0454 271.703 85.2515L272.608 84.9402C273.23 86.7479 273.819 88.5958 274.357 90.4323L273.438 90.7015ZM35.5023 84.4314L34.5987 84.1141C35.2352 82.3045 35.9225 80.4863 36.6414 78.7099L37.5296 79.0689C36.8161 80.8315 36.1339 82.6359 35.5023 84.4314ZM269.718 79.887C269.019 78.1254 268.271 76.3574 267.493 74.632L268.367 74.2389C269.151 75.9776 269.905 77.7592 270.608 79.5342L269.718 79.887ZM39.8015 73.8072L38.9311 73.4076C39.7311 71.6665 40.5826 69.9205 41.4619 68.2182L42.3131 68.6571C41.4404 70.3465 40.5954 72.0792 39.8015 73.8072ZM265.03 69.4825C264.173 67.7926 263.264 66.0992 262.33 64.4499L263.164 63.9783C264.105 65.6404 265.02 67.3467 265.884 69.0497L265.03 69.4825ZM45.0588 63.6292L44.2286 63.1515C45.1842 61.4933 46.1918 59.8336 47.2238 58.2187L48.0311 58.7337C47.0071 60.3365 46.0069 61.9836 45.0588 63.6292ZM259.403 59.544C258.39 57.9338 257.331 56.3296 256.252 54.7759L257.039 54.2305C258.126 55.7961 259.194 57.4124 260.214 59.035L259.403 59.544ZM51.2242 53.9807L50.4412 53.4291C51.5455 51.864 52.7 50.304 53.8735 48.7924L54.6303 49.379C53.4659 50.8794 52.3198 52.4274 51.2242 53.9807ZM252.887 50.1554C251.733 48.6445 250.531 47.1424 249.313 45.6911L250.047 45.0763C251.274 46.5388 252.485 48.052 253.648 49.5744L252.887 50.1554ZM58.2422 44.9388L57.513 44.3181C58.7522 42.8635 60.0438 41.4157 61.3517 40.0149L62.0519 40.6679C60.754 42.0582 59.4723 43.4952 58.2422 44.9388ZM245.54 41.3931C244.253 39.9934 242.918 38.6061 241.573 37.2703L242.248 36.5911C243.604 37.9375 244.948 39.3351 246.245 40.7452L245.54 41.3931ZM66.0511 36.5762L65.3813 35.8919C66.751 34.5528 68.1684 33.2288 69.5938 31.957L70.2317 32.6712C68.8171 33.9332 67.4105 35.2471 66.0511 36.5762V36.5762ZM237.423 33.3312C236.013 32.0531 234.557 30.7925 233.096 29.5844L233.706 28.8469C235.178 30.064 236.646 31.3342 238.066 32.6221L237.423 33.3312ZM74.5849 28.9604L73.9802 28.2182C75.4616 27.0125 76.9927 25.8234 78.531 24.6839L79.1016 25.4528C77.5748 26.5839 76.0552 27.7639 74.5849 28.9604H74.5849ZM83.7719 22.1557L83.2373 21.3615C84.8229 20.2954 86.4552 19.2514 88.0891 18.2579L88.5868 19.0759C86.9655 20.0617 85.3455 21.0979 83.7719 22.1557H83.7719ZM93.5363 16.22L93.0766 15.3801C94.754 14.4628 96.474 13.5728 98.1886 12.7345L98.6096 13.5946C96.9081 14.4263 95.2012 15.3095 93.5363 16.22ZM209.137 14.0022C207.433 13.1536 205.687 12.3337 203.948 11.5656L204.335 10.6901C206.088 11.4641 207.847 12.2903 209.565 13.1454L209.137 14.0022ZM103.796 11.205L103.415 10.3267C105.168 9.56738 106.962 8.83915 108.745 8.16211L109.085 9.0572C107.315 9.72888 105.536 10.4515 103.796 11.205ZM198.65 9.36967C196.877 8.68236 195.061 8.02657 193.255 7.4208L193.56 6.51309C195.38 7.12377 197.209 7.78445 198.996 8.47738L198.65 9.36967ZM114.48 7.15041L114.182 6.24083C116.002 5.64441 117.86 5.08282 119.702 4.57217L119.958 5.49437C118.13 6.00128 116.287 6.55845 114.48 7.15041H114.48ZM187.788 5.72714C185.961 5.20669 184.098 4.72198 182.25 4.28658L182.47 3.35504C184.332 3.79371 186.21 4.28215 188.051 4.80635L187.788 5.72714ZM125.506 4.09238L125.293 3.1592C127.159 2.73315 129.06 2.34497 130.943 2.00563L131.113 2.94746C129.245 3.28446 127.358 3.66961 125.506 4.09238ZM176.651 3.10311C174.786 2.75323 172.886 2.44196 171.004 2.17787L171.137 1.22996C173.033 1.49615 174.948 1.80978 176.828 2.16221L176.651 3.10311ZM136.767 2.06148L136.641 1.11264C138.537 0.859775 140.465 0.647103 142.372 0.481173L142.455 1.43469C140.563 1.59968 138.649 1.81046 136.767 2.06148ZM165.32 1.51228C163.433 1.33466 161.512 1.19771 159.611 1.10587L159.658 0.149546C161.573 0.242327 163.508 0.380212 165.409 0.559252L165.32 1.51228ZM148.167 1.06754L148.127 0.11124C149.887 0.0378567 151.681 0.000469055 153.46 0L153.893 0.000697463L153.891 0.957952L153.46 0.957255C151.695 0.9577 149.914 0.994854 148.167 1.06754Z" fill="#3F3D56"/>
<path d="M432 312.205H80.9402V313.162H432V312.205Z" fill="#3F3D56"/>
<path d="M286.409 151.258L291.198 225.446C291.198 225.446 302.692 254.642 302.214 282.402C302.214 282.402 297.903 293.411 301.256 295.325C304.608 297.24 306.524 298.676 304.608 300.112C302.692 301.547 301.256 304.898 302.692 305.855C304.129 306.812 304.608 308.248 304.129 308.248H289.761C289.761 308.248 292.635 301.069 288.324 299.154C284.014 297.24 286.409 292.454 286.409 292.454L254.32 198.643L228.936 284.795C228.936 284.795 233.247 287.667 229.894 289.103C226.542 290.539 225.105 287.667 226.542 290.539C227.978 293.411 226.063 294.847 226.063 295.325C226.063 295.804 211.695 293.889 211.695 293.889C211.695 293.889 218.879 287.667 215.526 286.231C212.174 284.795 210.737 283.36 211.695 282.402C212.653 281.445 216.484 272.351 216.484 272.351C216.484 272.351 218.4 237.89 218.879 236.454C219.358 235.018 218.879 228.317 218.879 224.967C218.879 221.617 218.4 208.215 219.837 204.865C221.273 201.514 222.71 160.352 230.373 155.566C238.036 150.78 286.409 151.258 286.409 151.258Z" fill="#2F2E41"/>
<path d="M225.584 292.932C225.584 292.932 235.163 312.556 228.458 314.949C221.752 317.342 213.132 315.428 211.216 318.299C209.3 321.171 188.227 324.522 187.748 317.342C187.269 310.163 210.737 296.761 210.737 296.761L213.794 291.842L225.584 292.932Z" fill="#2F2E41"/>
<path d="M303.172 307.291C303.172 307.291 312.75 326.915 306.045 329.308C299.34 331.701 290.719 329.786 288.803 332.658C286.888 335.53 265.815 338.88 265.336 331.701C264.857 324.522 288.325 311.12 288.325 311.12L291.382 306.201L303.172 307.291Z" fill="#2F2E41"/>
<path d="M258.87 61.0372C267.599 61.0372 274.675 53.9656 274.675 45.2425C274.675 36.5193 267.599 29.4478 258.87 29.4478C250.141 29.4478 243.065 36.5193 243.065 45.2425C243.065 53.9656 250.141 61.0372 258.87 61.0372Z" fill="#FFB8B8"/>
<path d="M269.646 53.6182L267.731 67.4984L253.362 78.5068L249.531 73.2419V55.054L269.646 53.6182Z" fill="#FFB8B8"/>
<path d="M247.136 71.3276C247.136 71.3276 261.983 72.7634 269.646 67.4985L284.972 157.959C284.972 157.959 230.852 162.267 228.458 159.395V131.156L238.036 85.2078L247.136 71.3276Z" fill="#3F3D56"/>
<path d="M268.327 63.1738L273.478 67.4988C273.478 67.4988 294.551 70.8492 293.114 76.5927L287.367 144.558L289.282 167.532C289.282 167.532 272.999 163.224 260.546 167.532C248.094 171.84 257.987 74.9638 257.987 74.9638C257.987 74.9638 269.403 64.5924 268.327 63.1738Z" fill="#D0CDE1"/>
<path d="M249.531 68.4126C249.531 68.4126 234.205 79.4644 232.289 86.6438C230.373 93.8232 224.147 169.446 224.147 169.446C224.147 169.446 227.021 168.01 228.458 170.404C229.894 172.797 251.926 72.1983 249.531 68.4126Z" fill="#D0CDE1"/>
<path d="M243.073 44.5541C243.073 44.5541 241.362 41.9893 242.02 39.2272C242.413 37.659 242.568 36.0407 242.48 34.4264C242.48 34.4264 243.862 29.9544 245.244 27.4554C246.626 24.9563 245.968 23.9041 250.311 23.1149C254.655 22.3258 252.878 16.67 264.328 22.7861C264.715 23.3252 265.252 23.7377 265.873 23.9718C266.494 24.2059 267.17 24.251 267.816 24.1014C270.185 23.641 271.041 26.9293 271.041 26.9293C271.041 26.9293 272.62 26.0086 273.212 27.3238C273.805 28.6391 278.027 26.5344 278.027 35.4127C278.027 44.2909 273.222 52.2214 273.222 52.2214C273.222 52.2214 273.574 37.2872 265.743 35.7746C257.912 34.262 249.489 29.8558 247.449 35.5115C246.348 38.6858 244.879 41.7206 243.073 44.5541Z" fill="#2F2E41"/>
<path d="M273.393 48.1047C274.246 48.1047 274.938 47.1832 274.938 46.0465C274.938 44.9098 274.246 43.9883 273.393 43.9883C272.54 43.9883 271.849 44.9098 271.849 46.0465C271.849 47.1832 272.54 48.1047 273.393 48.1047Z" fill="#FFB8B8"/>
<path d="M208.481 194.059C204.691 191.782 200.122 191.956 198.385 192.13C199.046 193.744 201.031 197.861 204.821 200.14C208.62 202.423 213.183 202.244 214.918 202.071C214.257 200.457 212.272 196.339 208.481 194.059Z" fill="#D0CDE1"/>
<path d="M226.29 239.253H202.603C201.19 239.253 199.834 239.815 198.835 240.813C197.835 241.812 197.274 243.167 197.274 244.579C197.274 245.992 197.835 247.347 198.835 248.345C199.834 249.344 201.19 249.905 202.603 249.905H226.29C227.702 249.904 229.056 249.342 230.055 248.344C231.053 247.345 231.614 245.991 231.614 244.579C231.614 243.168 231.053 241.814 230.055 240.815C229.056 239.816 227.702 239.255 226.29 239.253Z" fill="#D0CDE1"/>
<path d="M333.549 183.035H200.748C199.203 183.035 197.673 183.339 196.246 183.93C194.818 184.52 193.522 185.386 192.429 186.478C191.337 187.57 190.47 188.866 189.879 190.292C189.288 191.718 188.984 193.247 188.984 194.791V259.453C188.984 262.571 190.223 265.561 192.429 267.766C194.635 269.97 197.628 271.209 200.748 271.209H333.549C335.094 271.209 336.623 270.905 338.051 270.314C339.478 269.723 340.775 268.857 341.867 267.766C342.96 266.674 343.826 265.378 344.417 263.952C345.008 262.525 345.313 260.997 345.313 259.453V194.791C345.313 193.247 345.008 191.718 344.417 190.292C343.826 188.866 342.96 187.57 341.867 186.478C340.775 185.386 339.478 184.52 338.051 183.93C336.623 183.339 335.094 183.035 333.549 183.035ZM197.462 191.054C197.724 191.007 203.943 189.949 209.092 193.046C214.241 196.142 216.219 202.128 216.301 202.381L216.509 203.027L215.841 203.145C214.887 203.294 213.923 203.365 212.959 203.357C210.62 203.357 207.231 202.97 204.21 201.153C199.061 198.058 197.083 192.071 197.002 191.818L196.794 191.173L197.462 191.054ZM226.289 251.089H202.603C200.876 251.089 199.219 250.403 197.997 249.182C196.776 247.961 196.09 246.306 196.09 244.579C196.09 242.853 196.776 241.197 197.997 239.976C199.219 238.756 200.876 238.07 202.603 238.07H226.289C228.017 238.07 229.674 238.756 230.895 239.976C232.117 241.197 232.803 242.853 232.803 244.579C232.803 246.306 232.117 247.961 230.895 249.182C229.674 250.403 228.017 251.089 226.289 251.089ZM334.062 249.905C334.056 251.787 333.306 253.59 331.974 254.92C330.643 256.251 328.839 257.001 326.956 257.006H309.191C307.308 257.001 305.504 256.251 304.173 254.92C302.841 253.59 302.091 251.787 302.085 249.905V239.253C302.091 237.372 302.841 235.569 304.173 234.238C305.504 232.907 307.308 232.157 309.191 232.152H326.956C328.839 232.157 330.643 232.907 331.974 234.238C333.306 235.569 334.056 237.372 334.062 239.253L334.062 249.905Z" fill="#D0CDE1"/>
<path d="M314.817 247.834H307.119C306.569 247.834 306.042 248.052 305.653 248.441C305.265 248.829 305.046 249.356 305.046 249.905C305.046 250.455 305.265 250.981 305.653 251.37C306.042 251.758 306.569 251.976 307.119 251.976H314.817C315.367 251.976 315.894 251.758 316.282 251.37C316.671 250.981 316.889 250.455 316.889 249.905C316.889 249.356 316.671 248.829 316.282 248.441C315.894 248.052 315.367 247.834 314.817 247.834ZM314.817 250.793H307.119C307.002 250.793 306.886 250.77 306.778 250.726C306.67 250.681 306.572 250.616 306.49 250.534C306.407 250.451 306.341 250.353 306.296 250.245C306.252 250.138 306.229 250.022 306.229 249.905C306.229 249.788 306.252 249.673 306.296 249.565C306.341 249.457 306.407 249.359 306.49 249.277C306.572 249.194 306.67 249.129 306.778 249.085C306.886 249.04 307.002 249.017 307.119 249.018H314.817C314.934 249.017 315.049 249.04 315.157 249.085C315.265 249.129 315.364 249.194 315.446 249.277C315.529 249.359 315.595 249.457 315.639 249.565C315.684 249.673 315.707 249.788 315.707 249.905C315.707 250.022 315.684 250.138 315.639 250.245C315.595 250.353 315.529 250.451 315.446 250.534C315.364 250.616 315.265 250.681 315.157 250.726C315.049 250.77 314.934 250.793 314.817 250.793Z" fill="#D0CDE1"/>
<path d="M329.029 247.834H321.331C321.058 247.834 320.788 247.887 320.536 247.991C320.285 248.095 320.056 248.247 319.863 248.44C319.67 248.632 319.517 248.86 319.413 249.112C319.309 249.363 319.255 249.633 319.255 249.905C319.255 250.177 319.309 250.447 319.413 250.699C319.517 250.95 319.67 251.179 319.863 251.371C320.056 251.563 320.285 251.716 320.536 251.82C320.788 251.924 321.058 251.977 321.331 251.976H329.029C329.578 251.976 330.105 251.758 330.494 251.37C330.883 250.981 331.101 250.455 331.101 249.905C331.101 249.356 330.883 248.829 330.494 248.441C330.105 248.052 329.578 247.834 329.029 247.834ZM329.029 250.793H321.331C321.214 250.793 321.098 250.77 320.99 250.726C320.882 250.681 320.784 250.616 320.701 250.534C320.618 250.451 320.553 250.353 320.508 250.245C320.463 250.138 320.44 250.022 320.44 249.905C320.44 249.788 320.463 249.673 320.508 249.565C320.553 249.457 320.618 249.359 320.701 249.277C320.784 249.194 320.882 249.129 320.99 249.085C321.098 249.04 321.214 249.017 321.331 249.018H329.029C329.264 249.018 329.489 249.112 329.655 249.278C329.821 249.445 329.915 249.67 329.915 249.905C329.915 250.14 329.821 250.366 329.655 250.532C329.489 250.699 329.264 250.792 329.029 250.793Z" fill="#D0CDE1"/>
<path d="M314.817 242.508H307.119C306.569 242.508 306.042 242.726 305.653 243.114C305.265 243.503 305.046 244.03 305.046 244.579C305.046 245.128 305.265 245.655 305.653 246.044C306.042 246.432 306.569 246.65 307.119 246.65H314.817C315.089 246.651 315.359 246.597 315.611 246.493C315.863 246.39 316.092 246.237 316.284 246.045C316.477 245.852 316.63 245.624 316.735 245.372C316.839 245.121 316.893 244.851 316.893 244.579C316.893 244.307 316.839 244.037 316.735 243.786C316.63 243.534 316.477 243.306 316.284 243.113C316.092 242.921 315.863 242.768 315.611 242.665C315.359 242.561 315.089 242.507 314.817 242.508ZM314.817 245.467H307.119C306.883 245.467 306.657 245.373 306.491 245.207C306.324 245.04 306.231 244.814 306.231 244.579C306.231 244.344 306.324 244.118 306.491 243.951C306.657 243.785 306.883 243.691 307.119 243.691H314.817C315.053 243.691 315.278 243.785 315.445 243.951C315.612 244.118 315.705 244.344 315.705 244.579C315.705 244.814 315.612 245.04 315.445 245.207C315.278 245.373 315.053 245.467 314.817 245.467Z" fill="#D0CDE1"/>
<path d="M329.029 242.508H321.331C321.058 242.507 320.788 242.561 320.536 242.665C320.285 242.768 320.056 242.921 319.863 243.113C319.67 243.306 319.517 243.534 319.413 243.786C319.309 244.037 319.255 244.307 319.255 244.579C319.255 244.851 319.309 245.121 319.413 245.372C319.517 245.624 319.67 245.852 319.863 246.045C320.056 246.237 320.285 246.39 320.536 246.493C320.788 246.597 321.058 246.651 321.331 246.65H329.029C329.578 246.65 330.105 246.432 330.494 246.044C330.883 245.655 331.101 245.128 331.101 244.579C331.101 244.03 330.883 243.503 330.494 243.114C330.105 242.726 329.578 242.508 329.029 242.508ZM329.029 245.467H321.331C321.095 245.467 320.869 245.373 320.703 245.207C320.536 245.04 320.442 244.814 320.442 244.579C320.442 244.344 320.536 244.118 320.703 243.951C320.869 243.785 321.095 243.691 321.331 243.691H329.029C329.264 243.691 329.49 243.785 329.657 243.951C329.823 244.118 329.917 244.344 329.917 244.579C329.917 244.814 329.823 245.04 329.657 245.207C329.49 245.373 329.264 245.467 329.029 245.467Z" fill="#D0CDE1"/>
<path d="M314.817 237.182H307.119C306.569 237.182 306.042 237.4 305.653 237.789C305.265 238.177 305.046 238.704 305.046 239.253C305.046 239.803 305.265 240.329 305.653 240.718C306.042 241.106 306.569 241.325 307.119 241.325H314.817C315.367 241.325 315.894 241.106 316.282 240.718C316.671 240.329 316.889 239.803 316.889 239.253C316.889 238.704 316.671 238.177 316.282 237.789C315.894 237.4 315.367 237.182 314.817 237.182ZM314.817 240.141H307.119C306.883 240.141 306.657 240.047 306.491 239.881C306.324 239.715 306.231 239.489 306.231 239.253C306.231 239.018 306.324 238.792 306.491 238.626C306.657 238.459 306.883 238.366 307.119 238.366H314.817C315.053 238.366 315.278 238.459 315.445 238.626C315.612 238.792 315.705 239.018 315.705 239.253C315.705 239.489 315.612 239.715 315.445 239.881C315.278 240.047 315.053 240.141 314.817 240.141Z" fill="#D0CDE1"/>
<path d="M329.029 237.182H321.331C321.058 237.182 320.788 237.235 320.536 237.339C320.285 237.443 320.056 237.595 319.863 237.788C319.67 237.98 319.517 238.209 319.413 238.46C319.309 238.711 319.255 238.981 319.255 239.253C319.255 239.526 319.309 239.795 319.413 240.047C319.517 240.298 319.67 240.527 319.863 240.719C320.056 240.911 320.285 241.064 320.536 241.168C320.788 241.272 321.058 241.325 321.331 241.325H329.029C329.578 241.324 330.104 241.105 330.492 240.717C330.88 240.328 331.098 239.802 331.098 239.253C331.098 238.705 330.88 238.178 330.492 237.79C330.104 237.402 329.578 237.183 329.029 237.182ZM329.029 240.141H321.331C321.095 240.141 320.869 240.047 320.703 239.881C320.536 239.715 320.442 239.489 320.442 239.253C320.442 239.018 320.536 238.792 320.703 238.626C320.869 238.459 321.095 238.366 321.331 238.366H329.029C329.264 238.366 329.49 238.459 329.657 238.626C329.823 238.792 329.917 239.018 329.917 239.253C329.917 239.489 329.823 239.715 329.657 239.881C329.49 240.047 329.264 240.141 329.029 240.141Z" fill="#D0CDE1"/>
<path d="M291.677 168.489L288.244 179.684C288.244 179.684 287.367 200.557 275.872 197.685C264.378 194.813 279.225 170.403 279.225 170.403L282.577 165.138L291.677 168.489Z" fill="#FFB8B8"/>
<path d="M226.542 168.489L223.109 179.684C223.109 179.684 222.231 200.557 210.737 197.685C199.242 194.813 214.089 170.403 214.089 170.403L217.442 165.138L226.542 168.489Z" fill="#FFB8B8"/>
<path d="M289.282 73.2421C289.282 73.2421 296.945 71.3276 299.34 84.2505C301.735 97.1735 304.608 134.028 304.608 134.028L293.114 172.797C293.114 172.797 281.619 166.574 279.225 167.532L288.27 133.874L280.661 99.5666C280.661 99.5666 287.367 73.2421 289.282 73.2421Z" fill="#D0CDE1"/>
<path opacity="0.15" d="M278.141 100.221L288.198 133.725L278.141 167.708L283.888 133.725L278.141 100.221Z" fill="black"/>
<path d="M232.289 99.5664L215.047 167.532C215.047 167.532 224.142 170.531 227.495 172.924L232.289 99.5664Z" fill="#D0CDE1"/>
<path d="M51.4195 270.369C77.8704 270.369 99.3131 248.94 99.3131 222.506C99.3131 196.072 77.8704 174.644 51.4195 174.644C24.9686 174.644 3.52588 196.072 3.52588 222.506C3.52588 248.94 24.9686 270.369 51.4195 270.369Z" fill="#3F3D56"/>
<path opacity="0.1" d="M51.4194 263.669C74.1672 263.669 92.6079 245.24 92.6079 222.507C92.6079 199.774 74.1672 181.345 51.4194 181.345C28.6717 181.345 10.231 199.774 10.231 222.507C10.231 245.24 28.6717 263.669 51.4194 263.669Z" fill="black"/>
<path d="M49.4459 246.796V240.805C46.4155 240.746 43.2805 239.678 41.4519 238.195L42.7058 234.221C44.8788 235.848 47.5142 236.742 50.2296 236.771C53.9393 236.771 56.4472 234.339 56.4472 230.958C56.4472 227.696 54.4095 225.679 50.5431 223.899C45.2137 221.527 41.9221 218.798 41.9221 213.638C41.9221 208.714 45.0048 204.977 49.8117 204.088V198.097H53.051V203.851C55.4665 203.883 57.8227 204.604 59.8435 205.926L58.5371 209.842C56.599 208.516 54.3024 207.812 51.9538 207.825C47.9308 207.825 46.4155 210.553 46.4155 212.926C46.4155 216.01 48.3487 217.553 52.8944 219.688C58.2758 222.179 60.9929 225.264 60.9929 230.543C60.9929 235.229 58.1192 239.619 52.7375 240.627V246.796H49.4459Z" fill="#6C63FF"/>
<path d="M102.013 319.863C68.1959 324.903 33.8175 324.903 0 319.863V308.376C33.8533 312.907 68.16 312.907 102.013 308.376V319.863Z" fill="#3F3D56"/>
<path d="M102.013 302.154C68.1959 307.194 33.8175 307.194 0 302.154V290.667C33.8533 295.198 68.16 295.198 102.013 290.667V302.154Z" fill="#3F3D56"/>
<path d="M102.013 284.445C68.1959 289.485 33.8175 289.485 0 284.445V272.958C33.8533 277.488 68.16 277.488 102.013 272.958V284.445Z" fill="#3F3D56"/>
</g>
<defs>
<clipPath id="clip0">
<rect width="432" height="336" fill="white"/>
</clipPath>
</defs>
</svg>
