<svg width="239" height="185" viewBox="0 0 239 185" fill="none" xmlns="http://www.w3.org/2000/svg">
<path opacity="0.1" d="M51.8296 0.145442C44.1431 -0.136989 36.113 -0.335454 29.1669 2.95449C22.2208 6.24443 16.8471 14.2288 19.1752 21.572C19.9385 23.9613 21.4193 26.0528 22.6635 28.2283C28.9074 39.1209 29.1975 53.1967 23.4116 64.3336C18.9538 72.9134 11.3971 79.4399 5.9623 87.4243C0.527535 95.4087 -2.56387 106.492 2.7793 114.538C6.44319 120.049 13.2443 122.728 19.824 123.385C26.4114 124.033 33.0369 123.011 39.6472 122.751C52.5166 122.255 65.3402 124.682 77.141 129.842C93.3918 136.964 107.383 149.155 124.497 153.857C126.55 154.422 128.695 154.88 130.794 154.49C134.519 153.811 137.229 150.735 140.145 148.3C149.457 140.59 162.342 139.147 174.432 138.796C186.523 138.445 199.103 138.712 210.026 133.522C219.567 128.995 226.902 120.56 231.475 111.042C236.047 101.523 238.024 90.9432 238.772 80.4093C239.215 74.1424 239.199 67.6617 236.955 61.7918C234.436 55.189 229.314 49.9373 223.948 45.3421C218.338 40.5407 212.232 36.1898 205.308 33.5944C197.042 30.4953 188.065 30.0602 179.257 29.3198C161.204 27.8084 143.289 24.9383 125.672 20.7171C108.948 16.7173 90.5905 12.351 75.3625 4.21398C67.7294 0.130176 60.4474 0.450773 51.8296 0.145442Z" fill="#6C63FF"/>
<g opacity="0.1">
<path opacity="0.1" d="M157.83 139.223C157.83 139.223 158.616 128.254 164.783 122.277C167.386 119.789 169.119 116.514 169.707 112.957C169.974 111.262 170.081 109.553 170.035 107.843" fill="#6C63FF"/>
<path opacity="0.1" d="M173.905 104.049C173.455 105.263 169.951 107.957 169.951 107.957C169.951 107.957 169.066 103.629 169.524 102.416C169.974 101.202 171.325 100.591 172.531 101.042C173.745 101.484 174.355 102.835 173.905 104.049Z" fill="#6C63FF"/>
<path opacity="0.1" d="M175.027 112.11C173.989 112.881 169.584 113.232 169.584 113.232C169.584 113.232 171.195 109.118 172.241 108.347C173.302 107.606 174.76 107.858 175.5 108.919C176.21 109.942 176.004 111.339 175.027 112.11Z" fill="#6C63FF"/>
<path opacity="0.1" d="M170.584 123.514C169.294 123.659 165.318 121.743 165.318 121.743C165.318 121.743 168.791 119.003 170.073 118.865C171.363 118.797 172.47 119.781 172.539 121.071C172.6 122.27 171.76 123.315 170.584 123.514Z" fill="#6C63FF"/>
<path opacity="0.1" d="M165.279 131.384C164.035 131.743 159.791 130.521 159.791 130.521C159.791 130.521 162.753 127.239 163.989 126.88C165.218 126.491 166.539 127.17 166.928 128.399C167.318 129.628 166.638 130.949 165.409 131.338C165.363 131.361 165.325 131.369 165.279 131.384Z" fill="#6C63FF"/>
<path opacity="0.1" d="M164.89 111.751C165.44 112.919 169.165 115.3 169.165 115.3C169.165 115.3 169.676 110.911 169.119 109.743C168.531 108.591 167.119 108.133 165.967 108.721C164.867 109.285 164.394 110.614 164.89 111.751Z" fill="#6C63FF"/>
<path opacity="0.1" d="M158.807 121.033C159.692 121.98 163.944 123.148 163.944 123.148C163.944 123.148 163.119 118.805 162.242 117.858C161.364 116.911 159.875 116.858 158.929 117.743C157.99 118.614 157.936 120.087 158.807 121.033Z" fill="#6C63FF"/>
<path opacity="0.1" d="M154.128 130.865C154.83 131.949 158.837 133.819 158.837 133.819C158.837 133.819 158.761 129.399 158.051 128.316C157.318 127.255 155.86 126.987 154.792 127.72C153.776 128.43 153.479 129.812 154.128 130.865Z" fill="#6C63FF"/>
<path opacity="0.1" d="M173.905 104.049C173.455 105.263 169.951 107.957 169.951 107.957C169.951 107.957 169.066 103.629 169.524 102.416C169.974 101.202 171.325 100.591 172.531 101.042C173.745 101.484 174.355 102.835 173.905 104.049Z" fill="#6C63FF"/>
<path opacity="0.1" d="M175.027 112.11C173.989 112.881 169.584 113.232 169.584 113.232C169.584 113.232 171.195 109.118 172.241 108.347C173.302 107.606 174.76 107.858 175.5 108.919C176.21 109.942 176.004 111.339 175.027 112.11Z" fill="#6C63FF"/>
<path opacity="0.1" d="M170.584 123.514C169.294 123.659 165.318 121.743 165.318 121.743C165.318 121.743 168.791 119.003 170.073 118.865C171.363 118.797 172.47 119.781 172.539 121.071C172.6 122.27 171.76 123.315 170.584 123.514Z" fill="#6C63FF"/>
<path opacity="0.1" d="M165.279 131.384C164.035 131.743 159.791 130.521 159.791 130.521C159.791 130.521 162.753 127.239 163.989 126.88C165.218 126.491 166.539 127.17 166.928 128.399C167.318 129.628 166.638 130.949 165.409 131.338C165.363 131.361 165.325 131.369 165.279 131.384Z" fill="#6C63FF"/>
<path opacity="0.1" d="M164.89 111.751C165.44 112.919 169.165 115.3 169.165 115.3C169.165 115.3 169.676 110.911 169.119 109.743C168.531 108.591 167.119 108.133 165.967 108.721C164.867 109.285 164.394 110.614 164.89 111.751Z" fill="#6C63FF"/>
<path opacity="0.1" d="M158.807 121.033C159.692 121.98 163.944 123.148 163.944 123.148C163.944 123.148 163.119 118.805 162.242 117.858C161.364 116.911 159.875 116.858 158.929 117.743C157.99 118.614 157.936 120.087 158.807 121.033Z" fill="#6C63FF"/>
<path opacity="0.1" d="M154.128 130.865C154.83 131.949 158.837 133.819 158.837 133.819C158.837 133.819 158.761 129.399 158.051 128.316C157.318 127.255 155.86 126.987 154.792 127.72C153.776 128.43 153.479 129.812 154.128 130.865Z" fill="#6C63FF"/>
</g>
<g opacity="0.1">
<path opacity="0.1" d="M159.997 97.7061C159.997 97.7061 160.784 86.7371 166.951 80.7602C169.554 78.2641 171.287 74.9971 171.874 71.44C172.142 69.7454 172.256 68.0355 172.203 66.3257" fill="#6C63FF"/>
<path opacity="0.1" d="M176.073 62.5319C175.63 63.7379 172.119 66.4325 172.119 66.4325C172.119 66.4325 171.233 62.1044 171.691 60.8907C172.142 59.677 173.493 59.0664 174.699 59.5167C175.912 59.9747 176.523 61.3182 176.073 62.5319Z" fill="#6C63FF"/>
<path opacity="0.1" d="M177.195 70.5929C176.157 71.3639 171.752 71.715 171.752 71.715C171.752 71.715 173.363 67.6006 174.409 66.8297C175.424 66.0282 176.897 66.2114 177.699 67.2266C178.5 68.2418 178.317 69.7151 177.302 70.5166C177.264 70.5395 177.233 70.57 177.195 70.5929Z" fill="#6C63FF"/>
<path opacity="0.1" d="M172.752 81.9968C171.47 82.1418 167.485 80.2259 167.485 80.2259C167.485 80.2259 170.958 77.4932 172.241 77.3481C173.523 77.1802 174.699 78.0886 174.859 79.3709C175.027 80.6533 174.119 81.8289 172.836 81.9891C172.806 81.9891 172.775 81.9968 172.752 81.9968Z" fill="#6C63FF"/>
<path opacity="0.1" d="M167.447 89.8665C166.203 90.2253 161.959 89.004 161.959 89.004C161.959 89.004 164.921 85.7217 166.157 85.3629C167.402 85.0194 168.692 85.7598 169.035 87.0041C169.363 88.233 168.661 89.5001 167.447 89.8665Z" fill="#6C63FF"/>
<path opacity="0.1" d="M167.058 70.2338C167.608 71.4017 171.333 73.7909 171.333 73.7909C171.333 73.7909 171.844 69.4018 171.287 68.2339C170.76 67.0583 169.371 66.5316 168.188 67.0583C167.012 67.585 166.486 68.9743 167.012 70.1575C167.027 70.1727 167.043 70.2033 167.058 70.2338Z" fill="#6C63FF"/>
<path opacity="0.1" d="M160.967 79.516C161.852 80.4702 166.112 81.6304 166.112 81.6304C166.112 81.6304 165.287 77.2871 164.409 76.3406C163.509 75.417 162.028 75.394 161.097 76.2948C160.203 77.1573 160.15 78.5771 160.967 79.516Z" fill="#6C63FF"/>
<path opacity="0.1" d="M156.295 89.3475C156.998 90.4314 161.005 92.3015 161.005 92.3015C161.005 92.3015 160.929 87.8819 160.219 86.7979C159.547 85.6911 158.104 85.3476 156.998 86.0193C155.891 86.6911 155.547 88.1338 156.219 89.2406C156.242 89.2788 156.272 89.3169 156.295 89.3475Z" fill="#6C63FF"/>
<path opacity="0.1" d="M176.073 62.5319C175.63 63.7379 172.119 66.4325 172.119 66.4325C172.119 66.4325 171.233 62.1044 171.691 60.8907C172.142 59.677 173.493 59.0664 174.699 59.5167C175.912 59.9747 176.523 61.3182 176.073 62.5319Z" fill="#6C63FF"/>
<path opacity="0.1" d="M177.195 70.5929C176.157 71.3639 171.752 71.715 171.752 71.715C171.752 71.715 173.363 67.6006 174.409 66.8297C175.424 66.0282 176.897 66.2114 177.699 67.2266C178.5 68.2418 178.317 69.7151 177.302 70.5166C177.264 70.5395 177.233 70.57 177.195 70.5929Z" fill="#6C63FF"/>
<path opacity="0.1" d="M172.752 81.9968C171.47 82.1418 167.485 80.2259 167.485 80.2259C167.485 80.2259 170.958 77.4932 172.241 77.3481C173.523 77.1802 174.699 78.0886 174.859 79.3709C175.027 80.6533 174.119 81.8289 172.836 81.9891C172.806 81.9891 172.775 81.9968 172.752 81.9968Z" fill="#6C63FF"/>
<path opacity="0.1" d="M167.447 89.8665C166.203 90.2253 161.959 89.004 161.959 89.004C161.959 89.004 164.921 85.7217 166.157 85.3629C167.402 85.0194 168.692 85.7598 169.035 87.0041C169.363 88.233 168.661 89.5001 167.447 89.8665Z" fill="#6C63FF"/>
<path opacity="0.1" d="M167.058 70.2338C167.608 71.4017 171.333 73.7909 171.333 73.7909C171.333 73.7909 171.844 69.4018 171.287 68.2339C170.76 67.0583 169.371 66.5316 168.188 67.0583C167.012 67.585 166.486 68.9743 167.012 70.1575C167.027 70.1727 167.043 70.2033 167.058 70.2338Z" fill="#6C63FF"/>
<path opacity="0.1" d="M160.967 79.516C161.852 80.4702 166.112 81.6304 166.112 81.6304C166.112 81.6304 165.287 77.2871 164.409 76.3406C163.509 75.417 162.028 75.394 161.097 76.2948C160.203 77.1573 160.15 78.5771 160.967 79.516Z" fill="#6C63FF"/>
<path opacity="0.1" d="M156.295 89.3475C156.998 90.4314 161.005 92.3015 161.005 92.3015C161.005 92.3015 160.929 87.8819 160.219 86.7979C159.547 85.6911 158.104 85.3476 156.998 86.0193C155.891 86.6911 155.547 88.1338 156.219 89.2406C156.242 89.2788 156.272 89.3169 156.295 89.3475Z" fill="#6C63FF"/>
</g>
<g opacity="0.1">
<path opacity="0.1" d="M42.7149 112.072C42.7149 112.072 33.2728 106.446 30.7004 98.2477C29.6471 94.7975 27.5022 91.7899 24.5863 89.6603C23.1971 88.6603 21.7163 87.7901 20.1667 87.0649" fill="#6C63FF"/>
<path opacity="0.1" d="M18.5179 81.9051C19.4033 82.8516 20.2277 87.1949 20.2277 87.1949C20.2277 87.1949 15.9608 86.0347 15.083 85.0881C14.2281 84.1187 14.3273 82.6378 15.2967 81.7829C16.2356 80.9585 17.6477 81.012 18.5179 81.9051Z" fill="#6C63FF"/>
<path opacity="0.1" d="M26.2196 84.5385C26.441 85.8132 24.777 89.9047 24.777 89.9047C24.777 89.9047 21.8306 86.6147 21.6093 85.34C21.3574 84.0728 22.1817 82.8362 23.4488 82.5844C24.7159 82.3325 25.9525 83.1568 26.2044 84.424C26.212 84.4621 26.2196 84.5003 26.2196 84.5385Z" fill="#6C63FF"/>
<path opacity="0.1" d="M34.4101 93.6222C33.9674 94.8359 30.4562 97.5304 30.4562 97.5304C30.4562 97.5304 29.5707 93.2024 30.0287 91.9887C30.4485 90.7674 31.7767 90.1109 32.998 90.5307C34.2193 90.9505 34.8757 92.2787 34.4559 93.5001C34.4406 93.5382 34.4254 93.584 34.4101 93.6222Z" fill="#6C63FF"/>
<path opacity="0.1" d="M39.0587 101.897C38.8221 103.172 35.8223 106.423 35.8223 106.423C35.8223 106.423 34.2193 102.301 34.4636 101.034C34.7002 99.7671 35.9291 98.9274 37.1962 99.1717C38.4633 99.4083 39.3029 100.637 39.0587 101.904V101.897Z" fill="#6C63FF"/>
<path opacity="0.1" d="M21.3497 93.416C22.6397 93.4466 26.4486 91.2024 26.4486 91.2024C26.4486 91.2024 22.7542 88.7674 21.4642 88.7369C20.1742 88.7292 19.1208 89.775 19.1132 91.0726C19.0979 92.3321 20.0902 93.3702 21.3497 93.416Z" fill="#6C63FF"/>
<path opacity="0.1" d="M26.899 103.026C28.1432 102.667 31.0972 99.3851 31.0972 99.3851C31.0972 99.3851 26.8456 98.1714 25.609 98.5302C24.3725 98.9195 23.6855 100.232 24.0748 101.461C24.4488 102.66 25.693 103.347 26.899 103.026Z" fill="#6C63FF"/>
<path opacity="0.1" d="M33.5855 111.629C34.8755 111.484 38.3409 108.751 38.3409 108.751C38.3409 108.751 34.3641 106.835 33.0741 106.98C31.7841 107.049 30.7994 108.156 30.8681 109.446C30.9368 110.736 32.0436 111.721 33.3336 111.652C33.41 111.652 33.5016 111.644 33.5855 111.629Z" fill="#6C63FF"/>
<path opacity="0.1" d="M18.5179 81.9051C19.4033 82.8516 20.2277 87.1949 20.2277 87.1949C20.2277 87.1949 15.9608 86.0347 15.083 85.0881C14.2281 84.1187 14.3273 82.6378 15.2967 81.7829C16.2356 80.9585 17.6477 81.012 18.5179 81.9051Z" fill="#6C63FF"/>
<path opacity="0.1" d="M26.2196 84.5385C26.441 85.8132 24.777 89.9047 24.777 89.9047C24.777 89.9047 21.8306 86.6147 21.6093 85.34C21.3574 84.0728 22.1817 82.8362 23.4488 82.5844C24.7159 82.3325 25.9525 83.1568 26.2044 84.424C26.212 84.4621 26.2196 84.5003 26.2196 84.5385Z" fill="#6C63FF"/>
<path opacity="0.1" d="M34.4101 93.6222C33.9674 94.8359 30.4562 97.5304 30.4562 97.5304C30.4562 97.5304 29.5707 93.2024 30.0287 91.9887C30.4485 90.7674 31.7767 90.1109 32.998 90.5307C34.2193 90.9505 34.8757 92.2787 34.4559 93.5001C34.4406 93.5382 34.4254 93.584 34.4101 93.6222Z" fill="#6C63FF"/>
<path opacity="0.1" d="M39.0587 101.897C38.8221 103.172 35.8223 106.423 35.8223 106.423C35.8223 106.423 34.2193 102.301 34.4636 101.034C34.7002 99.7671 35.9291 98.9274 37.1962 99.1717C38.4633 99.4083 39.3029 100.637 39.0587 101.904V101.897Z" fill="#6C63FF"/>
<path opacity="0.1" d="M21.3497 93.416C22.6397 93.4466 26.4486 91.2024 26.4486 91.2024C26.4486 91.2024 22.7542 88.7674 21.4642 88.7369C20.1742 88.7292 19.1208 89.775 19.1132 91.0726C19.0979 92.3321 20.0902 93.3702 21.3497 93.416Z" fill="#6C63FF"/>
<path opacity="0.1" d="M26.899 103.026C28.1432 102.667 31.0972 99.3851 31.0972 99.3851C31.0972 99.3851 26.8456 98.1714 25.609 98.5302C24.3725 98.9195 23.6855 100.232 24.0748 101.461C24.4488 102.66 25.693 103.347 26.899 103.026Z" fill="#6C63FF"/>
<path opacity="0.1" d="M33.5855 111.629C34.8755 111.484 38.3409 108.751 38.3409 108.751C38.3409 108.751 34.3641 106.835 33.0741 106.98C31.7841 107.049 30.7994 108.156 30.8681 109.446C30.9368 110.736 32.0436 111.721 33.3336 111.652C33.41 111.652 33.5016 111.644 33.5855 111.629Z" fill="#6C63FF"/>
</g>
<path opacity="0.1" d="M158.463 178.283C164.814 181.046 172.554 179.366 179.759 179.557C180.744 179.58 181.79 179.664 182.576 180.145C183.362 180.626 183.759 181.397 184.301 182.061C186.316 184.527 190.453 185.313 194.072 184.901C197.69 184.481 201.002 183.099 204.414 182.046C210.307 180.221 217.047 179.389 222.864 181.382C223.398 181.565 223.97 181.771 224.528 181.702C225.802 181.542 226.184 180.221 227.077 179.466C228.688 178.099 232.184 178.473 232.893 176.672C233.306 175.619 232.352 174.542 231.313 173.825C227.337 171.077 221.65 170.619 216.452 171.046C211.246 171.474 206.139 172.642 200.911 172.642C194.392 172.642 188.102 170.848 181.652 170.107C177.187 169.596 172.31 169.665 168.119 171.161C163.562 172.779 162.562 176.428 158.463 178.283Z" fill="#6C63FF"/>
<path opacity="0.1" d="M38.3411 169.817C49.1724 172.939 62.393 171.039 74.6899 171.26C76.3692 171.291 78.1553 171.382 79.5064 171.924C80.8574 172.466 81.5215 173.336 82.4451 174.084C85.8876 176.87 92.9483 177.764 99.1158 177.29C105.283 176.817 110.947 175.252 116.771 174.061C126.832 172 138.342 171.069 148.265 173.313C149.174 173.519 150.135 173.756 151.112 173.672C153.288 173.489 153.937 171.993 155.456 171.146C158.204 169.596 164.173 170.023 165.379 167.993C166.089 166.802 164.463 165.581 162.684 164.772C155.898 161.665 146.197 161.154 137.312 161.634C128.427 162.115 119.702 163.436 110.779 163.444C99.6578 163.444 88.9104 161.413 77.9034 160.581C70.278 160.009 61.9502 160.077 54.798 161.772C47.0504 163.604 45.3406 167.718 38.3411 169.817Z" fill="#6C63FF"/>
<path opacity="0.1" d="M9.34302 177.458C12.4421 179.321 16.1975 178.191 19.7011 178.321C20.182 178.336 20.6858 178.397 21.0751 178.717C21.4644 179.038 21.6476 179.565 21.9147 180.008C22.8994 181.672 24.9069 182.206 26.6625 181.923C28.4181 181.641 30.0364 180.71 31.6927 180C34.5704 178.771 37.845 178.214 40.6693 179.557C40.9135 179.71 41.1959 179.786 41.486 179.779C42.1043 179.672 42.2875 178.779 42.7226 178.267C43.5088 177.351 45.211 177.603 45.5468 176.389C45.7453 175.679 45.2873 174.954 44.7759 174.466C42.8447 172.611 40.0739 172.306 37.5473 172.588C35.0131 172.87 32.5324 173.649 29.9829 173.649C26.8152 173.649 23.7543 172.443 20.6095 171.939C18.434 171.596 16.0601 171.641 14.0221 172.649C11.8238 173.748 11.3353 176.206 9.34302 177.458Z" fill="#6C63FF"/>
<path d="M153.761 7.89259H51.0425C45.8444 7.88496 41.6309 12.0909 41.6233 17.2815V159.612C41.6309 164.802 45.852 169.008 51.0425 169H153.761C158.959 169.008 163.173 164.802 163.18 159.612V17.2815C163.18 12.0909 158.959 7.88496 153.761 7.89259Z" fill="url(#paint0_linear)"/>
<path d="M47.4855 9.82373H157.303C159.745 9.82373 161.722 11.8007 161.722 14.2434V163.138C161.722 165.581 159.745 167.558 157.303 167.558H47.4855C45.0429 167.558 43.0659 165.581 43.0659 163.138V14.2434C43.0659 11.8007 45.0429 9.82373 47.4855 9.82373Z" fill="#535461"/>
<path d="M155.7 24.7393H49.0962V152.635H155.7V24.7393Z" fill="#F6F7F9"/>
<path d="M101.917 18.5032C102.718 18.5032 103.367 17.8539 103.367 17.0529C103.367 16.2519 102.718 15.6025 101.917 15.6025C101.116 15.6025 100.467 16.2519 100.467 17.0529C100.467 17.8539 101.116 18.5032 101.917 18.5032Z" fill="#F6F7F9"/>
<path d="M101.917 164.184C104.316 164.184 106.26 162.24 106.26 159.841C106.26 157.442 104.316 155.498 101.917 155.498C99.5185 155.498 97.574 157.442 97.574 159.841C97.574 162.24 99.5185 164.184 101.917 164.184Z" fill="#F6F7F9"/>
<g opacity="0.2">
<path opacity="0.2" d="M155.7 24.7393H49.0962V31.113H155.7V24.7393Z" fill="#6C63FF"/>
</g>
<path d="M52.4317 29.2887C53.1821 29.2887 53.7904 28.6804 53.7904 27.93C53.7904 27.1796 53.1821 26.5713 52.4317 26.5713C51.6813 26.5713 51.073 27.1796 51.073 27.93C51.073 28.6804 51.6813 29.2887 52.4317 29.2887Z" fill="#F6F7F9"/>
<path d="M55.8973 29.2887C56.6477 29.2887 57.256 28.6804 57.256 27.93C57.256 27.1796 56.6477 26.5713 55.8973 26.5713C55.1469 26.5713 54.5386 27.1796 54.5386 27.93C54.5386 28.6804 55.1469 29.2887 55.8973 29.2887Z" fill="#F6F7F9"/>
<path d="M59.355 29.2887C60.1054 29.2887 60.7137 28.6804 60.7137 27.93C60.7137 27.1796 60.1054 26.5713 59.355 26.5713C58.6046 26.5713 57.9963 27.1796 57.9963 27.93C57.9963 28.6804 58.6046 29.2887 59.355 29.2887Z" fill="#F6F7F9"/>
<path d="M151.547 62.3408H52.2791V62.6691H151.547V62.3408Z" fill="#DCE0ED"/>
<path d="M151.547 70.0352H52.2791V70.3634H151.547V70.0352Z" fill="#DCE0ED"/>
<path d="M151.547 77.7446H52.2791V78.0729H151.547V77.7446Z" fill="#DCE0ED"/>
<path d="M151.547 85.4395H52.2791V85.7677H151.547V85.4395Z" fill="#DCE0ED"/>
<path d="M151.547 93.1411H52.2791V93.4693H151.547V93.1411Z" fill="#DCE0ED"/>
<g opacity="0.2">
<path opacity="0.2" d="M151.548 93.4768H52.157V78.3324L61.2709 82.8208L70.7054 84.1032L78.9873 81.6071L88.9714 73.8593L93.994 70.9587L97.6655 70.2488L101.177 70.4396L106.955 73.2944L114.809 78.3019L120.977 79.0881L125.862 77.4011L136.22 68.9206L141.51 67.0352L147.044 67.8901L151.548 70.493V93.4768Z" fill="#6C63FF"/>
</g>
<path d="M69.4841 84.0957C60.5305 84.0957 52.2638 78.6226 52.157 78.5539L52.4012 78.1875C52.531 78.2715 65.263 86.6986 76.0791 82.4774C80.0254 80.9279 82.8344 78.5463 85.5518 76.2334C88.3913 73.8137 91.0629 71.539 94.7192 70.5466C98.9097 69.4093 103.482 70.4398 106.963 73.2946C109.94 75.7372 115.855 79.6608 122.114 78.4852C125.305 77.8898 127.992 75.5617 130.831 73.0961C136.289 68.3711 141.93 63.4782 151.685 70.4932L151.425 70.852C141.953 64.0431 136.442 68.8139 131.121 73.432C128.228 75.9357 125.496 78.2944 122.191 78.9203C115.756 80.1264 109.711 76.1265 106.68 73.6305C103.314 70.8672 98.8868 69.8749 94.8336 70.9665C91.2766 71.9283 88.6432 74.1801 85.8342 76.5616C83.0939 78.8974 80.2544 81.3172 76.2394 82.882C74.0792 83.7064 71.7893 84.1186 69.4841 84.0957Z" fill="#6C63FF"/>
<path d="M100.047 72.6917C101.404 72.6917 102.505 71.5913 102.505 70.2338C102.505 68.8763 101.404 67.7759 100.047 67.7759C98.6895 67.7759 97.5891 68.8763 97.5891 70.2338C97.5891 71.5913 98.6895 72.6917 100.047 72.6917Z" fill="#6C63FF"/>
<g opacity="0.2">
<path opacity="0.2" d="M132.144 37.6699H101.1C100.826 37.6699 100.597 37.8989 100.597 38.1737V59.1652C100.597 59.44 100.826 59.669 101.1 59.669C101.238 59.669 101.375 59.6079 101.467 59.5087L106.848 53.7685C106.94 53.6693 107.077 53.6082 107.215 53.6082H132.144C132.419 53.6082 132.648 53.3792 132.648 53.1044V38.1661C132.648 37.8913 132.419 37.6699 132.144 37.6699Z" fill="#6C63FF"/>
</g>
<path d="M125.465 41.5557H107.787V43.7693H125.465V41.5557Z" fill="#F6F7F9"/>
<path d="M112.642 46.4561H107.787V48.6697H112.642V46.4561Z" fill="#F6F7F9"/>
<g opacity="0.2">
<path opacity="0.2" d="M65.5151 109.293H60.6604V111.507H65.5151V109.293Z" fill="#6C63FF"/>
</g>
<g opacity="0.2">
<path opacity="0.2" d="M65.5151 113.568H60.6604V115.782H65.5151V113.568Z" fill="#6C63FF"/>
</g>
<g opacity="0.2">
<path opacity="0.2" d="M65.5151 117.842H60.6604V120.056H65.5151V117.842Z" fill="#6C63FF"/>
</g>
<g opacity="0.2">
<path opacity="0.2" d="M65.5151 122.117H60.6604V124.331H65.5151V122.117Z" fill="#6C63FF"/>
</g>
<g opacity="0.2">
<path opacity="0.2" d="M65.5151 126.392H60.6604V128.605H65.5151V126.392Z" fill="#6C63FF"/>
</g>
<g opacity="0.2">
<path opacity="0.2" d="M65.5151 130.667H60.6604V132.88H65.5151V130.667Z" fill="#6C63FF"/>
</g>
<g opacity="0.2">
<path opacity="0.2" d="M65.5151 134.941H60.6604V137.155H65.5151V134.941Z" fill="#6C63FF"/>
</g>
<g opacity="0.2">
<path opacity="0.2" d="M65.5151 139.216H60.6604V141.429H65.5151V139.216Z" fill="#6C63FF"/>
</g>
<g opacity="0.2">
<path opacity="0.2" d="M74.6518 141.429H69.7971V143.643H74.6518V141.429Z" fill="#6C63FF"/>
</g>
<g opacity="0.2">
<path opacity="0.2" d="M83.2009 141.429H78.3462V143.643H83.2009V141.429Z" fill="#6C63FF"/>
</g>
<g opacity="0.2">
<path opacity="0.2" d="M91.7499 141.429H86.8953V143.643H91.7499V141.429Z" fill="#6C63FF"/>
</g>
<g opacity="0.2">
<path opacity="0.2" d="M100.299 141.429H95.4443V143.643H100.299V141.429Z" fill="#6C63FF"/>
</g>
<g opacity="0.2">
<path opacity="0.2" d="M108.848 141.429H103.993V143.643H108.848V141.429Z" fill="#6C63FF"/>
</g>
<g opacity="0.2">
<path opacity="0.2" d="M117.397 141.429H112.542V143.643H117.397V141.429Z" fill="#6C63FF"/>
</g>
<g opacity="0.2">
<path opacity="0.2" d="M125.946 141.429H121.092V143.643H125.946V141.429Z" fill="#6C63FF"/>
</g>
<g opacity="0.2">
<path opacity="0.2" d="M134.495 141.429H129.641V143.643H134.495V141.429Z" fill="#6C63FF"/>
</g>
<g opacity="0.2">
<path opacity="0.2" d="M143.044 141.429H138.19V143.643H143.044V141.429Z" fill="#6C63FF"/>
</g>
<path d="M125.458 46.4561H118.092V48.6697H125.458V46.4561Z" fill="#F6F7F9"/>
<path d="M74.6518 125.361H69.7971V139.216H74.6518V125.361Z" fill="#6C63FF"/>
<path d="M83.2009 118.949H78.3462V139.216H83.2009V118.949Z" fill="#6C63FF"/>
<path d="M91.7499 113.568H86.8953V139.216H91.7499V113.568Z" fill="#6C63FF"/>
<path d="M100.299 116.354H95.4443V139.208H100.299V116.354Z" fill="#6C63FF"/>
<path d="M108.848 111.507H103.993V139.216H108.848V111.507Z" fill="#6C63FF"/>
<g opacity="0.2">
<path opacity="0.2" d="M117.397 122.117H112.542V139.216H117.397V122.117Z" fill="#6C63FF"/>
</g>
<g opacity="0.2">
<path opacity="0.2" d="M125.946 122.117H121.092V139.216H125.946V122.117Z" fill="#6C63FF"/>
</g>
<g opacity="0.2">
<path opacity="0.2" d="M134.495 122.117H129.641V139.216H134.495V122.117Z" fill="#6C63FF"/>
</g>
<g opacity="0.2">
<path opacity="0.2" d="M143.044 122.117H138.19V139.216H143.044V122.117Z" fill="#6C63FF"/>
</g>
<path d="M218.765 60.2495C213.513 57.2268 211.521 56.4787 211.513 56.4711L211.406 56.3947C210.834 55.952 210.376 55.3795 210.078 54.723C210.078 54.6009 210.078 54.4788 210.078 54.3643V54.4024C210.162 52.7995 211.3 51.3415 212.383 50.0744L215.147 46.8226C215.46 46.502 215.704 46.1203 215.857 45.6929C215.91 45.4639 215.94 45.2349 215.933 44.9983C215.933 44.9067 215.933 44.8074 215.933 44.7158C215.918 43.9067 215.895 43.0976 215.864 42.2808C215.841 41.5785 215.658 40.6855 214.948 40.5404C214.582 40.4641 214.093 40.6015 213.902 40.2809C213.834 40.1511 213.818 40.0061 213.857 39.8611C213.857 39.8687 213.857 39.884 213.857 39.8916V39.8534C213.994 39.3115 214.086 38.7542 214.116 38.1894C214.131 37.9069 214.093 37.6169 214.002 37.3497C213.589 36.1742 212.185 35.7009 210.941 35.4796C209.697 35.2582 208.3 35.0674 207.521 34.0979C207.277 33.8002 207.117 33.4338 206.842 33.159C206.483 32.8385 206.04 32.6247 205.567 32.5331C204.025 32.1515 202.399 32.2965 200.941 32.9377C200.338 33.2048 199.735 33.5712 199.079 33.5254C198.423 33.4796 197.804 33.014 197.133 32.8919C196.041 32.7087 194.995 33.5102 194.461 34.4567C194.14 35.0216 193.972 35.6551 193.965 36.304C193.965 36.3421 193.965 36.3803 193.965 36.4108C193.95 37.1055 194.201 37.7848 194.675 38.2962C195.148 38.7848 195.85 39.1206 196.041 39.7618C196.117 40.0214 196.102 40.3038 196.171 40.571C196.171 40.6015 196.194 40.6397 196.201 40.6702L196.163 40.716C195.033 42.1587 194.423 43.9449 194.43 45.7768C194.453 49.4256 196.835 52.6392 200.316 53.7231C200.316 53.807 200.316 53.891 200.316 53.9673C200.316 54.9673 200.033 55.9978 199.171 56.7459L191.728 59.7381C191.728 59.7381 187.24 59.2038 185.622 65.7608C185.362 66.8523 185.271 67.9744 185.347 69.0889C185.408 70.0736 185.271 71.8216 184.118 74.0734C182.279 77.6763 182.698 85.9508 186.461 86.7675C190.011 87.5385 191.408 87.2103 191.545 87.1797V87.3247C191.484 88.8743 190.927 102.271 188.874 103.889C188.309 104.332 188.416 104.637 188.874 104.843C188.874 104.843 188.873 104.927 188.858 105.087C188.797 106.064 188.477 109.797 187.11 111.919C185.523 114.377 185.683 128.552 185.683 128.552L184.614 136.918C184.614 136.918 185.278 142.078 184.614 142.979C184.019 143.78 183.225 162.879 183.065 167.016H182.996C182.332 167.054 181.729 167.421 181.385 167.993C180.5 169.421 177.431 172.062 177.431 172.062C176.767 173.008 174.294 173.917 172.989 174.344C172.813 174.397 172.646 174.474 172.485 174.565C171.997 174.833 171.607 175.245 171.363 175.749C171.188 176.046 171.149 176.405 171.241 176.733C171.577 177.55 178.523 178.123 180.271 177.306C181.653 176.657 187.126 175.81 189.393 175.481C190.24 175.375 190.912 174.703 191.018 173.856C191.057 173.565 190.98 173.268 190.797 173.039C190.354 172.497 190.133 171.031 190.041 170.069C190.225 169.993 190.4 169.894 190.553 169.764C190.37 166.787 190.789 163.803 191.805 161.001C193.476 156.581 193.98 148.383 193.575 143.063C193.575 143.063 198.682 121.11 202.689 119.056C202.75 119.133 204.697 121.636 204.949 129.376C205.201 137.239 208.048 142.399 208.048 142.399C208.048 142.399 206.788 155.749 208.048 160.749L206.407 168.634C206.285 168.527 206.208 168.451 206.208 168.451C206.208 168.451 206.254 168.673 206.323 169.024L206.285 169.192L206.353 169.207C206.536 170.192 206.819 171.909 206.704 172.917C206.636 173.489 206.483 174.275 206.369 175.046C206.193 176.26 206.147 177.436 206.788 177.703C207.834 178.123 213.986 178.695 215.032 177.344C215.513 176.779 215.628 176 215.337 175.321C215.261 175.138 215.162 174.962 215.032 174.81C215.032 174.81 213.399 172.138 213.857 170.26C213.948 169.886 213.872 169.497 213.666 169.176C213.735 168.253 214.109 163.978 215.078 160.345C216.124 156.406 218.33 147.757 216.704 142.078C216.643 141.857 216.574 141.635 216.498 141.414C215.559 138.315 215.246 135.056 215.582 131.827C214.979 129.071 214.979 126.224 215.582 123.468C216.589 118.881 217.284 114.377 217.284 114.377C217.284 114.377 217.841 108.316 217.353 104.599L217.322 104.362L217.589 104.301C217.589 104.301 216.169 97.9961 215.666 93.981C215.544 93.0344 215.391 91.8284 215.223 90.546C215.689 90.4697 216.147 90.3552 216.589 90.2101C221.093 88.6453 222.505 74.5619 222.505 74.5619V70.0965C222.52 70.127 224.032 63.2876 218.765 60.2495ZM185.11 169.047C184.973 168.978 184.889 168.932 184.889 168.932L185.11 169.047Z" fill="url(#paint1_linear)"/>
<path d="M216.04 141.559C218.001 147.192 215.711 156.337 214.65 160.413C213.589 164.497 213.261 169.397 213.261 169.397C209.101 170.046 206.078 169.229 206.078 169.229L207.788 160.825C206.567 155.848 207.788 142.536 207.788 142.536C207.788 142.536 205.01 137.391 204.766 129.552C204.521 121.834 202.621 119.346 202.552 119.27C198.636 121.308 193.652 143.192 193.652 143.192C194.064 148.497 193.568 156.665 191.942 161.069C190.95 163.871 190.537 166.84 190.721 169.802C190.148 170.283 189.354 170.367 188.499 170.229C186.179 169.84 183.385 167.832 183.385 167.832C183.385 167.832 184.271 143.994 184.935 143.093C185.599 142.192 184.935 137.048 184.935 137.048L185.996 128.72C185.996 128.72 185.835 114.59 187.385 112.14C188.728 110.026 189.034 106.308 189.095 105.331C189.095 105.179 189.11 105.087 189.11 105.087L191.469 102.255C191.469 102.255 214.33 100.545 216.04 102.255C216.459 102.675 216.719 103.629 216.872 104.835C217.345 108.537 216.803 114.575 216.803 114.575C216.803 114.575 216.116 119.064 215.139 123.643C214.551 126.384 214.551 129.223 215.139 131.971C214.818 135.216 215.124 138.467 216.04 141.559Z" fill="#65617D"/>
<path d="M214.612 177.359C213.589 178.702 207.59 178.13 206.567 177.718C205.941 177.458 205.995 176.29 206.162 175.076C206.269 174.305 206.422 173.527 206.491 172.954C206.651 171.481 206.002 168.504 206.002 168.504C206.002 168.504 207.353 169.932 207.674 168.504C207.819 167.878 208.323 167.558 208.842 167.397C209.544 167.184 210.292 167.237 210.964 167.527C212.025 167.985 213.796 168.97 213.475 170.298C213.032 172.176 214.62 174.832 214.62 174.832C214.742 174.985 214.841 175.16 214.918 175.344C215.192 176.023 215.078 176.794 214.612 177.359Z" fill="#A27772"/>
<path opacity="0.1" d="M214.612 177.359C213.59 178.702 207.59 178.13 206.567 177.718C205.941 177.458 205.995 176.29 206.163 175.077C206.804 175.374 207.903 175.626 209.727 175.458C210.155 175.42 210.582 175.405 211.01 175.42C212.307 175.481 213.613 175.451 214.903 175.344C215.193 176.016 215.078 176.794 214.612 177.359Z" fill="black"/>
<path opacity="0.1" d="M193.667 143.192C194.079 148.498 193.583 156.665 191.957 161.07C190.965 163.871 190.553 166.84 190.736 169.802C190.163 170.283 189.37 170.367 188.515 170.229C189.011 166.779 191.102 151.948 192.461 140.231C193.98 126.88 201.147 117.697 201.147 117.697L202.575 119.27C198.644 121.315 193.667 143.192 193.667 143.192Z" fill="black"/>
<path d="M212.162 57.3944L211.162 62.2949L206.277 70.5007L200.254 67.9283C200.254 67.9283 192.072 59.3561 197.216 58.1348C197.835 58.0051 198.415 57.7455 198.926 57.3715C199.934 56.6082 200.254 55.5013 200.254 54.4174C200.254 52.6312 199.422 50.9061 199.422 50.9061L209.956 47.5933C209.521 48.9749 209.269 50.4099 209.2 51.8603C209.124 54.738 210.185 56.1425 211.063 56.8143C211.376 57.0738 211.757 57.2723 212.162 57.3944Z" fill="#FBBEBE"/>
<path opacity="0.1" d="M209.956 47.5933C209.521 48.9749 209.269 50.4099 209.201 51.8603C209.01 52.0893 208.804 52.303 208.59 52.5091C206.376 54.6235 203.178 55.3563 200.262 54.4098C200.262 52.6236 199.43 50.8985 199.43 50.8985L209.956 47.5933Z" fill="black"/>
<path d="M211.162 46.2498C211.162 50.8451 207.43 54.5777 202.835 54.5777C198.239 54.5777 194.507 50.8451 194.507 46.2498C194.507 41.6546 198.239 37.9219 202.835 37.9219H202.842C207.422 37.9067 211.147 41.6088 211.162 46.1888C211.162 46.204 211.162 46.2269 211.162 46.2498Z" fill="#FBBEBE"/>
<path opacity="0.1" d="M212.162 57.3948L211.162 62.2953L206.277 70.5011L200.254 67.9287C200.254 67.9287 192.072 59.3565 197.216 58.1352C197.835 58.0054 198.415 57.7459 198.926 57.3719C197.995 59.929 201.834 65.2341 201.834 65.2341C202.277 65.8982 203.308 65.4784 203.308 65.4784C205.773 65.1044 210.322 58.0054 211.063 56.8223C211.383 57.0818 211.757 57.2726 212.162 57.3948Z" fill="black"/>
<path opacity="0.1" d="M216.872 104.881C215.421 105.21 207.399 106.988 204.361 106.545C201.018 106.057 194.507 105.729 194.507 105.729C194.507 105.729 190.362 105.95 189.087 105.37C189.087 105.217 189.102 105.126 189.102 105.126L191.461 102.294C191.461 102.294 214.322 100.584 216.032 102.294C216.459 102.713 216.719 103.668 216.872 104.881Z" fill="black"/>
<path d="M201.834 65.4708C201.834 65.4708 197.529 59.5016 199.148 57.181L191.873 60.1657C191.873 60.1657 187.492 59.6313 185.904 66.173C185.652 67.257 185.561 68.3791 185.629 69.4859C185.69 70.4706 185.553 72.211 184.431 74.4551C182.637 78.0504 183.042 86.2944 186.713 87.1111C190.385 87.9279 191.69 87.5157 191.69 87.5157C191.69 87.5157 191.202 102.454 189.08 104.171C186.958 105.881 194.491 105.477 194.491 105.477C194.491 105.477 201.002 105.805 204.346 106.294C207.697 106.782 217.078 104.584 217.078 104.584C217.078 104.584 215.689 98.2939 215.2 94.294C214.711 90.2942 213.567 81.7755 213.567 81.7755L221.894 70.5011C221.894 70.5011 223.36 63.6846 218.223 60.6618C213.078 57.639 211.147 56.9062 211.147 56.9062C211.147 56.9062 205.987 65.3105 203.292 65.7227C203.3 65.715 202.277 66.1272 201.834 65.4708Z" fill="#7C7CDD"/>
<path opacity="0.1" d="M192.278 67.8369C192.278 67.8369 192.194 70.5315 192.683 71.5925C193.171 72.6535 194.965 78.5311 194.965 78.5311H190.881C190.881 78.5311 193.095 76.1648 192.919 75.0198C192.766 73.8825 192.278 67.8369 192.278 67.8369Z" fill="black"/>
<path d="M204.361 88.1718C204.361 88.1718 195.346 85.9581 194.507 84.088C193.667 82.2178 191.347 78.0119 191.347 78.0119L192.301 76.7295L196.69 80.1721C196.69 80.1721 201.911 84.3322 204.361 84.7444C206.811 85.149 204.361 88.1718 204.361 88.1718Z" fill="#FBBEBE"/>
<path opacity="0.05" d="M204.361 88.1718C204.361 88.1718 195.346 85.9581 194.507 84.088C193.667 82.2178 191.347 78.0119 191.347 78.0119L192.301 76.7295L196.69 80.1721C196.69 80.1721 201.911 84.3322 204.361 84.7444C206.811 85.149 204.361 88.1718 204.361 88.1718Z" fill="black"/>
<path d="M212.162 77.5542V82.4471H211.376C207.491 82.4471 203.674 83.4394 200.277 85.3248L198.804 86.1416L198.407 86.363L195.873 80.6609L198.239 78.5389H198.361C198.942 78.5923 201.445 78.806 202.506 78.4473C203.514 78.1038 204.766 77.0198 207.735 77.7832C209.2 78.1572 210.445 79.7984 211.864 79.2869L212.162 77.5542Z" fill="#FBBEBE"/>
<path opacity="0.1" d="M220.039 68.6614L221.673 70.4934V74.9436C221.673 74.9436 220.284 88.9888 215.879 90.5384C211.467 92.0879 203.605 89.6376 203.605 89.6376C203.605 89.6376 201.575 84.2485 202.521 83.928C203.476 83.5997 210.926 81.6303 210.926 81.6303C210.926 81.6303 210.819 73.394 212.452 70.9438C212.452 70.9438 211.391 63.2723 215.063 63.1044C218.727 62.9441 220.039 68.6614 220.039 68.6614Z" fill="black"/>
<path d="M220.284 68.6614L221.917 70.4934V74.9436C221.917 74.9436 220.536 88.9888 216.108 90.5384C211.689 92.0879 203.827 89.6376 203.827 89.6376C203.827 89.6376 201.796 84.2485 202.743 83.928C203.697 83.5997 211.147 81.6303 211.147 81.6303C211.147 81.6303 211.04 73.394 212.674 70.9438C212.674 70.9438 211.613 63.2723 215.284 63.1044C218.963 62.9441 220.284 68.6614 220.284 68.6614Z" fill="#7C7CDD"/>
<path opacity="0.1" d="M208.88 49.7842C208.91 49.2499 208.926 48.6774 208.697 48.1965C208.468 47.7156 207.926 47.3263 207.399 47.4484C206.697 47.6087 206.399 48.5171 205.712 48.7384C205.132 48.9216 204.506 48.5171 204.231 47.9751C203.957 47.4331 203.949 46.7996 203.949 46.2042C203.949 45.5248 203.949 44.8378 203.949 44.1585C203.949 43.418 203.926 42.6089 203.468 42.0288C202.903 41.3036 201.56 40.983 200.667 41.0136C200.071 41.0212 199.499 41.2502 199.071 41.6624C198.59 42.0669 198.041 42.3646 197.392 42.2578C196.842 42.1738 196.384 41.7769 196.217 41.2426V41.2197C198.995 37.5557 204.216 36.8305 207.88 39.609C211.544 42.3875 212.269 47.6087 209.491 51.2727C209.216 51.6314 208.918 51.9673 208.59 52.2803C208.735 51.4559 208.826 50.6239 208.88 49.7842Z" fill="black"/>
<path d="M197.377 42.0137C196.827 41.9297 196.369 41.5328 196.201 40.9985C196.133 40.7389 196.148 40.4565 196.072 40.1894C195.881 39.5482 195.186 39.2123 194.743 38.7314C193.827 37.7543 193.881 36.1513 194.537 34.9758C195.064 34.0293 196.087 33.2278 197.148 33.4186C197.812 33.5331 198.377 34.0064 199.048 34.0446C199.72 34.0904 200.277 33.724 200.865 33.4568C202.277 32.8156 203.873 32.6782 205.376 33.0599C205.842 33.1515 206.269 33.3728 206.621 33.6858C206.857 33.9835 207.078 34.2965 207.285 34.6171C208.048 35.5865 209.407 35.7773 210.62 35.9987C211.834 36.22 213.208 36.7009 213.605 37.8612C213.864 38.6322 213.605 39.4718 213.46 40.2809C213.406 40.4412 213.422 40.6244 213.49 40.7771C213.681 41.0901 214.154 40.9603 214.513 41.0366C215.2 41.1817 215.383 42.0671 215.399 42.7694C215.429 43.5709 215.452 44.38 215.467 45.1815C215.551 45.9372 215.261 46.6929 214.696 47.1967L212.002 50.4332C210.803 51.8683 209.536 53.5476 209.781 55.3948C209.216 55.6467 208.544 55.1582 208.353 54.5628C208.17 53.9674 208.315 53.3338 208.445 52.7232C208.666 51.6698 208.804 50.6088 208.872 49.5325C208.903 48.9905 208.918 48.4257 208.689 47.9448C208.46 47.4639 207.918 47.0593 207.391 47.1967C206.689 47.357 206.392 48.2654 205.705 48.4867C205.132 48.6699 204.499 48.2654 204.224 47.7234C203.949 47.1814 203.941 46.5479 203.941 45.9525V43.9068C203.941 43.1663 203.918 42.3572 203.46 41.7771C202.896 41.0519 201.552 40.7313 200.659 40.7618C200.064 40.7695 199.491 40.9985 199.064 41.4107C198.583 41.8152 198.033 42.1129 197.377 42.0137Z" fill="#7C5C5C"/>
<path opacity="0.1" d="M199.262 67.6382L201.819 78.1416C201.819 78.1416 203.834 78.1263 199.262 67.6382Z" fill="black"/>
<path opacity="0.1" d="M207.994 65.8828C207.994 65.8828 204.643 71.3635 205.956 77.035L206.582 77.0808C206.582 77.0808 205.468 74.455 207.994 65.8828Z" fill="black"/>
<path opacity="0.1" d="M210.116 96.9045C210.116 96.9045 214.223 95.5458 214.528 98.6983C214.528 98.6983 213.75 96.5381 210.116 96.9045Z" fill="black"/>
<path opacity="0.1" d="M198.239 78.7903C198.239 78.7903 197.423 84.5077 198.904 86.79C198.904 86.79 195.911 88.0113 191.721 87.7671L191.225 78.7827H198.239V78.7903Z" fill="black"/>
<path opacity="0.1" d="M198.797 86.1413L198.4 86.3627L195.865 80.6606L198.232 78.5386H198.354C198.323 78.8134 197.667 83.7216 198.797 86.1413Z" fill="black"/>
<path d="M198.239 78.5386C198.239 78.5386 197.422 84.2483 198.903 86.5382C198.903 86.5382 195.911 87.7596 191.721 87.5153L188.866 78.5386H198.239Z" fill="#7C7CDD"/>
<path d="M191.179 173.886C191.079 174.726 190.431 175.39 189.591 175.504C187.377 175.832 182.034 176.68 180.683 177.321C178.973 178.138 172.195 177.565 171.867 176.748C171.775 176.42 171.813 176.069 171.981 175.764C172.218 175.268 172.607 174.855 173.088 174.588C173.241 174.497 173.409 174.428 173.577 174.367C174.851 173.939 177.263 173.039 177.912 172.092C177.912 172.092 180.92 169.466 181.775 168.039C182.103 167.474 182.691 167.108 183.347 167.062C184.065 167.031 184.858 167.39 185.187 168.955C185.187 168.955 189.102 171.191 190.163 169.23C190.163 169.23 190.324 172.237 190.98 173.062C191.156 173.298 191.224 173.596 191.179 173.886Z" fill="#A27772"/>
<path opacity="0.1" d="M191.179 173.886C191.079 174.726 190.431 175.39 189.591 175.504C187.377 175.833 182.034 176.68 180.683 177.321C178.973 178.138 172.195 177.565 171.867 176.749C171.775 176.42 171.813 176.069 171.981 175.764C172.218 175.268 172.607 174.856 173.088 174.588C174.195 175.321 176.645 176.039 182.042 175.199C187.186 174.398 189.736 173.611 190.973 173.069C191.148 173.306 191.224 173.596 191.179 173.886Z" fill="black"/>
<g opacity="0.1">
<path opacity="0.1" d="M213.46 40.3872V40.349C213.574 39.7384 213.75 39.1048 213.712 38.4941C213.658 38.9979 213.574 39.4941 213.46 39.9826C213.429 40.1124 213.429 40.2498 213.46 40.3872Z" fill="black"/>
<path opacity="0.1" d="M208.689 48.0283C208.819 48.326 208.888 48.639 208.888 48.9596C208.926 48.5169 208.857 48.0741 208.689 47.6619C208.468 47.1734 207.918 46.7917 207.399 46.9139C206.697 47.0742 206.399 47.9825 205.712 48.2039C205.132 48.3871 204.506 47.9825 204.231 47.4406C203.957 46.8986 203.949 46.265 203.949 45.6697C203.949 44.9827 203.949 44.3033 203.949 43.6239C203.949 42.8835 203.926 42.0744 203.468 41.4943C202.903 40.7691 201.56 40.4485 200.667 40.479C200.071 40.4867 199.499 40.7157 199.071 41.1279C198.59 41.5324 198.041 41.8301 197.392 41.7232C196.842 41.6393 196.385 41.2424 196.217 40.708C196.148 40.4485 196.163 40.1661 196.087 39.8989C195.896 39.2577 195.201 38.9218 194.759 38.4409C194.331 37.9677 194.087 37.357 194.072 36.7158C194.003 37.4791 194.255 38.2348 194.759 38.8073C195.217 39.2959 195.904 39.6317 196.087 40.2729C196.163 40.5325 196.148 40.8149 196.217 41.0744C196.377 41.6088 196.835 42.0057 197.392 42.0896C198.056 42.1965 198.598 41.8988 199.071 41.4943C199.506 41.0897 200.071 40.8531 200.667 40.8454C201.552 40.8149 202.896 41.1355 203.468 41.8606C203.926 42.4408 203.949 43.2499 203.949 43.9903C203.949 44.6773 203.949 45.3567 203.949 46.036C203.949 46.6391 203.949 47.2726 204.231 47.807C204.514 48.3413 205.14 48.7535 205.712 48.5703C206.399 48.3489 206.697 47.4406 207.399 47.2803C207.933 47.1581 208.46 47.5398 208.689 48.0283Z" fill="black"/>
<path opacity="0.1" d="M215.398 45.7764C215.246 46.1962 215.009 46.5779 214.704 46.8985C213.803 47.9824 212.91 49.0587 212.009 50.135C210.872 51.5013 209.674 53.0814 209.758 54.8142C209.842 53.2188 210.948 51.7685 212.009 50.5014L214.704 47.2649C215.009 46.9443 215.246 46.5626 215.398 46.1428C215.467 45.8527 215.49 45.555 215.467 45.2573C215.467 45.4405 215.444 45.6085 215.398 45.7764Z" fill="black"/>
<path opacity="0.1" d="M208.369 54.2801C208.323 54.1351 208.3 53.9901 208.292 53.8374C208.269 54.1046 208.3 54.3794 208.369 54.6389C208.552 55.2343 209.231 55.7228 209.796 55.4633C209.781 55.3412 209.773 55.2267 209.765 55.1045C209.201 55.3412 208.544 54.8603 208.369 54.2801Z" fill="black"/>
</g>
<path opacity="0.1" d="M181.233 168.779C181.233 168.779 182.088 170.283 185.179 168.955L181.233 168.779Z" fill="black"/>
<path opacity="0.1" d="M207.376 169.146C207.376 169.146 210.04 172.283 213.406 170.176L207.376 169.146Z" fill="black"/>
<path opacity="0.1" d="M215.139 132.01C215.139 132.01 213.254 133.185 213.193 133.865C213.131 134.536 214.162 133.376 214.162 133.376L215.139 132.01Z" fill="black"/>
<path opacity="0.1" d="M215.887 141.032C215.231 141.574 214.414 141.895 213.567 141.941C212.154 142.002 212.277 143.841 213.192 143.284C214.116 142.734 215.887 141.032 215.887 141.032Z" fill="black"/>
<path opacity="0.1" d="M216.238 142.215C216.238 142.215 215.338 146.658 214.597 145.803L216.238 142.215Z" fill="black"/>
<path d="M30.2348 162.886C30.2348 162.886 31.4484 164.474 29.6699 166.863C27.8914 169.252 26.4335 171.283 27.0136 172.779C27.0136 172.779 29.6928 168.329 31.8759 168.268C34.0742 168.207 32.6315 165.566 30.2348 162.886Z" fill="#6C63FF"/>
<path opacity="0.1" d="M30.2348 162.886C30.3417 163.039 30.4256 163.207 30.4791 163.382C32.6087 165.878 33.7384 168.214 31.6927 168.275C29.7921 168.329 27.4945 171.733 26.9602 172.596C26.9755 172.664 26.9984 172.726 27.0213 172.787C27.0213 172.787 29.7005 168.336 31.8836 168.275C34.0819 168.214 32.6316 165.566 30.2348 162.886Z" fill="black"/>
<path d="M32.4941 164.909C32.4941 165.467 32.433 165.925 32.3567 165.925C32.2804 165.925 32.2117 165.474 32.2117 164.909C32.2117 164.352 32.288 164.612 32.372 164.612C32.4483 164.619 32.4941 164.352 32.4941 164.909Z" fill="#FFD037"/>
<path d="M33.2728 165.581C32.7843 165.848 32.3568 166.009 32.3186 165.947C32.2805 165.879 32.6469 165.604 33.143 165.337C33.6392 165.07 33.4407 165.26 33.4789 165.337C33.5094 165.406 33.7613 165.306 33.2728 165.581Z" fill="#FFD037"/>
<path d="M23.8231 162.886C23.8231 162.886 22.6094 164.474 24.3879 166.863C26.1664 169.252 27.6244 171.283 27.0442 172.779C27.0442 172.779 24.365 168.329 22.1819 168.268C19.9836 168.207 21.4263 165.566 23.8231 162.886Z" fill="#6C63FF"/>
<path opacity="0.1" d="M23.823 162.886C23.7161 163.039 23.6321 163.207 23.5787 163.382C21.4491 165.878 20.3194 168.214 22.3651 168.275C24.2733 168.329 26.5633 171.733 27.0976 172.596C27.0823 172.664 27.0594 172.726 27.0365 172.787C27.0365 172.787 24.3573 168.336 22.1742 168.275C19.9759 168.214 21.4262 165.566 23.823 162.886Z" fill="black"/>
<path d="M21.5635 164.909C21.5635 165.467 21.6245 165.925 21.7009 165.925C21.7772 165.925 21.8459 165.474 21.8459 164.909C21.8459 164.352 21.7696 164.612 21.6856 164.612C21.6093 164.619 21.5635 164.352 21.5635 164.909Z" fill="#FFD037"/>
<path d="M20.7925 165.581C21.2811 165.848 21.7085 166.009 21.7467 165.947C21.7848 165.879 21.4185 165.604 20.9223 165.337C20.4262 165.07 20.6246 165.26 20.5865 165.337C20.5483 165.406 20.2964 165.306 20.7925 165.581Z" fill="#FFD037"/>
<path d="M21.9529 172.58C21.9529 172.58 25.3496 172.474 26.3724 171.748C27.3953 171.023 31.5935 170.153 31.8454 171.321C32.0973 172.489 36.9519 177.13 33.1125 177.168C29.2807 177.199 24.2046 176.573 23.1818 175.947C22.1666 175.321 21.9529 172.58 21.9529 172.58Z" fill="#A8A8A8"/>
<path opacity="0.2" d="M33.1812 176.756C29.3494 176.786 24.2734 176.16 23.2506 175.534C22.472 175.061 22.159 173.359 22.0598 172.573H21.9453C21.9453 172.573 22.1667 175.313 23.1819 175.931C24.1971 176.55 29.2807 177.183 33.1125 177.153C34.2193 177.153 34.601 176.748 34.5781 176.168C34.4331 176.527 34.0056 176.748 33.1812 176.756Z" fill="black"/>
<defs>
<linearGradient id="paint0_linear" x1="102.402" y1="168.998" x2="102.402" y2="7.89075" gradientUnits="userSpaceOnUse">
<stop stop-color="#808080" stop-opacity="0.25"/>
<stop offset="0.54" stop-color="#808080" stop-opacity="0.12"/>
<stop offset="1" stop-color="#808080" stop-opacity="0.1"/>
</linearGradient>
<linearGradient id="paint1_linear" x1="196.969" y1="178.22" x2="196.969" y2="32.3333" gradientUnits="userSpaceOnUse">
<stop stop-color="#808080" stop-opacity="0.25"/>
<stop offset="0.54" stop-color="#808080" stop-opacity="0.12"/>
<stop offset="1" stop-color="#808080" stop-opacity="0.1"/>
</linearGradient>
</defs>
</svg>
