<svg width="56" height="98" viewBox="0 0 56 98" fill="none" xmlns="http://www.w3.org/2000/svg">
<path d="M24.7468 27.024C34.1068 27.024 41.1148 29.16 45.7708 33.432C50.4268 37.656 52.7548 43.824 52.7548 51.936C52.7548 57.168 51.6028 61.752 49.2988 65.688C47.0428 69.576 43.7548 72.6 39.4348 74.76C35.1628 76.92 30.0508 78 24.0988 78L19.6348 77.928C16.8508 77.832 14.8348 77.784 13.5868 77.784C8.64278 77.784 4.94678 77.856 2.49878 78V76.56C4.08278 76.464 5.23478 76.272 5.95478 75.984C6.72278 75.696 7.22678 75.144 7.46678 74.328C7.75478 73.512 7.89878 72.192 7.89878 70.368V34.656C7.89878 32.832 7.75478 31.512 7.46678 30.696C7.22678 29.88 6.72278 29.328 5.95478 29.04C5.23478 28.752 4.08278 28.56 2.49878 28.464V27.024C4.51478 27.168 7.41878 27.24 11.2108 27.24H13.4428L16.3228 27.168C20.2588 27.072 23.0668 27.024 24.7468 27.024ZM24.6748 28.32C23.1868 28.32 22.0588 28.488 21.2908 28.824C20.5708 29.16 20.0668 29.76 19.7788 30.624C19.4908 31.488 19.3468 32.784 19.3468 34.512V70.512C19.3468 72.24 19.4908 73.536 19.7788 74.4C20.0668 75.264 20.5708 75.864 21.2908 76.2C22.0588 76.536 23.2108 76.704 24.7468 76.704C30.5548 76.704 34.6828 74.688 37.1308 70.656C39.5788 66.576 40.8028 60.432 40.8028 52.224C40.8028 44.016 39.5308 37.992 36.9868 34.152C34.4908 30.264 30.3868 28.32 24.6748 28.32Z" fill="black"/>
<path d="M38.0801 52.976C36.9281 53.04 36.0801 53.168 35.5361 53.36C35.0241 53.552 34.6721 53.92 34.4801 54.464C34.2881 55.008 34.1921 55.888 34.1921 57.104V81.488C34.1921 82.512 34.2721 83.264 34.4321 83.744C34.5921 84.192 34.8641 84.496 35.2481 84.656C35.6641 84.816 36.3201 84.896 37.2161 84.896H39.5681C41.7441 84.896 43.6161 83.92 45.1841 81.968C46.7841 80.016 47.8241 77.424 48.3041 74.192H49.4081C49.3121 75.28 49.2641 76.688 49.2641 78.416C49.2641 81.488 49.3761 84.016 49.6001 86C47.4241 85.904 43.7601 85.856 38.6081 85.856C31.6321 85.856 26.4161 85.904 22.9601 86V85.04C24.0161 84.976 24.7841 84.848 25.2641 84.656C25.7761 84.464 26.1121 84.096 26.2721 83.552C26.4641 83.008 26.5601 82.128 26.5601 80.912V57.104C26.5601 55.888 26.4641 55.008 26.2721 54.464C26.1121 53.92 25.7761 53.552 25.2641 53.36C24.7841 53.168 24.0161 53.04 22.9601 52.976V52.016C24.5921 52.112 27.1201 52.16 30.5441 52.16C33.8081 52.16 36.3201 52.112 38.0801 52.016V52.976Z" fill="black"/>
</svg>
