<svg width="514" height="404" viewBox="0 0 514 404" fill="none" xmlns="http://www.w3.org/2000/svg">
<g clip-path="url(#clip0)">
<g opacity="0.5">
<path opacity="0.5" d="M367.1 0.0529781C365.084 0.0212591 362.54 0.581627 360.985 3.36761C357.938 8.84443 362.842 14.2314 360.313 20.0677C359.595 21.6559 358.462 23.0217 357.034 24.022C354.59 25.7824 352.098 26.3058 349.628 27.3578C346.66 28.5396 344.204 30.7299 342.693 33.543C341.19 36.5818 340.679 40.0156 341.233 43.36C341.72 46.2782 342.868 48.5937 343.815 51.0889C344.964 54.1788 345.795 57.3778 346.295 60.6363C346.578 62.1557 346.66 63.7055 346.539 65.2462C346.262 67.2087 345.786 69.1377 345.116 71.0032L339.678 88.0204C338.895 90.2375 338.311 92.5197 337.932 94.84C337.694 97.2621 337.765 99.7048 338.144 102.109C338.736 107.089 339.398 112.27 341.757 115.383C344.116 118.497 348.745 118.698 352.13 114.284C355.351 110.055 356.182 103.658 359.134 99.0586C363.783 91.8056 371.22 92.4347 376.203 85.6415C380.964 79.1285 380.89 69.7291 383.879 61.7148C385.995 55.9736 389.697 51.1418 392.194 45.5645C395.796 37.5237 396.622 28.4944 395.368 21.3682C394.248 15.1036 391.482 9.24905 387.354 4.40377C385.809 2.53235 384.127 0.793091 381.985 0.174569C379.705 -0.502103 377.431 1.23187 375.082 1.39046C372.368 1.52791 369.835 0.0952701 367.1 0.0529781Z" fill="#6C63FF"/>
<path opacity="0.5" d="M379.88 0.105957C379.88 0.105957 366.761 76.0466 344.968 117.509" stroke="#535461" stroke-width="2" stroke-miterlimit="10"/>
<path opacity="0.5" d="M360.837 3.71631C360.837 3.71631 376.844 20.1045 370.718 42.7519" stroke="#535461" stroke-width="2" stroke-miterlimit="10"/>
<path opacity="0.5" d="M341.969 35.2188C341.969 35.2188 370.136 46.4367 366.412 59.1878" stroke="#535461" stroke-width="2" stroke-miterlimit="10"/>
<path opacity="0.5" d="M395.453 21.1992C395.453 21.1992 382.895 26.3113 369.882 46.1039" stroke="#535461" stroke-width="2" stroke-miterlimit="10"/>
<path opacity="0.5" d="M376.018 85.7205C376.018 85.7205 367.518 88.6704 363.175 70.3896" stroke="#535461" stroke-width="2" stroke-miterlimit="10"/>
<path opacity="0.5" d="M340.657 87.4598C340.657 87.4598 357.012 89.6379 359.446 82.1733" stroke="#535461" stroke-width="2" stroke-miterlimit="10"/>
</g>
<g opacity="0.5">
<path opacity="0.5" d="M53.5426 94.0468C52.4106 95.7174 51.4796 98.1439 52.9607 100.972C55.87 106.523 63.064 105.381 66.5605 110.694C67.4948 112.166 68.0155 113.863 68.0681 115.605C68.2003 118.613 67.2693 120.982 66.788 123.63C66.1523 126.753 66.6373 130.001 68.158 132.802C69.8744 135.723 72.4645 138.033 75.5636 139.405C78.2719 140.6 80.8533 140.906 83.4452 141.488C86.6607 142.225 89.7925 143.288 92.7921 144.66C94.2178 145.257 95.5588 146.039 96.7805 146.986C98.2708 148.293 99.6232 149.749 100.817 151.331L112.068 165.214C113.497 167.085 115.091 168.826 116.829 170.416C118.725 171.944 120.808 173.225 123.028 174.227C127.519 176.463 132.216 178.753 136.115 178.493C140.013 178.234 142.722 174.476 140.875 169.221C139.13 164.22 134.21 160.007 131.978 155.016C128.461 147.15 133.068 141.271 130.122 133.394C127.297 125.824 119.378 120.749 114.321 113.834C110.692 108.897 108.672 103.177 105.376 98.0223C100.616 90.6212 93.5274 84.9593 86.8624 82.094C81.0057 79.592 74.5889 78.6908 68.2691 79.4825C65.857 79.7468 63.4819 80.1962 61.768 81.6394C59.9484 83.1725 60.1811 86.0378 58.9962 88.0731C57.6738 90.452 55.0819 91.7842 53.5426 94.0468Z" fill="#6C63FF"/>
<path opacity="0.5" d="M60.6045 83.3999C60.6045 83.3999 116.929 136.027 139.643 177.003" stroke="#535461" stroke-width="2" stroke-miterlimit="10"/>
<path opacity="0.5" d="M53.1777 101.289C53.1777 101.289 75.6854 96.9172 91.2636 114.453" stroke="#535461" stroke-width="2" stroke-miterlimit="10"/>
<path opacity="0.5" d="M69.1733 134.33C69.1733 134.33 94.0349 116.953 102.636 127.061" stroke="#535461" stroke-width="2" stroke-miterlimit="10"/>
<path opacity="0.5" d="M86.7991 81.9937C86.7991 81.9937 84.1807 95.2945 93.6016 117.022" stroke="#535461" stroke-width="2" stroke-miterlimit="10"/>
<path opacity="0.5" d="M130.106 133.595C130.106 133.595 127.905 142.318 110.216 135.905" stroke="#535461" stroke-width="2" stroke-miterlimit="10"/>
<path opacity="0.5" d="M112.152 164.103C112.152 164.103 122.949 151.633 118.04 145.511" stroke="#535461" stroke-width="2" stroke-miterlimit="10"/>
</g>
<path d="M42.9575 33.0038C40.3126 36.1281 37.8371 40.4525 39.7837 44.7187C43.5605 53.0766 57.4142 49.0007 62.3601 56.793C63.8412 59.1244 64.0422 61.9738 63.6984 64.5166C63.0319 69.4912 60.5669 73.7151 58.8636 78.2615C57.1603 82.8079 56.277 88.3059 58.6785 93.106C60.9901 97.7529 65.8619 100.687 70.5803 101.855C75.2987 103.024 80.0277 102.759 84.7408 102.913C90.34 103.132 95.8995 103.951 101.324 105.355C103.711 105.869 106 106.761 108.105 107.998C110.512 109.536 112.459 111.794 114.363 114.014L131.29 133.728C133.538 136.371 135.834 139.014 138.622 140.954C141.838 143.19 145.498 144.327 149.101 145.421C156.85 147.79 164.97 150.179 172.375 148.556C179.781 146.933 185.996 139.86 184.145 131.671C182.383 123.873 174.438 118.344 171.762 110.705C167.53 98.6674 177.977 87.5023 174.84 75.2535C171.836 63.5069 158.516 57.4486 151.111 47.5047C145.821 40.3784 143.737 31.4654 139.114 23.8846C132.454 12.9626 120.838 5.71484 109.227 2.96585C97.616 0.216872 85.9416 1.54378 75.0765 4.28219C70.4745 5.45051 65.8725 6.92544 62.2226 9.84359C58.3452 12.9468 57.8956 17.6518 55.0709 21.3999C51.7966 25.7665 46.5228 28.7693 42.9575 33.0038Z" fill="#6C63FF"/>
<path d="M59.4351 13.1265C59.4351 13.1265 149.185 83.7013 179.384 145.056" stroke="#535461" stroke-width="2" stroke-miterlimit="10"/>
<path d="M40.0693 45.1785C40.0693 45.1785 83.6406 31.0741 107.539 55.5612" stroke="#535461" stroke-width="2" stroke-miterlimit="10"/>
<path d="M60.0645 95.3688C60.0645 95.3688 111.962 58.8919 125.08 73.1179" stroke="#535461" stroke-width="2" stroke-miterlimit="10"/>
<path d="M109.042 2.80713C109.042 2.80713 100.097 25.7453 111.157 59.0873" stroke="#535461" stroke-width="2" stroke-miterlimit="10"/>
<path d="M174.66 75.6499C174.66 75.6499 167.884 90.838 136.627 85.5251" stroke="#535461" stroke-width="2" stroke-miterlimit="10"/>
<path d="M131.703 131.914C131.703 131.914 155.755 107.871 148.403 99.1377" stroke="#535461" stroke-width="2" stroke-miterlimit="10"/>
<path opacity="0.1" d="M257 404C398.937 404 514 394.277 514 382.283C514 370.289 398.937 360.566 257 360.566C115.063 360.566 0 370.289 0 382.283C0 394.277 115.063 404 257 404Z" fill="#6C63FF"/>
<path d="M456.517 211.058C455.422 207.855 453.84 203.795 452.592 202.838C452.516 202.777 452.432 202.725 452.343 202.685H452.19V198.725L449.238 199.195C448.769 197.765 448.415 196.3 448.18 194.813C448.464 195.097 448.827 195.291 449.221 195.371C449.615 195.45 450.025 195.41 450.397 195.257C450.349 195.178 450.307 195.093 450.264 195.009L450.397 194.95C449.932 194.131 449.686 193.206 449.682 192.265C449.706 191.405 449.843 190.552 450.09 189.727C450.619 187.903 451.513 186.201 452.01 184.367C452.327 183.187 452.477 181.968 452.454 180.746C452.471 178.674 451.999 176.628 451.079 174.772C450.846 174.236 450.482 173.767 450.021 173.408C449.606 173.178 449.178 172.969 448.741 172.784C448.007 172.29 447.375 171.66 446.879 170.929C444.782 168.376 441.975 166.503 438.812 165.547C437.988 165.239 437.094 165.168 436.231 165.341C434.247 165.869 433.528 168.328 431.92 169.617C430.502 170.754 428.555 170.87 426.773 171.251C424.99 171.632 423.197 172.388 421.98 173.762C421.142 174.72 420.685 175.952 420.695 177.225C420.646 177.819 420.751 178.416 420.999 178.959C421.247 179.501 421.631 179.971 422.113 180.323C422.662 180.682 423.284 180.916 423.934 181.008C424.584 181.099 425.246 181.046 425.873 180.851C425.383 182.543 425.248 184.319 425.477 186.065C425.706 187.812 426.293 189.493 427.203 191.002C428.112 192.511 429.324 193.816 430.762 194.834C432.2 195.853 433.833 196.564 435.559 196.922L435.903 197.541C436.966 199.519 437.773 201.624 438.304 203.805C435.585 205.344 432.618 206.787 430.825 206.924C430.752 207.625 430.621 208.318 430.433 208.997C430.014 210.699 429.208 212.281 428.079 213.622C425.641 216.361 414.675 237.063 414.675 237.063C414.675 237.063 414.331 237.887 413.765 239.294C406.958 240.129 395.844 241.334 392.744 240.716L380.578 229.149C380.578 229.149 376.642 232.152 376.986 235.799L374.823 233.716C374.823 233.716 363.249 242.545 381.525 248.328L409.333 251.553C406.688 259.541 404.212 268.84 404.979 273.899H405.207C405.738 273.899 406.268 273.858 406.794 273.778L406.746 274.676L404.053 322.619C404.053 322.619 403.445 331.448 411.671 335.402C411.671 335.402 421.721 364.927 417.764 368.279C417.764 368.279 418.235 368.527 419.029 368.871L410.761 376.193C410.761 376.193 404.667 377.715 401.319 377.409C400.73 377.328 400.133 377.467 399.64 377.798C399.147 378.13 398.794 378.631 398.647 379.206C398.647 379.27 398.647 379.333 398.616 379.397V379.476C398.616 379.539 398.616 379.603 398.616 379.671C398.616 379.74 398.616 379.719 398.616 379.745C398.616 379.772 398.616 379.856 398.616 379.915C398.616 379.973 398.616 379.962 398.616 379.983C398.616 380.005 398.616 380.116 398.653 380.179V380.253C398.67 380.323 398.693 380.394 398.721 380.464L398.748 380.528C398.774 380.597 398.806 380.665 398.843 380.734V380.782C398.88 380.85 398.922 380.914 398.965 380.983L399.002 381.041C399.051 381.111 399.106 381.182 399.166 381.252L399.213 381.305C399.277 381.379 399.346 381.448 399.414 381.516L399.446 381.543L399.674 381.738L399.721 381.775C399.806 381.844 399.901 381.908 399.996 381.971L400.06 382.013C400.16 382.077 400.266 382.14 400.377 382.198H400.425L400.769 382.368H400.816L401.218 382.526L401.303 382.558L401.742 382.701H401.816L402.297 382.828H402.334L402.863 382.933H402.969L403.54 383.018H403.651L404.297 383.081C405.55 383.176 407.238 383.213 409.19 383.203C409.19 383.203 409.19 383.25 409.19 383.277C409.19 383.303 409.19 383.388 409.19 383.446V383.515C409.19 383.578 409.19 383.647 409.227 383.71V383.784C409.244 383.855 409.267 383.925 409.296 383.996L409.322 384.059C409.348 384.128 409.38 384.197 409.417 384.265V384.313C409.454 384.382 409.497 384.445 409.539 384.514L409.576 384.572C409.625 384.643 409.68 384.713 409.74 384.784L409.788 384.836C409.851 384.91 409.92 384.979 409.989 385.048L410.02 385.074L410.248 385.27L410.295 385.307C410.38 385.376 410.475 385.439 410.57 385.502L410.639 385.545C410.74 385.608 410.845 385.672 410.957 385.73H411.004L411.348 385.899H411.396L411.798 386.058L411.882 386.089L412.321 386.232H412.395L412.877 386.359H412.914L413.443 386.465H413.549L414.12 386.549H414.231L414.876 386.613C422.811 387.221 448.074 385.397 448.074 385.397V385.328V385.238C448.323 384.059 449.54 377.208 445.223 372.143C445.35 372.011 445.477 371.869 445.594 371.721C445.594 371.721 442.245 365.937 444.07 364.108C445.895 362.279 434.935 330.623 434.935 330.623C434.935 330.623 429.148 321.493 432.496 311.143C435.845 300.792 432.189 289.531 432.189 289.531C432.189 289.531 440.177 287.158 440.341 277.33C440.341 277.034 440.341 276.727 440.341 276.415C440.516 276.44 440.693 276.451 440.87 276.447C440.982 276.455 441.096 276.455 441.208 276.447C441.208 276.447 439.685 270.97 441.515 267.011C443.345 263.051 447.302 266.704 450.957 250.575C453.602 238.902 455.93 225.475 457.014 218.941C457.483 216.311 457.312 213.608 456.517 211.058ZM387.005 245.304L384.228 242.661C385.148 243.042 386.169 243.417 387.312 243.777L397.785 244.992C393.109 245.415 388.766 245.653 387.005 245.304Z" fill="url(#paint0_linear)"/>
<path d="M413.517 243.761C413.517 243.761 391.972 246.753 387.481 245.875L375.489 234.478C375.489 234.478 364.116 243.153 382.075 248.83L415.612 252.748L413.517 243.761Z" fill="#FDC2CC"/>
<path opacity="0.05" d="M413.517 243.761C413.517 243.761 391.972 246.753 387.481 245.875L375.489 234.478C375.489 234.478 364.116 243.153 382.075 248.83L415.612 252.748L413.517 243.761Z" fill="black"/>
<path d="M421.298 365.166L410.824 374.438C410.824 374.438 404.842 375.934 401.546 375.633C398.251 375.331 396.759 380.718 404.54 381.316C412.321 381.913 437.157 380.121 437.157 380.121C437.157 380.121 439.553 370.552 432.369 365.166H421.298Z" fill="#47465A"/>
<path opacity="0.05" d="M421.298 365.166L410.824 374.438C410.824 374.438 404.842 375.934 401.546 375.633C398.251 375.331 396.759 380.718 404.54 381.316C412.321 381.913 437.157 380.121 437.157 380.121C437.157 380.121 439.553 370.552 432.369 365.166H421.298Z" fill="black"/>
<path opacity="0.3" d="M437.532 375.981C437.514 377.071 437.388 378.157 437.156 379.222C437.156 379.222 412.295 381.014 404.54 380.417C400.8 380.131 399.208 378.736 398.922 377.398C398.584 378.931 399.938 380.961 404.54 381.316C412.321 381.913 437.156 380.121 437.156 380.121C437.448 378.761 437.574 377.371 437.532 375.981Z" fill="white"/>
<path d="M433.565 195.6C433.565 195.6 440.151 204.873 437.754 211.153C435.358 217.434 450.323 204.572 450.323 204.572C450.323 204.572 445.536 196.198 447.926 187.227L433.565 195.6Z" fill="#FDC2CC"/>
<path d="M431.772 368.755L421.298 378.038C421.298 378.038 415.315 379.534 412.02 379.233C408.724 378.931 407.227 384.308 415.014 384.91C422.8 385.513 447.63 383.716 447.63 383.716C447.63 383.716 450.026 374.147 442.843 368.76L431.772 368.755Z" fill="#47465A"/>
<path d="M434.765 366.661C433.205 368.586 431.004 369.305 428.703 369.437C423.472 369.685 417.711 366.661 417.711 366.661C421.599 363.373 411.729 334.361 411.729 334.361C403.651 330.475 404.249 321.8 404.249 321.8L406.894 274.713L407.555 262.887L415.934 257.802L422.541 262.866L428.804 267.672C429.211 269.2 429.473 270.763 429.587 272.34C430.312 283.33 421.621 285.915 421.621 285.915C421.621 285.915 425.212 296.98 421.922 307.146C418.632 317.312 424.318 326.283 424.318 326.283C424.318 326.283 435.093 357.384 433.311 359.181C431.528 360.978 434.765 366.661 434.765 366.661Z" fill="#565171"/>
<path opacity="0.05" d="M434.765 366.661C433.205 368.586 431.004 369.305 428.703 369.437C423.472 369.685 417.711 366.661 417.711 366.661C421.599 363.373 411.729 334.361 411.729 334.361C403.651 330.475 404.249 321.8 404.249 321.8L406.894 274.713L407.555 262.887L415.934 257.802L422.541 262.866L428.804 267.672C429.211 269.2 429.473 270.763 429.587 272.34C430.312 283.33 421.621 285.915 421.621 285.915C421.621 285.915 425.212 296.98 421.922 307.146C418.632 317.312 424.318 326.283 424.318 326.283C424.318 326.283 435.093 357.384 433.311 359.181C431.528 360.978 434.765 366.661 434.765 366.661Z" fill="black"/>
<path d="M445.239 370.251C440.15 376.531 428.185 370.251 428.185 370.251C428.429 370.03 428.611 369.749 428.714 369.437C430.909 363.474 421.308 334.964 421.308 334.964C413.231 331.078 412.316 321.805 412.316 321.805L410.2 273.883L409.925 267.677L422.514 262.871L426.381 261.396L439.251 271.251C439.808 273.288 440.086 275.392 440.076 277.504C439.917 287.174 432.089 289.505 432.089 289.505C432.089 289.505 435.68 300.569 432.39 310.735C429.1 320.901 434.786 329.873 434.786 329.873C434.786 329.873 445.562 360.973 443.779 362.771C441.996 364.568 445.239 370.251 445.239 370.251Z" fill="#565171"/>
<path opacity="0.1" d="M440.076 277.515C437.49 277.145 432.253 274.031 429.56 272.339C428.534 271.694 427.878 271.282 427.878 271.282C427.878 271.282 425.186 263.807 418.002 269.49C415.667 271.384 413.029 272.872 410.2 273.894C409.118 274.276 408.002 274.556 406.868 274.729L407.529 262.903L415.908 257.817L422.515 262.882L426.381 261.407L439.251 271.25C439.809 273.291 440.087 275.399 440.076 277.515Z" fill="black"/>
<path d="M456.273 220.146C455.216 226.564 452.92 239.754 450.323 251.225C446.731 267.085 442.843 263.485 441.044 267.376C439.246 271.266 440.743 276.648 440.743 276.648C437.749 276.949 427.873 270.368 427.873 270.368C427.873 270.368 425.181 262.893 417.997 268.576C410.814 274.259 405.127 273.957 405.127 273.957C403.63 264.087 414.702 237.771 414.702 237.771C414.702 237.771 425.487 217.434 427.857 214.743C428.967 213.425 429.757 211.869 430.169 210.197C430.353 209.53 430.48 208.849 430.55 208.161C434.438 207.86 444.017 201.289 444.017 201.289L451.497 200.094V203.98C451.584 204.019 451.666 204.069 451.74 204.128C452.973 205.069 454.523 209.06 455.596 212.206C456.472 214.756 456.705 217.484 456.273 220.146Z" fill="#F68080"/>
<path opacity="0.1" d="M450.322 207.865C450.322 207.865 442.541 201.585 430.872 221.922C419.203 242.259 416.511 238.966 416.511 238.966C416.511 238.966 418.907 247.953 417.706 249.734C417.706 249.734 425.784 249.137 428.778 249.734C431.772 250.332 450.322 227.002 450.322 227.002C450.322 227.002 459.902 213.844 450.322 207.865Z" fill="black"/>
<path opacity="0.1" d="M450.026 206.665C450.026 206.665 442.245 200.411 430.576 220.722C418.907 241.033 416.22 237.771 416.22 237.771C416.22 237.771 425.487 247.937 428.481 248.519C431.475 249.1 450.026 225.787 450.026 225.787C450.026 225.787 459.595 212.65 450.026 206.665Z" fill="black"/>
<path opacity="0.1" d="M417.431 247.789C417.553 245.574 416.717 241.678 416.236 239.659C418.056 239.421 419.203 239.262 419.203 239.262L421.319 248.249L417.431 247.789Z" fill="black"/>
<path opacity="0.1" d="M448.228 187.824L433.866 196.182C434.471 197.065 435.029 197.979 435.538 198.921C436.366 199.089 437.21 199.174 438.056 199.174C441.891 199.174 443.679 195.151 445.99 192.445C445.842 190.288 447.588 190.235 448.228 187.824Z" fill="black"/>
<path d="M437.76 198.593C444.701 198.593 450.328 192.969 450.328 186.032C450.328 179.095 444.701 173.471 437.76 173.471C430.818 173.471 425.191 179.095 425.191 186.032C425.191 192.969 430.818 198.593 437.76 198.593Z" fill="#FDC2CC"/>
<path opacity="0.1" d="M421.859 175.871C423.127 174.572 424.776 173.707 426.567 173.403C428.312 173.027 430.227 172.911 431.624 171.817C433.211 170.553 433.909 168.153 435.855 167.619C436.702 167.449 437.58 167.519 438.389 167.82C441.5 168.758 444.261 170.598 446.324 173.107C446.81 173.826 447.429 174.445 448.149 174.93C448.579 175.112 448.999 175.317 449.408 175.544C449.856 175.897 450.209 176.357 450.434 176.881C451.837 179.713 452.161 182.958 451.344 186.011C450.857 187.814 449.979 189.484 449.461 191.297C448.942 193.111 448.81 195.125 449.762 196.727C448.842 197.197 447.678 196.605 447.117 195.749C446.556 194.892 446.366 193.835 446.059 192.846C445.461 190.902 444.339 189.159 442.817 187.808C441.875 186.973 440.172 186.413 439.532 187.491C439.278 187.909 439.294 188.437 439.077 188.871C438.648 189.717 437.411 189.886 436.591 189.4C435.8 188.854 435.245 188.031 435.035 187.095C433.803 182.929 431.703 180.307 427.244 182.088C425.583 182.754 423.626 183.204 422.028 182.062C419.923 180.555 420.351 177.574 421.859 175.871Z" fill="black"/>
<path d="M421.859 175.565C423.127 174.265 424.776 173.401 426.567 173.096C428.312 172.721 430.227 172.604 431.624 171.51C433.211 170.247 433.909 167.847 435.855 167.313C436.702 167.142 437.58 167.212 438.389 167.513C441.5 168.451 444.261 170.291 446.324 172.8C446.81 173.519 447.429 174.138 448.149 174.624C448.579 174.806 448.999 175.011 449.408 175.237C449.856 175.59 450.209 176.05 450.434 176.575C451.837 179.406 452.161 182.652 451.344 185.704C450.857 187.507 449.979 189.178 449.461 190.991C448.942 192.804 448.81 194.818 449.762 196.42C448.842 196.891 447.678 196.298 447.117 195.442C446.556 194.586 446.366 193.528 446.059 192.54C445.461 190.595 444.339 188.852 442.817 187.502C441.875 186.666 440.172 186.106 439.532 187.185C439.278 187.602 439.294 188.131 439.077 188.564C438.648 189.41 437.411 189.579 436.591 189.093C435.8 188.548 435.245 187.725 435.035 186.788C433.803 182.622 431.703 180 427.244 181.782C425.583 182.448 423.626 182.897 422.028 181.755C419.923 180.254 420.351 177.278 421.859 175.565Z" fill="#B96B6B"/>
<path opacity="0.05" d="M451.767 204.112H445.683C445.683 204.112 433.713 210.091 433.417 209.795C433.216 209.594 431.364 209.938 430.19 210.186C430.374 209.519 430.501 208.839 430.571 208.151C434.459 207.849 444.038 201.278 444.038 201.278L451.518 200.083V203.969C451.607 204.006 451.69 204.054 451.767 204.112Z" fill="black"/>
<path opacity="0.3" d="M448.006 379.571C447.988 380.661 447.862 381.747 447.63 382.812C447.63 382.812 422.769 384.604 415.014 384.007C411.274 383.721 409.682 382.326 409.396 380.988C409.058 382.521 410.412 384.551 415.014 384.905C422.795 385.503 447.63 383.711 447.63 383.711C447.922 382.351 448.048 380.961 448.006 379.571Z" fill="white"/>
<g opacity="0.05">
<path opacity="0.05" d="M415.162 268.274C411.126 271.446 407.555 272.773 405.212 273.302C405.212 273.524 405.254 273.746 405.286 273.957C405.286 273.957 410.972 274.259 418.156 268.576C419.268 267.623 420.583 266.936 422.001 266.567C420.452 265.821 418.198 265.869 415.162 268.274Z" fill="black"/>
<path opacity="0.05" d="M455.771 212.2C454.713 209.029 453.126 205.064 451.915 204.123C451.84 204.063 451.758 204.014 451.671 203.975C451.671 203.975 449.196 204.059 449.275 204.123C450.508 205.064 451.703 208.754 452.777 211.899C453.642 214.449 453.866 217.172 453.428 219.829C452.37 226.247 450.074 239.437 447.477 250.908C443.885 266.768 439.997 263.168 438.198 267.058C436.728 270.23 437.463 274.428 437.781 275.839C439.061 276.368 440.172 276.701 440.891 276.627C440.891 276.627 439.394 271.245 441.192 267.355C442.991 263.464 446.879 267.053 450.471 251.204C453.068 239.738 455.353 226.543 456.421 220.125C456.859 217.47 456.635 214.748 455.771 212.2Z" fill="black"/>
</g>
<path d="M150.339 378.461C150.339 378.461 143.462 378.937 139.177 371.588C138.346 370.104 137.364 368.71 136.247 367.428C134.875 365.18 134.162 362.591 134.189 359.958C134.427 354.502 128.73 324.602 128.73 324.602C128.73 324.602 129.444 313.21 123.742 306.099C119.992 301.415 114.596 287.988 111.343 279.36C111.562 279.555 111.825 279.692 112.11 279.762L111.978 279.016L112.11 279.048L110.449 269.791C108.001 266.977 105.937 263.85 104.313 260.492L104.694 260.413L109.735 259.356C109.735 259.356 117.929 247.726 118.431 241.995L119.098 242.027H120.039C130.465 241.799 142.737 243.216 142.737 243.216C142.737 243.179 142.679 243.031 142.616 242.799C142.297 241.647 142.052 240.476 141.88 239.294L142.351 239.262L147.017 238.95C147.017 238.95 163.161 220.918 157.226 217.592C151.291 214.267 145.118 232.543 145.118 232.543L143.123 232.907L142.594 233.008C142.647 232.929 142.7 232.855 142.764 232.781C142.827 232.707 116.405 231.596 112.369 225.189C112.369 225.189 100.732 215.933 100.261 209.763C100.007 206.491 97.9547 204.752 96.0769 203.842C94.6407 203.158 93.0507 202.861 91.4643 202.981L86.0159 203.356L86.402 204.043H86.2486C85.9071 203.261 85.6208 202.455 85.3917 201.633H85.5028C85.4658 201.463 85.4287 201.294 85.397 201.104C87.0666 200.71 88.6402 199.985 90.0246 198.973C91.4089 197.96 92.5758 196.68 93.4563 195.209C94.3367 193.737 94.9128 192.104 95.1503 190.406C95.3878 188.708 95.282 186.98 94.8391 185.324C95.3671 185.392 95.9024 185.378 96.426 185.281C98.4255 184.869 99.8485 182.839 99.9014 180.798C99.9014 180.666 99.9014 180.534 99.9014 180.402C99.9014 180.402 99.9014 180.349 99.9014 180.323C99.8818 179.3 99.6342 178.295 99.1766 177.381C98.7191 176.466 98.0631 175.665 97.2565 175.036C96.1668 174.132 94.8708 173.487 93.8817 172.483C92.7074 171.283 92.0673 169.676 91.1522 168.254C89.6264 165.915 87.3624 164.153 84.7199 163.247C82.7521 162.581 80.3453 162.507 78.8378 163.934C78.0602 164.669 77.6106 165.721 76.7219 166.34C75.4682 167.233 73.765 166.969 72.2309 167.149C69.4486 167.476 67.0047 169.459 65.7775 171.981C65.025 173.573 64.6623 175.322 64.7196 177.082C64.7028 178.29 64.8469 179.496 65.148 180.666C65.4443 181.835 65.8833 182.961 66.206 184.118C66.8725 186.529 67.0259 189.066 67.7929 191.451C68.3125 193.215 69.3477 194.783 70.7657 195.955L70.5382 196.938C70.3901 196.97 66.6926 197.763 64.1324 203.345C62.1117 207.744 55.2775 212.29 52.2729 214.125C51.7124 214.467 51.2258 214.918 50.8416 215.451C50.4574 215.984 50.1834 216.588 50.0354 217.228C49.7468 218.522 49.6189 219.846 49.6545 221.171C49.6016 224.031 50.1835 227.986 52.5004 233.003C57.7266 244.395 61.5246 249.391 61.5246 249.391C61.5246 249.391 61.8155 252.88 61.8314 256.559C61.8314 259.298 61.6304 262.026 61.0485 263.389C60.5566 264.542 60.4032 267.487 60.4138 270.843C60.4138 277.288 61.0485 285.699 61.0485 285.699C61.0485 285.699 62.8629 286.042 65.677 286.455L67.4279 317.217C67.6478 320.942 66.4519 324.612 64.0795 327.494C62.8468 329.005 61.4245 330.352 59.8478 331.501C54.8596 335.059 44.1744 372.556 44.1744 372.556C44.1744 372.556 44.7034 372.588 45.5603 372.656L42.2754 381.812C42.2754 381.812 55.3938 391.857 63.3813 389.113C64.2344 388.836 65.1294 388.709 66.0261 388.738C67.613 388.738 70.972 387.495 69.0942 385.851C65.6823 382.87 61.5934 378.355 58.8586 375.215C59.1165 375.34 59.3641 375.485 59.5991 375.648V375.574L59.7102 375.648C59.7102 375.648 59.7367 375.278 59.7949 374.681L59.6785 374.644C59.9218 372.175 60.6835 365.969 62.2017 365.208C64.1007 364.256 78.1078 336.497 78.1078 336.497L92.1149 300.427C92.1149 300.427 103.276 319.648 112.771 322.968V330.988C112.771 330.988 117.997 354.719 119.896 357.331C121.795 359.942 119.896 370.383 119.896 370.383C120.272 370.813 120.702 371.192 121.177 371.509L119.658 380.11C119.658 380.11 130.582 379.634 149.101 385.333C149.148 385.344 156.274 382.267 150.339 378.461ZM106.646 254.334L104.334 254.91L103.879 255.026C103.832 254.741 103.8 254.572 103.8 254.572C103.271 254.809 102.702 254.947 102.123 254.979C101.304 252.384 100.83 249.693 100.716 246.975C100.716 246.975 99.3724 241.493 99.2983 237.063C99.3248 235.334 99.584 233.827 100.24 232.976L101.012 233.04L101.541 233.568L101.578 233.605L101.853 233.854L102.139 234.113L102.186 234.155L102.499 234.425L102.551 234.472L102.869 234.742L102.901 234.768L103.255 235.059L103.334 235.123L103.71 235.424H103.742L104.112 235.715L104.197 235.778L104.604 236.09L104.689 236.153L105.08 236.439L105.149 236.486L105.593 236.804L105.699 236.878L106.164 237.2L106.207 237.227L106.662 237.528L106.773 237.602L107.265 237.914L107.37 237.977L107.831 238.257L107.915 238.31L108.444 238.617L108.571 238.691L109.1 238.998H109.142L109.671 239.278L109.804 239.346L110.364 239.627L110.481 239.68L111.01 239.923L111.11 239.97L111.697 240.224L111.84 240.282L112.454 240.525C108.592 244.644 106.646 254.334 106.646 254.334Z" fill="url(#paint1_linear)"/>
<path d="M48.0836 367L43.6772 379.281C43.6772 379.281 55.743 388.527 63.5824 386.613C64.7631 386.32 65.9663 386.125 67.1794 386.031C68.8033 385.91 71.5963 384.731 69.8718 383.224C64.3071 378.361 56.8909 369.326 56.8909 369.326L48.0836 367Z" fill="#4F4D59"/>
<path d="M121.335 365.837L119.251 377.652C119.251 377.652 129.915 377.187 147.995 382.748C147.995 382.748 154.951 379.735 149.154 376.029C149.154 376.029 142.43 376.494 138.257 369.31C134.083 362.126 131.534 363.056 131.534 363.056L121.335 365.837Z" fill="#4F4D59"/>
<path d="M66.1634 280.121L68.2053 316.069C68.424 319.901 67.1522 323.668 64.6559 326.584C63.5273 327.923 62.2415 329.121 60.8261 330.153C55.9596 333.626 45.5283 370.23 45.5283 370.23C45.5283 370.23 57.3508 370.922 60.5934 373.243C60.5934 373.243 61.2863 363.976 63.143 363.051C64.9997 362.125 78.6736 335.032 78.6736 335.032L92.358 299.798C92.358 299.798 103.255 318.565 112.528 321.805V329.682C112.528 329.682 117.627 352.848 119.484 355.396C121.34 357.944 119.484 368.136 119.484 368.136C119.484 368.136 124.816 374.855 137.098 367.671C137.098 367.671 133.157 363.267 133.395 357.938C133.634 352.61 128.063 323.423 128.063 323.423C128.063 323.423 128.756 312.321 123.197 305.354C117.637 298.386 108.359 271.779 108.359 271.779L101.98 258.061L66.1634 280.121Z" fill="#787C9C"/>
<g opacity="0.1">
<path opacity="0.1" d="M47.7342 370.24C47.7342 370.24 58.1655 333.637 63.032 330.163C64.5281 329.07 65.8806 327.793 67.0575 326.362C69.4388 323.486 70.6359 319.812 70.4059 316.085L68.364 280.137L102.541 259.065L102.075 258.066L66.2693 280.121L68.3111 316.069C68.5498 319.797 67.3602 323.475 64.9839 326.357C63.807 327.788 62.4545 329.065 60.9585 330.158C56.0919 333.631 45.6606 370.235 45.6606 370.235C45.6606 370.235 57.4831 370.928 60.7257 373.248C60.7257 373.248 60.7522 372.889 60.8103 372.302C56.24 370.743 47.7342 370.24 47.7342 370.24Z" fill="black"/>
<path opacity="0.1" d="M121.684 368.157C121.684 368.157 123.541 357.965 121.684 355.417C119.827 352.869 114.707 329.698 114.707 329.698V321.821C105.455 318.58 94.5583 299.797 94.5583 299.797L93.749 301.912C96.8911 306.892 105.275 319.257 112.639 321.832V329.708C112.639 329.708 117.738 352.874 119.594 355.422C121.451 357.97 119.594 368.162 119.594 368.162C119.594 368.162 122.181 371.414 127.894 370.975C123.636 370.637 121.684 368.157 121.684 368.157Z" fill="black"/>
</g>
<path d="M145.916 239.812L141.362 240.113L138.96 240.272V234.457L142.134 233.886L144.086 233.532C144.086 233.532 150.111 215.695 155.909 218.936C161.706 222.176 145.916 239.812 145.916 239.812Z" fill="#714B4F"/>
<path d="M72.8866 192.09C72.8866 192.09 69.8715 203.673 68.9458 210.857C68.0201 218.042 90.5013 212.248 90.5013 212.248C90.5013 212.248 81.9267 201.823 86.7985 196.261L72.8866 192.09Z" fill="#FFB8B8"/>
<path d="M97.2514 240.277L97.7169 244.681L90.5335 244.216L83.3183 237.946L76.1349 217.804L71.5011 210.625L68.0205 206.227L69.4117 200.898C69.4117 200.898 70.0465 201.427 71.1203 202.272C74.6485 204.974 82.9322 210.583 88.9836 209.034C89.2636 208.964 89.5391 208.878 89.8088 208.775L98.8383 224.291L97.2514 240.277Z" fill="#E6E6F0"/>
<path opacity="0.1" d="M71.2629 199.502C71.2629 199.502 67.5601 200.194 65.0052 205.756C63.0427 210.033 56.4253 214.442 53.4684 216.255C52.9046 216.6 52.4157 217.054 52.0305 217.59C51.6453 218.127 51.3716 218.735 51.2255 219.379C50.6278 222.022 50.4003 226.939 53.6482 234.023C58.7475 245.124 62.4556 250.009 62.4556 250.009C62.4556 250.009 63.3813 261.111 61.9901 264.373C60.5989 267.634 61.9901 285.455 61.9901 285.455C61.9901 285.455 86.3227 290.086 94.4424 285.455C102.562 280.824 101.398 262.982 101.398 262.982C101.398 262.982 109.047 279.18 111.83 279.661L110.206 270.627C110.206 270.627 101.166 260.894 100.684 248.386C100.684 248.386 97.9018 237.036 100.219 234.023C100.219 234.023 139.394 237.269 141.711 234.488C141.711 234.488 115.982 233.33 112.041 227.087C112.041 227.087 100.684 218.052 100.219 212.031C100.151 210.901 99.7961 209.808 99.188 208.853C98.58 207.899 97.7387 207.115 96.7434 206.575C95.1665 205.679 93.3572 205.276 91.5489 205.418L86.3121 205.777C86.3121 205.777 95.3522 221.763 94.8867 223.846C94.4212 225.929 95.3522 242.841 95.3522 242.841C95.3522 242.841 84.9421 220.352 80.3242 217.804C75.7063 215.256 70.3584 204.794 70.3584 204.794L71.2841 199.507" fill="black"/>
<path opacity="0.1" d="M97.2514 240.277L97.7169 244.681L90.5335 244.216L83.3183 237.946L76.1349 217.804L71.5011 210.625L68.0205 206.227L69.4117 200.898C69.4117 200.898 70.0465 201.427 71.1203 202.272L70.8029 204.112C70.8029 204.112 76.1349 214.574 80.7687 217.122C85.4025 219.67 95.8337 242.143 95.8337 242.143C95.8337 242.143 94.908 225.226 95.3682 223.149C95.6856 221.732 91.6231 213.924 88.9836 209.044C89.2636 208.975 89.5391 208.888 89.8088 208.785L98.8383 224.291L97.2514 240.277Z" fill="black"/>
<path opacity="0.1" d="M141.351 240.118L138.95 240.277V234.462L142.124 233.891C141.007 235.366 141.044 237.945 141.351 240.118Z" fill="black"/>
<path d="M71.2629 198.825C71.2629 198.825 67.5601 199.518 65.0052 205.079C63.0427 209.356 56.4253 213.765 53.4684 215.578C52.9046 215.923 52.4157 216.377 52.0305 216.913C51.6453 217.45 51.3716 218.058 51.2255 218.702C50.6278 221.346 50.4003 226.262 53.6482 233.346C58.7475 244.448 62.4556 249.332 62.4556 249.332C62.4556 249.332 63.3813 260.434 61.9901 263.696C60.5989 266.958 61.9901 284.779 61.9901 284.779C61.9901 284.779 86.3227 289.41 94.4424 284.779C102.562 280.148 101.398 262.263 101.398 262.263C101.398 262.263 109.047 278.482 111.83 278.942L110.206 269.908C110.206 269.908 101.166 260.175 100.684 247.667C100.684 247.667 97.9018 236.317 100.219 233.304C100.219 233.304 109.259 243.036 119.457 242.819C129.656 242.603 141.711 243.977 141.711 243.977C141.711 243.977 139.394 236.576 141.711 233.785C141.711 233.785 115.982 232.627 112.041 226.384C112.041 226.384 100.684 217.349 100.219 211.328C100.151 210.198 99.7961 209.105 99.188 208.15C98.58 207.196 97.7387 206.412 96.7434 205.872C95.1665 204.976 93.3572 204.573 91.5489 204.714L86.3121 205.074C86.3121 205.074 95.3734 221.029 94.9079 223.143C94.4424 225.258 95.3734 242.138 95.3734 242.138C95.3734 242.138 84.9421 219.659 80.3242 217.111C75.7063 214.563 70.3372 204.112 70.3372 204.112L71.2629 198.825Z" fill="#787C9C"/>
<path opacity="0.1" d="M66.1634 223.144C66.1634 223.144 71.7282 241.911 74.9707 244.226C78.2133 246.542 97.9174 258.357 103.715 255.576C103.715 255.576 105.106 262.528 103.022 264.146C103.022 264.146 81.4083 263.3 81.2337 263.221C81.2337 263.221 67.0944 261.365 64.7775 254.419C62.4606 247.472 59.6782 235.651 59.6782 235.651L66.1634 223.144Z" fill="black"/>
<path d="M95.8386 244.332C96.2856 244.332 96.6479 243.813 96.6479 243.174C96.6479 242.534 96.2856 242.016 95.8386 242.016C95.3916 242.016 95.0293 242.534 95.0293 243.174C95.0293 243.813 95.3916 244.332 95.8386 244.332Z" fill="#BA7855"/>
<path d="M98.1555 252.441C98.6025 252.441 98.9648 251.923 98.9648 251.283C98.9648 250.644 98.6025 250.125 98.1555 250.125C97.7085 250.125 97.3462 250.644 97.3462 251.283C97.3462 251.923 97.7085 252.441 98.1555 252.441Z" fill="#BA7855"/>
<g opacity="0.1">
<path opacity="0.1" d="M63.6136 284.525C63.6136 284.525 62.2224 266.688 63.6136 263.442C65.0048 260.197 64.0791 249.079 64.0791 249.079C64.0791 249.079 60.3763 244.215 55.2717 233.093C52.0239 226.009 52.2566 221.092 52.8491 218.449C52.9957 217.804 53.2702 217.196 53.6564 216.659C54.0425 216.123 54.5325 215.669 55.0972 215.325C58.0541 213.511 64.6715 209.102 66.6287 204.826C68.0675 201.691 69.8713 200.1 71.1779 199.312L71.2678 198.783C71.2678 198.783 67.565 199.476 65.0101 205.037C63.0476 209.314 56.4302 213.723 53.4785 215.536C52.9138 215.88 52.4239 216.334 52.0377 216.871C51.6516 217.407 51.3771 218.016 51.2304 218.66C50.6327 221.304 50.4052 226.22 53.6531 233.304C58.7524 244.406 62.4604 249.29 62.4604 249.29C62.4604 249.29 63.3861 260.392 61.995 263.654C60.6038 266.916 61.995 284.736 61.995 284.736C61.995 284.736 79.3822 288.046 89.6654 286.275C79.2658 287.507 63.6136 284.525 63.6136 284.525Z" fill="black"/>
<path opacity="0.1" d="M94.9075 223.143C94.5902 224.571 94.9075 232.966 95.1667 238.104C96.2881 240.393 96.9917 241.905 96.9917 241.905C96.9917 241.905 96.066 224.988 96.5262 222.911C96.9652 220.928 88.8244 206.39 88.0151 204.937L86.3276 205.053C86.3276 205.053 95.373 221.029 94.9075 223.143Z" fill="black"/>
<path opacity="0.1" d="M121.102 242.592C110.904 242.825 101.864 233.077 101.864 233.077C101.59 233.455 101.391 233.882 101.276 234.335C103.921 236.825 111.327 242.994 119.478 242.793C129.677 242.561 141.732 243.951 141.732 243.951C141.732 243.951 141.684 243.798 141.61 243.533C134.797 242.84 127.95 242.525 121.102 242.592Z" fill="black"/>
<path opacity="0.1" d="M103.022 262.052C103.022 262.052 103.117 263.501 103.064 265.674C105.476 270.431 109.867 278.636 111.829 278.964L111.485 277.061C108.1 272.837 103.022 262.052 103.022 262.052Z" fill="black"/>
</g>
<path d="M109.513 259.737L104.588 260.794L100.706 261.613L102.79 255.798L104.239 255.433L106.498 254.873C106.498 254.873 109.746 238.654 116.236 239.817C122.727 240.98 109.513 259.737 109.513 259.737Z" fill="#FFB8B8"/>
<path opacity="0.1" d="M104.588 260.773L100.706 261.592L102.79 255.777L104.239 255.412C104.563 257.179 104.68 258.978 104.588 260.773Z" fill="black"/>
<path d="M66.1634 222.667C66.1634 222.667 71.7282 241.435 74.9707 243.75C78.2133 246.066 97.9174 257.881 103.715 255.1C103.715 255.1 105.106 262.052 103.022 263.67C103.022 263.67 81.4083 262.824 81.2337 262.744C81.2337 262.744 67.0944 260.889 64.7775 253.942C62.4606 246.996 59.6782 235.175 59.6782 235.175L66.1634 222.667Z" fill="#787C9C"/>
<path opacity="0.1" d="M73.1198 192.556C73.1198 192.556 72.649 194.369 72.0195 197.007C73.3056 199.434 75.3556 201.371 77.8529 202.517C80.3501 203.664 83.1558 203.957 85.8362 203.351C85.2808 200.972 85.4025 198.593 87.0317 196.706L73.1198 192.556Z" fill="black"/>
<path d="M82.8577 203.208C89.7698 203.208 95.3731 197.608 95.3731 190.7C95.3731 183.792 89.7698 178.192 82.8577 178.192C75.9456 178.192 70.3423 183.792 70.3423 190.7C70.3423 197.608 75.9456 203.208 82.8577 203.208Z" fill="#FFB8B8"/>
<path opacity="0.1" d="M93.7231 187.259C94.6318 187.511 95.5835 187.569 96.516 187.428C98.4679 187.026 99.8591 185.044 99.9067 183.051C99.8872 182.052 99.6454 181.071 99.1989 180.177C98.7524 179.284 98.1124 178.501 97.3254 177.886C96.2674 177.003 94.9979 176.374 94.0299 175.391C92.882 174.222 92.2578 172.647 91.385 171.272C89.8897 168.987 87.6719 167.267 85.085 166.388C83.1648 165.737 80.8162 165.663 79.3404 167.059C78.584 167.773 78.1396 168.804 77.2933 169.406C76.0661 170.279 74.4051 170.019 72.9081 170.194C71.5512 170.402 70.2667 170.942 69.1679 171.764C68.0691 172.587 67.1899 173.667 66.6081 174.91C65.4714 177.427 65.2542 180.263 65.9945 182.924C66.2854 184.06 66.7086 185.165 67.0207 186.297C67.6713 188.654 67.8247 191.128 68.5758 193.455C69.327 195.781 70.8769 198.054 73.2202 198.741C73.0348 196.133 73.5498 193.523 74.7119 191.181C74.9043 190.671 75.282 190.252 75.7698 190.008C76.188 189.901 76.6265 189.901 77.0446 190.008C79.9794 190.443 82.9739 189.837 85.5082 188.295C86.3968 187.766 87.7827 185.911 88.7349 185.726C89.9515 185.509 92.4535 186.973 93.7231 187.259Z" fill="black"/>
<path d="M93.7229 186.793C94.6316 187.046 95.5833 187.103 96.5158 186.963C98.4677 186.561 99.8589 184.578 99.9065 182.585C99.887 181.587 99.6452 180.605 99.1987 179.712C98.7522 178.819 98.1122 178.036 97.3252 177.42C96.2672 176.538 94.9977 175.909 94.0297 174.925C92.8818 173.757 92.2576 172.182 91.3848 170.807C89.8895 168.521 87.6717 166.802 85.0848 165.922C83.1646 165.272 80.816 165.198 79.3402 166.594C78.5838 167.307 78.1394 168.338 77.2931 168.941C76.0658 169.813 74.4049 169.554 72.9079 169.729C71.551 169.937 70.2664 170.476 69.1677 171.299C68.0689 172.121 67.1897 173.202 66.6079 174.444C65.4762 176.955 65.2591 179.783 65.9943 182.437C66.2852 183.574 66.7084 184.679 67.0205 185.81C67.6711 188.168 67.8245 190.642 68.5756 192.968C69.3268 195.294 70.8767 197.567 73.22 198.255C73.0346 195.647 73.5496 193.037 74.7117 190.695C74.9041 190.185 75.2818 189.766 75.7696 189.521C76.1878 189.414 76.6263 189.414 77.0444 189.521C79.9792 189.956 82.9737 189.35 85.508 187.808C86.3966 187.28 87.7825 185.424 88.7347 185.239C89.9513 185.044 92.4533 186.513 93.7229 186.793Z" fill="#503F43"/>
<path d="M393.067 57.0098H119.722V383.716H393.067V57.0098Z" fill="#FAFBFC"/>
<path d="M393.067 57.0098H119.722V68.085H393.067V57.0098Z" fill="#7983A6"/>
<path d="M156.66 190.14H356.129" stroke="#7983A6" stroke-miterlimit="10"/>
<g opacity="0.5">
<path opacity="0.5" d="M156.66 168.449H159.833" stroke="#7983A6" stroke-miterlimit="10"/>
<path opacity="0.5" d="M166.065 168.449H349.84" stroke="#7983A6" stroke-miterlimit="10" stroke-dasharray="11.78 11.78"/>
<path opacity="0.5" d="M352.955 168.449H356.129" stroke="#7983A6" stroke-miterlimit="10"/>
</g>
<g opacity="0.5">
<path opacity="0.5" d="M156.66 146.764H159.833" stroke="#7983A6" stroke-miterlimit="10"/>
<path opacity="0.5" d="M166.065 146.764H349.84" stroke="#7983A6" stroke-miterlimit="10" stroke-dasharray="11.78 11.78"/>
<path opacity="0.5" d="M352.955 146.764H356.129" stroke="#7983A6" stroke-miterlimit="10"/>
</g>
<g opacity="0.5">
<path opacity="0.5" d="M156.66 125.073H159.833" stroke="#7983A6" stroke-miterlimit="10"/>
<path opacity="0.5" d="M166.065 125.073H349.84" stroke="#7983A6" stroke-miterlimit="10" stroke-dasharray="11.78 11.78"/>
<path opacity="0.5" d="M352.955 125.073H356.129" stroke="#7983A6" stroke-miterlimit="10"/>
</g>
<g opacity="0.5">
<path opacity="0.5" d="M156.66 103.388H159.833" stroke="#7983A6" stroke-miterlimit="10"/>
<path opacity="0.5" d="M166.065 103.388H349.84" stroke="#7983A6" stroke-miterlimit="10" stroke-dasharray="11.78 11.78"/>
<path opacity="0.5" d="M352.955 103.388H356.129" stroke="#7983A6" stroke-miterlimit="10"/>
</g>
<g opacity="0.3">
<path opacity="0.3" d="M180.902 146.764H166.588V190.139H180.902V146.764Z" fill="#6C63FF"/>
</g>
<path d="M220.839 124.841H206.525V190.367H220.839V124.841Z" fill="#6C63FF"/>
<g opacity="0.3">
<path opacity="0.3" d="M260.782 168.216H246.468V190.594H260.782V168.216Z" fill="#6C63FF"/>
</g>
<path d="M300.719 102.696H286.405V190.372H300.719V102.696Z" fill="#6C63FF"/>
<g opacity="0.3">
<path opacity="0.3" d="M340.657 123.921H326.343V190.14H340.657V123.921Z" fill="#6C63FF"/>
</g>
<path d="M173.745 203.747C175.785 203.747 177.438 202.095 177.438 200.057C177.438 198.019 175.785 196.367 173.745 196.367C171.706 196.367 170.053 198.019 170.053 200.057C170.053 202.095 171.706 203.747 173.745 203.747Z" fill="#6C63FF"/>
<path d="M213.915 203.747C215.954 203.747 217.608 202.095 217.608 200.057C217.608 198.019 215.954 196.367 213.915 196.367C211.876 196.367 210.223 198.019 210.223 200.057C210.223 202.095 211.876 203.747 213.915 203.747Z" fill="#6C63FF"/>
<path d="M254.085 203.747C256.124 203.747 257.777 202.095 257.777 200.057C257.777 198.019 256.124 196.367 254.085 196.367C252.046 196.367 250.393 198.019 250.393 200.057C250.393 202.095 252.046 203.747 254.085 203.747Z" fill="#6C63FF"/>
<path d="M294.255 203.747C296.294 203.747 297.947 202.095 297.947 200.057C297.947 198.019 296.294 196.367 294.255 196.367C292.216 196.367 290.563 198.019 290.563 200.057C290.563 202.095 292.216 203.747 294.255 203.747Z" fill="#6C63FF"/>
<path d="M334.425 203.747C336.464 203.747 338.117 202.095 338.117 200.057C338.117 198.019 336.464 196.367 334.425 196.367C332.386 196.367 330.733 198.019 330.733 200.057C330.733 202.095 332.386 203.747 334.425 203.747Z" fill="#6C63FF"/>
<path d="M156.66 329.497H356.129" stroke="#7983A6" stroke-miterlimit="10"/>
<g opacity="0.5">
<path opacity="0.5" d="M156.66 307.807H159.833" stroke="#7983A6" stroke-miterlimit="10"/>
<path opacity="0.5" d="M166.065 307.807H349.84" stroke="#7983A6" stroke-miterlimit="10" stroke-dasharray="11.78 11.78"/>
<path opacity="0.5" d="M352.955 307.807H356.129" stroke="#7983A6" stroke-miterlimit="10"/>
</g>
<g opacity="0.5">
<path opacity="0.5" d="M156.66 286.122H159.833" stroke="#7983A6" stroke-miterlimit="10"/>
<path opacity="0.5" d="M166.065 286.122H349.84" stroke="#7983A6" stroke-miterlimit="10" stroke-dasharray="11.78 11.78"/>
<path opacity="0.5" d="M352.955 286.122H356.129" stroke="#7983A6" stroke-miterlimit="10"/>
</g>
<g opacity="0.5">
<path opacity="0.5" d="M156.66 264.431H159.833" stroke="#7983A6" stroke-miterlimit="10"/>
<path opacity="0.5" d="M166.065 264.431H349.84" stroke="#7983A6" stroke-miterlimit="10" stroke-dasharray="11.78 11.78"/>
<path opacity="0.5" d="M352.955 264.431H356.129" stroke="#7983A6" stroke-miterlimit="10"/>
</g>
<g opacity="0.5">
<path opacity="0.5" d="M156.66 242.746H159.833" stroke="#7983A6" stroke-miterlimit="10"/>
<path opacity="0.5" d="M166.065 242.746H349.84" stroke="#7983A6" stroke-miterlimit="10" stroke-dasharray="11.78 11.78"/>
<path opacity="0.5" d="M352.955 242.746H356.129" stroke="#7983A6" stroke-miterlimit="10"/>
</g>
<path d="M180.902 286.122H166.588V329.497H180.902V286.122Z" fill="#6C63FF"/>
<path d="M220.839 285.889H206.525V329.724H220.839V285.889Z" fill="#6C63FF"/>
<path d="M260.782 307.58H246.468V329.957H260.782V307.58Z" fill="#6C63FF"/>
<path d="M300.719 242.053H286.405V329.73H300.719V242.053Z" fill="#6C63FF"/>
<path d="M395.141 190.325H380.827V256.543H395.141V190.325Z" fill="#6C63FF"/>
<g opacity="0.7">
<path opacity="0.7" d="M173.745 343.105C175.785 343.105 177.438 341.453 177.438 339.415C177.438 337.377 175.785 335.725 173.745 335.725C171.706 335.725 170.053 337.377 170.053 339.415C170.053 341.453 171.706 343.105 173.745 343.105Z" fill="#6C63FF"/>
</g>
<g opacity="0.7">
<path opacity="0.7" d="M213.915 343.105C215.954 343.105 217.608 341.453 217.608 339.415C217.608 337.377 215.954 335.725 213.915 335.725C211.876 335.725 210.223 337.377 210.223 339.415C210.223 341.453 211.876 343.105 213.915 343.105Z" fill="#6C63FF"/>
</g>
<g opacity="0.7">
<path opacity="0.7" d="M254.085 343.105C256.124 343.105 257.777 341.453 257.777 339.415C257.777 337.377 256.124 335.725 254.085 335.725C252.046 335.725 250.393 337.377 250.393 339.415C250.393 341.453 252.046 343.105 254.085 343.105Z" fill="#6C63FF"/>
</g>
<g opacity="0.7">
<path opacity="0.7" d="M294.255 343.105C296.294 343.105 297.947 341.453 297.947 339.415C297.947 337.377 296.294 335.725 294.255 335.725C292.216 335.725 290.563 337.377 290.563 339.415C290.563 341.453 292.216 343.105 294.255 343.105Z" fill="#6C63FF"/>
</g>
<g opacity="0.7">
<path opacity="0.7" d="M334.425 343.105C336.464 343.105 338.117 341.453 338.117 339.415C338.117 337.377 336.464 335.725 334.425 335.725C332.386 335.725 330.733 337.377 330.733 339.415C330.733 341.453 332.386 343.105 334.425 343.105Z" fill="#6C63FF"/>
</g>
<path d="M99.4729 382.521C100.442 381.731 101.149 380.665 101.499 379.465C101.763 378.249 101.245 376.795 100.081 376.351C98.7799 375.854 97.3887 376.753 96.3361 377.668C95.2834 378.582 94.0721 379.618 92.6915 379.423C93.4011 378.78 93.9319 377.964 94.2323 377.055C94.5326 376.147 94.5923 375.175 94.4053 374.237C94.3457 373.848 94.1811 373.482 93.9293 373.179C93.2046 372.408 91.898 372.741 91.0305 373.349C88.2799 375.283 87.5129 379.016 87.497 382.378C87.2219 381.167 87.4547 379.904 87.4441 378.677C87.4335 377.451 87.095 376.034 86.0476 375.389C85.3982 375.04 84.6688 374.867 83.9318 374.887C82.694 374.839 81.3186 374.966 80.4723 375.87C79.4144 376.991 79.6947 378.878 80.6098 380.099C81.5249 381.321 82.9108 382.108 84.1909 382.965C85.2169 383.574 86.092 384.407 86.7512 385.402C86.8287 385.54 86.8925 385.685 86.9416 385.835H94.691C96.4273 384.951 98.0359 383.836 99.4729 382.521Z" fill="#6C63FF"/>
<path d="M476.099 376.177C477.069 375.387 477.775 374.321 478.125 373.121C478.39 371.905 477.871 370.452 476.708 370.008C475.406 369.511 474.015 370.409 472.963 371.324C471.91 372.238 470.699 373.275 469.318 373.079C470.028 372.436 470.558 371.621 470.859 370.712C471.159 369.803 471.219 368.832 471.032 367.893C470.972 367.504 470.808 367.138 470.556 366.836C469.831 366.064 468.525 366.397 467.657 367.005C464.906 368.94 464.139 372.672 464.123 376.034C463.848 374.824 464.081 373.56 464.071 372.334C464.06 371.107 463.721 369.69 462.674 369.045C462.025 368.697 461.295 368.523 460.558 368.543C459.32 368.496 457.945 368.622 457.099 369.526C456.041 370.647 456.321 372.535 457.236 373.756C458.151 374.977 459.537 375.765 460.817 376.621C461.843 377.231 462.719 378.064 463.378 379.058C463.455 379.196 463.519 379.341 463.568 379.492H471.317C473.054 378.607 474.662 377.492 476.099 376.177Z" fill="#6C63FF"/>
<path d="M421.298 248.233L417.431 247.784L387.809 244.342C369.829 238.664 381.202 230.016 381.202 230.016L393.173 241.382C396.627 242.074 410.168 240.462 416.236 239.685C418.055 239.447 419.203 239.288 419.203 239.288L421.298 248.233Z" fill="#FDC2CC"/>
<path d="M450.322 207.284C450.322 207.284 442.541 201.003 430.872 221.341C419.203 241.678 416.511 238.384 416.511 238.384C416.511 238.384 418.907 247.371 417.706 249.153C417.706 249.153 425.784 248.555 428.778 249.153C431.772 249.75 450.322 226.421 450.322 226.421C450.322 226.421 459.902 213.247 450.322 207.284Z" fill="#F68080"/>
</g>
<defs>
<linearGradient id="paint0_linear" x1="414.305" y1="386.977" x2="414.305" y2="165.246" gradientUnits="userSpaceOnUse">
<stop stop-color="#808080" stop-opacity="0.25"/>
<stop offset="0.54" stop-color="#808080" stop-opacity="0.12"/>
<stop offset="1" stop-color="#808080" stop-opacity="0.1"/>
</linearGradient>
<linearGradient id="paint1_linear" x1="35383.4" y1="182689" x2="35383.4" y2="85400.8" gradientUnits="userSpaceOnUse">
<stop stop-color="#808080" stop-opacity="0.25"/>
<stop offset="0.54" stop-color="#808080" stop-opacity="0.12"/>
<stop offset="1" stop-color="#808080" stop-opacity="0.1"/>
</linearGradient>
<clipPath id="clip0">
<rect width="514" height="404" fill="white"/>
</clipPath>
</defs>
</svg>
