<svg width="361" height="229" viewBox="0 0 361 229" fill="none" xmlns="http://www.w3.org/2000/svg">
<path opacity="0.5" d="M89.3477 149.367C67.5763 141.098 42.6892 134.1 22.3513 145.984C19.7708 147.486 17.2382 149.388 15.8428 152.204C12.1728 159.623 18.0027 169.258 15.1642 177.097C12.3257 184.936 1.63111 188.897 2.50082 197.272C2.7302 199.468 3.81018 201.443 5.0813 203.156C13.0521 213.853 27.6556 214.935 40.0035 212.287C52.3515 209.639 64.4224 204.123 76.9902 204.816C89.0706 205.499 100.176 211.867 111.243 217.236C129.899 226.294 151.69 232.798 170.326 223.688C178.871 219.516 185.924 212.403 194.105 207.443C205.125 200.813 217.788 198.259 230.222 200.161C238.527 201.443 246.45 204.68 254.574 206.918C273.029 211.982 292.296 211.814 311.306 211.615C314.842 211.573 318.445 211.531 321.838 210.417C326.865 208.757 331.003 204.932 334.998 201.202C340.236 196.295 345.76 190.894 347.451 183.559C349.449 174.848 345.311 165.581 339.184 159.665C333.058 153.749 325.221 150.502 317.575 147.392C315.693 146.625 313.676 145.847 311.736 146.425C310.465 146.803 309.404 147.739 308.448 148.737C303.02 154.485 298.432 164.194 291.035 162.628C288.397 162.071 286.228 160.054 284.144 158.183C272.981 148.222 257.967 140.541 244.491 146.036C234.637 150.061 227.68 160.4 217.692 164.046C210.591 166.642 202.869 165.518 195.395 166.022C184.529 166.757 173.949 170.971 163.063 170.719C135.309 170.067 112.18 140.888 84.5405 143.662C82.371 143.882 80.0103 144.429 78.6819 146.31" fill="#6C63FF"/>
<path d="M54.3395 121.606C54.3395 121.606 31.2778 136.915 73.8076 160.494C73.8076 160.494 83.1833 141.371 72.8232 125.767C68.6658 119.473 60.8767 117.602 54.7122 121.406L54.3395 121.606Z" fill="#6C63FF"/>
<path d="M54.6172 121.29C54.6172 121.29 74.3625 137.892 73.8082 160.483" stroke="#535461" stroke-miterlimit="10"/>
<path d="M346.132 108.86C350.806 127.648 330.869 181.163 330.869 181.163C330.869 181.163 288.932 146.257 284.258 127.469C279.193 108.807 288.846 89.1581 305.82 83.5785C322.793 78.0095 340.666 88.6222 345.74 107.284C345.884 107.799 346.008 108.324 346.132 108.86Z" fill="#6C63FF"/>
<path opacity="0.1" d="M346.132 108.86C350.806 127.648 330.869 181.163 330.869 181.163C330.869 181.163 288.932 146.257 284.258 127.469C279.193 108.807 288.846 89.1581 305.82 83.5785C322.793 78.0095 340.666 88.6222 345.74 107.284C345.884 107.799 346.008 108.324 346.132 108.86Z" fill="black"/>
<path d="M306.91 84.2612C306.91 84.2612 333.011 127.584 331.061 181.268" stroke="#535461" stroke-miterlimit="10"/>
<path d="M352.794 143.189C352.794 143.189 329.12 129.035 332.121 181.289C332.121 181.289 351.867 180.512 358.872 162.806C361.711 155.682 359.245 147.339 353.138 143.41L352.794 143.189Z" fill="#6C63FF"/>
<path d="M353.186 143.283C353.186 143.283 350.128 170.413 332.122 181.299" stroke="#535461" stroke-miterlimit="10"/>
<path d="M6.24735 137.367C6.24735 137.367 -16.8239 152.666 25.706 176.235C25.706 176.235 35.0817 157.111 24.7216 141.507C20.5642 135.213 12.775 133.343 6.61053 137.146L6.24735 137.367Z" fill="#6C63FF"/>
<path d="M6.50537 137.041C6.50537 137.041 26.2507 153.643 25.6964 176.235" stroke="#535461" stroke-miterlimit="10"/>
<path d="M294.16 157.29H269.913C270.467 156.06 270.763 154.694 270.754 153.318V31.923C270.754 26.9949 267.122 23.002 262.64 23.002H74.9445C70.4621 23.002 66.8304 26.9949 66.8304 31.923V153.318C66.8304 154.694 67.1171 156.05 67.6714 157.29H42.5644C41.3793 157.29 40.4141 158.351 40.4141 159.654V159.664V161.566C40.4141 168.859 45.7948 174.774 52.4276 174.774H284.297C290.929 174.774 296.31 168.859 296.31 161.566V159.664C296.32 158.361 295.364 157.3 294.179 157.29C294.169 157.29 294.16 157.29 294.16 157.29ZM144.751 164.834L142.658 162.239H194.277L191.973 164.834H144.751Z" fill="url(#paint0_linear)"/>
<path d="M77.8984 24.7148H259.659C264.504 24.7148 268.442 29.0335 268.442 34.3714V151.164C268.442 156.491 264.514 160.82 259.659 160.82H77.8984C73.0528 160.82 69.1152 156.502 69.1152 151.164V34.3609C69.1248 29.0335 73.0528 24.7148 77.8984 24.7148Z" fill="#535461"/>
<path d="M263.825 44.5522H73.3198V155.734H263.825V44.5522Z" fill="white"/>
<path d="M168.568 36.7147C169.497 36.7147 170.25 35.8866 170.25 34.8651C170.25 33.8437 169.497 33.0156 168.568 33.0156C167.639 33.0156 166.886 33.8437 166.886 34.8651C166.886 35.8866 167.639 36.7147 168.568 36.7147Z" fill="white"/>
<path d="M197.985 155.965L191.439 163.352H145.296L139.38 155.965H45.4132C44.2567 155.965 43.3105 156.995 43.3105 158.277V160.136C43.3105 167.261 48.567 173.04 55.0468 173.04H281.669C288.149 173.04 293.405 167.261 293.405 160.136V158.277C293.405 157.005 292.469 155.965 291.303 155.965H197.985Z" fill="#535461"/>
<path d="M97.6533 51.4775V146.046H239.904" stroke="#535461" stroke-width="2" stroke-miterlimit="10"/>
<path opacity="0.5" d="M124.929 117.444H110.239V142.357H124.929V117.444Z" fill="#6C63FF"/>
<path opacity="0.7" d="M150.113 95.2944H135.424V142.347H150.113V95.2944Z" fill="#6C63FF"/>
<path opacity="0.5" d="M175.287 108.682H160.597V142.359H175.287V108.682Z" fill="#6C63FF"/>
<path opacity="0.8" d="M200.46 87.9175H185.771V142.358H200.46V87.9175Z" fill="#6C63FF"/>
<path d="M225.644 68.5415H210.955V142.358H225.644V68.5415Z" fill="#6C63FF"/>
<path d="M117.379 102.219L142.974 76.8433L168.148 100.832L192.91 71.7681L218.084 60.2412" stroke="#535461" stroke-width="2" stroke-miterlimit="10"/>
<path d="M117.379 105.444C119 105.444 120.314 103.999 120.314 102.218C120.314 100.436 119 98.9917 117.379 98.9917C115.759 98.9917 114.445 100.436 114.445 102.218C114.445 103.999 115.759 105.444 117.379 105.444Z" fill="#6C63FF"/>
<path d="M167.727 103.596C169.347 103.596 170.661 102.151 170.661 100.37C170.661 98.5883 169.347 97.144 167.727 97.144C166.107 97.144 164.793 98.5883 164.793 100.37C164.793 102.151 166.107 103.596 167.727 103.596Z" fill="#6C63FF"/>
<path d="M196.237 72.277C196.496 70.5184 195.41 68.8614 193.81 68.5759C192.211 68.2905 190.704 69.4848 190.444 71.2434C190.185 73.0021 191.271 74.6591 192.87 74.9445C194.47 75.2299 195.977 74.0357 196.237 72.277Z" fill="#6C63FF"/>
<path d="M142.974 79.6052C144.594 79.6052 145.908 78.161 145.908 76.3795C145.908 74.598 144.594 73.1538 142.974 73.1538C141.354 73.1538 140.04 74.598 140.04 76.3795C140.04 78.161 141.354 79.6052 142.974 79.6052Z" fill="#6C63FF"/>
<path d="M218.084 63.4674C219.705 63.4674 221.019 62.0231 221.019 60.2415C221.019 58.4599 219.705 57.0156 218.084 57.0156C216.464 57.0156 215.15 58.4599 215.15 60.2415C215.15 62.0231 216.464 63.4674 218.084 63.4674Z" fill="#6C63FF"/>
<path d="M327.324 160C325.776 159.443 323.482 158.792 321.667 159.023C319.937 158.329 315.865 156.532 313.084 153.832C313.161 151.173 313.103 148.505 312.903 145.857C311.479 128.067 314.68 116.341 314.68 116.341C314.68 116.341 317.194 107.399 316.917 99.9697C317.079 100.306 317.165 100.506 317.165 100.506C317.385 94.1065 319.373 87.4762 320.854 83.3466C320.911 83.3256 320.969 83.3046 321.017 83.2836L322.68 78.9545C322.813 78.7023 322.919 78.4291 322.995 78.1559L323.263 77.4729L323.186 77.4308C323.215 77.3152 323.243 77.1997 323.263 77.0736C324.323 72.135 325.145 60.44 325.145 60.44C327.993 48.125 321.236 40.528 321.236 40.528L309.768 29.6841C309.825 29.8207 309.863 29.9783 309.882 30.1254L309.787 30.0308C309.624 29.516 309.443 28.9065 309.271 28.213C309.672 27.8978 310.054 27.5405 310.399 27.1518C311.698 25.7963 312.597 24.0415 312.969 22.1081C313.189 20.595 313.247 19.0714 313.141 17.5478L312.95 12.315C312.941 11.2957 312.845 10.266 312.664 9.26775C311.803 5.11723 307.933 2.21712 304.043 2.02798C302.81 2.01748 301.568 2.09102 300.344 2.24864C299.341 2.3432 298.328 2.36423 297.324 2.3222C297.209 2.3327 297.095 2.29068 296.999 2.22763C296.913 2.13306 296.865 2.00696 296.856 1.87036C296.818 1.3765 296.961 0.89315 297.257 0.525382C297.41 0.378275 297.582 0.262694 297.773 0.199648L297.496 0.273209C297.63 0.157625 297.783 0.0630459 297.945 0C296.942 0.199645 295.967 0.577933 295.088 1.14535C294.839 1.32398 294.619 1.53412 294.419 1.76529C293.893 2.26966 293.549 2.97368 293.453 3.74073C292.985 3.29941 292.632 2.732 292.431 2.08053C292.373 1.81783 292.373 1.54463 292.431 1.27143C292.364 1.366 292.297 1.46057 292.23 1.55514C292.23 1.52362 292.23 1.4921 292.23 1.47108C291.504 2.4588 290.988 3.61463 290.72 4.84402C290.519 4.57083 290.414 4.22408 290.452 3.87732C290.395 4.07697 290.347 4.2661 290.29 4.46575C290.271 4.33966 290.271 4.20306 290.29 4.07697C289.85 5.56906 289.65 7.14521 289.697 8.71085C289.697 10.2765 290.328 12.7248 291.857 13.2712C291.934 13.3027 292.02 13.3237 292.096 13.3447C289.229 18.2413 290.51 24.777 294.973 27.9293C296.063 28.7069 297.286 29.2218 298.567 29.4634C298.595 29.6526 298.614 29.8522 298.643 30.0624H298.7C298.739 30.4722 298.777 30.9345 298.796 31.3968C298.414 31.8172 297.984 32.1849 297.534 32.5107C296.254 33.3408 294.82 33.8661 293.339 34.0343C291.571 34.1919 289.85 34.7488 288.293 35.6945C286.458 36.8188 284.441 38.458 283.81 40.4544C282.749 43.7748 276.939 48.9446 273.03 49.5856L271.644 49.5015L271.539 49.47V49.5015L271.195 49.4805H271.175H271.089V49.5015L270.736 49.4805C270.736 49.4805 270.698 49.6591 270.65 49.9744C268.691 49.2283 264.514 47.1688 259.086 41.7574C253.045 35.726 244.874 36.9134 241.73 37.6699C241.443 37.7435 241.252 38.0587 241.319 38.3739C241.357 38.542 241.452 38.6891 241.586 38.7627C242.857 39.5298 244.826 40.6436 245.734 40.7697C245.734 40.7697 243.851 42.9447 245.858 44.0901C246.346 44.3528 246.929 44.2897 247.368 43.9325C248.343 43.1444 251.048 44.9202 254.966 45.8449C254.966 45.8449 266.034 58.433 271.529 60.3664C271.653 60.6396 271.797 60.9128 271.95 61.165L272.294 61.1335V61.165H272.437L272.475 61.5748C272.475 61.5748 281.019 61.0809 283.801 57.666C284.001 57.4768 284.173 57.2562 284.336 57.0355L281.364 98.1099H281.392L281.364 98.4987H283.552C283.743 103.553 283.543 108.607 282.96 113.63V140.414C282.96 140.414 282.845 142.767 287.299 146.224C291.972 149.797 296.464 153.632 300.784 157.709L301.319 158.224C300.497 166.42 298.786 181.698 297.353 182.266L298.232 182.434C296.722 184.535 292.431 190.314 291.131 190.472C289.535 190.672 288.465 193.404 291.131 193.992C296.454 195.001 301.94 194.412 306.987 192.279C308.019 191.828 308.65 190.661 308.497 189.453L307.981 185.134C308.076 185.197 308.162 185.281 308.21 185.397C308.564 186.574 308.21 183.831 308.21 183.831C309.672 178.661 310.819 173.397 311.651 168.059L316.936 173.082C316.936 173.082 317.041 172.935 317.222 172.672C318.513 175.898 320.826 182.507 320.309 187.341C319.602 193.982 326.35 188.118 325.642 184.21C325.069 181.047 327.64 167.649 328.634 162.637C328.911 161.481 328.318 160.357 327.324 160Z" fill="url(#paint1_linear)"/>
<path d="M272.111 51.5706C272.111 51.5706 267.075 50.6144 259.61 43.175C253.704 37.2907 245.733 38.4465 242.665 39.1926C242.379 39.2556 242.207 39.5708 242.264 39.8756C242.293 40.0437 242.388 40.1803 242.522 40.2643C243.764 41.0104 245.685 42.1032 246.593 42.2293C246.593 42.2293 244.73 44.3413 246.708 45.4761C247.195 45.7388 247.769 45.6758 248.199 45.3185C249.155 44.5515 251.792 46.2852 255.625 47.1889C255.625 47.1889 270.553 64.1798 274.023 61.3007L272.111 51.5706Z" fill="#FEC3BE"/>
<path d="M297.811 28.4758C297.811 28.4758 299.197 34.9695 297.811 39.5508L304.062 40.507L309.614 37.4493V33.4459C309.614 33.4459 307.015 27.3409 307.703 20.2798L297.811 28.4758Z" fill="#FEC3BE"/>
<path d="M315.512 169.142C315.512 169.142 320.042 178.872 319.335 185.366C318.627 191.859 325.241 186.133 324.543 182.308C323.979 179.219 326.483 166.126 327.468 161.251C327.688 160.158 327.124 159.065 326.159 158.718C324.075 157.962 320.577 157.037 318.819 158.456C316.219 160.547 315.512 169.142 315.512 169.142Z" fill="#8B416F"/>
<path d="M298.337 179.828C298.337 179.828 292.431 188.224 290.873 188.413C289.315 188.602 288.273 191.271 290.873 191.849C296.072 192.847 301.424 192.269 306.346 190.189C307.359 189.758 307.971 188.613 307.827 187.425L306.833 179.25L298.337 179.828Z" fill="#8B416F"/>
<path d="M288.607 90.6924L282.949 91.5225C283.724 98.7938 283.704 106.139 282.883 113.399V139.542C282.883 139.542 282.777 141.844 287.116 145.196C291.675 148.684 296.072 152.425 300.277 156.397L316.027 171.402C316.027 171.402 322.278 163.006 321.408 158.036C321.408 158.036 310.99 154.411 309.605 148.495C308.811 145.111 304.769 142.274 301.462 140.488C297.18 138.197 294.925 132.944 296.043 127.858C296.234 126.996 296.53 126.177 296.932 125.41C299.713 120.061 303.698 108.041 303.698 108.041L296.062 92.0374L288.607 90.6924Z" fill="#4D4981"/>
<path opacity="0.05" d="M288.607 90.6924L282.949 91.5225C283.724 98.7938 283.704 106.139 282.883 113.399V139.542C282.883 139.542 282.777 141.844 287.116 145.196C291.675 148.684 296.072 152.425 300.277 156.397L316.027 171.402C316.027 171.402 322.278 163.006 321.408 158.036C321.408 158.036 310.99 154.411 309.605 148.495C308.811 145.111 304.769 142.274 301.462 140.488C297.18 138.197 294.925 132.944 296.043 127.858C296.234 126.996 296.53 126.177 296.932 125.41C299.713 120.061 303.698 108.041 303.698 108.041L296.062 92.0374L288.607 90.6924Z" fill="black"/>
<path d="M296.942 180.408C296.942 180.408 307.187 182.32 307.531 183.465C307.875 184.611 307.531 181.942 307.531 181.942C307.531 181.942 313.437 162.282 312.061 144.913C310.685 127.544 313.801 116.09 313.801 116.09C313.801 116.09 317.442 103.113 315.358 95.6634C313.275 88.224 291.398 91.4603 291.398 91.4603C291.398 91.4603 299.035 111.12 298.863 120.472C298.863 120.472 299.732 148.717 301.29 151.963C301.281 151.963 298.853 179.641 296.942 180.408Z" fill="#4D4981"/>
<path d="M298.145 33.4355C298.145 33.4355 299.187 40.4862 309.604 37.439L302.675 95.4623C302.675 95.4623 282.538 96.2293 282.71 93.5499L286.858 58.4333L298.145 33.4355Z" fill="white"/>
<path opacity="0.1" d="M298.423 33.0581C297.066 34.5292 295.298 35.4539 293.405 35.6745C291.675 35.8216 289.993 36.368 288.474 37.2822C286.687 38.3855 284.699 39.9826 284.096 41.9266C282.883 45.7408 275.246 52.0454 271.768 50.7109L272.981 62.1643C272.981 62.1643 282.873 61.5969 284.613 57.3938L281.669 98.258H284.269C284.269 98.258 285.654 87.183 286.696 84.8923C287.738 82.6016 289.821 70.003 289.993 66.9453C290.165 63.8875 292.774 46.3293 295.03 43.2926L298.423 34.2245V33.0581Z" fill="black"/>
<path opacity="0.1" d="M298.423 33.626C296.875 34.9604 295.02 35.8011 293.061 36.0533C291.331 36.2004 289.659 36.7573 288.139 37.6714C286.352 38.7747 284.364 40.3719 283.762 42.3158C282.548 46.1301 274.912 52.4347 271.433 51.1002L272.647 62.5536C272.647 62.5536 282.539 61.9862 284.278 57.7831L281.325 98.6264H283.924C283.924 98.6264 285.31 87.5513 286.352 85.2607C287.394 82.97 289.477 70.3713 289.649 67.3136C289.821 64.2558 292.43 46.6975 294.686 43.6608L298.413 34.7608V33.626H298.423Z" fill="black"/>
<path d="M298.423 33.2461C296.874 34.5806 295.02 35.4212 293.061 35.6734C291.331 35.8205 289.649 36.3669 288.129 37.281C286.342 38.3843 284.354 39.9815 283.752 41.9254C282.538 45.7397 274.902 52.0443 271.423 50.7098L272.637 62.1631C272.637 62.1631 282.529 61.5957 284.268 57.3927L281.325 98.2569H283.924C283.924 98.2569 285.31 87.1818 286.352 84.8911C287.394 82.6005 289.477 70.0018 289.649 66.9441C289.821 63.8864 292.43 46.3281 294.686 43.2914L298.423 34.4124V33.2461Z" fill="#FD6F8D"/>
<path opacity="0.1" d="M307.273 25.8916C307.043 24.0843 307.502 22.9495 307.703 20.8374L297.811 29.044C297.811 29.044 298.05 30.1473 298.232 31.776C298.729 31.8601 299.235 31.9126 299.742 31.9126C303.173 31.9126 305.648 28.9599 307.273 25.8916Z" fill="black"/>
<path d="M299.722 31.3455C304.9 31.3455 309.098 26.7305 309.098 21.0375C309.098 15.3445 304.9 10.7295 299.722 10.7295C294.544 10.7295 290.347 15.3445 290.347 21.0375C290.347 26.7305 294.544 31.3455 299.722 31.3455Z" fill="#FEC3BE"/>
<path opacity="0.1" d="M289.486 10.928C289.429 9.19422 289.687 7.46046 290.241 5.83178C289.916 6.35716 290.002 7.07168 290.442 7.49198C290.748 5.71619 291.57 4.10854 292.793 2.90016C292.124 3.01574 291.78 3.9299 291.952 4.65493C292.181 5.35894 292.583 5.97888 293.109 6.45172C293.051 5.35893 293.711 4.33971 294.542 3.74077C295.412 3.19438 296.348 2.81609 297.333 2.62695C296.635 2.90015 296.196 3.6462 296.262 4.45528C296.262 4.59188 296.32 4.71797 296.406 4.81254C296.501 4.87558 296.606 4.90712 296.721 4.90712C297.696 4.94915 298.68 4.92813 299.655 4.83356C300.85 4.68645 302.064 4.6129 303.268 4.62341C307.043 4.80204 310.837 7.62857 311.678 11.674C311.85 12.6512 311.946 13.6494 311.956 14.6582L312.137 19.7649C312.242 21.257 312.185 22.749 311.975 24.2306C311.449 26.9836 309.824 29.3478 307.559 30.6508C306.192 28.4757 306.078 25.6912 305.6 23.1063C305.523 22.5074 305.323 21.9399 305.007 21.4461C304.673 20.9417 304.09 20.7316 303.555 20.9102C303.048 21.1309 302.828 21.9925 303.249 22.3708C302.876 22.8646 302.169 22.4968 301.739 22.0555C300.544 20.8156 299.732 19.208 299.388 17.4322C299.216 16.539 299.044 15.4462 298.26 15.1415C297.983 15.0575 297.706 15.0364 297.419 15.0785C295.765 15.2046 293.185 15.9506 291.579 15.3727C290.108 14.8473 289.486 12.4621 289.486 10.928Z" fill="black"/>
<path d="M289.668 10.7395C289.611 9.00576 289.869 7.27201 290.423 5.64332C290.099 6.1687 290.185 6.88323 290.624 7.30353C290.93 5.52774 291.752 3.92005 292.975 2.71167C292.306 2.82725 291.962 3.74142 292.134 4.46645C292.364 5.17046 292.765 5.79042 293.291 6.26327C293.233 5.17047 293.893 4.15122 294.724 3.55229C295.594 3.00589 296.531 2.62761 297.515 2.43848C296.827 2.71168 296.378 3.45773 296.445 4.26682C296.445 4.40342 296.502 4.52951 296.588 4.62407C296.684 4.68712 296.789 4.71864 296.903 4.71864C297.878 4.76067 298.863 4.73966 299.837 4.64509C301.032 4.49799 302.246 4.42442 303.45 4.43493C307.225 4.61356 311.019 7.44013 311.86 11.4856C312.032 12.4628 312.128 13.461 312.138 14.4698L312.319 19.5765C312.424 21.0686 312.367 22.5607 312.157 24.0422C311.631 26.7953 310.006 29.1595 307.741 30.4624C306.375 28.2873 306.26 25.5028 305.782 22.9179C305.706 22.319 305.505 21.7516 305.189 21.2577C304.855 20.7534 304.272 20.5432 303.737 20.7218C303.23 20.9425 303.01 21.8041 303.431 22.1824C303.058 22.6762 302.351 22.3085 301.921 21.8672C300.726 20.6273 299.914 19.0196 299.57 17.2438C299.398 16.3506 299.226 15.2578 298.442 14.9531C298.165 14.8691 297.888 14.848 297.601 14.8901C295.948 15.0162 293.367 15.7622 291.762 15.1843C290.28 14.6589 289.668 12.2737 289.668 10.7395Z" fill="#784F69"/>
<path opacity="0.1" d="M270.975 50.71C270.975 50.71 269.589 57.7608 272.189 62.1636L273.661 62.027L272.858 50.8255L270.975 50.71Z" fill="black"/>
<path d="M271.356 50.71C271.356 50.71 269.97 57.7608 272.57 62.1636L274.041 62.027L273.239 50.8255L271.356 50.71Z" fill="#FD6F8D"/>
<path opacity="0.1" d="M308.658 31.4502L319.86 42.0419C319.86 42.0419 326.454 49.4813 323.682 61.5126C323.682 61.5126 322.469 79.0709 321.083 79.838C321.083 79.838 316.218 90.5242 315.874 100.643C315.874 100.643 309.366 86.2371 306.412 95.011C303.459 103.795 296.597 105.035 296.597 105.035L300.42 53.1065C300.411 53.096 310.054 34.676 308.658 31.4502Z" fill="black"/>
<path d="M309.012 31.4502L320.213 42.0419C320.213 42.0419 326.808 49.4813 324.036 61.5126C324.036 61.5126 322.822 79.0709 321.436 79.838C321.436 79.838 316.572 90.5242 316.228 100.643C316.228 100.643 309.366 85.4701 306.412 94.2439C303.459 103.018 296.951 105.035 296.951 105.035L300.774 53.1275C300.764 53.117 310.398 34.676 309.012 31.4502Z" fill="#FD6F8D"/>
<path d="M314.135 76.1915C314.135 76.1915 316.916 74.0899 321.427 79.8166L310.312 101.956L306.575 95.7565C306.575 95.767 314.479 78.6712 314.135 76.1915Z" fill="#FEC3BE"/>
<path opacity="0.1" d="M311.439 77.4304C311.439 77.4304 317.585 85.0169 319.984 83.798L322.201 78.1134L313.867 74.1836L311.439 77.4304Z" fill="black"/>
<path d="M311.439 77.054C311.439 77.054 317.585 84.6406 319.984 83.4217L322.201 77.737L313.867 73.8071L311.439 77.054Z" fill="#FD6F8D"/>
<path opacity="0.1" d="M306.957 94.3169C306.957 94.3169 309.882 100.905 311.44 101.283L309.175 104.141L305.877 97.2695L306.957 94.3169Z" fill="black"/>
<path d="M306.785 94.5166C306.785 94.5166 309.71 101.105 311.268 101.483L309.003 104.341L305.696 97.4587L306.785 94.5166Z" fill="#4D4981"/>
<path opacity="0.1" d="M312.31 53.769C312.31 53.769 312.654 67.5133 311.268 72.6621L312.31 53.769Z" fill="black"/>
<path opacity="0.1" d="M284.183 56.4383C284.183 56.4383 286.266 55.6711 286.266 53.769L284.183 56.4383Z" fill="black"/>
<path d="M31.2014 58.7388C31.2014 58.7388 21.3095 81.2462 27.8085 107.883C34.3075 134.52 32.2432 166.39 25.7633 174.271" stroke="#535461" stroke-width="2" stroke-miterlimit="10"/>
<path d="M31.2007 61.745C32.7103 61.745 33.9341 60.3994 33.9341 58.7397C33.9341 57.0799 32.7103 55.7344 31.2007 55.7344C29.6911 55.7344 28.4673 57.0799 28.4673 58.7397C28.4673 60.3994 29.6911 61.745 31.2007 61.745Z" fill="#6C63FF"/>
<path d="M27.0913 73.2078C27.0913 73.2078 37.3463 75.236 40.0797 71.1377" stroke="#535461" stroke-width="2" stroke-miterlimit="10"/>
<path d="M26.1173 79.7435C26.1173 79.7435 19.9432 72.2411 20.2873 67.7334" stroke="#535461" stroke-width="2" stroke-miterlimit="10"/>
<path d="M25.5908 93.4983C25.5908 93.4983 31.2009 95.127 36.3236 83.1274" stroke="#535461" stroke-width="2" stroke-miterlimit="10"/>
<path d="M27.0917 103.501C27.0917 103.501 13.1286 93.6237 14.8298 87.2456" stroke="#535461" stroke-width="2" stroke-miterlimit="10"/>
<path d="M29.2705 114.808C29.2705 114.808 39.0571 105.267 38.0345 95.873" stroke="#535461" stroke-width="2" stroke-miterlimit="10"/>
<path d="M30.3318 121.448C30.3318 121.448 17.8786 117.623 18.2514 111.623" stroke="#535461" stroke-width="2" stroke-miterlimit="10"/>
<path d="M31.2021 129.371C31.2021 129.371 39.0487 121.374 40.0713 116.509" stroke="#535461" stroke-width="2" stroke-miterlimit="10"/>
<path d="M31.7467 142.967C31.7467 142.967 23.6995 132.638 23.3555 127.384" stroke="#535461" stroke-width="2" stroke-miterlimit="10"/>
<path d="M31.7461 151.511C31.7461 151.511 40.7586 140.51 41.4371 135.256" stroke="#535461" stroke-width="2" stroke-miterlimit="10"/>
<path d="M20.2871 71.4945C21.7967 71.4945 23.0205 70.1491 23.0205 68.4894C23.0205 66.8298 21.7967 65.4844 20.2871 65.4844C18.7775 65.4844 17.5537 66.8298 17.5537 68.4894C17.5537 70.1491 18.7775 71.4945 20.2871 71.4945Z" fill="#6C63FF"/>
<path d="M17.2192 114.63C18.7288 114.63 19.9526 113.284 19.9526 111.624C19.9526 109.965 18.7288 108.619 17.2192 108.619C15.7097 108.619 14.4858 109.965 14.4858 111.624C14.4858 113.284 15.7097 114.63 17.2192 114.63Z" fill="#6C63FF"/>
<path d="M14.8301 90.251C16.3397 90.251 17.5634 88.9055 17.5634 87.2458C17.5634 85.5862 16.3397 84.2407 14.8301 84.2407C13.3205 84.2407 12.0967 85.5862 12.0967 87.2458C12.0967 88.9055 13.3205 90.251 14.8301 90.251Z" fill="#6C63FF"/>
<path d="M40.0805 74.1213C41.5901 74.1213 42.8138 72.7758 42.8138 71.1161C42.8138 69.4563 41.5901 68.1108 40.0805 68.1108C38.5709 68.1108 37.3472 69.4563 37.3472 71.1161C37.3472 72.7758 38.5709 74.1213 40.0805 74.1213Z" fill="#6C63FF"/>
<path d="M40.0805 120.26C41.5901 120.26 42.8138 118.915 42.8138 117.255C42.8138 115.595 41.5901 114.25 40.0805 114.25C38.5709 114.25 37.3472 115.595 37.3472 117.255C37.3472 118.915 38.5709 120.26 40.0805 120.26Z" fill="#6C63FF"/>
<path d="M35.6459 86.1209C37.1555 86.1209 38.3793 84.7754 38.3793 83.1156C38.3793 81.4559 37.1555 80.1104 35.6459 80.1104C34.1363 80.1104 32.9126 81.4559 32.9126 83.1156C32.9126 84.7754 34.1363 86.1209 35.6459 86.1209Z" fill="#6C63FF"/>
<path d="M41.103 140.141C42.6126 140.141 43.8363 138.795 43.8363 137.136C43.8363 135.476 42.6126 134.13 41.103 134.13C39.5934 134.13 38.3696 135.476 38.3696 137.136C38.3696 138.795 39.5934 140.141 41.103 140.141Z" fill="#6C63FF"/>
<path d="M22.6767 132.261C24.1863 132.261 25.4101 130.915 25.4101 129.256C25.4101 127.596 24.1863 126.25 22.6767 126.25C21.1671 126.25 19.9434 127.596 19.9434 129.256C19.9434 130.915 21.1671 132.261 22.6767 132.261Z" fill="#6C63FF"/>
<path d="M38.3701 98.8776C39.8797 98.8776 41.1035 97.5322 41.1035 95.8724C41.1035 94.2127 39.8797 92.8672 38.3701 92.8672C36.8605 92.8672 35.6367 94.2127 35.6367 95.8724C35.6367 97.5322 36.8605 98.8776 38.3701 98.8776Z" fill="#6C63FF"/>
<defs>
<linearGradient id="paint0_linear" x1="168.361" y1="174.772" x2="168.361" y2="22.9961" gradientUnits="userSpaceOnUse">
<stop stop-color="#808080" stop-opacity="0.25"/>
<stop offset="0.54" stop-color="#808080" stop-opacity="0.12"/>
<stop offset="1" stop-color="#808080" stop-opacity="0.1"/>
</linearGradient>
<linearGradient id="paint1_linear" x1="285.046" y1="194.444" x2="285.046" y2="-0.0336277" gradientUnits="userSpaceOnUse">
<stop stop-color="#808080" stop-opacity="0.25"/>
<stop offset="0.54" stop-color="#808080" stop-opacity="0.12"/>
<stop offset="1" stop-color="#808080" stop-opacity="0.1"/>
</linearGradient>
</defs>
</svg>
