<svg width="329" height="280" viewBox="0 0 329 280" fill="none" xmlns="http://www.w3.org/2000/svg">
<path d="M295.58 155.72C295.53 159.9 295.34 164.58 294.91 169.51L306.94 154.5L307.02 154.73C306.03 151.34 304.58 148.11 302.69 145.13L302.79 145.35L295.58 155.72Z" fill="#57B894"/>
<path d="M295.59 154.98L302.58 144.95C300.57 141.92 298.17 139.58 295.42 138.15C295.28 138.08 295.13 138.01 294.99 137.94C295.09 139.07 295.67 145.71 295.59 154.98Z" fill="#57B894"/>
<path d="M308.44 184.11C308.74 182.36 308.97 180.61 309.13 178.87L290.98 193.12L290.96 192.99C290.69 194.02 290.4 195.03 290.11 196.02L308.41 183.82L308.44 184.11Z" fill="#57B894"/>
<path d="M293.05 183.53L309.29 168.48L309.35 168.74C309.14 164.09 308.38 159.47 307.09 155L294.83 170.29C294.41 174.9 293.82 179.32 293.05 183.53Z" fill="#57B894"/>
<path d="M294.52 170.02L272.79 148.43L272.88 148.17C271.12 150.98 269.64 153.97 268.48 157.07L293.2 180.52C293.81 176.85 294.23 173.31 294.52 170.02Z" fill="#57B894"/>
<path d="M292.65 183.8C292.82 182.9 292.97 182.02 293.12 181.13L268.3 157.6L268.39 157.33C267.98 158.43 267.59 159.56 267.23 160.72L267.32 160.45L292.65 183.8Z" fill="#57B894"/>
<path d="M291.11 192.4L309.11 178.27L309.16 178.54C309.44 175.38 309.52 172.21 309.37 169.04L292.91 184.3C292.39 187.1 291.79 189.8 291.11 192.4Z" fill="#57B894"/>
<path d="M265.52 182.84L285.87 206.43C287.25 203.34 288.44 200.16 289.45 196.92L264.96 174.01C264.91 177.05 265.06 180.1 265.41 183.12L265.52 182.84Z" fill="#57B894"/>
<path d="M294.63 137.94L294.8 137.85C290.53 135.88 286.06 136.37 281.89 138.87L295.26 154.98C295.34 144.96 294.64 138.04 294.63 137.94Z" fill="#57B894"/>
<path d="M289.59 197.72C288.67 200.63 287.59 203.5 286.36 206.29L304.82 195.34L304.86 195.61C306.15 193.1 307.12 190.45 307.75 187.7C307.99 186.62 308.21 185.54 308.39 184.45L289.88 196.79C289.78 197.1 289.68 197.41 289.59 197.72Z" fill="#57B894"/>
<path d="M295.24 155.73L281.57 139.25L281.67 139C278.54 140.93 275.59 143.98 273.03 147.95L294.58 169.36C295 164.49 295.19 159.86 295.24 155.73Z" fill="#57B894"/>
<path d="M289.62 196.35C290.81 192.42 291.78 188.43 292.54 184.39L267.16 160.99C266.68 162.57 266.25 164.21 265.87 165.91C265.35 168.35 265.05 170.83 264.97 173.32L289.6 196.36L289.62 196.35Z" fill="#57B894"/>
<path d="M315.76 221.67C313.05 224.85 309.92 228.34 306.45 231.86L325.29 227.98L325.21 228.21C326.61 224.97 327.55 221.56 328 218.06L327.93 218.29L315.76 221.67Z" fill="#57B894"/>
<path d="M326.83 208.04C326.77 207.89 326.7 207.75 326.63 207.6C325.99 208.54 322.2 214.03 316.23 221.11L328.01 217.84C328.4 214.23 328.04 210.89 326.83 208.04Z" fill="#57B894"/>
<path d="M288.43 247.44C287.56 248.06 286.7 248.65 285.84 249.23L307.71 251.5L307.57 251.74C308.91 250.58 310.2 249.38 311.44 248.15L288.37 247.55L288.43 247.44Z" fill="#57B894"/>
<path d="M296.08 241.48L318.19 240.25L318.07 240.49C320.88 236.77 323.24 232.73 325.09 228.46L305.89 232.42C302.63 235.7 299.35 238.73 296.08 241.48Z" fill="#57B894"/>
<path d="M288.93 247.08L311.81 247.67L311.68 247.91C313.91 245.66 315.99 243.26 317.9 240.73L295.49 241.98C293.29 243.81 291.1 245.51 288.93 247.08Z" fill="#57B894"/>
<path d="M261.7 259.96C261.85 259.79 262.01 259.61 262.16 259.43C266.76 258.42 271.22 256.86 275.45 254.78L275.12 238.37C275.28 237.94 275.43 237.51 275.58 237.07L275.93 254.54C278.97 253.04 281.91 251.35 284.75 249.5L280.87 219.12C281.03 219.03 281.19 218.93 281.35 218.83L285.22 249.17H285.24C288.66 246.9 291.96 244.45 295.12 241.82L291.08 211.94C291.24 211.81 291.39 211.68 291.55 211.55L295.59 241.43C296.29 240.85 296.98 240.26 297.65 239.67L294 209.41C294.15 209.27 294.31 209.12 294.46 208.98L298.12 239.27C300.91 236.82 303.49 234.36 305.82 232.02L302.86 201.53L303.1 201.39C302.27 201.66 301.42 201.97 300.57 202.3C302.1 200.34 303.45 198.25 304.61 196.06L285.97 207.11C284.79 209.7 283.44 212.22 281.93 214.64C281.6 214.99 281.27 215.35 280.94 215.71L280.99 216.08C280.85 216.3 280.7 216.51 280.55 216.72L280.49 216.23C280.3 216.44 280.12 216.66 279.94 216.88C282.15 213.75 284.05 210.41 285.63 206.92L265.43 183.5C265.68 185.68 266.02 187.86 266.42 190.02C264.51 187.29 262.25 184.84 259.68 182.71L259.84 182.89L256.18 194.97C257.42 198.96 258.69 203.47 259.8 208.29L266.51 190.55C266.56 190.82 266.61 191.09 266.67 191.35L259.97 209.05C261 213.57 261.8 217.96 262.37 222.2L270.77 207.16C270.83 207.37 270.9 207.57 270.96 207.77L262.47 222.97C262.84 225.8 263.1 228.55 263.26 231.23L273.69 215.68C273.76 215.87 273.83 216.06 273.9 216.24L263.36 231.95L263.3 231.84C263.36 232.9 263.4 233.95 263.42 234.99L275.33 219.91C275.41 220.11 275.48 220.29 275.55 220.45L263.44 235.79C263.45 236.11 263.45 236.43 263.45 236.75C263.47 239.81 263.33 242.86 263.03 245.9L264.19 244.58C263.99 245.08 263.79 245.57 263.59 246.05L262.93 246.8C262.88 247.25 262.82 247.7 262.76 248.15C262.54 248.73 262.32 249.29 262.11 249.84C262.28 248.81 262.42 247.77 262.55 246.72L236.1 230.69C243.72 247.28 257.15 262.71 258.01 263.69C258.59 262.44 259.11 261.17 259.57 259.86C259.73 259.84 259.89 259.81 260.04 259.78C259.99 259.94 259.93 260.09 259.88 260.25C259.8 260.26 259.71 260.28 259.63 260.29C259.7 260.3 259.77 260.32 259.84 260.34C259.51 261.25 259.16 262.15 258.78 263.02C259.31 262.49 260.1 261.66 261.06 260.59C267.14 261.77 283.43 264.1 296.95 258.48L275.54 255.1C271.18 257.32 266.51 258.94 261.7 259.96ZM275 232.35L275.48 231.81L275.5 232.58L275.02 233.12L275 232.35Z" fill="#57B894"/>
<path d="M326.37 207.38L326.55 207.42C324.52 203.17 320.76 200.71 315.96 199.97L315.98 220.91C322.44 213.24 326.32 207.46 326.37 207.38Z" fill="#57B894"/>
<path d="M284.36 250.2C281.79 251.86 279.14 253.37 276.4 254.74L297.6 258.08L297.45 258.31C300.04 257.21 302.49 255.78 304.72 254.06C305.6 253.38 306.45 252.68 307.29 251.97L285.16 249.67C284.9 249.85 284.63 250.03 284.36 250.2Z" fill="#57B894"/>
<path d="M306.29 231.55C309.72 228.06 312.82 224.62 315.49 221.47L315.47 200.05L315.71 199.92C312.07 199.41 307.85 199.88 303.34 201.3L306.29 231.55Z" fill="#57B894"/>
<path d="M259.53 182.58C256.68 180.32 253.67 178.84 250.62 178.33C250.46 178.3 250.3 178.28 250.15 178.26C250.6 179.3 253.21 185.44 255.99 194.28L259.53 182.58Z" fill="#57B894"/>
<path d="M259.62 208.91L232.28 195.09L232.29 194.81C231.48 198.03 231 201.32 230.86 204.64L261.62 219.3C261.05 215.63 260.36 212.13 259.62 208.91Z" fill="#57B894"/>
<path d="M261.72 219.91L230.85 205.2L230.86 204.92C230.81 206.09 230.79 207.28 230.81 208.5V208.22L262.11 222.59C261.98 221.69 261.86 220.79 261.72 219.91Z" fill="#57B894"/>
<path d="M263.1 236.07L232.73 221.85C233.62 224.76 234.7 227.61 235.98 230.38L236 230.07L262.64 246.22C263 242.84 263.15 239.45 263.1 236.07Z" fill="#57B894"/>
<path d="M249.81 178.37L249.94 178.24C245.27 177.68 241.17 179.54 237.97 183.2L255.66 194.39C252.65 184.82 249.85 178.46 249.81 178.37Z" fill="#57B894"/>
<path d="M255.89 195.1L237.79 183.65L237.81 183.38C235.43 186.18 233.57 189.99 232.36 194.56L259.47 208.27C258.37 203.5 257.12 199.04 255.89 195.1Z" fill="#57B894"/>
<path d="M263.09 235.47C263.01 231.36 262.7 227.27 262.17 223.19L230.8 208.78C230.83 210.43 230.93 212.13 231.09 213.86C231.35 216.34 231.83 218.79 232.53 221.18L263.08 235.48L263.09 235.47Z" fill="#57B894"/>
<path d="M237.53 162.73L146.41 151.24C142.28 116.89 148.52 83.3502 159.17 49.9902L250.29 61.4802C236.54 94.2102 232.51 127.98 237.53 162.73Z" fill="#F2F2F2"/>
<path d="M171.911 62.1412L171.157 68.1235L226.843 75.1454L227.598 69.163L171.911 62.1412Z" fill="#6C63FF"/>
<path opacity="0.3" d="M159.036 75.2382L158.659 78.2344L234.128 87.7507L234.505 84.7546L159.036 75.2382Z" fill="#6C63FF"/>
<path opacity="0.3" d="M157.813 84.9043L157.435 87.9004L232.904 97.4167L233.282 94.4206L157.813 84.9043Z" fill="#6C63FF"/>
<path opacity="0.3" d="M156.6 94.5713L156.222 97.5674L231.691 107.084L232.069 104.088L156.6 94.5713Z" fill="#6C63FF"/>
<path opacity="0.3" d="M155.378 104.227L155 107.223L230.469 116.74L230.847 113.743L155.378 104.227Z" fill="#6C63FF"/>
<path opacity="0.3" d="M154.164 113.894L153.787 116.891L229.256 126.407L229.633 123.411L154.164 113.894Z" fill="#6C63FF"/>
<path opacity="0.3" d="M152.941 123.56L152.563 126.556L228.032 136.073L228.41 133.076L152.941 123.56Z" fill="#6C63FF"/>
<path opacity="0.3" d="M151.718 133.226L151.34 136.222L226.809 145.739L227.187 142.742L151.718 133.226Z" fill="#6C63FF"/>
<path d="M194.38 128.89L109.13 94.72C113.83 60.44 128.35 29.57 147.1 0L232.35 34.17C210.76 62.35 198.31 94 194.38 128.89Z" fill="#E6E6E6"/>
<path d="M156.34 14.9508L154.097 20.5479L206.197 41.4282L208.44 35.8312L156.34 14.9508Z" fill="#6C63FF"/>
<path opacity="0.3" d="M140.572 24.3726L139.449 27.1758L210.057 55.4738L211.18 52.6707L140.572 24.3726Z" fill="#6C63FF"/>
<path opacity="0.3" d="M136.948 33.4092L135.825 36.2124L206.433 64.5104L207.556 61.7073L136.948 33.4092Z" fill="#6C63FF"/>
<path opacity="0.3" d="M133.321 42.4556L132.197 45.2588L202.805 73.5568L203.929 70.7537L133.321 42.4556Z" fill="#6C63FF"/>
<path opacity="0.3" d="M129.697 51.4922L128.573 54.2954L199.181 82.5935L200.305 79.7903L129.697 51.4922Z" fill="#6C63FF"/>
<path opacity="0.3" d="M126.073 60.5289L124.949 63.332L195.557 91.6301L196.681 88.8269L126.073 60.5289Z" fill="#6C63FF"/>
<path opacity="0.3" d="M122.445 69.5752L121.322 72.3784L191.93 100.676L193.053 97.8733L122.445 69.5752Z" fill="#6C63FF"/>
<path opacity="0.3" d="M118.83 78.6158L117.707 81.4189L188.315 109.717L189.439 106.914L118.83 78.6158Z" fill="#6C63FF"/>
<path d="M173.3 137.12H81.45C73.06 103.55 75.05 69.4998 81.45 35.0698H173.29C163.75 69.2598 163.97 103.27 173.3 137.12Z" fill="#F2F2F2"/>
<path d="M151.73 45.5098H95.6V51.5398H151.73V45.5098Z" fill="#6C63FF"/>
<path opacity="0.3" d="M160.54 60.1201H84.47V63.1401H160.54V60.1201Z" fill="#6C63FF"/>
<path opacity="0.3" d="M160.54 69.8599H84.47V72.8799H160.54V69.8599Z" fill="#6C63FF"/>
<path opacity="0.3" d="M160.54 79.6001H84.47V82.6201H160.54V79.6001Z" fill="#6C63FF"/>
<path opacity="0.3" d="M160.54 89.3398H84.47V92.3598H160.54V89.3398Z" fill="#6C63FF"/>
<path opacity="0.3" d="M160.54 99.0801H84.47V102.1H160.54V99.0801Z" fill="#6C63FF"/>
<path opacity="0.3" d="M160.54 108.82H84.47V111.84H160.54V108.82Z" fill="#6C63FF"/>
<path opacity="0.3" d="M160.54 118.57H84.47V121.59H160.54V118.57Z" fill="#6C63FF"/>
<path d="M111.39 116.75L79.75 92.1498C79.11 91.0298 77.91 90.3398 76.62 90.3398H59.54C57.55 90.3398 55.93 91.9598 55.93 93.9498V244.67C55.93 251.14 61.18 256.39 67.65 256.39H242.95C249.42 256.39 254.67 251.14 254.67 244.67V127.4C254.67 121.52 249.9 116.75 244.02 116.75H111.39Z" fill="#3F3D56"/>
<path d="M248.7 151.7H216.9V162.83H248.7V151.7Z" fill="#6C63FF"/>
<path d="M0 279.29C0 279.29 145.43 196.12 321.04 279.29H0Z" fill="#F2F2F2"/>
<path d="M31.15 88.4302C31.15 88.4302 32.71 96.7002 31.62 97.3302C30.74 97.8802 29.9 98.5102 29.12 99.2002L31.93 103.1L38.64 104.5L45.04 98.5702V92.6402C45.04 92.6402 43.17 89.6702 43.48 87.8002C43.79 85.9302 31.15 88.4302 31.15 88.4302Z" fill="#FBBEBE"/>
<path opacity="0.1" d="M31.15 88.4302C31.15 88.4302 32.71 96.7002 31.62 97.3302C30.74 97.8802 29.9 98.5102 29.12 99.2002L31.93 103.1L38.64 104.5L45.04 98.5702V92.6402C45.04 92.6402 43.17 89.6702 43.48 87.8002C43.79 85.9302 31.15 88.4302 31.15 88.4302Z" fill="black"/>
<path d="M20.38 102.63L19.44 103.1C19.44 103.1 17.41 103.88 16.47 110.59C15.53 117.3 13.35 133.38 13.97 133.85C14.59 134.32 14.28 137.44 14.28 137.44L18.96 112.94L20.38 102.63Z" fill="#2F2E41"/>
<path d="M31.48 64.54C31.34 64.84 31.29 65.19 31.15 65.49C30.54 66.87 28.81 66.56 27.56 67.08C26.5 67.52 25.71 68.73 25.63 70.04C25.59 70.6 25.68 71.16 25.63 71.71C25.54 72.73 25.01 73.64 24.82 74.64C24.36 77.09 25.43 80.95 26.63 79.63C27.01 79.21 27.48 78.94 27.89 78.56C28.95 77.59 29.5 76.04 30.36 74.83C30.47 74.65 30.62 74.5 30.8 74.39C31.43 74.08 31.99 74.92 32.49 75.47C33.48 76.55 35.16 76.62 36.24 75.63C36.32 75.55 36.4 75.47 36.47 75.39C36.62 75.17 36.81 74.97 37.03 74.82C37.27 74.71 37.55 74.68 37.81 74.74C39.04 74.96 40.15 75.62 40.93 76.6C41.35 77.11 41.7 77.71 42.2 78.11C42.7 78.51 43.43 78.64 43.88 78.17C44.79 78.81 45.12 80.17 45.13 81.41C45.14 82.65 44.88 83.88 44.94 85.12C45 86.36 45.49 87.69 46.47 88.14C46.63 87.01 47.21 85.99 48.1 85.29C48.77 84.79 49.59 84.54 50.15 83.89C51.29 82.58 50.93 80.41 50.97 78.55C51.02 76.25 51.82 74.06 51.96 71.77C52.03 70.62 51.91 69.4 51.31 68.49C50.85 67.89 50.28 67.39 49.61 67.02L44.25 63.58C44.01 63.4 43.74 63.28 43.46 63.2C42.67 63.06 41.99 63.8 41.24 64.12C40.62 64.34 39.95 64.42 39.29 64.36C37.21 64.3 36.62 64.71 35.23 63.35C35.01 63.13 34.7 63.02 34.39 63.07C33.56 63.21 31.93 63.59 31.48 64.54Z" fill="#2F2E41"/>
<path d="M34.42 253.1L37.7 260.28L31.3 262.46L28.03 260.75L28.81 253.1H34.42Z" fill="#FBBEBE"/>
<path d="M31.46 259.18C31.46 259.18 26.31 256.06 25.37 257.15C24.43 258.24 16.94 266.2 16.94 266.2C16.94 266.2 5.39001 272.44 14.29 273.38C23.19 274.32 37.7 267.92 37.7 267.92C37.7 267.92 38.48 259.49 37.86 259.34C37.24 259.18 34.58 260.74 33.33 260.28C32.64 260.04 32.01 259.67 31.46 259.18Z" fill="#2F2E41"/>
<path d="M42.85 260.75V267.14L34.42 265.27L36.3 258.72L42.85 260.75Z" fill="#FBBEBE"/>
<path d="M34.27 262.93C34.27 262.93 42.85 261.53 43.63 265.74C44.41 269.95 46.44 276.2 44.41 277.76C42.38 279.32 31.92 281.35 31.77 278.7C31.62 276.05 32.86 270.9 32.86 270.9C32.86 270.9 33.64 266.84 33.17 265.75C32.71 264.65 34.27 262.93 34.27 262.93Z" fill="#2F2E41"/>
<path d="M17.12 157.53C17.12 157.53 10.07 202.21 15.85 224.06C21.63 245.91 25.68 258.87 25.68 258.87C25.68 258.87 35.67 256.06 35.67 254.19C35.67 252.32 31.77 224.53 30.83 221.88C29.89 219.23 28.33 218.29 29.74 216.1C31.14 213.91 33.49 199.87 33.49 199.87C33.49 199.87 38.64 223.13 38.95 223.75C39.26 224.37 35.67 260.12 35.67 260.12C35.67 260.12 45.97 267.6 46.6 261.99C46.76 260.59 53.62 210.79 53.62 210.17C53.62 209.55 56.43 161.78 51.9 159.44C47.37 157.1 17.12 157.53 17.12 157.53Z" fill="#2F2E41"/>
<path d="M37.23 91.5501C43.0897 91.5501 47.84 86.7998 47.84 80.9401C47.84 75.0803 43.0897 70.3301 37.23 70.3301C31.3703 70.3301 26.62 75.0803 26.62 80.9401C26.62 86.7998 31.3703 91.5501 37.23 91.5501Z" fill="#FBBEBE"/>
<path d="M34.89 102.01V100.92L31.77 95.7699C31.77 95.7699 28.65 96.0799 28.18 97.4899C27.71 98.8899 22.4 110.13 22.4 110.13L16.78 160.54C16.78 160.54 32.23 164.29 34.57 161.63C36.91 158.98 45.81 101.23 45.81 101.23L47.06 94.2099C47.06 94.2099 44.92 91.0899 44.43 91.5599C43.94 92.0299 35.82 101.08 35.82 101.08L35.66 102.48L34.89 102.01Z" fill="#6C63FF"/>
<path d="M31.69 94.7498C31.69 94.7498 28.8 94.0498 27.87 95.7598C26.93 97.4798 26.93 98.0998 26 98.7298C25.06 99.3498 19.6 102.16 19.29 103.26C18.98 104.35 12.27 138.85 12.27 138.85C12.27 138.85 8.98998 149.15 10.55 156.18C12.11 163.21 11.02 164.61 14.3 165.23C17.58 165.85 18.05 165.85 18.05 164.92C18.05 163.99 22.26 132.3 25.23 130.11C28.2 127.92 27.42 104.04 27.42 104.04C27.42 104.04 31.63 98.8898 31.63 98.1098C31.63 97.3298 32.32 94.6898 31.69 94.7498Z" fill="#2F2E41"/>
<path d="M40.51 100.45C40.95 100.52 46.91 92.8002 47.38 93.1102C47.85 93.4202 50.19 97.4802 50.5 97.4802C50.81 97.4802 64.08 100.76 65.17 106.84C66.26 112.93 57.52 132.28 57.52 132.28C57.52 132.28 53.77 143.36 54.55 148.2C55.08 151.88 54.97 155.63 54.24 159.28C53.93 160.53 52.84 161.93 53.15 162.56C53.46 163.18 46.28 161.78 43.32 163.5C40.35 165.22 27.09 166.47 27.87 164.59C28.65 162.72 29.12 155.38 31.3 147.58C33.49 139.78 39.1 121.36 38.17 120.11C37.23 118.87 39.58 100.29 40.51 100.45Z" fill="#2F2E41"/>
<path d="M63.3 104.97L65.33 106.84C65.33 106.84 67.67 110.9 67.36 112.77C67.05 114.64 73.92 142.89 71.11 143.83C68.3 144.77 61.59 149.45 60.81 150.7C60.03 151.95 58.16 154.13 56.91 154.76C55.66 155.39 54.41 156.48 53.63 155.85C52.85 155.23 51.13 142.43 52.38 141.96C53.63 141.49 54.88 140.09 56.13 140.09C57.38 140.09 58.16 138.84 58.16 137.75C58.16 136.66 57.22 130.1 57.22 130.1L55.19 114.65L63.3 104.97Z" fill="#2F2E41"/>
<path d="M33.35 66.0901C33.22 66.3201 33.18 66.5801 33.06 66.8101C32.52 67.8501 30.99 67.6201 29.89 68.0101C28.94 68.3701 28.27 69.2401 28.18 70.2501C28.15 70.6701 28.22 71.0901 28.18 71.5101C28.1 72.2801 27.63 72.9701 27.46 73.7301C27.06 75.5801 28 78.5001 29.06 77.5001C29.4 77.1901 29.82 76.9801 30.18 76.6901C31.12 75.9501 31.6 74.7901 32.37 73.8701C32.47 73.7301 32.6 73.6201 32.76 73.5401C33.32 73.3001 33.82 73.9401 34.26 74.3501C35.27 75.2401 36.79 75.2101 37.78 74.2901C37.92 74.1201 38.09 73.9701 38.28 73.8601C38.5 73.7701 38.74 73.7501 38.97 73.8001C40.02 73.9401 40.99 74.4401 41.73 75.2001C42.06 75.6201 42.44 76.0001 42.85 76.3401C43.29 76.6401 43.94 76.7401 44.34 76.3801C45.14 76.8601 45.44 77.8901 45.44 78.8301C45.44 79.7701 45.22 80.7001 45.27 81.6301C45.32 82.5601 45.75 83.5701 46.63 83.9201C46.79 83.0301 47.31 82.2501 48.07 81.7601C48.66 81.3801 49.38 81.2001 49.89 80.7001C50.89 79.7101 50.58 78.0701 50.61 76.6601C50.66 74.9201 51.36 73.2601 51.49 71.5301C51.55 70.6601 51.45 69.7401 50.91 69.0501C50.49 68.5801 49.98 68.2001 49.41 67.9401L44.67 65.3401C44.45 65.2001 44.22 65.1101 43.97 65.0601C43.27 64.9501 42.67 65.5101 42.01 65.7601C41.45 65.9301 40.87 65.9901 40.29 65.9401C38.45 65.9001 37.93 66.2001 36.7 65.1801C36.49 65.0101 36.22 64.9301 35.95 64.9701C35.19 65.0901 33.75 65.3701 33.35 66.0901Z" fill="#2F2E41"/>
</svg>
