<svg width="367" height="384" viewBox="0 0 367 384" fill="none" xmlns="http://www.w3.org/2000/svg">
<path d="M367 0H0V383.756H367V0Z" fill="#C7DAF1"/>
<g clip-path="url(#clip0)">
<path d="M295.014 282.302C296.098 282.302 296.977 281.704 296.977 280.966C296.977 280.229 296.098 279.631 295.014 279.631C293.93 279.631 293.052 280.229 293.052 280.966C293.052 281.704 293.93 282.302 295.014 282.302Z" fill="#6C63FF"/>
<path d="M295.014 280.966C295.014 280.966 304.321 297.129 304.074 299.464L295.014 280.966Z" fill="#6C63FF"/>
<path d="M188.228 144.994H85.5974V301.664H188.228V144.994Z" fill="#F2F2F2"/>
<path d="M199.004 301.911H85.3512V133H199.004V301.911ZM85.8437 301.418H198.511V133.492H85.8437V301.418Z" fill="#3F3D56"/>
<path d="M233.214 151.401C233.214 151.401 232.654 149.387 231.818 148.887V151.401C231.818 151.401 228.46 150.901 226.079 153.415L228.318 153.914C228.318 153.914 225.027 155.003 224.333 159.702L225.729 159.031L229.505 167.087L231.886 162.723L236.64 167.586L235.52 164.901L237.341 165.736L236.08 163.559L241.677 166.072L241.259 164.73L243.311 168.161C243.311 168.161 250.356 160.866 242.662 153.146C242.662 153.161 239.162 149.469 233.214 151.401Z" fill="#2F2E41"/>
<path d="M232.572 169.324C232.572 169.324 234.654 177.245 234.035 178.289C233.408 179.334 240.087 184.957 240.087 184.957L246.55 183.704L246.968 174.739C246.968 174.739 241.125 169.734 242.379 165.982L232.572 169.324Z" fill="#FFB9B9"/>
<path opacity="0.1" d="M232.572 169.324C232.572 169.324 234.654 177.245 234.035 178.289C233.408 179.334 240.087 184.957 240.087 184.957L246.55 183.704L246.968 174.739C246.968 174.739 241.125 169.734 242.379 165.982L232.572 169.324Z" fill="black"/>
<path d="M227.147 219.357C227.147 219.357 225.475 229.785 226.729 238.325C227.983 246.873 228.609 253.123 227.982 254.376C227.356 255.629 226.729 255.42 227.147 256.875C227.565 258.337 228.4 257.71 227.565 259.165C226.729 260.627 226.938 263.125 226.938 263.752C226.938 264.378 225.893 277.931 226.938 279.385C227.982 280.847 228.4 280.638 228.4 280.638L229.654 288.142L236.326 287.098L235.281 280.221C235.281 280.221 237.781 278.968 236.744 278.132C235.699 277.297 235.072 277.297 235.699 277.297C236.326 277.297 237.371 277.088 236.535 276.67C235.699 276.253 236.326 264.997 236.326 264.997C236.326 264.997 237.789 244.359 243.625 244.986C249.461 245.612 254.058 257.703 254.058 257.703L255.73 263.125C255.73 263.125 256.357 273.344 256.774 274.172C257.192 275.007 256.983 275.216 256.774 275.634C256.565 276.051 255.103 275.007 256.565 276.678C258.028 278.349 258.028 278.968 258.028 278.968L258.969 289.91L265.745 285.636V279.191C265.745 279.191 266.999 277.11 266.581 275.44C266.163 273.769 266.163 265.848 266.581 264.393C266.999 262.939 266.79 262.514 266.372 261.895C265.954 261.268 264.909 261.686 265.745 260.224C266.581 258.762 267.208 255.01 265.954 252.303C264.7 249.595 257.819 222.908 254.901 221.446C251.968 219.984 227.147 219.357 227.147 219.357Z" fill="#2F2E41"/>
<path d="M236.326 283.562C236.326 283.562 231.527 282.726 231.318 283.98C231.109 285.233 231.318 287.105 231.318 287.105C231.318 287.105 229.647 287.314 229.856 288.776C230.065 290.237 230.274 294.198 230.274 294.198C230.274 294.198 227.669 300.351 229.124 301.806C229.139 301.821 232.005 301.701 233.654 301.701H239.662C239.662 301.701 240.498 298.785 239.662 298.367C238.826 297.95 236.953 294.198 237.162 293.363C237.371 292.527 237.162 286.486 237.162 286.486L236.244 286.538L236.326 283.562Z" fill="#3F3D56"/>
<path d="M260.73 287.321L258.23 289.201C258.23 289.201 259.275 292.744 258.648 293.37C258.021 293.997 256.663 301.187 257.916 301.605C259.17 302.022 266.887 301.396 266.887 301.396C266.887 301.396 275.544 301.709 275.753 301.291C275.962 300.874 276.38 298.375 273.872 297.54C271.372 296.704 269.909 296.913 269.073 294.414C268.238 291.916 266.364 288.156 266.364 288.156L265.946 283.569C265.946 283.569 263.446 283.987 263.028 283.987C262.611 283.987 260.528 285.031 260.737 285.867C260.857 286.337 260.857 286.836 260.73 287.321Z" fill="#3F3D56"/>
<path d="M236.117 171.927C240.898 171.927 244.774 168.054 244.774 163.275C244.774 158.497 240.898 154.623 236.117 154.623C231.336 154.623 227.46 158.497 227.46 163.275C227.46 168.054 231.336 171.927 236.117 171.927Z" fill="#FFB9B9"/>
<path d="M241.752 178.081L244.879 172.613C244.879 172.613 252.177 172.24 252.595 173.076C253.013 173.911 256.558 215.188 256.558 215.188C256.558 215.188 258.23 217.478 257.185 218.939L256.14 220.401V223.318C256.14 223.318 250.924 227.487 243.834 226.652C236.744 225.816 227.774 222.065 227.774 222.065L229.654 210.392L229.445 175.992L233.647 173.948C233.647 173.948 238.416 177.245 239.244 178.289C240.08 179.326 241.752 178.081 241.752 178.081Z" fill="#3F3D56"/>
<path d="M234.445 178.081L233.505 172.554L220.676 181.624L227.766 202.471C227.766 202.471 223.385 210.392 224.221 213.308C225.057 216.225 225.475 220.603 225.475 220.603C225.475 220.603 236.737 223.519 236.528 222.065C236.319 220.61 236.528 214.144 236.528 214.144C236.528 214.144 240.177 187.143 238.349 183.026C236.535 178.916 234.445 178.081 234.445 178.081Z" fill="#D0CDE1"/>
<path d="M245.923 175.366L243.938 171.51C243.938 171.39 258.021 173.337 258.64 174.53L256.968 206.633C256.968 206.633 257.177 211.22 258.222 212.473C259.267 213.726 259.058 215.807 258.64 216.016C258.222 216.225 251.341 218.306 251.341 218.306C251.341 218.306 244.67 206.842 245.289 193.08C245.923 179.326 245.923 175.366 245.923 175.366Z" fill="#D0CDE1"/>
<path d="M256.14 174.747L258.349 174.277C259.215 174.762 259.901 175.515 260.312 176.418C260.939 177.879 268.238 193.513 268.238 194.557C268.238 195.601 268.446 203.314 263.857 203.314C259.267 203.314 255.722 183.72 255.722 183.72L256.14 174.747Z" fill="#D0CDE1"/>
<path d="M224.856 228.74L228.609 234.364L230.692 227.278L229.236 225.19L224.856 228.74Z" fill="#FFB9B9"/>
<path d="M222.557 181.832L220.684 181.624L216.094 206.222L224.02 230.821L230.901 225.608L226.102 209.139L227.774 196.422L222.557 181.832Z" fill="#D0CDE1"/>
<path d="M245.155 160.836C244.005 156.659 240.423 153.616 236.177 153.616C233.117 153.616 230.401 155.197 228.692 157.643L230.833 161.746L232.968 158.225L237.237 162.149L236.229 159.985L237.863 160.664L236.737 158.904L241.759 160.933L241.386 159.851L243.774 162.962C244.326 162.32 244.789 161.604 245.155 160.836Z" fill="#2F2E41"/>
<path opacity="0.1" d="M254.789 184.853L260.409 189.753L257.498 183.391L254.789 184.853Z" fill="black"/>
<path d="M252.446 177.163L252.252 177.089L253.312 174.434C253.439 174.12 253.282 173.762 252.968 173.635L246.976 171.249C246.662 171.122 246.304 171.279 246.177 171.592L241.259 183.936C241.132 184.249 241.289 184.607 241.602 184.734L247.595 187.121C247.909 187.248 248.267 187.091 248.394 186.778L250.931 180.408L251.125 180.483L252.446 177.163Z" fill="#2F2E41"/>
<path d="M248.632 176.701C249.214 176.701 249.685 176.23 249.685 175.649C249.685 175.068 249.214 174.597 248.632 174.597C248.051 174.597 247.58 175.068 247.58 175.649C247.58 176.23 248.051 176.701 248.632 176.701Z" fill="#6C63FF"/>
<path d="M252.386 184.122C252.386 184.122 249.677 175.783 246.334 177.245C242.99 178.707 247.588 187.464 247.588 187.464L250.506 189.343L252.386 184.122Z" fill="#FFB9B9"/>
<path d="M266.782 194.759L252.177 183.294L246.961 191.007C246.961 191.007 260.73 205.604 263.857 202.68C266.991 199.763 266.782 194.759 266.782 194.759Z" fill="#D0CDE1"/>
<path d="M308 301.456H72V302.008H308V301.456Z" fill="#2F2E41"/>
<path d="M88.2915 136.424C88.6955 136.424 89.0229 136.097 89.0229 135.693C89.0229 135.289 88.6955 134.962 88.2915 134.962C87.8876 134.962 87.5602 135.289 87.5602 135.693C87.5602 136.097 87.8876 136.424 88.2915 136.424Z" fill="#3F3D56"/>
<path d="M90.9856 136.424C91.3896 136.424 91.717 136.097 91.717 135.693C91.717 135.289 91.3896 134.962 90.9856 134.962C90.5817 134.962 90.2543 135.289 90.2543 135.693C90.2543 136.097 90.5817 136.424 90.9856 136.424Z" fill="#3F3D56"/>
<path d="M93.6799 136.424C94.0838 136.424 94.4112 136.097 94.4112 135.693C94.4112 135.289 94.0838 134.962 93.6799 134.962C93.2759 134.962 92.9485 135.289 92.9485 135.693C92.9485 136.097 93.2759 136.424 93.6799 136.424Z" fill="#3F3D56"/>
<path d="M96.3739 136.424C96.7779 136.424 97.1053 136.097 97.1053 135.693C97.1053 135.289 96.7779 134.962 96.3739 134.962C95.97 134.962 95.6426 135.289 95.6426 135.693C95.6426 136.097 95.97 136.424 96.3739 136.424Z" fill="#3F3D56"/>
<path d="M99.068 136.424C99.472 136.424 99.7994 136.097 99.7994 135.693C99.7994 135.289 99.472 134.962 99.068 134.962C98.6641 134.962 98.3367 135.289 98.3367 135.693C98.3367 136.097 98.6641 136.424 99.068 136.424Z" fill="#3F3D56"/>
<path d="M147.077 135.2H136.301V136.177H147.077V135.2Z" fill="#3F3D56"/>
<path d="M97.5978 140.347H90.0081V141.324H97.5978V140.347Z" fill="#3F3D56"/>
<path d="M97.5978 141.816H90.0081V142.794H97.5978V141.816Z" fill="#3F3D56"/>
<path d="M97.5978 143.278H90.0081V144.255H97.5978V143.278Z" fill="#3F3D56"/>
<path d="M188.228 185.39H101.031V246.589H188.228V185.39Z" fill="#3F3D56"/>
<path d="M139.726 195.176H106.904V202.277H139.726V195.176Z" fill="#F2F2F2"/>
<path d="M178.914 235.819H168.137V242.92H178.914V235.819Z" fill="#F2F2F2"/>
<path d="M139.726 208.4H106.904V215.501H139.726V208.4Z" fill="#F2F2F2"/>
<path d="M139.726 221.617H106.904V228.718H139.726V221.617Z" fill="#F2F2F2"/>
<path d="M169.011 202.247V201.419C168.563 201.419 168.13 201.292 167.749 201.053L167.943 200.502C168.294 200.733 168.705 200.852 169.13 200.852C169.712 200.852 170.108 200.516 170.108 200.047C170.108 199.592 169.787 199.316 169.175 199.069C168.331 198.741 167.816 198.361 167.816 197.645C167.816 196.959 168.302 196.444 169.063 196.317V195.489H169.57V196.287C169.943 196.287 170.317 196.392 170.637 196.578L170.428 197.123C170.115 196.936 169.757 196.839 169.391 196.839C168.757 196.839 168.518 197.22 168.518 197.548C168.518 197.973 168.824 198.189 169.54 198.488C170.391 198.831 170.817 199.263 170.817 199.994C170.817 200.643 170.361 201.255 169.518 201.397V202.254L169.011 202.247Z" fill="#6C63FF"/>
<path d="M173.175 202.247V201.419C172.727 201.419 172.294 201.292 171.914 201.053L172.108 200.502C172.458 200.733 172.869 200.852 173.294 200.852C173.876 200.852 174.272 200.516 174.272 200.047C174.272 199.592 173.951 199.316 173.339 199.069C172.496 198.741 171.981 198.361 171.981 197.645C171.981 196.959 172.466 196.444 173.227 196.317V195.489H173.735V196.287C174.108 196.287 174.481 196.392 174.802 196.578L174.593 197.123C174.279 196.936 173.921 196.839 173.555 196.839C172.921 196.839 172.682 197.22 172.682 197.548C172.682 197.973 172.988 198.189 173.705 198.488C174.555 198.831 174.981 199.263 174.981 199.994C174.981 200.643 174.526 201.255 173.682 201.397V202.254L173.175 202.247Z" fill="#6C63FF"/>
<path d="M177.339 202.247V201.419C176.891 201.419 176.458 201.292 176.078 201.053L176.272 200.502C176.623 200.733 177.033 200.852 177.459 200.852C178.041 200.852 178.436 200.516 178.436 200.047C178.436 199.592 178.115 199.316 177.503 199.069C176.66 198.741 176.145 198.361 176.145 197.645C176.145 196.959 176.63 196.444 177.391 196.317V195.489H177.899V196.287C178.272 196.287 178.645 196.392 178.966 196.578L178.757 197.123C178.444 196.936 178.085 196.839 177.72 196.839C177.085 196.839 176.847 197.22 176.847 197.548C176.847 197.973 177.153 198.189 177.869 198.488C178.72 198.831 179.145 199.263 179.145 199.994C179.145 200.643 178.69 201.255 177.847 201.397V202.254L177.339 202.247Z" fill="#6C63FF"/>
<path d="M169.011 215.218V214.39C168.563 214.39 168.13 214.263 167.749 214.024L167.943 213.472C168.294 213.703 168.705 213.823 169.13 213.823C169.712 213.823 170.108 213.487 170.108 213.017C170.108 212.562 169.787 212.286 169.175 212.04C168.331 211.712 167.816 211.332 167.816 210.616C167.816 209.929 168.302 209.415 169.063 209.288V208.46H169.57V209.258C169.943 209.258 170.317 209.362 170.637 209.549L170.428 210.093C170.115 209.907 169.757 209.81 169.391 209.81C168.757 209.81 168.518 210.19 168.518 210.519C168.518 210.944 168.824 211.16 169.54 211.458C170.391 211.801 170.817 212.234 170.817 212.965C170.817 213.614 170.361 214.226 169.518 214.367V215.225L169.011 215.218Z" fill="#6C63FF"/>
<path d="M173.175 215.218V214.39C172.727 214.39 172.294 214.263 171.914 214.024L172.108 213.472C172.458 213.703 172.869 213.823 173.294 213.823C173.876 213.823 174.272 213.487 174.272 213.017C174.272 212.562 173.951 212.286 173.339 212.04C172.496 211.712 171.981 211.332 171.981 210.616C171.981 209.929 172.466 209.415 173.227 209.288V208.46H173.735V209.258C174.108 209.258 174.481 209.362 174.802 209.549L174.593 210.093C174.279 209.907 173.921 209.81 173.555 209.81C172.921 209.81 172.682 210.19 172.682 210.519C172.682 210.944 172.988 211.16 173.705 211.458C174.555 211.801 174.981 212.234 174.981 212.965C174.981 213.614 174.526 214.226 173.682 214.367V215.225L173.175 215.218Z" fill="#6C63FF"/>
<path d="M177.339 215.218V214.39C176.891 214.39 176.458 214.263 176.078 214.024L176.272 213.472C176.623 213.703 177.033 213.823 177.459 213.823C178.041 213.823 178.436 213.487 178.436 213.017C178.436 212.562 178.115 212.286 177.503 212.04C176.66 211.712 176.145 211.332 176.145 210.616C176.145 209.929 176.63 209.415 177.391 209.288V208.46H177.899V209.258C178.272 209.258 178.645 209.362 178.966 209.549L178.757 210.093C178.444 209.907 178.085 209.81 177.72 209.81C177.085 209.81 176.847 210.19 176.847 210.519C176.847 210.944 177.153 211.16 177.869 211.458C178.72 211.801 179.145 212.234 179.145 212.965C179.145 213.614 178.69 214.226 177.847 214.367V215.225L177.339 215.218Z" fill="#6C63FF"/>
<path d="M169.011 228.196V227.368C168.563 227.368 168.13 227.241 167.749 227.003L167.943 226.451C168.294 226.682 168.705 226.801 169.13 226.801C169.712 226.801 170.108 226.466 170.108 225.996C170.108 225.541 169.787 225.265 169.175 225.019C168.331 224.69 167.816 224.31 167.816 223.594C167.816 222.908 168.302 222.393 169.063 222.266V221.438H169.57V222.237C169.943 222.237 170.317 222.341 170.637 222.527L170.428 223.072C170.115 222.885 169.757 222.789 169.391 222.789C168.757 222.789 168.518 223.169 168.518 223.497C168.518 223.922 168.824 224.139 169.54 224.437C170.391 224.78 170.817 225.213 170.817 225.944C170.817 226.592 170.361 227.204 169.518 227.346V228.204L169.011 228.196Z" fill="#6C63FF"/>
<path d="M173.175 228.196V227.368C172.727 227.368 172.294 227.241 171.914 227.003L172.108 226.451C172.458 226.682 172.869 226.801 173.294 226.801C173.876 226.801 174.272 226.466 174.272 225.996C174.272 225.541 173.951 225.265 173.339 225.019C172.496 224.69 171.981 224.31 171.981 223.594C171.981 222.908 172.466 222.393 173.227 222.266V221.438H173.735V222.237C174.108 222.237 174.481 222.341 174.802 222.527L174.593 223.072C174.279 222.885 173.921 222.789 173.555 222.789C172.921 222.789 172.682 223.169 172.682 223.497C172.682 223.922 172.988 224.139 173.705 224.437C174.555 224.78 174.981 225.213 174.981 225.944C174.981 226.592 174.526 227.204 173.682 227.346V228.204L173.175 228.196Z" fill="#6C63FF"/>
<path d="M177.339 228.196V227.368C176.891 227.368 176.458 227.241 176.078 227.003L176.272 226.451C176.623 226.682 177.033 226.801 177.459 226.801C178.041 226.801 178.436 226.466 178.436 225.996C178.436 225.541 178.115 225.265 177.503 225.019C176.66 224.69 176.145 224.31 176.145 223.594C176.145 222.908 176.63 222.393 177.391 222.266V221.438H177.899V222.237C178.272 222.237 178.645 222.341 178.966 222.527L178.757 223.072C178.444 222.885 178.085 222.789 177.72 222.789C177.085 222.789 176.847 223.169 176.847 223.497C176.847 223.922 177.153 224.139 177.869 224.437C178.72 224.78 179.145 225.213 179.145 225.944C179.145 226.592 178.69 227.204 177.847 227.346V228.204L177.339 228.196Z" fill="#6C63FF"/>
<path d="M172.078 241.793L170.451 239.623L170.839 239.332L172.167 241.1L177.384 236.826L177.69 237.199L172.078 241.793Z" fill="#3F3D56"/>
<path d="M301.142 282.085V291.543C299.194 288.843 295.306 286.061 288.014 283.808L301.142 301.829V301.963C301.142 301.963 301.164 301.948 301.216 301.926L301.239 301.956C301.239 301.956 301.261 301.933 301.291 301.881C302.813 300.986 315.642 293.005 301.142 282.085Z" fill="#3F3D56"/>
<path d="M189.996 135.245H188.772V136.468H189.996V135.245Z" fill="#6C63FF"/>
<path d="M191.959 135.245H190.735V136.468H191.959V135.245Z" fill="#6C63FF"/>
<path d="M193.914 135.245H192.69V136.468H193.914V135.245Z" fill="#6C63FF"/>
<path d="M195.877 135.245H194.653V136.468H195.877V135.245Z" fill="#F2F2F2"/>
</g>
<defs>
<clipPath id="clip0">
<rect x="72" y="133" width="236" height="169" fill="white"/>
</clipPath>
</defs>
</svg>
