<svg width="367" height="357" viewBox="0 0 367 357" fill="none" xmlns="http://www.w3.org/2000/svg">
<path d="M367 0H0V357H367V0Z" fill="#C7DAF1"/>
<path d="M316.36 152.52C316.36 152.52 312.713 151.069 301.117 156.267C289.522 161.466 288.076 160.812 285.067 160.015C282.065 159.218 280.392 159.032 277.17 154.681C277.17 154.681 274.902 142.647 272.7 140.781C270.506 138.914 261.171 141.843 261.171 141.843C261.171 141.843 249.979 144.356 247.85 129.731C247.85 129.731 249.362 118.703 247.3 115.321C247.3 115.321 251.461 117.073 258.323 114.244C265.185 111.408 270.682 117.288 270.682 117.288C270.682 117.288 272.414 121.675 272.231 124.288C272.047 126.902 273.148 127.886 276.421 126.629C276.421 126.629 278.029 124.389 275.754 120.691C273.478 116.994 271.849 114.237 272.488 111.358C273.126 108.479 274.954 104.501 280.825 102.512C286.696 100.516 294.674 100.136 298.505 98.5776C302.336 97.0195 303.26 96 303.26 96C303.26 96 300.904 98.3119 306.453 108.098C312.001 117.884 308.464 122.149 308.464 122.149C308.464 122.149 305.513 129.034 292.472 128.467C292.472 128.467 279.907 128.919 286.762 134.132C286.762 134.132 291.143 133.256 297.705 131.217C304.266 129.178 308.999 137.593 310.174 143.451C311.355 149.303 316.36 152.52 316.36 152.52Z" fill="#6C63FF"/>
<path d="M299.473 103.424L299.539 103.41C300.046 105.284 294.431 112.772 289.632 118.753L289.573 118.71C296.347 110.288 299.862 104.86 299.473 103.424Z" fill="#444053"/>
<path d="M289.676 118.581L289.705 118.66C285.874 123.427 281.045 129.113 277.192 133.328C276.825 133.73 276.458 134.154 276.106 134.584L275.996 134.498C276.348 134.067 276.715 133.644 277.082 133.242C280.942 129.027 285.845 123.348 289.676 118.581Z" fill="#444053"/>
<path d="M276.091 134.383L276.164 134.513C269.141 143.092 268.679 156.404 268.664 156.519L267.182 154.846C267.211 154.731 269.016 143.021 276.091 134.383Z" fill="#444053"/>
<path d="M308.214 147.867C308.214 147.867 299.936 143.653 293.485 145.168C287.034 146.683 272.502 139.826 272.502 139.826C272.502 139.826 266.337 137.378 265.082 134.577C265.082 134.577 260.848 130.205 260.606 127.936C260.363 125.667 256.246 119.974 253.56 119.758" stroke="#444053" stroke-miterlimit="10"/>
<path d="M307.018 151.924C307.018 151.924 302.849 149.174 303.334 145.972" stroke="#444053" stroke-miterlimit="10"/>
<path d="M300.618 155.47C300.618 155.47 294.659 153.352 294.057 145.045" stroke="#444053" stroke-miterlimit="10"/>
<path d="M290.997 157.617C290.997 157.617 285.302 152.993 287.188 144.909" stroke="#444053" stroke-miterlimit="10"/>
<path d="M279.438 155.356C279.438 155.356 275.636 147.573 279.019 142.504" stroke="#444053" stroke-miterlimit="10"/>
<path d="M308.31 142.734C308.31 142.734 304.002 144.076 304.926 146.295" stroke="#444053" stroke-miterlimit="10"/>
<path d="M303.106 135.073C303.106 135.073 297.338 136.861 297.198 144.852" stroke="#444053" stroke-miterlimit="10"/>
<path d="M295.062 133.234C295.062 133.234 289.815 139.574 290.197 145.339" stroke="#444053" stroke-miterlimit="10"/>
<path d="M285.874 135.719C285.874 135.719 280.656 140.601 281.324 143.315" stroke="#444053" stroke-miterlimit="10"/>
<path d="M282.718 133.996C282.718 133.996 277.823 134.857 277.141 133.292" stroke="#444053" stroke-miterlimit="10"/>
<path d="M276.363 128.216C276.363 128.216 278.836 131.418 279.474 130.7" stroke="#444053" stroke-miterlimit="10"/>
<path d="M300.86 126.191C300.86 126.191 288.531 127.067 285.735 123.434" stroke="#444053" stroke-miterlimit="10"/>
<path d="M273.765 112.083C273.765 112.083 279.555 124.231 283.753 125.782" stroke="#444053" stroke-miterlimit="10"/>
<path d="M279.834 106.296C279.834 106.296 283.386 117.475 287.79 120.964" stroke="#444053" stroke-miterlimit="10"/>
<path d="M306.049 116.958C306.049 116.958 296.67 120.9 291.041 116.915" stroke="#444053" stroke-width="0.75" stroke-miterlimit="10"/>
<path d="M288.186 103.912C288.186 103.912 290.329 112.133 293.213 114.115" stroke="#444053" stroke-width="0.75" stroke-miterlimit="10"/>
<path d="M304.633 107.768C304.633 107.768 299.371 109.72 297.396 108.234" stroke="#444053" stroke-width="0.75" stroke-miterlimit="10"/>
<path d="M271.849 130.901C271.849 130.901 271.834 138.066 269.853 138.569" stroke="#444053" stroke-miterlimit="10"/>
<path d="M255.549 140.185C255.549 140.185 263.461 140.845 267.115 136.868" stroke="#444053" stroke-miterlimit="10"/>
<path d="M269.802 122.443C269.802 122.443 267.886 129.702 262.602 131.662" stroke="#444053" stroke-miterlimit="10"/>
<path d="M250.801 132.531C250.801 132.531 256.4 134.434 261.222 129.58" stroke="#444053" stroke-miterlimit="10"/>
<path d="M263.571 116.197C263.571 116.197 263.042 122.364 259.615 125.251" stroke="#444053" stroke-miterlimit="10"/>
<path d="M251.014 123.133C251.014 123.133 255.667 123.161 256.76 121.682" stroke="#444053" stroke-miterlimit="10"/>
<path d="M100.284 269.867C100.284 269.867 103.469 267.813 106.625 269.271C106.625 269.271 105.656 271.101 101.656 270.929L100.284 269.867Z" fill="#6C63FF"/>
<path d="M99.8951 269.974C99.8951 269.974 98.9263 273.593 101.356 276.041C101.356 276.041 102.816 274.555 101.37 270.908L99.8951 269.974Z" fill="#6C63FF"/>
<path d="M95.9172 266.514C95.9172 266.514 96.1594 263.441 103.242 264.46C103.242 264.46 103.278 266.442 100.783 267.382C98.3025 268.316 97.1649 267.526 95.9172 266.514Z" fill="#6C63FF"/>
<path d="M95.4843 266.492C95.4843 266.492 92.4899 267.426 95.1613 273.938C95.1613 273.938 97.1356 273.507 97.4879 270.922C97.8328 268.33 96.7833 267.433 95.4843 266.492Z" fill="#6C63FF"/>
<path d="M91.4698 262.127C91.4698 262.127 91.0662 257.073 98.3098 257.597C98.3098 257.597 98.8235 262.17 92.7541 263.348L91.4698 262.127Z" fill="#6C63FF"/>
<path d="M86.6848 256.433C86.6848 256.433 87.6756 250.711 94.9119 252.412C94.9119 252.412 94.9412 257.359 87.859 257.797L86.6848 256.433Z" fill="#6C63FF"/>
<path d="M83.1914 250.531C83.1914 250.531 84.8647 244.938 92.0276 246.625C92.0276 246.625 90.3176 251.644 83.6684 251.565L83.1914 250.531Z" fill="#6C63FF"/>
<path d="M79.8668 244.773C79.8668 244.773 81.4888 238.986 88.4167 240.724C88.4167 240.724 86.1049 246.224 80.3218 245.757L79.8668 244.773Z" fill="#6C63FF"/>
<path d="M77.7238 239.302C77.7238 239.302 78.9714 232.223 85.4297 233.788C85.4297 233.788 83.5509 240.228 78.2008 240.329L77.7238 239.302Z" fill="#6C63FF"/>
<path d="M75.7129 232.697C75.7129 232.697 77.2101 225.56 83.7418 227.635C83.7418 227.635 81.1805 234.377 76.1679 233.68L75.7129 232.697Z" fill="#6C63FF"/>
<path d="M74.4725 226.536C74.4725 226.536 76.8504 219.399 81.9071 219.593C81.9071 219.593 79.4705 227.132 74.8982 227.965L74.4725 226.536Z" fill="#6C63FF"/>
<path d="M73.6873 220.541C73.6873 220.541 76.2779 211.954 80.3878 212.615C80.3878 212.615 78.5971 219.17 73.8341 221.877L73.6873 220.541Z" fill="#6C63FF"/>
<path d="M73.2322 213.369C73.2322 213.369 75.6615 206.211 79.72 205.931C79.72 205.931 78.0686 212.974 73.3202 215.236L73.2322 213.369Z" fill="#6C63FF"/>
<path d="M72.7406 206.699C72.7406 206.699 75.7716 199.533 78.4503 199.368C78.4503 199.368 77.1367 206.426 73.0048 207.869L72.7406 206.699Z" fill="#6C63FF"/>
<path d="M72.4029 200.48C72.4029 200.48 74.2671 192.697 76.9531 192.051C76.9531 192.051 76.5861 198.413 72.6818 201.062L72.4029 200.48Z" fill="#6C63FF"/>
<path d="M71.4048 192.353C71.4048 192.353 73.3644 186.15 75.5294 185.202C75.5294 185.202 75.1038 192.511 71.9039 193.868L71.4048 192.353Z" fill="#6C63FF"/>
<path d="M70.5608 186.997L70.1646 176.062C70.1646 176.062 74.2157 184.319 70.8617 188.928L70.5608 186.997Z" fill="#6C63FF"/>
<path d="M67.4344 176.134C67.4344 176.134 64.5135 168.15 63.8163 167.705C63.8163 167.705 69.5407 172.889 68.983 179.552L67.4344 176.134Z" fill="#6C63FF"/>
<path d="M91.2717 262.098C91.2717 262.098 86.1343 261.438 86.2884 268.539C86.2884 268.539 90.9341 269.278 92.4459 263.405L91.2717 262.098Z" fill="#6C63FF"/>
<path d="M86.4425 256.24C86.4425 256.24 80.5053 256.218 80.9897 263.499C80.9897 263.499 85.9728 264.367 87.6167 257.618L86.4425 256.24Z" fill="#6C63FF"/>
<path d="M83.1326 251.005C83.1326 251.005 77.7458 248.543 74.2965 254.911C74.2965 254.911 79.2723 256.972 83.6096 252.032L83.1326 251.005Z" fill="#6C63FF"/>
<path d="M79.7493 244.831C79.7493 244.831 74.2304 242.196 70.9939 248.435C70.9939 248.435 76.7403 250.366 80.2043 245.814L79.7493 244.831Z" fill="#6C63FF"/>
<path d="M77.7971 239.46C77.7971 239.46 72.491 234.499 68.2491 239.518C68.2491 239.518 73.6726 243.603 78.0393 240.566L77.7971 239.46Z" fill="#6C63FF"/>
<path d="M76.0211 232.524C76.0211 232.524 70.6783 227.448 66.473 232.761C66.473 232.761 72.469 236.926 76.2119 233.594L76.0211 232.524Z" fill="#6C63FF"/>
<path d="M75.0304 226.342C75.0304 226.342 70.9131 220.024 66.0693 221.424C66.0693 221.424 70.3407 228.137 74.9863 227.836L75.0304 226.342Z" fill="#6C63FF"/>
<path d="M73.8047 220.498C73.8047 220.498 69.6508 212.514 65.7318 213.9C65.7318 213.9 68.7188 220.031 73.9075 221.834L73.8047 220.498Z" fill="#6C63FF"/>
<path d="M73.5184 212.959C73.5184 212.959 69.2544 206.677 65.262 207.445C65.262 207.445 68.7481 213.814 73.9294 214.776L73.5184 212.959Z" fill="#6C63FF"/>
<path d="M73.1956 206.555C73.1956 206.555 69.893 199.505 67.2142 199.447C67.2142 199.447 68.7995 206.448 72.9827 207.74L73.1956 206.555Z" fill="#6C63FF"/>
<path d="M72.5424 200.323C72.5424 200.323 68.8655 193.186 66.106 193.172C66.106 193.172 67.9848 199.275 72.4176 200.955L72.5424 200.323Z" fill="#6C63FF"/>
<path d="M71.9846 192.784C71.9846 192.784 69.2398 186.875 66.9574 186.208C66.9574 186.208 68.3297 193.409 71.6763 194.357L71.9846 192.784Z" fill="#6C63FF"/>
<path d="M70.2379 186.797L64.0952 177.649C64.0952 177.649 65.6657 186.675 71.1259 188.541L70.2379 186.797Z" fill="#6C63FF"/>
<path d="M66.018 176.867C66.018 176.867 58.8844 172.049 58.6275 171.281C58.6275 171.281 62.2677 178.03 68.9976 179.222L66.018 176.867Z" fill="#6C63FF"/>
<path d="M65.5923 174.698C65.5923 174.698 57.4019 166.994 55.303 167.001C55.303 167.001 62.0622 167.303 65.7831 174.289L65.5923 174.698Z" fill="#6C63FF"/>
<path d="M71.9186 193.925L71.6177 193.961C70.0765 182.172 67.8307 175.208 65.2988 174.346L65.4015 174.066C68.0876 174.985 70.3334 181.849 71.9186 193.925Z" fill="#444053"/>
<path d="M74.1716 222.113L73.724 222.149C73.6286 221.051 73.5551 219.924 73.5038 218.804C73.0781 209.046 72.4103 200.086 71.5296 193.373L71.7938 193.057C72.6745 199.784 73.5258 209.017 73.9441 218.782C74.0028 219.895 74.0689 221.015 74.1716 222.113Z" fill="#444053"/>
<path d="M108.695 275.467C108.614 275.431 100.68 271.963 92.4386 263.692C87.6168 258.853 83.6023 253.289 80.5566 247.222C76.7476 239.64 74.4286 230.32 73.6506 221.259L74.1276 221.475C75.8743 241.808 85.3343 255.708 92.8642 263.269C101.025 271.461 108.871 274.9 108.951 274.929L108.695 275.467Z" fill="#444053"/>
<path d="M294.791 127.196V268.811C294.791 273.026 290.637 276.443 285.507 276.443H89.1067C83.9767 276.443 79.8301 273.019 79.8301 268.811V127.196C79.8301 122.982 83.984 118.674 89.1067 118.674L285.5 119.141C290.63 119.148 294.791 122.982 294.791 127.196Z" fill="#E8EAF2"/>
<path d="M294.791 127.239V133.795H79.8301V127.239C79.8301 122.508 83.7492 118.674 88.5856 118.674H286.028C290.865 118.674 294.791 122.508 294.791 127.239Z" fill="#65617D"/>
<path opacity="0.8" d="M90.2442 129.257C91.9506 129.257 93.3339 127.903 93.3339 126.234C93.3339 124.565 91.9506 123.211 90.2442 123.211C88.5378 123.211 87.1544 124.565 87.1544 126.234C87.1544 127.903 88.5378 129.257 90.2442 129.257Z" fill="#FA5959"/>
<path opacity="0.8" d="M99.2493 129.257C100.956 129.257 102.339 127.903 102.339 126.234C102.339 124.565 100.956 123.211 99.2493 123.211C97.5428 123.211 96.1594 124.565 96.1594 126.234C96.1594 127.903 97.5428 129.257 99.2493 129.257Z" fill="#FED253"/>
<path opacity="0.8" d="M108.247 129.257C109.953 129.257 111.337 127.903 111.337 126.234C111.337 124.565 109.953 123.211 108.247 123.211C106.541 123.211 105.157 124.565 105.157 126.234C105.157 127.903 106.541 129.257 108.247 129.257Z" fill="#8CCF4D"/>
<path d="M290.021 273.514L284.795 266.112C284.795 266.112 284.7 264.281 284.355 263.85C284.01 263.419 284.282 262.464 284.282 262.464C284.282 262.464 284.648 261.94 284.333 261.89C284.017 261.84 284.282 260.677 284.282 260.677L284.252 258.817C284.252 258.817 284.546 257.029 284.303 256.606C284.157 256.369 284.164 256.074 284.326 255.845C284.326 255.845 284.619 254.818 284.326 254.559C284.032 254.294 284.105 252.7 284.179 251.436C284.252 250.172 283.665 249.462 283.665 249.268C283.665 249.074 281.735 247.222 281.735 247.056C281.735 246.891 280.517 246.195 279.783 246.008C279.049 245.821 278.682 245.678 278.711 245.577C278.733 245.484 277.566 245.111 277.566 245.111C277.566 245.111 276.539 245.039 276.15 244.536C275.761 244.034 274.565 243.89 274.535 243.89C274.506 243.89 274.521 243.825 274.513 243.79L274.491 243.682C274.579 243.531 274.667 243.373 274.748 243.215L274.814 243.072C275.24 243.072 275.658 242.942 276.01 242.705C276.355 242.418 276.568 242.009 276.597 241.564C276.619 241.126 276.524 240.688 276.311 240.293C276.098 239.862 275.783 239.417 275.893 238.95C275.944 238.749 276.062 238.57 276.135 238.376C276.231 237.995 276.164 237.586 275.959 237.249C275.776 236.904 275.519 236.595 275.313 236.265C275.049 235.834 274.873 235.36 274.799 234.858C274.785 234.599 274.719 234.341 274.609 234.097C274.499 233.924 274.352 233.781 274.183 233.673C273.42 233.135 272.495 232.862 271.548 232.898C270.88 232.919 270.22 233.092 269.559 233.013C269.163 232.948 268.774 232.848 268.4 232.718C267.578 232.481 266.638 232.381 265.919 232.84C265.2 233.3 264.921 234.197 264.437 234.908C264.011 235.533 263.387 236.057 263.057 236.717C263.057 236.703 263.057 236.689 263.057 236.682C262.976 236.832 262.918 236.997 262.873 237.163C262.785 237.687 262.822 238.232 262.984 238.742C263.02 239.015 263.16 239.266 263.38 239.446C263.622 239.597 263.952 239.561 264.231 239.611C264.231 239.654 264.209 239.697 264.195 239.747C263.585 242.533 265.273 245.305 268.062 246.109C268.062 246.159 268.062 246.209 268.062 246.252C268.062 246.389 268.055 246.525 268.033 246.662C268.033 246.662 265.582 246.166 264.921 246.504C264.261 246.841 262.969 247.099 262.771 247.293C262.573 247.487 262.088 247.344 261.648 248.464C261.207 249.591 261.171 250.725 260.598 251.249C260.026 251.774 259.747 252.133 259.718 252.513C259.696 252.894 259.791 252.98 259.571 253.109C259.351 253.238 259.035 253.726 259.131 253.92C259.197 254.193 259.094 254.473 258.859 254.638C258.624 254.796 258.499 255.062 258.514 255.342C258.514 255.342 258.367 255.866 258.037 255.988C257.707 256.11 257.472 256.893 257.472 256.893L256.364 258.135L254.169 255.758C253.824 255.392 253.245 255.356 252.863 255.694L251.784 256.627C251.366 256.728 250.992 256.943 250.705 257.252C250.471 257.489 250.28 257.762 250.148 258.063L249.56 258.58C249.179 259.04 249.12 259.679 249.406 260.203L250.808 261.725V261.739C250.316 261.797 249.854 261.99 249.48 262.306C247.381 264.116 247.351 265.789 247.674 266.55C247.99 267.311 250.654 270.247 250.654 270.247C250.654 270.247 252.203 272.215 254.434 273.256L254.419 273.27C254.375 273.32 254.331 273.363 254.287 273.421L254.25 273.464C254.243 273.478 254.228 273.493 254.213 273.514L254.177 273.572L254.147 273.622L254.103 273.694L254.074 273.737L254.023 273.83C254.023 273.83 254.008 273.852 254.008 273.859C254.001 273.873 253.964 273.945 253.949 273.988C253.942 274.002 253.935 274.024 253.927 274.038C253.913 274.067 253.898 274.103 253.89 274.132L253.868 274.196C253.868 274.225 253.846 274.254 253.839 274.29L253.817 274.354L253.788 274.462C253.788 274.483 253.773 274.505 253.766 274.526C253.758 274.548 253.736 274.641 253.729 274.699C253.729 274.72 253.722 274.742 253.714 274.763L253.692 274.885C253.692 274.914 253.692 274.943 253.678 274.972L253.663 275.086C253.663 275.115 253.663 275.144 253.663 275.18C253.663 275.216 253.663 275.266 253.663 275.316V275.402C253.663 275.474 253.663 275.553 253.663 275.639C253.612 278.425 253.78 278.834 253.78 278.834C254.001 279.358 254.5 279.725 255.072 279.782C255.212 279.789 255.351 279.782 255.49 279.761C256.76 279.545 259.74 279.043 260.789 279.236C261.42 279.351 262.587 279.179 263.424 279.028L263.644 278.985L263.798 279.452L264.275 279.323L264.686 279.56C264.796 279.624 264.884 279.674 264.943 279.703C265.42 281.304 267.38 280.759 267.38 280.759L267.842 281.024L272.554 281.146C273.082 281.462 273.647 281.721 274.227 281.929C274.308 281.95 274.388 281.972 274.469 281.979C274.91 282.015 275.343 282.022 275.783 282.001C276.142 282.001 276.421 281.979 276.421 281.979C276.421 281.979 276.37 280.73 276.304 279.33C277.764 279.294 279.218 279.179 280.663 278.978C283.181 278.547 284.23 276.307 284.612 275.108C284.729 275.596 284.803 276.092 284.854 276.594C284.957 277.032 285.089 277.463 285.243 277.879C285.382 278.217 285.558 278.54 285.779 278.834C287.635 278.217 286.513 277.284 286.124 276.881C285.735 276.479 286.395 276.142 286.395 276.142C286.395 276.142 286.909 275.804 286.858 275.496C286.806 275.187 286.784 274.85 288.443 274.878C290.131 274.871 290.021 273.514 290.021 273.514ZM264.239 258.293C264.261 258.429 264.495 259.894 264.701 260.282C264.76 260.54 264.782 260.806 264.752 261.071C263.769 260.992 262.741 260.949 262.741 260.949C262.771 260.985 262.793 261.028 262.793 261.071L262.639 261.036L262.411 260.985L264.239 258.293ZM260.65 263.879L262.352 264.144L262.492 264.166C262.448 264.424 262.411 264.69 262.404 264.956C262.404 264.977 262.448 265.006 262.499 265.042C262.477 265.171 262.462 265.3 262.47 265.437C262.499 265.566 263.292 265.853 264.202 266.09C264.187 266.14 264.18 266.183 264.165 266.227C263.358 265.81 262.088 265.616 261.941 265.308C261.795 264.999 257.472 263.527 257.472 263.527C257.472 263.527 257.311 263.448 257.039 263.319L258.176 263.527L258.485 263.498C259.204 263.671 259.923 263.8 260.65 263.879Z" fill="url(#paint0_linear)"/>
<path d="M284.458 274.548C284.458 274.548 283.782 278.547 280.34 279.136C276.906 279.725 265.435 279.603 265.435 279.603C265.435 279.603 258.881 278.669 256.51 273.256C254.14 267.849 252.613 265.681 254.646 265.588C256.679 265.494 267.636 269.206 268.268 269.257C268.899 269.307 285.067 261.028 284.458 274.548Z" fill="#65617D"/>
<path opacity="0.05" d="M284.458 274.548C284.458 274.548 283.782 278.547 280.34 279.136C276.906 279.725 265.435 279.603 265.435 279.603C265.435 279.603 258.881 278.669 256.51 273.256C254.14 267.849 252.613 265.681 254.646 265.588C256.679 265.494 267.636 269.206 268.268 269.257C268.899 269.307 285.067 261.028 284.458 274.548Z" fill="black"/>
<path d="M253.707 278.999C253.927 279.516 254.419 279.875 254.991 279.932C255.131 279.94 255.27 279.932 255.402 279.911C256.665 279.696 259.615 279.207 260.65 279.394C261.274 279.509 262.433 279.337 263.255 279.186C263.806 279.085 264.209 278.992 264.209 278.992C264.209 278.992 263.24 275.84 263.123 275.747C263.006 275.653 258.764 273.169 258.764 273.169L255.41 272.932C254.962 272.997 254.551 273.234 254.272 273.585C253.92 274.002 253.612 274.691 253.597 275.818C253.538 278.59 253.707 278.999 253.707 278.999Z" fill="#3F3D56"/>
<path opacity="0.05" d="M253.707 278.999C253.927 279.516 254.419 279.875 254.991 279.933C254.661 279.516 254.36 279.086 254.081 278.633L254.096 276.336C253.957 275.058 254.448 273.794 255.41 272.925C255.41 272.925 253.641 273.04 253.597 275.812C253.553 278.59 253.707 278.999 253.707 278.999Z" fill="black"/>
<path opacity="0.1" d="M268.253 273.981L271.365 271.59L276.275 266.858C276.275 266.858 275.746 266.83 274.946 266.801C274.748 266.923 274.19 267.318 274.168 267.792C274.146 268.373 272.84 267.835 272.165 268.165C271.489 268.495 268.172 272.645 267.592 272.616C267.013 272.58 266.55 272.329 266.308 272.731L266.293 272.76L268.253 273.981Z" fill="black"/>
<path opacity="0.1" d="M254.265 273.6L254.602 273.751C256.973 274.742 259.901 276.831 260.107 277.204C260.239 277.441 261.934 278.439 263.248 279.2C263.798 279.1 264.202 279.006 264.202 279.006C264.202 279.006 263.233 275.855 263.116 275.761C262.998 275.668 258.756 273.184 258.756 273.184L255.402 272.947C254.962 273.011 254.551 273.248 254.265 273.6Z" fill="black"/>
<path d="M247.689 266.808C248.005 267.562 250.639 270.477 250.639 270.477C250.639 270.477 252.313 272.602 254.676 273.6C257.039 274.598 259.975 276.681 260.195 277.054C260.334 277.291 262.228 278.411 263.549 279.172L263.85 279.344L264.51 279.718L264.862 279.911L266.477 278.633C267.277 278.002 268.069 277.363 268.077 277.327C268.099 277.255 268.414 276.451 268.341 276.408C268.304 276.379 268.136 276.056 267.835 275.675C267.512 275.252 267.086 274.914 266.602 274.677C265.897 274.326 265.332 273.744 265.002 273.04C265.002 273.04 264.899 272.969 264.738 272.868C264.407 272.645 264.04 272.488 263.651 272.401C263.123 272.337 262.132 271.267 262.132 271.267C261.743 271.023 261.42 270.685 261.185 270.298C260.929 269.781 257.178 267.253 256.833 267.016L265.927 272.732L268.099 274.096L271.211 271.705L276.12 266.973C276.12 266.973 275.46 266.938 274.498 266.902C272.106 266.801 267.871 266.643 267.336 266.758C266.903 266.859 266.448 266.887 266.007 266.844C266.007 266.844 264.811 266.894 263.996 266.485C263.182 266.069 261.941 265.882 261.795 265.573C261.648 265.265 257.369 263.8 257.369 263.8C257.369 263.8 251.542 260.77 249.458 262.565C247.373 264.381 247.373 266.047 247.689 266.808Z" fill="#65617D"/>
<path d="M266.492 249.433L267.24 251.866L268.194 257.359L271.754 257.596L272.781 255.923L273.809 254.257C273.809 254.257 274.447 252.039 274.909 249.892C275.313 247.989 275.585 246.144 275.152 245.95C274.763 245.771 274.498 245.132 274.33 244.443C274.308 244.356 274.286 244.27 274.271 244.184C274.154 243.603 274.073 243.014 274.029 242.418C274.029 242.418 266.58 242.037 267.614 245.046C267.798 245.555 267.893 246.101 267.893 246.64C267.893 246.776 267.886 246.912 267.871 247.049C267.776 248.004 267.27 248.865 266.492 249.433Z" fill="#EE8E9E"/>
<path d="M264.936 249.031L265.2 253.174L265.809 256.699L266.484 258.336L267.093 267.275C267.093 267.275 272.928 267.935 274.344 267.26C274.447 267.217 274.535 267.153 274.601 267.066C276.304 264.532 275.754 257.209 275.754 257.209L276.407 252.477L275.974 250.022L274.924 249.914L274.11 249.828C274.11 249.828 273.926 250.05 273.662 250.388C272.943 251.321 271.622 253.138 271.717 253.899C271.834 254.94 271.57 256.002 271.159 256.175C270.748 256.347 270.411 256.627 270.337 256.34C270.235 256.103 270.212 255.837 270.264 255.586C270.337 255.184 269.948 253.949 269.948 253.949C269.948 253.949 269.295 252.506 269.339 251.888C269.391 251.271 269.266 250.56 269.075 250.395C268.884 250.23 268.613 250.065 268.833 249.304C269.053 248.55 267.879 247.071 267.879 247.071L264.936 249.031Z" fill="#E3E8F4"/>
<path opacity="0.1" d="M272.642 259.377L272.884 266.456L274.278 267.21C274.381 267.167 274.469 267.102 274.535 267.016C276.245 264.482 275.687 257.151 275.687 257.151L276.341 252.42L275.908 249.964L274.858 249.856C275.262 247.961 275.533 246.109 275.1 245.915C274.711 245.735 274.447 245.096 274.278 244.414L273.522 249.418C273.522 249.418 273.581 249.871 273.603 250.337C273.633 250.632 273.618 250.933 273.544 251.221C273.376 251.644 273.493 252.405 273.493 252.405C273.053 253.159 272.84 254.552 272.73 255.895C272.59 257.675 272.642 259.377 272.642 259.377Z" fill="black"/>
<path d="M274.286 244.292C274.286 244.292 275.504 244.443 275.893 244.938C276.282 245.434 277.295 245.505 277.295 245.505C277.295 245.505 278.454 245.886 278.432 245.972C278.41 246.065 278.77 246.209 279.496 246.396C280.223 246.582 281.427 247.272 281.427 247.437C281.427 247.602 283.342 249.447 283.342 249.641C283.342 249.828 283.922 250.538 283.848 251.795C283.775 253.051 283.702 254.638 283.995 254.897C284.281 255.155 283.995 256.175 283.995 256.175C283.834 256.397 283.826 256.699 283.973 256.928C284.215 257.352 283.922 259.133 283.922 259.133L283.944 260.978C283.944 260.978 283.68 262.148 283.995 262.184C284.311 262.22 283.944 262.751 283.944 262.751C283.944 262.751 283.68 263.685 284.017 264.123C284.355 264.561 284.45 266.37 284.45 266.37L289.624 273.729C289.624 273.729 289.698 275.079 288.054 275.058C286.41 275.036 286.432 275.366 286.483 275.675C286.535 275.984 286.021 276.314 286.021 276.314C286.021 276.314 285.368 276.644 285.757 277.046C286.146 277.448 287.254 278.375 285.419 278.985C285.206 278.698 285.023 278.382 284.891 278.052C284.736 277.635 284.604 277.211 284.502 276.774C284.502 276.774 284.333 274.971 283.995 274.734C283.658 274.498 283.716 273.356 283.716 273.356C283.716 273.356 284.193 272.437 283.526 272.056C282.85 271.676 273.023 266.356 273.023 266.356L272.781 259.276C272.781 259.276 272.612 254.042 273.625 252.297C273.625 252.297 273.508 251.536 273.677 251.113C273.845 250.689 273.655 249.318 273.655 249.318L274.286 244.292Z" fill="#3F3D56"/>
<path opacity="0.1" d="M267.952 247.143C267.952 247.143 265.523 246.655 264.87 246.985C264.216 247.315 262.932 247.581 262.741 247.767C262.551 247.954 262.066 247.818 261.626 248.938C261.193 250.065 261.149 251.185 260.584 251.709C260.019 252.226 259.74 252.585 259.718 252.966C259.696 253.346 259.791 253.432 259.571 253.561C259.351 253.684 259.035 254.172 259.138 254.366C259.233 254.552 264.165 258.724 264.165 258.724C264.165 258.724 264.407 260.311 264.627 260.713C264.848 261.115 264.385 266.657 263.908 267.031C263.431 267.411 267.174 267.375 267.174 267.375C267.174 267.375 267.343 263.742 267.49 263.556C267.637 263.369 267.394 259.485 267.394 259.485C267.394 259.485 267.372 256.175 267.681 255.292C267.996 254.416 267.959 251.508 267.959 251.508C267.959 251.508 268.238 249.763 268.576 249.354C268.906 248.931 267.952 247.143 267.952 247.143Z" fill="black"/>
<path d="M267.879 247.064C267.879 247.064 265.442 246.575 264.789 246.906C264.136 247.236 262.859 247.502 262.661 247.688C262.47 247.875 261.986 247.739 261.545 248.844C261.105 249.95 261.068 251.092 260.503 251.616C259.938 252.14 259.659 252.492 259.63 252.865C259.608 253.246 259.703 253.332 259.483 253.461C259.263 253.59 258.947 254.078 259.05 254.265C259.145 254.452 264.084 258.616 264.084 258.616C264.084 258.616 264.327 260.203 264.547 260.605C264.767 261.007 264.305 266.543 263.828 266.923C263.351 267.304 267.079 267.275 267.079 267.275C267.079 267.275 267.248 263.642 267.394 263.448C267.541 263.261 267.299 259.377 267.299 259.377C267.299 259.377 267.277 256.067 267.585 255.191C267.901 254.315 267.864 251.407 267.864 251.407C267.864 251.407 268.143 249.663 268.481 249.254C268.833 248.844 267.879 247.064 267.879 247.064Z" fill="#3F3D56"/>
<path opacity="0.1" d="M267.622 245.053C267.805 245.563 267.901 246.108 267.901 246.647C270.352 247.358 272.979 246.345 274.271 244.184C274.154 243.603 274.073 243.014 274.029 242.418C274.029 242.425 266.58 242.052 267.622 245.053Z" fill="black"/>
<path d="M263.945 241.312C263.952 244.299 266.426 246.726 269.486 246.719C272.539 246.712 275.02 244.292 275.012 241.298C275.005 238.304 272.532 235.884 269.471 235.892C266.859 235.892 264.605 237.687 264.062 240.185C263.982 240.559 263.945 240.939 263.945 241.312Z" fill="#EE8E9E"/>
<path d="M260.386 253.863L259.065 254.265C259.131 254.531 259.021 254.811 258.793 254.968C258.566 255.126 258.433 255.392 258.455 255.672C258.455 255.672 258.309 256.196 257.978 256.311C257.648 256.426 257.421 257.216 257.421 257.216L256.305 258.465C256.305 258.465 255.894 258.795 255.967 258.96C256.041 259.126 255.534 259.176 255.534 259.176L255.799 263.39L258.096 263.814L259.534 263.67L260.694 263.247L261.707 262.658L262.169 261.488L264.202 258.458L260.386 253.863Z" fill="#3F3D56"/>
<path d="M255.865 259.513C255.865 259.513 252.914 255.349 250.713 257.596C248.511 259.844 251.608 263.491 252.335 263.369C253.061 263.254 256.518 263.053 256.518 263.053L255.865 259.513Z" fill="#EE8E9E"/>
<path d="M249.737 251.192L262.837 257.732C263.02 257.826 263.094 258.041 262.998 258.221L257.883 268.028C257.788 268.208 257.567 268.28 257.384 268.186L244.284 261.645C244.1 261.552 244.027 261.337 244.122 261.157L249.238 251.35C249.333 251.17 249.553 251.105 249.737 251.192Z" fill="#3F3D56"/>
<path d="M250.01 252.516L245.563 261.041L257.127 266.815L261.574 258.29L250.01 252.516Z" fill="#6C63FF"/>
<path d="M247.366 256.764C247.484 256.764 247.579 256.67 247.579 256.555C247.579 256.44 247.484 256.347 247.366 256.347C247.249 256.347 247.153 256.44 247.153 256.555C247.153 256.67 247.249 256.764 247.366 256.764Z" fill="#E6E8EC"/>
<path d="M259.887 263.175C260.081 263.175 260.239 263.02 260.239 262.83C260.239 262.64 260.081 262.485 259.887 262.485C259.692 262.485 259.534 262.64 259.534 262.83C259.534 263.02 259.692 263.175 259.887 263.175Z" fill="#E6E8EC"/>
<path d="M253.956 260.389C253.934 263.513 260.532 264.173 260.532 264.173L262.206 264.439L262.961 264.554L263.277 261.509C263.277 261.509 262.932 261.459 262.499 261.359C261.861 261.208 261.031 260.964 260.863 260.605C260.584 260.016 253.978 257.266 253.956 260.389Z" fill="#EE8E9E"/>
<path opacity="0.1" d="M264.062 240.185C264.216 240.2 264.356 240.257 264.466 240.365C264.657 240.559 264.664 240.903 264.906 241.018C264.994 241.061 265.097 241.068 265.193 241.054C265.838 240.968 266.205 240.257 266.822 240.056C267.181 239.97 267.563 239.999 267.908 240.149C268.047 240.192 268.172 240.279 268.268 240.386C268.473 240.652 268.326 241.032 268.429 241.348C268.561 241.786 269.097 241.959 269.567 242.023C270.029 242.081 270.557 242.109 270.866 242.454C271.078 242.713 271.159 243.05 271.108 243.373C271.078 243.481 271.078 243.603 271.108 243.711C271.24 244.07 271.864 244.012 272.033 243.732C272.15 243.531 272.113 243.359 272.399 243.301C272.605 243.287 272.811 243.323 272.994 243.402C273.486 243.567 274.007 243.646 274.528 243.639C275.827 240.932 274.638 237.701 271.864 236.43C269.09 235.159 265.794 236.322 264.495 239.036C264.319 239.41 264.18 239.805 264.092 240.207L264.062 240.185Z" fill="black"/>
<path d="M271.086 243.56C271.057 243.445 271.057 243.33 271.086 243.222C271.145 242.899 271.056 242.562 270.844 242.303C270.535 241.958 270.014 241.922 269.545 241.872C269.082 241.815 268.547 241.635 268.407 241.197C268.312 240.881 268.458 240.494 268.246 240.235C268.15 240.128 268.025 240.041 267.886 239.998C267.548 239.848 267.167 239.819 266.8 239.905C266.183 240.099 265.809 240.81 265.171 240.903C265.075 240.917 264.972 240.91 264.884 240.867C264.642 240.745 264.627 240.4 264.444 240.207C264.15 239.905 263.593 240.099 263.233 239.876C263.02 239.697 262.881 239.445 262.844 239.173C262.683 238.663 262.646 238.124 262.734 237.607C262.947 236.724 263.747 236.121 264.261 235.374C264.738 234.671 265.009 233.788 265.728 233.321C266.448 232.854 267.372 232.962 268.18 233.199C268.554 233.328 268.936 233.429 269.332 233.493C269.985 233.572 270.645 233.4 271.299 233.378C272.231 233.35 273.141 233.623 273.897 234.154C274.066 234.262 274.212 234.405 274.322 234.577C274.432 234.814 274.498 235.073 274.513 235.331C274.594 235.82 274.763 236.293 275.02 236.717C275.225 237.047 275.482 237.349 275.665 237.694C275.871 238.031 275.93 238.433 275.834 238.814C275.776 239.007 275.651 239.187 275.592 239.381C275.482 239.848 275.798 240.285 276.01 240.709C276.216 241.097 276.311 241.535 276.289 241.973C276.267 242.411 276.054 242.827 275.709 243.107C275.35 243.351 274.924 243.481 274.484 243.473C273.955 243.488 273.42 243.409 272.921 243.236C272.737 243.157 272.532 243.122 272.326 243.136C272.047 243.193 272.084 243.373 271.959 243.567C271.849 243.861 271.218 243.911 271.086 243.56Z" fill="#3F3D56"/>
<path opacity="0.1" d="M268.106 274.117L271.218 271.726L276.128 266.995C276.128 266.995 275.467 266.959 274.506 266.923C274.315 267.088 274.198 267.318 274.161 267.569C274.139 268.151 272.833 267.612 272.157 267.942C271.482 268.273 268.165 272.423 267.585 272.394C267.005 272.358 266.543 272.107 266.301 272.509L266.286 272.538C266.191 272.645 266.059 272.724 265.919 272.753L268.106 274.117Z" fill="black"/>
<path d="M261.817 273.952L263.38 278.849L263.622 279.617L264.371 279.416L266.015 278.971L273.346 277.003C274.264 276.96 275.166 276.716 275.981 276.3C277.368 275.539 278.946 275.201 280.531 275.33C281.485 275.417 282.579 275.007 283.474 273.392C283.474 273.392 285.507 267.519 280.377 265.839C275.247 264.159 275.005 266.736 275.005 266.736L274.939 266.779C274.741 266.901 274.183 267.296 274.161 267.77C274.139 268.352 272.833 267.813 272.157 268.143C271.482 268.474 268.165 272.624 267.585 272.595C267.005 272.559 266.543 272.308 266.301 272.71L266.286 272.738C266.11 272.975 265.567 273.033 265.215 273.047C265.024 273.047 264.877 273.047 264.877 273.047L264.833 273.062L264.459 273.169L261.817 273.952Z" fill="#65617D"/>
<path opacity="0.1" d="M262.22 264.439L262.976 264.554L263.292 261.51C263.292 261.51 262.947 261.459 262.514 261.359C262.624 261.783 262.367 263.427 262.22 264.439Z" fill="black"/>
<path opacity="0.1" d="M282.006 250.187C282.006 250.187 284.259 249.548 283.702 255.808C283.144 262.069 278.983 266.011 278.983 266.011C278.983 266.011 274.198 268.072 272.04 267.741C269.89 267.411 268.312 267.339 268.312 267.339C267.637 267.002 266.895 266.808 266.132 266.772C264.936 266.722 262.382 265.989 262.33 265.753C262.279 265.516 262.962 262.033 262.668 261.775C262.668 261.775 266.059 261.911 266.396 262.155C266.734 262.4 267.218 262.22 267.593 262.155C267.967 262.091 269.068 261.136 271.269 261.969C271.269 261.969 272.018 262.041 272.311 261.854C272.546 261.746 272.818 261.725 273.067 261.804C273.251 261.739 273.434 261.653 273.596 261.545C273.669 261.452 274.249 261.545 274.249 261.545C274.374 261.603 274.528 261.552 274.594 261.43C274.601 261.416 274.609 261.394 274.616 261.38C274.689 261.186 274.807 261.007 274.953 260.863C274.953 260.863 275.607 257.266 276.84 255.916C277.045 255.744 277.141 255.485 277.104 255.227C276.994 254.81 279.1 249.418 282.006 250.187Z" fill="black"/>
<path d="M281.948 249.691C281.948 249.691 284.201 249.052 283.643 255.313C283.085 261.574 278.924 265.516 278.924 265.516C278.924 265.516 274.139 267.576 271.981 267.246C269.831 266.916 268.253 266.844 268.253 266.844C267.578 266.507 266.837 266.313 266.073 266.277C264.877 266.227 262.323 265.494 262.272 265.257C262.22 265.02 262.903 261.538 262.609 261.28C262.609 261.28 265.993 261.416 266.33 261.66C266.668 261.904 267.152 261.725 267.526 261.66C267.901 261.596 269.002 260.641 271.203 261.473C271.203 261.473 271.952 261.545 272.245 261.351C272.48 261.244 272.752 261.229 273.001 261.301C273.185 261.237 273.368 261.15 273.53 261.043C273.603 260.949 274.183 261.043 274.183 261.043C274.308 261.1 274.462 261.05 274.528 260.928C274.535 260.913 274.543 260.892 274.55 260.878C274.623 260.684 274.741 260.504 274.888 260.361C274.888 260.361 275.541 256.763 276.774 255.414C276.979 255.241 277.075 254.983 277.045 254.724C276.935 254.33 279.041 248.937 281.948 249.691Z" fill="#3F3D56"/>
<path opacity="0.1" d="M264.466 273.177L267.666 276.961L267.688 276.939C267.71 276.867 268.025 276.063 267.952 276.013C267.879 275.963 267.321 274.778 266.213 274.283C265.648 274.01 265.171 273.593 264.848 273.062L264.466 273.177Z" fill="black"/>
<path opacity="0.1" d="M264.517 279.725L264.87 279.918L266.484 278.64C267.284 278.009 268.077 277.37 268.084 277.334C268.106 277.262 268.422 276.458 268.348 276.415C268.312 276.386 268.143 276.063 267.842 275.682C265.692 275.086 267.057 276.558 267.24 276.616C267.24 276.616 264.606 276.02 264.459 278.834C264.429 279.136 264.451 279.43 264.517 279.725Z" fill="black"/>
<path d="M267.189 280.916L267.651 281.175L272.319 281.29C272.84 281.598 273.398 281.864 273.97 282.072C274.051 282.094 274.132 282.108 274.212 282.123C274.645 282.158 275.078 282.166 275.511 282.144C275.871 282.144 276.142 282.123 276.142 282.123C276.142 282.123 275.922 276.364 275.754 275.754C275.673 275.467 275.276 275.517 274.895 275.675C274.601 275.79 274.322 275.926 274.058 276.091C274.058 276.091 272.077 276.278 271.761 276.45C271.445 276.616 270.55 276.357 269.992 276.45C269.435 276.544 268.444 275.811 268.444 275.811C265.736 274.935 267.248 276.572 267.453 276.637C267.453 276.637 264.818 276.041 264.671 278.856C264.525 281.656 267.189 280.916 267.189 280.916Z" fill="#3F3D56"/>
<path d="M273.933 278.691C273.985 279.882 274.939 281.361 275.504 282.144C275.863 282.144 276.135 282.122 276.135 282.122C276.135 282.122 275.915 276.364 275.746 275.754C275.665 275.467 275.269 275.517 274.887 275.675C274.425 276.529 273.911 277.728 273.933 278.691Z" fill="#565387"/>
<path opacity="0.1" d="M273.933 278.691C273.985 279.882 274.939 281.361 275.504 282.144C275.863 282.144 276.135 282.122 276.135 282.122C276.135 282.122 275.915 276.364 275.746 275.754C275.665 275.467 275.269 275.517 274.887 275.675C274.425 276.529 273.911 277.728 273.933 278.691Z" fill="black"/>
<path opacity="0.05" d="M273.141 278.848C273.464 279.997 273.456 281.29 273.97 282.072C274.051 282.094 274.132 282.108 274.212 282.123C274.645 282.158 275.078 282.166 275.511 282.144C275.871 282.144 276.142 282.123 276.142 282.123C276.142 282.123 275.922 276.364 275.754 275.754C275.673 275.467 275.276 275.517 274.895 275.675C274.601 275.79 274.322 275.926 274.058 276.091C274.058 276.084 272.73 277.369 273.141 278.848Z" fill="black"/>
<path opacity="0.1" d="M257.032 267.167C257.032 267.167 259.351 267.907 261.318 270.52L257.032 267.167Z" fill="black"/>
<g opacity="0.1">
<path opacity="0.1" d="M275.878 238.764L275.864 238.814C275.842 238.879 275.812 238.95 275.783 239.008C275.805 238.929 275.834 238.85 275.878 238.764Z" fill="black"/>
<path opacity="0.1" d="M262.756 237.622C262.8 237.457 262.859 237.307 262.932 237.156C262.932 237.199 262.91 237.235 262.896 237.278C262.807 237.802 262.844 238.34 263.006 238.85C263.042 239.123 263.182 239.374 263.395 239.554C263.754 239.791 264.312 239.583 264.605 239.891C264.789 240.085 264.804 240.43 265.046 240.545C265.134 240.581 265.237 240.595 265.332 240.581C265.971 240.494 266.345 239.776 266.961 239.583C267.321 239.489 267.703 239.525 268.04 239.676C268.18 239.719 268.304 239.805 268.4 239.913C268.605 240.179 268.458 240.559 268.561 240.875C268.693 241.313 269.229 241.485 269.691 241.543C270.154 241.6 270.682 241.636 270.99 241.973C271.196 242.232 271.284 242.562 271.233 242.893C271.203 243.007 271.203 243.122 271.233 243.23C271.357 243.589 271.989 243.532 272.15 243.252C272.267 243.05 272.231 242.878 272.517 242.821C272.722 242.806 272.921 242.835 273.111 242.921C273.61 243.094 274.146 243.173 274.675 243.158C275.115 243.165 275.541 243.036 275.9 242.792C276.054 242.67 276.186 242.519 276.275 242.347C276.194 242.663 276.01 242.943 275.753 243.151C275.394 243.395 274.968 243.524 274.528 243.517C273.999 243.532 273.464 243.453 272.965 243.28C272.781 243.201 272.576 243.165 272.37 243.18C272.091 243.237 272.128 243.417 272.003 243.61C271.842 243.891 271.211 243.941 271.086 243.589C271.057 243.474 271.057 243.359 271.086 243.252C271.145 242.928 271.056 242.591 270.844 242.332C270.535 241.988 270.014 241.952 269.545 241.902C269.082 241.844 268.547 241.665 268.407 241.227C268.312 240.911 268.458 240.523 268.246 240.265C268.15 240.157 268.025 240.071 267.886 240.028C267.548 239.877 267.167 239.848 266.8 239.934C266.183 240.128 265.809 240.839 265.171 240.932C265.075 240.947 264.972 240.94 264.884 240.896C264.642 240.774 264.628 240.43 264.444 240.236C264.15 239.934 263.593 240.128 263.233 239.906C263.013 239.726 262.873 239.475 262.844 239.202C262.697 238.692 262.661 238.147 262.756 237.622Z" fill="black"/>
</g>
<path opacity="0.1" d="M276.253 256.563C275.805 257.151 275.299 257.69 274.91 258.307C274.484 258.91 274.278 259.643 274.322 260.375C274.726 259.966 274.917 259.406 275.174 258.896C275.607 258.027 276.253 257.295 276.803 256.498C276.906 256.347 277.574 255.471 277.236 255.428C276.95 255.392 276.399 256.362 276.253 256.563Z" fill="black"/>
<path d="M123.916 180.349H104.115C103.748 180.327 103.44 180.6 103.418 180.952C103.396 181.311 103.675 181.612 104.034 181.634C104.064 181.634 104.086 181.634 104.115 181.634H123.916C124.283 181.655 124.591 181.382 124.613 181.031C124.635 180.679 124.356 180.37 123.996 180.349C123.967 180.341 123.938 180.341 123.916 180.349ZM123.916 182.56H104.115C103.748 182.56 103.454 182.847 103.454 183.206C103.454 183.565 103.748 183.852 104.115 183.852H123.916C124.283 183.852 124.576 183.565 124.576 183.206C124.576 182.847 124.275 182.56 123.916 182.56ZM122.925 167.626H105.113C104.203 167.626 103.462 168.351 103.454 169.241V177.434C103.454 178.324 104.196 179.049 105.113 179.049H122.925C123.835 179.049 124.576 178.324 124.576 177.434V169.241C124.569 168.351 123.835 167.626 122.925 167.626ZM107.322 177.584H105.627C105.26 177.584 104.966 177.297 104.966 176.938C104.966 176.579 105.26 176.292 105.627 176.292H107.322C107.689 176.292 107.983 176.579 107.983 176.938C107.975 177.297 107.682 177.584 107.322 177.584ZM107.322 170.39H105.627C105.26 170.39 104.966 170.103 104.966 169.744C104.966 169.385 105.26 169.098 105.627 169.098H107.322C107.689 169.098 107.983 169.385 107.983 169.744C107.975 170.103 107.682 170.39 107.322 170.39ZM114.023 177.032C111.938 177.032 110.25 175.38 110.25 173.341C110.25 171.302 111.938 169.651 114.023 169.651C116.107 169.651 117.795 171.302 117.795 173.341C117.788 175.38 116.1 177.032 114.023 177.032ZM122.411 177.584H120.716C120.349 177.584 120.055 177.297 120.055 176.938C120.055 176.579 120.349 176.292 120.716 176.292H122.411C122.778 176.292 123.072 176.579 123.072 176.938C123.072 177.297 122.778 177.584 122.411 177.584ZM122.411 170.39H120.716C120.349 170.39 120.055 170.103 120.055 169.744C120.055 169.385 120.349 169.098 120.716 169.098H122.411C122.778 169.098 123.072 169.385 123.072 169.744C123.072 170.103 122.778 170.39 122.411 170.39Z" fill="white"/>
<path d="M114.015 175.876C115.394 175.876 116.511 174.783 116.511 173.434C116.511 172.086 115.394 170.993 114.015 170.993C112.637 170.993 111.52 172.086 111.52 173.434C111.52 174.783 112.637 175.876 114.015 175.876Z" fill="white"/>
<path opacity="0.2" d="M241.774 151.32H151.863V200.157H241.774V151.32Z" fill="#6C63FF"/>
<path opacity="0.2" d="M241.774 211.078H151.863V259.915H241.774V211.078Z" fill="#6C63FF"/>
<path d="M172.273 185.324H169.55V194.242H172.273V185.324Z" fill="white"/>
<path d="M177.454 174.282H174.731V194.249H177.454V174.282Z" fill="white"/>
<path d="M182.636 164.33H179.913V194.248H182.636V164.33Z" fill="#DFE3EF"/>
<path d="M187.817 157.229H185.094V194.241H187.817V157.229Z" fill="white"/>
<path d="M182.636 157.229H179.913V194.241H182.636V157.229Z" fill="#6C63FF"/>
<path d="M192.998 173.901H190.276V194.249H192.998V173.901Z" fill="#6C63FF"/>
<path opacity="0.2" d="M198.187 168.638H195.464V194.241H198.187V168.638Z" fill="#6C63FF"/>
<path d="M203.368 160.654H200.646V194.249H203.368V160.654Z" fill="#6C63FF"/>
<path opacity="0.2" d="M208.55 179.286H205.827V194.241H208.55V179.286Z" fill="#6C63FF"/>
<path d="M213.731 172.379H211.008V194.241H213.731V172.379Z" fill="#6C63FF"/>
<path opacity="0.2" d="M218.912 164.33H216.19V194.248H218.912V164.33Z" fill="#6C63FF"/>
<path d="M224.101 164.33H221.378V194.248H224.101V164.33Z" fill="#6C63FF"/>
<path d="M124.569 229.595C124.569 228.784 123.894 228.123 123.064 228.123H104.966C104.137 228.123 103.462 228.784 103.454 229.595V231.806H124.569V229.595ZM103.447 241.399C103.447 242.21 104.122 242.87 104.959 242.878H123.064C123.894 242.878 124.569 242.217 124.569 241.399V234.025H103.454L103.447 241.399ZM110.148 239.187H117.883C118.25 239.166 118.558 239.438 118.58 239.79C118.602 240.149 118.323 240.451 117.964 240.472C117.934 240.472 117.912 240.472 117.883 240.472H110.148C109.781 240.451 109.509 240.142 109.531 239.79C109.546 239.467 109.817 239.209 110.148 239.187ZM106.757 239.187H107.322C107.689 239.166 107.997 239.438 108.019 239.79C108.041 240.149 107.763 240.451 107.403 240.472C107.374 240.472 107.352 240.472 107.322 240.472H106.757C106.39 240.494 106.082 240.221 106.06 239.869C106.038 239.51 106.317 239.209 106.676 239.187C106.698 239.187 106.728 239.187 106.757 239.187Z" fill="white"/>
<path d="M172.273 245.082H169.55V253.999H172.273V245.082Z" fill="white"/>
<path d="M177.454 234.039H174.731V254.006H177.454V234.039Z" fill="white"/>
<path d="M182.636 224.088H179.913V254.006H182.636V224.088Z" fill="#DFE3EF"/>
<path d="M187.817 216.987H185.094V253.999H187.817V216.987Z" fill="white"/>
<path d="M182.636 216.987H179.913V253.999H182.636V216.987Z" fill="#6C63FF"/>
<path d="M192.998 233.659H190.276V254.006H192.998V233.659Z" fill="#6C63FF"/>
<path d="M198.187 228.396H195.464V253.999H198.187V228.396Z" fill="white"/>
<path d="M203.368 220.412H200.646V254.007H203.368V220.412Z" fill="white"/>
<path opacity="0.2" d="M208.55 239.043H205.827V253.999H208.55V239.043Z" fill="#6C63FF"/>
<path opacity="0.2" d="M213.731 232.137H211.008V253.999H213.731V232.137Z" fill="#6C63FF"/>
<path opacity="0.2" d="M218.912 224.088H216.19V254.006H218.912V224.088Z" fill="#6C63FF"/>
<path opacity="0.2" d="M224.101 224.088H221.378V254.006H224.101V224.088Z" fill="#6C63FF"/>
<defs>
<linearGradient id="paint0_linear" x1="268.781" y1="281.977" x2="268.781" y2="232.512" gradientUnits="userSpaceOnUse">
<stop stop-color="#808080" stop-opacity="0.25"/>
<stop offset="0.54" stop-color="#808080" stop-opacity="0.12"/>
<stop offset="1" stop-color="#808080" stop-opacity="0.1"/>
</linearGradient>
</defs>
</svg>
