<svg width="367" height="383" viewBox="0 0 367 383" fill="none" xmlns="http://www.w3.org/2000/svg">
<path d="M367 0H0V382.681H367V0Z" fill="#C7DAF1"/>
<g clip-path="url(#clip0)">
<path opacity="0.1" d="M115.83 126.145C108.143 125.863 100.113 125.665 93.1669 128.954C86.2208 132.244 80.8471 140.229 83.1752 147.572C83.9385 149.961 85.4193 152.053 86.6635 154.228C92.9074 165.121 93.1975 179.197 87.4116 190.334C82.9538 198.913 75.3971 205.44 69.9623 213.424C64.5275 221.409 61.4361 232.492 66.7793 240.538C70.4432 246.049 77.2443 248.728 83.824 249.385C90.4114 250.033 97.0369 249.011 103.647 248.751C116.517 248.255 129.34 250.682 141.141 255.842C157.392 262.964 171.383 275.155 188.497 279.857C190.55 280.422 192.695 280.88 194.794 280.49C198.519 279.811 201.229 276.735 204.145 274.3C213.457 266.59 226.342 265.147 238.432 264.796C250.523 264.445 263.103 264.712 274.026 259.522C283.567 254.995 290.902 246.56 295.475 237.042C300.047 227.523 302.024 216.943 302.772 206.409C303.215 200.142 303.199 193.662 300.955 187.792C298.436 181.189 293.314 175.937 287.948 171.342C282.338 166.541 276.232 162.19 269.308 159.594C261.042 156.495 252.065 156.06 243.257 155.32C225.204 153.808 207.289 150.938 189.672 146.717C172.948 142.717 154.59 138.351 139.362 130.214C131.729 126.13 124.447 126.451 115.83 126.145Z" fill="#6C63FF"/>
<g opacity="0.1">
<path opacity="0.1" d="M221.83 265.223C221.83 265.223 222.616 254.254 228.783 248.277C231.386 245.789 233.119 242.514 233.707 238.957C233.974 237.262 234.081 235.553 234.035 233.843" fill="#6C63FF"/>
<path opacity="0.1" d="M237.905 230.049C237.455 231.263 233.951 233.957 233.951 233.957C233.951 233.957 233.066 229.629 233.524 228.416C233.974 227.202 235.325 226.591 236.531 227.042C237.745 227.484 238.355 228.835 237.905 230.049Z" fill="#6C63FF"/>
<path opacity="0.1" d="M239.027 238.11C237.989 238.881 233.584 239.232 233.584 239.232C233.584 239.232 235.195 235.118 236.241 234.347C237.302 233.606 238.76 233.858 239.5 234.919C240.21 235.942 240.004 237.339 239.027 238.11Z" fill="#6C63FF"/>
<path opacity="0.1" d="M234.584 249.514C233.294 249.659 229.318 247.743 229.318 247.743C229.318 247.743 232.791 245.003 234.073 244.865C235.363 244.797 236.47 245.781 236.539 247.071C236.6 248.27 235.76 249.315 234.584 249.514Z" fill="#6C63FF"/>
<path opacity="0.1" d="M229.279 257.384C228.035 257.743 223.791 256.521 223.791 256.521C223.791 256.521 226.753 253.239 227.989 252.88C229.218 252.491 230.539 253.17 230.928 254.399C231.318 255.628 230.638 256.949 229.409 257.338C229.363 257.361 229.325 257.369 229.279 257.384Z" fill="#6C63FF"/>
<path opacity="0.1" d="M228.89 237.751C229.44 238.919 233.165 241.3 233.165 241.3C233.165 241.3 233.676 236.911 233.119 235.743C232.531 234.591 231.119 234.133 229.967 234.721C228.867 235.285 228.394 236.614 228.89 237.751Z" fill="#6C63FF"/>
<path opacity="0.1" d="M222.807 247.033C223.692 247.98 227.944 249.148 227.944 249.148C227.944 249.148 227.119 244.805 226.242 243.858C225.364 242.911 223.875 242.858 222.929 243.743C221.99 244.614 221.936 246.087 222.807 247.033Z" fill="#6C63FF"/>
<path opacity="0.1" d="M218.128 256.865C218.83 257.949 222.837 259.819 222.837 259.819C222.837 259.819 222.761 255.399 222.051 254.316C221.318 253.255 219.86 252.987 218.792 253.72C217.776 254.43 217.479 255.812 218.128 256.865Z" fill="#6C63FF"/>
<path opacity="0.1" d="M237.905 230.049C237.455 231.263 233.951 233.957 233.951 233.957C233.951 233.957 233.066 229.629 233.524 228.416C233.974 227.202 235.325 226.591 236.531 227.042C237.745 227.484 238.355 228.835 237.905 230.049Z" fill="#6C63FF"/>
<path opacity="0.1" d="M239.027 238.11C237.989 238.881 233.584 239.232 233.584 239.232C233.584 239.232 235.195 235.118 236.241 234.347C237.302 233.606 238.76 233.858 239.5 234.919C240.21 235.942 240.004 237.339 239.027 238.11Z" fill="#6C63FF"/>
<path opacity="0.1" d="M234.584 249.514C233.294 249.659 229.318 247.743 229.318 247.743C229.318 247.743 232.791 245.003 234.073 244.865C235.363 244.797 236.47 245.781 236.539 247.071C236.6 248.27 235.76 249.315 234.584 249.514Z" fill="#6C63FF"/>
<path opacity="0.1" d="M229.279 257.384C228.035 257.743 223.791 256.521 223.791 256.521C223.791 256.521 226.753 253.239 227.989 252.88C229.218 252.491 230.539 253.17 230.928 254.399C231.318 255.628 230.638 256.949 229.409 257.338C229.363 257.361 229.325 257.369 229.279 257.384Z" fill="#6C63FF"/>
<path opacity="0.1" d="M228.89 237.751C229.44 238.919 233.165 241.3 233.165 241.3C233.165 241.3 233.676 236.911 233.119 235.743C232.531 234.591 231.119 234.133 229.967 234.721C228.867 235.285 228.394 236.614 228.89 237.751Z" fill="#6C63FF"/>
<path opacity="0.1" d="M222.807 247.033C223.692 247.98 227.944 249.148 227.944 249.148C227.944 249.148 227.119 244.805 226.242 243.858C225.364 242.911 223.875 242.858 222.929 243.743C221.99 244.614 221.936 246.087 222.807 247.033Z" fill="#6C63FF"/>
<path opacity="0.1" d="M218.128 256.865C218.83 257.949 222.837 259.819 222.837 259.819C222.837 259.819 222.761 255.399 222.051 254.316C221.318 253.255 219.86 252.987 218.792 253.72C217.776 254.43 217.479 255.812 218.128 256.865Z" fill="#6C63FF"/>
</g>
<g opacity="0.1">
<path opacity="0.1" d="M223.997 223.706C223.997 223.706 224.784 212.737 230.951 206.76C233.554 204.264 235.287 200.997 235.874 197.44C236.142 195.745 236.256 194.036 236.203 192.326" fill="#6C63FF"/>
<path opacity="0.1" d="M240.073 188.532C239.63 189.738 236.119 192.432 236.119 192.432C236.119 192.432 235.233 188.104 235.691 186.891C236.142 185.677 237.493 185.066 238.699 185.517C239.912 185.975 240.523 187.318 240.073 188.532Z" fill="#6C63FF"/>
<path opacity="0.1" d="M241.195 196.593C240.157 197.364 235.752 197.715 235.752 197.715C235.752 197.715 237.363 193.601 238.409 192.83C239.424 192.028 240.897 192.211 241.699 193.227C242.5 194.242 242.317 195.715 241.302 196.517C241.264 196.539 241.233 196.57 241.195 196.593Z" fill="#6C63FF"/>
<path opacity="0.1" d="M236.752 207.997C235.47 208.142 231.485 206.226 231.485 206.226C231.485 206.226 234.958 203.493 236.241 203.348C237.523 203.18 238.699 204.089 238.859 205.371C239.027 206.653 238.119 207.829 236.836 207.989C236.806 207.989 236.775 207.997 236.752 207.997Z" fill="#6C63FF"/>
<path opacity="0.1" d="M231.447 215.867C230.203 216.225 225.959 215.004 225.959 215.004C225.959 215.004 228.921 211.722 230.157 211.363C231.402 211.019 232.692 211.76 233.035 213.004C233.363 214.233 232.661 215.5 231.447 215.867Z" fill="#6C63FF"/>
<path opacity="0.1" d="M231.058 196.234C231.608 197.402 235.333 199.791 235.333 199.791C235.333 199.791 235.844 195.402 235.287 194.234C234.76 193.058 233.371 192.532 232.188 193.058C231.012 193.585 230.486 194.974 231.012 196.157C231.027 196.173 231.043 196.203 231.058 196.234Z" fill="#6C63FF"/>
<path opacity="0.1" d="M224.967 205.516C225.852 206.47 230.112 207.63 230.112 207.63C230.112 207.63 229.287 203.287 228.409 202.341C227.509 201.417 226.028 201.394 225.097 202.295C224.203 203.157 224.15 204.577 224.967 205.516Z" fill="#6C63FF"/>
<path opacity="0.1" d="M220.295 215.347C220.998 216.431 225.005 218.302 225.005 218.302C225.005 218.302 224.929 213.882 224.219 212.798C223.547 211.691 222.104 211.348 220.998 212.019C219.891 212.691 219.547 214.134 220.219 215.241C220.242 215.279 220.272 215.317 220.295 215.347Z" fill="#6C63FF"/>
<path opacity="0.1" d="M240.073 188.532C239.63 189.738 236.119 192.432 236.119 192.432C236.119 192.432 235.233 188.104 235.691 186.891C236.142 185.677 237.493 185.066 238.699 185.517C239.912 185.975 240.523 187.318 240.073 188.532Z" fill="#6C63FF"/>
<path opacity="0.1" d="M241.195 196.593C240.157 197.364 235.752 197.715 235.752 197.715C235.752 197.715 237.363 193.601 238.409 192.83C239.424 192.028 240.897 192.211 241.699 193.227C242.5 194.242 242.317 195.715 241.302 196.517C241.264 196.539 241.233 196.57 241.195 196.593Z" fill="#6C63FF"/>
<path opacity="0.1" d="M236.752 207.997C235.47 208.142 231.485 206.226 231.485 206.226C231.485 206.226 234.958 203.493 236.241 203.348C237.523 203.18 238.699 204.089 238.859 205.371C239.027 206.653 238.119 207.829 236.836 207.989C236.806 207.989 236.775 207.997 236.752 207.997Z" fill="#6C63FF"/>
<path opacity="0.1" d="M231.447 215.867C230.203 216.225 225.959 215.004 225.959 215.004C225.959 215.004 228.921 211.722 230.157 211.363C231.402 211.019 232.692 211.76 233.035 213.004C233.363 214.233 232.661 215.5 231.447 215.867Z" fill="#6C63FF"/>
<path opacity="0.1" d="M231.058 196.234C231.608 197.402 235.333 199.791 235.333 199.791C235.333 199.791 235.844 195.402 235.287 194.234C234.76 193.058 233.371 192.532 232.188 193.058C231.012 193.585 230.486 194.974 231.012 196.157C231.027 196.173 231.043 196.203 231.058 196.234Z" fill="#6C63FF"/>
<path opacity="0.1" d="M224.967 205.516C225.852 206.47 230.112 207.63 230.112 207.63C230.112 207.63 229.287 203.287 228.409 202.341C227.509 201.417 226.028 201.394 225.097 202.295C224.203 203.157 224.15 204.577 224.967 205.516Z" fill="#6C63FF"/>
<path opacity="0.1" d="M220.295 215.347C220.998 216.431 225.005 218.302 225.005 218.302C225.005 218.302 224.929 213.882 224.219 212.798C223.547 211.691 222.104 211.348 220.998 212.019C219.891 212.691 219.547 214.134 220.219 215.241C220.242 215.279 220.272 215.317 220.295 215.347Z" fill="#6C63FF"/>
</g>
<g opacity="0.1">
<path opacity="0.1" d="M106.715 238.072C106.715 238.072 97.2728 232.446 94.7004 224.248C93.6471 220.797 91.5022 217.79 88.5863 215.66C87.1971 214.66 85.7163 213.79 84.1667 213.065" fill="#6C63FF"/>
<path opacity="0.1" d="M82.5179 207.905C83.4033 208.852 84.2277 213.195 84.2277 213.195C84.2277 213.195 79.9608 212.035 79.083 211.088C78.2281 210.119 78.3273 208.638 79.2967 207.783C80.2356 206.959 81.6477 207.012 82.5179 207.905Z" fill="#6C63FF"/>
<path opacity="0.1" d="M90.2196 210.538C90.441 211.813 88.777 215.905 88.777 215.905C88.777 215.905 85.8306 212.615 85.6093 211.34C85.3574 210.073 86.1817 208.836 87.4488 208.584C88.7159 208.332 89.9525 209.157 90.2044 210.424C90.212 210.462 90.2196 210.5 90.2196 210.538Z" fill="#6C63FF"/>
<path opacity="0.1" d="M98.4101 219.622C97.9674 220.836 94.4562 223.53 94.4562 223.53C94.4562 223.53 93.5707 219.202 94.0287 217.989C94.4485 216.767 95.7767 216.111 96.998 216.531C98.2193 216.951 98.8757 218.279 98.4559 219.5C98.4406 219.538 98.4254 219.584 98.4101 219.622Z" fill="#6C63FF"/>
<path opacity="0.1" d="M103.059 227.897C102.822 229.172 99.8223 232.423 99.8223 232.423C99.8223 232.423 98.2193 228.301 98.4636 227.034C98.7002 225.767 99.9291 224.927 101.196 225.172C102.463 225.408 103.303 226.637 103.059 227.904V227.897Z" fill="#6C63FF"/>
<path opacity="0.1" d="M85.3497 219.416C86.6397 219.447 90.4486 217.202 90.4486 217.202C90.4486 217.202 86.7542 214.767 85.4642 214.737C84.1742 214.729 83.1208 215.775 83.1132 217.073C83.0979 218.332 84.0902 219.37 85.3497 219.416Z" fill="#6C63FF"/>
<path opacity="0.1" d="M90.899 229.026C92.1432 228.667 95.0972 225.385 95.0972 225.385C95.0972 225.385 90.8456 224.171 89.609 224.53C88.3725 224.919 87.6855 226.232 88.0748 227.461C88.4488 228.66 89.693 229.347 90.899 229.026Z" fill="#6C63FF"/>
<path opacity="0.1" d="M97.5855 237.629C98.8755 237.484 102.341 234.751 102.341 234.751C102.341 234.751 98.3641 232.835 97.0741 232.98C95.7841 233.049 94.7994 234.156 94.8681 235.446C94.9368 236.736 96.0436 237.721 97.3336 237.652C97.41 237.652 97.5016 237.644 97.5855 237.629Z" fill="#6C63FF"/>
<path opacity="0.1" d="M82.5179 207.905C83.4033 208.852 84.2277 213.195 84.2277 213.195C84.2277 213.195 79.9608 212.035 79.083 211.088C78.2281 210.119 78.3273 208.638 79.2967 207.783C80.2356 206.959 81.6477 207.012 82.5179 207.905Z" fill="#6C63FF"/>
<path opacity="0.1" d="M90.2196 210.538C90.441 211.813 88.777 215.905 88.777 215.905C88.777 215.905 85.8306 212.615 85.6093 211.34C85.3574 210.073 86.1817 208.836 87.4488 208.584C88.7159 208.332 89.9525 209.157 90.2044 210.424C90.212 210.462 90.2196 210.5 90.2196 210.538Z" fill="#6C63FF"/>
<path opacity="0.1" d="M98.4101 219.622C97.9674 220.836 94.4562 223.53 94.4562 223.53C94.4562 223.53 93.5707 219.202 94.0287 217.989C94.4485 216.767 95.7767 216.111 96.998 216.531C98.2193 216.951 98.8757 218.279 98.4559 219.5C98.4406 219.538 98.4254 219.584 98.4101 219.622Z" fill="#6C63FF"/>
<path opacity="0.1" d="M103.059 227.897C102.822 229.172 99.8223 232.423 99.8223 232.423C99.8223 232.423 98.2193 228.301 98.4636 227.034C98.7002 225.767 99.9291 224.927 101.196 225.172C102.463 225.408 103.303 226.637 103.059 227.904V227.897Z" fill="#6C63FF"/>
<path opacity="0.1" d="M85.3497 219.416C86.6397 219.447 90.4486 217.202 90.4486 217.202C90.4486 217.202 86.7542 214.767 85.4642 214.737C84.1742 214.729 83.1208 215.775 83.1132 217.073C83.0979 218.332 84.0902 219.37 85.3497 219.416Z" fill="#6C63FF"/>
<path opacity="0.1" d="M90.899 229.026C92.1432 228.667 95.0972 225.385 95.0972 225.385C95.0972 225.385 90.8456 224.171 89.609 224.53C88.3725 224.919 87.6855 226.232 88.0748 227.461C88.4488 228.66 89.693 229.347 90.899 229.026Z" fill="#6C63FF"/>
<path opacity="0.1" d="M97.5855 237.629C98.8755 237.484 102.341 234.751 102.341 234.751C102.341 234.751 98.3641 232.835 97.0741 232.98C95.7841 233.049 94.7994 234.156 94.8681 235.446C94.9368 236.736 96.0436 237.721 97.3336 237.652C97.41 237.652 97.5016 237.644 97.5855 237.629Z" fill="#6C63FF"/>
</g>
<path opacity="0.1" d="M222.463 304.283C228.814 307.046 236.554 305.366 243.759 305.557C244.744 305.58 245.79 305.664 246.576 306.145C247.362 306.626 247.759 307.397 248.301 308.061C250.316 310.527 254.453 311.313 258.072 310.901C261.69 310.481 265.002 309.099 268.414 308.046C274.307 306.221 281.047 305.389 286.864 307.382C287.398 307.565 287.97 307.771 288.528 307.702C289.802 307.542 290.184 306.221 291.077 305.466C292.688 304.099 296.184 304.473 296.893 302.672C297.306 301.619 296.352 300.542 295.313 299.825C291.337 297.077 285.65 296.619 280.452 297.046C275.246 297.474 270.139 298.642 264.911 298.642C258.392 298.642 252.102 296.848 245.652 296.107C241.187 295.596 236.31 295.665 232.119 297.161C227.562 298.779 226.562 302.428 222.463 304.283Z" fill="#6C63FF"/>
<path opacity="0.1" d="M102.341 295.817C113.172 298.939 126.393 297.039 138.69 297.26C140.369 297.291 142.155 297.382 143.506 297.924C144.857 298.466 145.522 299.336 146.445 300.084C149.888 302.87 156.948 303.764 163.116 303.29C169.283 302.817 174.947 301.252 180.771 300.061C190.832 298 202.342 297.069 212.265 299.313C213.174 299.519 214.135 299.756 215.112 299.672C217.288 299.489 217.937 297.993 219.456 297.146C222.204 295.596 228.173 296.023 229.379 293.993C230.089 292.802 228.463 291.581 226.684 290.772C219.898 287.665 210.197 287.154 201.312 287.634C192.427 288.115 183.702 289.436 174.779 289.444C163.658 289.444 152.91 287.413 141.903 286.581C134.278 286.009 125.95 286.077 118.798 287.772C111.05 289.604 109.341 293.718 102.341 295.817Z" fill="#6C63FF"/>
<path opacity="0.1" d="M73.343 303.458C76.4421 305.321 80.1975 304.191 83.7011 304.321C84.182 304.336 84.6858 304.397 85.0751 304.717C85.4644 305.038 85.6476 305.565 85.9147 306.008C86.8994 307.672 88.9069 308.206 90.6625 307.923C92.4181 307.641 94.0364 306.71 95.6927 306C98.5704 304.771 101.845 304.214 104.669 305.557C104.914 305.71 105.196 305.786 105.486 305.779C106.104 305.672 106.287 304.779 106.723 304.267C107.509 303.351 109.211 303.603 109.547 302.389C109.745 301.679 109.287 300.954 108.776 300.466C106.845 298.611 104.074 298.306 101.547 298.588C99.0131 298.87 96.5324 299.649 93.9829 299.649C90.8152 299.649 87.7543 298.443 84.6095 297.939C82.434 297.596 80.0601 297.641 78.0221 298.649C75.8238 299.748 75.3353 302.206 73.343 303.458Z" fill="#6C63FF"/>
<path d="M217.761 133.893H115.043C109.844 133.885 105.631 138.091 105.623 143.282V285.612C105.631 290.802 109.852 295.008 115.043 295H217.761C222.959 295.008 227.173 290.802 227.18 285.612V143.282C227.18 138.091 222.959 133.885 217.761 133.893Z" fill="url(#paint0_linear)"/>
<path d="M111.485 135.824H221.303C223.745 135.824 225.722 137.801 225.722 140.243V289.138C225.722 291.581 223.745 293.558 221.303 293.558H111.485C109.043 293.558 107.066 291.581 107.066 289.138V140.243C107.066 137.801 109.043 135.824 111.485 135.824Z" fill="#535461"/>
<path d="M219.7 150.739H113.096V278.635H219.7V150.739Z" fill="#F6F7F9"/>
<path d="M165.917 144.503C166.718 144.503 167.367 143.854 167.367 143.053C167.367 142.252 166.718 141.603 165.917 141.603C165.116 141.603 164.467 142.252 164.467 143.053C164.467 143.854 165.116 144.503 165.917 144.503Z" fill="#F6F7F9"/>
<path d="M165.917 290.184C168.316 290.184 170.26 288.24 170.26 285.841C170.26 283.442 168.316 281.498 165.917 281.498C163.519 281.498 161.574 283.442 161.574 285.841C161.574 288.24 163.519 290.184 165.917 290.184Z" fill="#F6F7F9"/>
<g opacity="0.2">
<path opacity="0.2" d="M219.7 150.739H113.096V157.113H219.7V150.739Z" fill="#6C63FF"/>
</g>
<path d="M116.432 155.289C117.182 155.289 117.79 154.68 117.79 153.93C117.79 153.18 117.182 152.571 116.432 152.571C115.681 152.571 115.073 153.18 115.073 153.93C115.073 154.68 115.681 155.289 116.432 155.289Z" fill="#F6F7F9"/>
<path d="M119.897 155.289C120.648 155.289 121.256 154.68 121.256 153.93C121.256 153.18 120.648 152.571 119.897 152.571C119.147 152.571 118.539 153.18 118.539 153.93C118.539 154.68 119.147 155.289 119.897 155.289Z" fill="#F6F7F9"/>
<path d="M123.355 155.289C124.105 155.289 124.714 154.68 124.714 153.93C124.714 153.18 124.105 152.571 123.355 152.571C122.605 152.571 121.996 153.18 121.996 153.93C121.996 154.68 122.605 155.289 123.355 155.289Z" fill="#F6F7F9"/>
<path d="M215.547 188.341H116.279V188.669H215.547V188.341Z" fill="#DCE0ED"/>
<path d="M215.547 196.035H116.279V196.363H215.547V196.035Z" fill="#DCE0ED"/>
<path d="M215.547 203.745H116.279V204.073H215.547V203.745Z" fill="#DCE0ED"/>
<path d="M215.547 211.439H116.279V211.768H215.547V211.439Z" fill="#DCE0ED"/>
<path d="M215.547 219.141H116.279V219.469H215.547V219.141Z" fill="#DCE0ED"/>
<g opacity="0.2">
<path opacity="0.2" d="M215.548 219.477H116.157V204.332L125.271 208.821L134.705 210.103L142.987 207.607L152.971 199.859L157.994 196.959L161.666 196.249L165.177 196.44L170.955 199.294L178.809 204.302L184.977 205.088L189.862 203.401L200.22 194.921L205.51 193.035L211.044 193.89L215.548 196.493V219.477Z" fill="#6C63FF"/>
</g>
<path d="M133.484 210.096C124.53 210.096 116.264 204.623 116.157 204.554L116.401 204.188C116.531 204.271 129.263 212.699 140.079 208.477C144.025 206.928 146.834 204.546 149.552 202.233C152.391 199.814 155.063 197.539 158.719 196.547C162.91 195.409 167.482 196.44 170.963 199.295C173.94 201.737 179.855 205.661 186.114 204.485C189.305 203.89 191.992 201.562 194.831 199.096C200.289 194.371 205.93 189.478 215.685 196.493L215.425 196.852C205.953 190.043 200.442 194.814 195.121 199.432C192.228 201.936 189.496 204.294 186.191 204.92C179.756 206.126 173.711 202.127 170.68 199.63C167.314 196.867 162.887 195.875 158.834 196.966C155.277 197.928 152.643 200.18 149.834 202.562C147.094 204.897 144.254 207.317 140.239 208.882C138.079 209.706 135.789 210.119 133.484 210.096Z" fill="#6C63FF"/>
<path d="M164.047 198.692C165.404 198.692 166.505 197.591 166.505 196.234C166.505 194.876 165.404 193.776 164.047 193.776C162.69 193.776 161.589 194.876 161.589 196.234C161.589 197.591 162.69 198.692 164.047 198.692Z" fill="#6C63FF"/>
<g opacity="0.2">
<path opacity="0.2" d="M196.144 163.67H165.1C164.826 163.67 164.597 163.899 164.597 164.174V185.165C164.597 185.44 164.826 185.669 165.1 185.669C165.238 185.669 165.375 185.608 165.467 185.509L170.848 179.768C170.94 179.669 171.077 179.608 171.215 179.608H196.144C196.419 179.608 196.648 179.379 196.648 179.104V164.166C196.648 163.891 196.419 163.67 196.144 163.67Z" fill="#6C63FF"/>
</g>
<path d="M189.465 167.556H171.787V169.769H189.465V167.556Z" fill="#F6F7F9"/>
<path d="M176.642 172.456H171.787V174.67H176.642V172.456Z" fill="#F6F7F9"/>
<g opacity="0.2">
<path opacity="0.2" d="M129.515 235.293H124.66V237.507H129.515V235.293Z" fill="#6C63FF"/>
</g>
<g opacity="0.2">
<path opacity="0.2" d="M129.515 239.568H124.66V241.782H129.515V239.568Z" fill="#6C63FF"/>
</g>
<g opacity="0.2">
<path opacity="0.2" d="M129.515 243.842H124.66V246.056H129.515V243.842Z" fill="#6C63FF"/>
</g>
<g opacity="0.2">
<path opacity="0.2" d="M129.515 248.117H124.66V250.331H129.515V248.117Z" fill="#6C63FF"/>
</g>
<g opacity="0.2">
<path opacity="0.2" d="M129.515 252.392H124.66V254.605H129.515V252.392Z" fill="#6C63FF"/>
</g>
<g opacity="0.2">
<path opacity="0.2" d="M129.515 256.667H124.66V258.88H129.515V256.667Z" fill="#6C63FF"/>
</g>
<g opacity="0.2">
<path opacity="0.2" d="M129.515 260.941H124.66V263.155H129.515V260.941Z" fill="#6C63FF"/>
</g>
<g opacity="0.2">
<path opacity="0.2" d="M129.515 265.216H124.66V267.429H129.515V265.216Z" fill="#6C63FF"/>
</g>
<g opacity="0.2">
<path opacity="0.2" d="M138.652 267.429H133.797V269.643H138.652V267.429Z" fill="#6C63FF"/>
</g>
<g opacity="0.2">
<path opacity="0.2" d="M147.201 267.429H142.346V269.643H147.201V267.429Z" fill="#6C63FF"/>
</g>
<g opacity="0.2">
<path opacity="0.2" d="M155.75 267.429H150.895V269.643H155.75V267.429Z" fill="#6C63FF"/>
</g>
<g opacity="0.2">
<path opacity="0.2" d="M164.299 267.429H159.444V269.643H164.299V267.429Z" fill="#6C63FF"/>
</g>
<g opacity="0.2">
<path opacity="0.2" d="M172.848 267.429H167.993V269.643H172.848V267.429Z" fill="#6C63FF"/>
</g>
<g opacity="0.2">
<path opacity="0.2" d="M181.397 267.429H176.542V269.643H181.397V267.429Z" fill="#6C63FF"/>
</g>
<g opacity="0.2">
<path opacity="0.2" d="M189.946 267.429H185.092V269.643H189.946V267.429Z" fill="#6C63FF"/>
</g>
<g opacity="0.2">
<path opacity="0.2" d="M198.495 267.429H193.641V269.643H198.495V267.429Z" fill="#6C63FF"/>
</g>
<g opacity="0.2">
<path opacity="0.2" d="M207.044 267.429H202.19V269.643H207.044V267.429Z" fill="#6C63FF"/>
</g>
<path d="M189.458 172.456H182.092V174.67H189.458V172.456Z" fill="#F6F7F9"/>
<path d="M138.652 251.361H133.797V265.216H138.652V251.361Z" fill="#6C63FF"/>
<path d="M147.201 244.949H142.346V265.216H147.201V244.949Z" fill="#6C63FF"/>
<path d="M155.75 239.568H150.895V265.216H155.75V239.568Z" fill="#6C63FF"/>
<path d="M164.299 242.354H159.444V265.208H164.299V242.354Z" fill="#6C63FF"/>
<path d="M172.848 237.507H167.993V265.216H172.848V237.507Z" fill="#6C63FF"/>
<g opacity="0.2">
<path opacity="0.2" d="M181.397 248.117H176.542V265.216H181.397V248.117Z" fill="#6C63FF"/>
</g>
<g opacity="0.2">
<path opacity="0.2" d="M189.946 248.117H185.092V265.216H189.946V248.117Z" fill="#6C63FF"/>
</g>
<g opacity="0.2">
<path opacity="0.2" d="M198.495 248.117H193.641V265.216H198.495V248.117Z" fill="#6C63FF"/>
</g>
<g opacity="0.2">
<path opacity="0.2" d="M207.044 248.117H202.19V265.216H207.044V248.117Z" fill="#6C63FF"/>
</g>
<path d="M282.765 186.25C277.513 183.227 275.521 182.479 275.513 182.471L275.406 182.395C274.834 181.952 274.376 181.38 274.078 180.723C274.078 180.601 274.078 180.479 274.078 180.364V180.402C274.162 178.799 275.3 177.342 276.383 176.074L279.147 172.823C279.46 172.502 279.704 172.12 279.857 171.693C279.91 171.464 279.94 171.235 279.933 170.998C279.933 170.907 279.933 170.807 279.933 170.716C279.918 169.907 279.895 169.098 279.864 168.281C279.841 167.579 279.658 166.685 278.948 166.54C278.582 166.464 278.093 166.601 277.902 166.281C277.834 166.151 277.818 166.006 277.857 165.861C277.857 165.869 277.857 165.884 277.857 165.892V165.853C277.994 165.311 278.086 164.754 278.116 164.189C278.131 163.907 278.093 163.617 278.002 163.35C277.589 162.174 276.185 161.701 274.941 161.48C273.697 161.258 272.3 161.067 271.521 160.098C271.277 159.8 271.117 159.434 270.842 159.159C270.483 158.838 270.04 158.625 269.567 158.533C268.025 158.151 266.399 158.296 264.941 158.938C264.338 159.205 263.735 159.571 263.079 159.525C262.423 159.48 261.804 159.014 261.133 158.892C260.041 158.709 258.995 159.51 258.461 160.457C258.14 161.022 257.972 161.655 257.965 162.304C257.965 162.342 257.965 162.38 257.965 162.411C257.95 163.105 258.201 163.785 258.675 164.296C259.148 164.785 259.85 165.121 260.041 165.762C260.117 166.021 260.102 166.304 260.171 166.571C260.171 166.601 260.194 166.64 260.201 166.67L260.163 166.716C259.033 168.159 258.423 169.945 258.43 171.777C258.453 175.426 260.835 178.639 264.316 179.723C264.316 179.807 264.316 179.891 264.316 179.967C264.316 180.967 264.033 181.998 263.171 182.746L255.728 185.738C255.728 185.738 251.24 185.204 249.622 191.761C249.362 192.852 249.271 193.974 249.347 195.089C249.408 196.074 249.271 197.822 248.118 200.073C246.279 203.676 246.698 211.951 250.461 212.768C254.011 213.538 255.408 213.21 255.545 213.18V213.325C255.484 214.874 254.927 228.271 252.874 229.889C252.309 230.332 252.416 230.637 252.874 230.843C252.874 230.843 252.873 230.927 252.858 231.087C252.797 232.064 252.477 235.797 251.11 237.919C249.523 240.377 249.683 254.552 249.683 254.552L248.614 262.918C248.614 262.918 249.278 268.078 248.614 268.979C248.019 269.78 247.225 288.879 247.065 293.016H246.996C246.332 293.054 245.729 293.421 245.385 293.993C244.5 295.421 241.431 298.062 241.431 298.062C240.767 299.008 238.294 299.917 236.989 300.344C236.813 300.397 236.646 300.474 236.485 300.565C235.997 300.833 235.607 301.245 235.363 301.749C235.188 302.046 235.149 302.405 235.241 302.733C235.577 303.55 242.523 304.123 244.271 303.306C245.653 302.657 251.126 301.81 253.393 301.481C254.24 301.375 254.912 300.703 255.018 299.856C255.057 299.565 254.98 299.268 254.797 299.039C254.354 298.497 254.133 297.031 254.041 296.069C254.225 295.993 254.4 295.894 254.553 295.764C254.37 292.787 254.789 289.803 255.805 287.001C257.476 282.581 257.98 274.383 257.575 269.063C257.575 269.063 262.682 247.11 266.689 245.056C266.75 245.133 268.697 247.636 268.949 255.376C269.201 263.239 272.048 268.399 272.048 268.399C272.048 268.399 270.788 281.749 272.048 286.749L270.407 294.634C270.285 294.527 270.208 294.451 270.208 294.451C270.208 294.451 270.254 294.673 270.323 295.024L270.285 295.192L270.353 295.207C270.536 296.192 270.819 297.909 270.704 298.917C270.636 299.489 270.483 300.275 270.369 301.046C270.193 302.26 270.147 303.436 270.788 303.703C271.834 304.123 277.986 304.695 279.032 303.344C279.513 302.779 279.628 302 279.337 301.321C279.261 301.138 279.162 300.962 279.032 300.81C279.032 300.81 277.399 298.138 277.857 296.26C277.948 295.886 277.872 295.497 277.666 295.176C277.735 294.253 278.109 289.978 279.078 286.345C280.124 282.406 282.33 273.757 280.704 268.078C280.643 267.857 280.574 267.635 280.498 267.414C279.559 264.315 279.246 261.056 279.582 257.827C278.979 255.071 278.979 252.224 279.582 249.468C280.589 244.881 281.284 240.377 281.284 240.377C281.284 240.377 281.841 234.316 281.353 230.599L281.322 230.362L281.589 230.301C281.589 230.301 280.169 223.996 279.666 219.981C279.544 219.034 279.391 217.828 279.223 216.546C279.689 216.47 280.147 216.355 280.589 216.21C285.093 214.645 286.505 200.562 286.505 200.562V196.096C286.52 196.127 288.032 189.288 282.765 186.25ZM249.11 295.047C248.973 294.978 248.889 294.932 248.889 294.932L249.11 295.047Z" fill="url(#paint1_linear)"/>
<path d="M280.04 267.559C282.001 273.192 279.711 282.337 278.65 286.413C277.589 290.497 277.261 295.397 277.261 295.397C273.101 296.046 270.078 295.229 270.078 295.229L271.788 286.825C270.567 281.848 271.788 268.536 271.788 268.536C271.788 268.536 269.01 263.391 268.766 255.552C268.521 247.834 266.621 245.346 266.552 245.27C262.636 247.308 257.652 269.192 257.652 269.192C258.064 274.497 257.568 282.665 255.942 287.069C254.95 289.871 254.537 292.84 254.721 295.802C254.148 296.283 253.354 296.367 252.499 296.229C250.179 295.84 247.385 293.832 247.385 293.832C247.385 293.832 248.271 269.994 248.935 269.093C249.599 268.192 248.935 263.048 248.935 263.048L249.996 254.72C249.996 254.72 249.835 240.59 251.385 238.14C252.728 236.026 253.034 232.308 253.095 231.331C253.095 231.179 253.11 231.087 253.11 231.087L255.469 228.255C255.469 228.255 278.33 226.545 280.04 228.255C280.459 228.675 280.719 229.629 280.872 230.835C281.345 234.537 280.803 240.575 280.803 240.575C280.803 240.575 280.116 245.064 279.139 249.643C278.551 252.384 278.551 255.223 279.139 257.971C278.818 261.216 279.124 264.467 280.04 267.559Z" fill="#65617D"/>
<path d="M278.612 303.359C277.589 304.702 271.59 304.13 270.567 303.718C269.941 303.458 269.995 302.29 270.162 301.076C270.269 300.305 270.422 299.527 270.491 298.954C270.651 297.481 270.002 294.504 270.002 294.504C270.002 294.504 271.353 295.932 271.674 294.504C271.819 293.878 272.323 293.558 272.842 293.397C273.544 293.184 274.292 293.237 274.964 293.527C276.025 293.985 277.796 294.97 277.475 296.298C277.032 298.176 278.62 300.832 278.62 300.832C278.742 300.985 278.841 301.16 278.918 301.344C279.192 302.023 279.078 302.794 278.612 303.359Z" fill="#A27772"/>
<path opacity="0.1" d="M278.612 303.359C277.59 304.702 271.59 304.13 270.567 303.718C269.941 303.458 269.995 302.29 270.163 301.077C270.804 301.374 271.903 301.626 273.727 301.458C274.155 301.42 274.582 301.405 275.01 301.42C276.307 301.481 277.613 301.451 278.903 301.344C279.193 302.016 279.078 302.794 278.612 303.359Z" fill="black"/>
<path opacity="0.1" d="M257.667 269.192C258.079 274.498 257.583 282.665 255.957 287.07C254.965 289.871 254.553 292.84 254.736 295.802C254.163 296.283 253.37 296.367 252.515 296.229C253.011 292.779 255.102 277.948 256.461 266.231C257.98 252.88 265.147 243.697 265.147 243.697L266.575 245.27C262.644 247.315 257.667 269.192 257.667 269.192Z" fill="black"/>
<path d="M276.162 183.394L275.162 188.295L270.277 196.501L264.254 193.928C264.254 193.928 256.072 185.356 261.216 184.135C261.835 184.005 262.415 183.746 262.926 183.371C263.934 182.608 264.254 181.501 264.254 180.417C264.254 178.631 263.422 176.906 263.422 176.906L273.956 173.593C273.521 174.975 273.269 176.41 273.2 177.86C273.124 180.738 274.185 182.143 275.063 182.814C275.376 183.074 275.757 183.272 276.162 183.394Z" fill="#FBBEBE"/>
<path opacity="0.1" d="M273.956 173.593C273.521 174.975 273.269 176.41 273.201 177.86C273.01 178.089 272.804 178.303 272.59 178.509C270.376 180.624 267.178 181.356 264.262 180.41C264.262 178.624 263.43 176.898 263.43 176.898L273.956 173.593Z" fill="black"/>
<path d="M275.162 172.25C275.162 176.845 271.43 180.578 266.835 180.578C262.239 180.578 258.507 176.845 258.507 172.25C258.507 167.655 262.239 163.922 266.835 163.922H266.842C271.422 163.907 275.147 167.609 275.162 172.189C275.162 172.204 275.162 172.227 275.162 172.25Z" fill="#FBBEBE"/>
<path opacity="0.1" d="M276.162 183.395L275.162 188.295L270.277 196.501L264.254 193.929C264.254 193.929 256.072 185.357 261.216 184.135C261.835 184.005 262.415 183.746 262.926 183.372C261.995 185.929 265.834 191.234 265.834 191.234C266.277 191.898 267.308 191.478 267.308 191.478C269.773 191.104 274.322 184.005 275.063 182.822C275.383 183.082 275.757 183.273 276.162 183.395Z" fill="black"/>
<path opacity="0.1" d="M280.872 230.881C279.421 231.21 271.399 232.988 268.361 232.545C265.018 232.057 258.507 231.729 258.507 231.729C258.507 231.729 254.362 231.95 253.087 231.37C253.087 231.217 253.102 231.126 253.102 231.126L255.461 228.294C255.461 228.294 278.322 226.584 280.032 228.294C280.459 228.713 280.719 229.668 280.872 230.881Z" fill="black"/>
<path d="M265.834 191.471C265.834 191.471 261.529 185.502 263.148 183.181L255.873 186.166C255.873 186.166 251.492 185.631 249.904 192.173C249.652 193.257 249.561 194.379 249.629 195.486C249.69 196.471 249.553 198.211 248.431 200.455C246.637 204.05 247.042 212.294 250.713 213.111C254.385 213.928 255.69 213.516 255.69 213.516C255.69 213.516 255.202 228.454 253.08 230.171C250.958 231.881 258.491 231.477 258.491 231.477C258.491 231.477 265.002 231.805 268.346 232.294C271.697 232.782 281.078 230.584 281.078 230.584C281.078 230.584 279.689 224.294 279.2 220.294C278.711 216.294 277.567 207.775 277.567 207.775L285.894 196.501C285.894 196.501 287.36 189.685 282.223 186.662C277.078 183.639 275.147 182.906 275.147 182.906C275.147 182.906 269.987 191.31 267.292 191.723C267.3 191.715 266.277 192.127 265.834 191.471Z" fill="#7C7CDD"/>
<path opacity="0.1" d="M256.278 193.837C256.278 193.837 256.194 196.531 256.683 197.592C257.171 198.654 258.965 204.531 258.965 204.531H254.881C254.881 204.531 257.095 202.165 256.919 201.02C256.766 199.882 256.278 193.837 256.278 193.837Z" fill="black"/>
<path d="M268.361 214.172C268.361 214.172 259.346 211.958 258.507 210.088C257.667 208.218 255.347 204.012 255.347 204.012L256.301 202.729L260.69 206.172C260.69 206.172 265.911 210.332 268.361 210.744C270.811 211.149 268.361 214.172 268.361 214.172Z" fill="#FBBEBE"/>
<path opacity="0.05" d="M268.361 214.172C268.361 214.172 259.346 211.958 258.507 210.088C257.667 208.218 255.347 204.012 255.347 204.012L256.301 202.729L260.69 206.172C260.69 206.172 265.911 210.332 268.361 210.744C270.811 211.149 268.361 214.172 268.361 214.172Z" fill="black"/>
<path d="M276.162 203.554V208.447H275.376C271.491 208.447 267.674 209.439 264.277 211.325L262.804 212.142L262.407 212.363L259.873 206.661L262.239 204.539H262.361C262.942 204.592 265.445 204.806 266.506 204.447C267.514 204.104 268.766 203.02 271.735 203.783C273.2 204.157 274.445 205.798 275.864 205.287L276.162 203.554Z" fill="#FBBEBE"/>
<path opacity="0.1" d="M284.039 194.661L285.673 196.493V200.944C285.673 200.944 284.284 214.989 279.879 216.538C275.467 218.088 267.605 215.638 267.605 215.638C267.605 215.638 265.575 210.249 266.521 209.928C267.476 209.6 274.926 207.63 274.926 207.63C274.926 207.63 274.819 199.394 276.452 196.944C276.452 196.944 275.391 189.272 279.063 189.104C282.727 188.944 284.039 194.661 284.039 194.661Z" fill="black"/>
<path d="M284.284 194.661L285.917 196.493V200.944C285.917 200.944 284.536 214.989 280.108 216.538C275.689 218.088 267.827 215.638 267.827 215.638C267.827 215.638 265.796 210.249 266.743 209.928C267.697 209.6 275.147 207.63 275.147 207.63C275.147 207.63 275.04 199.394 276.674 196.944C276.674 196.944 275.613 189.272 279.284 189.104C282.963 188.944 284.284 194.661 284.284 194.661Z" fill="#7C7CDD"/>
<path opacity="0.1" d="M272.88 175.784C272.91 175.25 272.926 174.677 272.697 174.196C272.468 173.716 271.926 173.326 271.399 173.448C270.697 173.609 270.399 174.517 269.712 174.738C269.132 174.922 268.506 174.517 268.231 173.975C267.957 173.433 267.949 172.8 267.949 172.204C267.949 171.525 267.949 170.838 267.949 170.158C267.949 169.418 267.926 168.609 267.468 168.029C266.903 167.304 265.56 166.983 264.667 167.014C264.071 167.021 263.499 167.25 263.071 167.662C262.59 168.067 262.041 168.365 261.392 168.258C260.842 168.174 260.384 167.777 260.217 167.243V167.22C262.995 163.556 268.216 162.831 271.88 165.609C275.544 168.388 276.269 173.609 273.491 177.273C273.216 177.631 272.918 177.967 272.59 178.28C272.735 177.456 272.826 176.624 272.88 175.784Z" fill="black"/>
<path d="M261.377 168.014C260.827 167.93 260.369 167.533 260.201 166.998C260.133 166.739 260.148 166.457 260.072 166.189C259.881 165.548 259.186 165.212 258.743 164.731C257.827 163.754 257.881 162.151 258.537 160.976C259.064 160.029 260.087 159.228 261.148 159.419C261.812 159.533 262.377 160.006 263.048 160.045C263.72 160.09 264.277 159.724 264.865 159.457C266.277 158.816 267.873 158.678 269.376 159.06C269.842 159.151 270.269 159.373 270.621 159.686C270.857 159.983 271.078 160.296 271.285 160.617C272.048 161.586 273.407 161.777 274.62 161.999C275.834 162.22 277.208 162.701 277.605 163.861C277.864 164.632 277.605 165.472 277.46 166.281C277.406 166.441 277.422 166.624 277.49 166.777C277.681 167.09 278.154 166.96 278.513 167.037C279.2 167.182 279.383 168.067 279.399 168.769C279.429 169.571 279.452 170.38 279.467 171.182C279.551 171.937 279.261 172.693 278.696 173.197L276.002 176.433C274.803 177.868 273.536 179.548 273.781 181.395C273.216 181.647 272.544 181.158 272.353 180.563C272.17 179.967 272.315 179.334 272.445 178.723C272.666 177.67 272.804 176.609 272.872 175.532C272.903 174.991 272.918 174.426 272.689 173.945C272.46 173.464 271.918 173.059 271.391 173.197C270.689 173.357 270.392 174.265 269.705 174.487C269.132 174.67 268.499 174.265 268.224 173.723C267.949 173.181 267.941 172.548 267.941 171.952V169.907C267.941 169.166 267.918 168.357 267.46 167.777C266.896 167.052 265.552 166.731 264.659 166.762C264.064 166.769 263.491 166.998 263.064 167.411C262.583 167.815 262.033 168.113 261.377 168.014Z" fill="#7C5C5C"/>
<path opacity="0.1" d="M263.262 193.638L265.819 204.142C265.819 204.142 267.834 204.126 263.262 193.638Z" fill="black"/>
<path opacity="0.1" d="M271.994 191.883C271.994 191.883 268.643 197.364 269.956 203.035L270.582 203.081C270.582 203.081 269.468 200.455 271.994 191.883Z" fill="black"/>
<path opacity="0.1" d="M274.116 222.904C274.116 222.904 278.223 221.546 278.528 224.698C278.528 224.698 277.75 222.538 274.116 222.904Z" fill="black"/>
<path opacity="0.1" d="M262.239 204.79C262.239 204.79 261.423 210.508 262.904 212.79C262.904 212.79 259.911 214.011 255.721 213.767L255.225 204.783H262.239V204.79Z" fill="black"/>
<path opacity="0.1" d="M262.797 212.141L262.4 212.363L259.865 206.661L262.232 204.539H262.354C262.323 204.813 261.667 209.722 262.797 212.141Z" fill="black"/>
<path d="M262.239 204.539C262.239 204.539 261.422 210.248 262.903 212.538C262.903 212.538 259.911 213.76 255.721 213.515L252.866 204.539H262.239Z" fill="#7C7CDD"/>
<path d="M255.179 299.886C255.079 300.726 254.431 301.39 253.591 301.504C251.377 301.832 246.034 302.68 244.683 303.321C242.973 304.138 236.195 303.565 235.867 302.748C235.775 302.42 235.813 302.069 235.981 301.764C236.218 301.268 236.607 300.855 237.088 300.588C237.241 300.497 237.409 300.428 237.577 300.367C238.851 299.939 241.263 299.039 241.912 298.092C241.912 298.092 244.92 295.466 245.775 294.039C246.103 293.474 246.691 293.108 247.347 293.062C248.065 293.031 248.858 293.39 249.187 294.955C249.187 294.955 253.102 297.191 254.163 295.23C254.163 295.23 254.324 298.237 254.98 299.062C255.156 299.298 255.224 299.596 255.179 299.886Z" fill="#A27772"/>
<path opacity="0.1" d="M255.179 299.886C255.079 300.726 254.431 301.39 253.591 301.504C251.377 301.833 246.034 302.68 244.683 303.321C242.973 304.138 236.195 303.565 235.867 302.749C235.775 302.42 235.813 302.069 235.981 301.764C236.218 301.268 236.607 300.856 237.088 300.588C238.195 301.321 240.645 302.039 246.042 301.199C251.186 300.398 253.736 299.611 254.973 299.069C255.148 299.306 255.224 299.596 255.179 299.886Z" fill="black"/>
<g opacity="0.1">
<path opacity="0.1" d="M277.46 166.387V166.349C277.574 165.738 277.75 165.105 277.712 164.494C277.658 164.998 277.574 165.494 277.46 165.983C277.429 166.112 277.429 166.25 277.46 166.387Z" fill="black"/>
<path opacity="0.1" d="M272.689 174.028C272.819 174.326 272.888 174.639 272.888 174.96C272.926 174.517 272.857 174.074 272.689 173.662C272.468 173.173 271.918 172.792 271.399 172.914C270.697 173.074 270.399 173.983 269.712 174.204C269.132 174.387 268.506 173.983 268.231 173.441C267.957 172.899 267.949 172.265 267.949 171.67C267.949 170.983 267.949 170.303 267.949 169.624C267.949 168.884 267.926 168.074 267.468 167.494C266.903 166.769 265.56 166.448 264.667 166.479C264.071 166.487 263.499 166.716 263.071 167.128C262.59 167.532 262.041 167.83 261.392 167.723C260.842 167.639 260.385 167.242 260.217 166.708C260.148 166.448 260.163 166.166 260.087 165.899C259.896 165.258 259.201 164.922 258.759 164.441C258.331 163.968 258.087 163.357 258.072 162.716C258.003 163.479 258.255 164.235 258.759 164.807C259.217 165.296 259.904 165.632 260.087 166.273C260.163 166.532 260.148 166.815 260.217 167.074C260.377 167.609 260.835 168.006 261.392 168.09C262.056 168.197 262.598 167.899 263.071 167.494C263.506 167.09 264.071 166.853 264.667 166.845C265.552 166.815 266.896 167.135 267.468 167.861C267.926 168.441 267.949 169.25 267.949 169.99C267.949 170.677 267.949 171.357 267.949 172.036C267.949 172.639 267.949 173.273 268.231 173.807C268.514 174.341 269.14 174.753 269.712 174.57C270.399 174.349 270.697 173.441 271.399 173.28C271.933 173.158 272.46 173.54 272.689 174.028Z" fill="black"/>
<path opacity="0.1" d="M279.398 171.776C279.246 172.196 279.009 172.578 278.704 172.898C277.803 173.982 276.91 175.059 276.009 176.135C274.872 177.501 273.674 179.081 273.758 180.814C273.842 179.219 274.948 177.769 276.009 176.501L278.704 173.265C279.009 172.944 279.246 172.563 279.398 172.143C279.467 171.853 279.49 171.555 279.467 171.257C279.467 171.441 279.444 171.608 279.398 171.776Z" fill="black"/>
<path opacity="0.1" d="M272.369 180.28C272.323 180.135 272.3 179.99 272.292 179.837C272.269 180.105 272.3 180.379 272.369 180.639C272.552 181.234 273.231 181.723 273.796 181.463C273.781 181.341 273.773 181.227 273.765 181.105C273.201 181.341 272.544 180.86 272.369 180.28Z" fill="black"/>
</g>
<path opacity="0.1" d="M245.233 294.779C245.233 294.779 246.088 296.283 249.179 294.955L245.233 294.779Z" fill="black"/>
<path opacity="0.1" d="M271.376 295.146C271.376 295.146 274.04 298.283 277.406 296.176L271.376 295.146Z" fill="black"/>
<path opacity="0.1" d="M279.139 258.01C279.139 258.01 277.254 259.185 277.193 259.865C277.131 260.536 278.162 259.376 278.162 259.376L279.139 258.01Z" fill="black"/>
<path opacity="0.1" d="M279.887 267.032C279.231 267.574 278.414 267.895 277.567 267.941C276.154 268.002 276.277 269.841 277.192 269.284C278.116 268.734 279.887 267.032 279.887 267.032Z" fill="black"/>
<path opacity="0.1" d="M280.238 268.215C280.238 268.215 279.338 272.658 278.597 271.803L280.238 268.215Z" fill="black"/>
<path d="M94.2348 288.886C94.2348 288.886 95.4484 290.474 93.6699 292.863C91.8914 295.252 90.4335 297.283 91.0136 298.779C91.0136 298.779 93.6928 294.329 95.8759 294.268C98.0742 294.207 96.6315 291.566 94.2348 288.886Z" fill="#6C63FF"/>
<path opacity="0.1" d="M94.2348 288.886C94.3417 289.039 94.4256 289.207 94.4791 289.382C96.6087 291.878 97.7384 294.214 95.6927 294.275C93.7921 294.329 91.4945 297.733 90.9602 298.596C90.9755 298.664 90.9984 298.726 91.0213 298.787C91.0213 298.787 93.7005 294.336 95.8836 294.275C98.0819 294.214 96.6316 291.566 94.2348 288.886Z" fill="black"/>
<path d="M96.4941 290.909C96.4941 291.467 96.433 291.925 96.3567 291.925C96.2804 291.925 96.2117 291.474 96.2117 290.909C96.2117 290.352 96.288 290.612 96.372 290.612C96.4483 290.619 96.4941 290.352 96.4941 290.909Z" fill="#FFD037"/>
<path d="M97.2728 291.581C96.7843 291.848 96.3568 292.009 96.3186 291.947C96.2805 291.879 96.6469 291.604 97.143 291.337C97.6392 291.07 97.4407 291.26 97.4789 291.337C97.5094 291.406 97.7613 291.306 97.2728 291.581Z" fill="#FFD037"/>
<path d="M87.8231 288.886C87.8231 288.886 86.6094 290.474 88.3879 292.863C90.1664 295.252 91.6244 297.283 91.0442 298.779C91.0442 298.779 88.365 294.329 86.1819 294.268C83.9836 294.207 85.4263 291.566 87.8231 288.886Z" fill="#6C63FF"/>
<path opacity="0.1" d="M87.823 288.886C87.7161 289.039 87.6321 289.207 87.5787 289.382C85.4491 291.878 84.3194 294.214 86.3651 294.275C88.2733 294.329 90.5633 297.733 91.0976 298.596C91.0823 298.664 91.0594 298.726 91.0365 298.787C91.0365 298.787 88.3573 294.336 86.1742 294.275C83.9759 294.214 85.4262 291.566 87.823 288.886Z" fill="black"/>
<path d="M85.5635 290.909C85.5635 291.467 85.6245 291.925 85.7009 291.925C85.7772 291.925 85.8459 291.474 85.8459 290.909C85.8459 290.352 85.7696 290.612 85.6856 290.612C85.6093 290.619 85.5635 290.352 85.5635 290.909Z" fill="#FFD037"/>
<path d="M84.7925 291.581C85.2811 291.848 85.7085 292.009 85.7467 291.947C85.7848 291.879 85.4185 291.604 84.9223 291.337C84.4262 291.07 84.6246 291.26 84.5865 291.337C84.5483 291.406 84.2964 291.306 84.7925 291.581Z" fill="#FFD037"/>
<path d="M85.9529 298.58C85.9529 298.58 89.3496 298.474 90.3724 297.748C91.3953 297.023 95.5935 296.153 95.8454 297.321C96.0973 298.489 100.952 303.13 97.1125 303.168C93.2807 303.199 88.2046 302.573 87.1818 301.947C86.1666 301.321 85.9529 298.58 85.9529 298.58Z" fill="#A8A8A8"/>
<path opacity="0.2" d="M97.1812 302.756C93.3494 302.786 88.2734 302.16 87.2506 301.534C86.472 301.061 86.159 299.359 86.0598 298.573H85.9453C85.9453 298.573 86.1667 301.313 87.1819 301.931C88.1971 302.55 93.2807 303.183 97.1125 303.153C98.2193 303.153 98.601 302.748 98.5781 302.168C98.4331 302.527 98.0056 302.748 97.1812 302.756Z" fill="black"/>
</g>
<defs>
<linearGradient id="paint0_linear" x1="166.402" y1="294.998" x2="166.402" y2="133.891" gradientUnits="userSpaceOnUse">
<stop stop-color="#808080" stop-opacity="0.25"/>
<stop offset="0.54" stop-color="#808080" stop-opacity="0.12"/>
<stop offset="1" stop-color="#808080" stop-opacity="0.1"/>
</linearGradient>
<linearGradient id="paint1_linear" x1="260.969" y1="304.22" x2="260.969" y2="158.333" gradientUnits="userSpaceOnUse">
<stop stop-color="#808080" stop-opacity="0.25"/>
<stop offset="0.54" stop-color="#808080" stop-opacity="0.12"/>
<stop offset="1" stop-color="#808080" stop-opacity="0.1"/>
</linearGradient>
<clipPath id="clip0">
<rect x="64" y="126" width="239" height="185" fill="white"/>
</clipPath>
</defs>
</svg>
