<svg width="367" height="357" viewBox="0 0 367 357" fill="none" xmlns="http://www.w3.org/2000/svg">
<path d="M367 0H0V357H367V0Z" fill="#C7DAF1"/>
<path opacity="0.1" d="M83.357 241.317C82.3442 243.602 83.7973 246.071 83.2909 248.425C82.6524 251.403 79.0049 253.718 75.0712 255.196C71.1375 256.673 66.7487 257.573 62.9177 259.165C61.2591 259.85 59.5344 261.12 60.3931 262.289C60.694 262.697 61.2518 262.974 61.7948 263.243C72.9575 268.644 86.755 271.575 100.538 271.483C115.12 271.382 129.395 268.013 143.963 268.397C162.751 268.89 180.922 275.606 199.505 273.675C207.394 272.852 214.711 270.505 222.395 269.044C233.69 266.89 245.572 266.674 257.263 265.966C266.048 265.435 276.081 264.058 280.279 258.881C283.31 255.142 282.04 250.195 277.769 247.025C273.497 243.856 266.665 242.502 260.36 243.117C256.97 243.448 253.601 244.302 250.21 243.963C248.244 243.763 246.423 243.171 244.625 242.594C230.733 238.078 216.333 233.569 200.914 232.916C175.829 231.838 152.572 240.994 128.133 244.948C124.324 245.563 120.192 246.04 116.596 245.002C112.809 243.909 110.321 241.34 106.526 240.255C104.728 239.74 102.717 239.593 100.949 239.032C96.0829 237.485 98.3433 235.37 91.5914 236.801C88.0613 237.562 84.4945 238.77 83.357 241.317Z" fill="#6C63FF"/>
<path d="M86.1238 163.359C86.1238 163.359 99.3194 177.192 91.8776 197.726C84.4285 218.252 104.655 252.395 104.655 252.395C104.655 252.395 104.435 252.365 104.038 252.288C76.9206 247.272 63.4535 214.775 78.5279 190.64C84.1276 181.654 88.7292 171.122 86.1238 163.359Z" fill="#6C63FF"/>
<path opacity="0.1" d="M86.1238 163.359C86.1238 163.359 99.3194 177.192 91.8776 197.726C84.4285 218.252 104.655 252.395 104.655 252.395C104.655 252.395 104.435 252.365 104.038 252.288C76.9206 247.272 63.4535 214.775 78.5279 190.64C84.1276 181.654 88.7292 171.122 86.1238 163.359Z" fill="black"/>
<path d="M86.1238 163.359C86.1238 163.359 93.573 180.316 86.1238 194.156C78.6747 207.997 84.8468 246.818 104.64 252.395" stroke="#535461" stroke-miterlimit="10"/>
<path d="M62.6242 219.314C62.6242 219.314 77.6839 216.798 79.0563 230.947C80.4287 245.095 108.009 247.057 108.009 247.057C108.009 247.057 107.825 247.188 107.488 247.418C84.7147 263.09 62.9397 257.404 66.2203 236.594C67.4459 228.846 67.3432 221.084 62.6242 219.314Z" fill="#6C63FF"/>
<path opacity="0.2" d="M62.6242 219.314C62.6242 219.314 77.6839 216.798 79.0563 230.947C80.4287 245.095 108.009 247.057 108.009 247.057C108.009 247.057 107.825 247.188 107.488 247.418C84.7147 263.09 62.9397 257.404 66.2203 236.594C67.4459 228.846 67.3432 221.084 62.6242 219.314Z" fill="#F5F5F5"/>
<path d="M62.6242 219.314C62.6242 219.314 74.3153 222.007 73.3539 233.147C72.3924 244.287 90.7107 257.643 108.016 247.056" stroke="#535461" stroke-miterlimit="10"/>
<path d="M220.34 252.08H96.4499V170.953H112.295L118.812 179.393H220.34V252.08Z" fill="#6C63FF"/>
<path opacity="0.1" d="M220.34 252.08H96.4499V170.953H112.295L118.812 179.393H220.34V252.08Z" fill="black"/>
<path d="M175.263 137.282L119.505 158.421L150.897 249.415L206.656 228.276L175.263 137.282Z" fill="#F1F1F4"/>
<path d="M145.79 158.575L130.034 164.549L131.374 168.434L147.131 162.46L145.79 158.575Z" fill="white"/>
<path d="M171.231 161.285L136.567 174.261L137.782 177.826L172.445 164.85L171.231 161.285Z" fill="white"/>
<path d="M173.831 168.917L139.168 181.893L140.382 185.457L175.046 172.482L173.831 168.917Z" fill="white"/>
<path d="M176.422 176.543L141.759 189.519L142.973 193.083L177.637 180.108L176.422 176.543Z" fill="white"/>
<path d="M179.019 184.16L144.355 197.136L145.57 200.701L180.233 187.725L179.019 184.16Z" fill="white"/>
<path d="M181.617 191.784L146.954 204.759L148.168 208.324L182.832 195.349L181.617 191.784Z" fill="white"/>
<path d="M184.215 199.408L149.552 212.384L150.766 215.949L185.43 202.973L184.215 199.408Z" fill="white"/>
<path d="M190.958 212.062L181.987 215.42L185.19 224.825L194.162 221.466L190.958 212.062Z" fill="white"/>
<path d="M76.906 197.472L108.178 142.311L190.104 193.341L158.832 248.51L76.906 197.472Z" fill="url(#paint0_linear)"/>
<path d="M108.962 143.95L78.664 197.405L158.049 246.85L188.346 193.395L108.962 143.95Z" fill="#F1F1F4"/>
<path d="M99.0295 180.027L90.4673 195.134L93.8554 197.244L102.418 182.138L99.0295 180.027Z" fill="white"/>
<path d="M119.98 164.631L101.18 197.8L104.284 199.734L123.084 166.564L119.98 164.631Z" fill="white"/>
<path d="M126.618 168.773L107.818 201.942L110.922 203.875L129.723 170.706L126.618 168.773Z" fill="white"/>
<path d="M133.198 172.803L114.427 205.981L117.533 207.912L136.304 174.734L133.198 172.803Z" fill="white"/>
<path d="M139.895 177.041L121.095 210.21L124.199 212.144L142.999 178.974L139.895 177.041Z" fill="white"/>
<path d="M146.537 181.175L127.737 214.345L130.841 216.278L149.642 183.109L146.537 181.175Z" fill="white"/>
<path d="M153.175 185.309L134.374 218.478L137.479 220.411L156.279 187.242L153.175 185.309Z" fill="white"/>
<path d="M165.987 190.427L161.128 199.016L169.321 204.11L174.18 195.521L165.987 190.427Z" fill="white"/>
<path d="M286.95 143.518C286.95 143.395 286.935 143.28 286.913 143.172C286.891 143.064 286.869 142.934 286.854 142.788C286.81 142.534 286.759 142.295 286.7 142.057C286.671 141.941 286.641 141.826 286.612 141.71C286.275 140.41 285.665 139.195 284.836 138.164L284.697 137.995C284.601 137.887 284.506 137.779 284.418 137.687C284.33 137.594 284.234 137.502 284.146 137.418C284.058 137.333 283.97 137.256 283.882 137.179C283.713 137.033 283.552 136.91 283.412 136.817C283.273 136.725 283.214 136.679 283.133 136.625C282.928 136.502 282.708 136.425 282.473 136.402L281.012 136.256L279.038 136.056L271.912 133.171L271.633 133.278C271.428 132.678 271.251 132.071 271.105 131.447C271.318 131.347 271.516 131.201 271.67 131.017C271.839 130.878 271.971 130.701 272.059 130.501C272.242 130.07 271.897 129.147 271.963 128.624C272.073 127.778 272.499 126.962 272.844 126.193C273.578 124.546 274.114 122.762 274.026 120.954C273.938 119.146 273.145 117.315 271.685 116.299C270.929 115.776 270.026 115.499 269.248 115.022C268.631 114.653 268.096 114.168 267.509 113.745C264.58 111.714 260.852 111.437 257.682 113.014C256.199 113.776 254.937 114.914 253.535 115.822C252.133 116.73 250.489 117.438 248.853 117.168C248.831 117.238 248.816 117.307 248.801 117.376L248.662 117.361C248.383 118.161 249.073 118.953 249.711 119.5C250.915 120.538 252.287 121.577 253.865 121.608C254.474 121.623 255.12 121.492 255.671 121.746C255.788 121.808 255.906 121.877 256.008 121.961C255.296 124.946 256.25 128.101 258.474 130.109L254.834 128.747C254.834 128.747 254.68 128.832 254.445 128.986L249.388 125.477C249.388 125.477 239.253 121.631 236.435 127.593C233.617 133.555 248.64 130.478 248.64 130.478L251.854 132.317C251.744 133.009 251.869 133.717 252.207 134.325L260.962 139.964C259.193 140.533 256.28 141.449 255.759 141.449C255.01 141.449 252.941 142.218 251.627 145.296C250.313 148.373 245.624 163.383 241.492 165.891C237.36 168.391 226.469 185.132 226.469 185.132L226.52 185.263C226.329 185.317 226.138 185.378 225.948 185.44C223.225 186.363 221.39 188.309 220.289 189.887C219.709 190.733 219.893 191.91 220.7 192.518C220.957 192.71 221.251 192.826 221.559 192.864C225.859 193.433 228.208 191.379 229.331 189.81C229.404 189.71 229.47 189.61 229.536 189.51C229.874 189.656 230.248 189.679 230.593 189.556L235.848 185.132C235.848 185.132 231.738 189.348 234.145 193.195L233.962 193.464C229.896 199.503 226.909 206.266 225.148 213.428C225.148 213.428 222.894 215.167 222.711 222.091C222.528 229.015 220.274 240.178 220.274 240.178C220.274 240.178 218.77 253.457 219.709 257.496C219.709 257.496 219.819 257.658 220.018 257.904C219.944 257.989 219.871 258.089 219.783 258.181C218.961 259.104 217.486 260.374 215.761 259.997C213.134 259.42 213.134 264.228 216.891 264.613C219.313 264.859 224.061 265.99 227.136 266.759C228.289 267.067 229.463 266.336 229.756 265.128C229.815 264.874 229.837 264.613 229.815 264.359C229.632 262.636 229.294 260.551 228.685 259.058C228.648 258.966 228.612 258.873 228.568 258.789C228.678 258.681 228.788 258.573 228.898 258.45C228.898 258.45 228.898 249.98 230.211 247.672C230.211 247.672 233.778 230.162 233.595 225.73C233.448 222.261 242.849 208.782 246.937 203.081L246.901 202.865C247.95 201.411 248.611 200.519 248.611 200.519L251.803 221.491C251.803 221.491 253.337 226.107 255.208 228.608C255.208 228.608 263.281 244.579 264.221 249.58C264.933 253.373 266.4 255.619 267.061 256.481C266.98 256.565 266.899 256.642 266.826 256.727C265.975 257.543 264.712 258.366 263.274 258.05C260.654 257.473 260.654 262.282 264.411 262.666C266.833 262.913 271.582 264.043 274.657 264.813C275.809 265.121 276.983 264.39 277.277 263.182C277.336 262.928 277.358 262.666 277.336 262.412C277.123 260.412 276.704 257.92 275.897 256.458C275.831 256.335 275.758 256.219 275.684 256.112C275.971 255.988 276.227 255.804 276.433 255.565C276.433 255.565 271.545 243.433 271.545 240.155C271.545 240.155 269.475 227.646 262.533 223.038C262.533 223.038 263.193 207.397 265.167 198.688C265.219 198.472 265.263 198.265 265.314 198.057C267.09 197.765 268.918 197.38 270.789 196.872L270.973 191.102L271.919 195.718L282.422 188.979C282.422 188.979 282.326 187.763 282.15 185.901C282.062 184.971 281.952 183.878 281.82 182.693C281.717 181.747 281.592 180.739 281.467 179.716C281.431 179.462 281.401 179.2 281.365 178.939C281.225 177.9 281.078 176.854 280.91 175.823C280.851 175.438 280.785 175.054 280.719 174.677C280.631 174.184 280.543 173.684 280.455 173.2C280.411 172.961 280.359 172.723 280.315 172.492C280.271 172.261 280.22 172.03 280.168 171.807C280.117 171.584 280.073 171.361 280.022 171.153L279.948 170.838C279.897 170.63 279.846 170.422 279.794 170.23C279.574 169.407 279.449 168.56 279.413 167.706C279.398 167.376 279.398 167.037 279.413 166.691C279.427 166.345 279.457 166.006 279.508 165.675C279.53 165.514 279.559 165.345 279.589 165.175C279.706 164.506 279.89 163.844 280.124 163.214C280.242 162.898 280.374 162.583 280.521 162.267C280.858 161.544 281.233 160.752 281.6 159.921C281.79 159.505 281.974 159.082 282.165 158.651C282.355 158.221 282.546 157.774 282.744 157.328C284.572 153.089 286.377 148.358 286.854 145.249C286.906 144.919 286.942 144.611 286.964 144.326C286.957 144.057 286.957 143.788 286.95 143.518Z" fill="url(#paint1_linear)"/>
<path d="M255.59 130.886L249.396 126.493C249.396 126.493 239.561 122.677 236.831 128.593C234.101 134.51 248.662 131.455 248.662 131.455L254.856 135.079L255.59 130.886Z" fill="#F7BBC3"/>
<path d="M219.868 113.053L188.058 165.538L266.002 217.451L297.813 164.966L219.868 113.053Z" fill="#F1F1F4"/>
<path d="M208.904 148.808L199.915 163.641L203.241 165.856L212.231 151.024L208.904 148.808Z" fill="white"/>
<path d="M230.29 134.079L210.551 166.646L213.599 168.676L233.338 136.109L230.29 134.079Z" fill="white"/>
<path d="M236.807 138.419L217.068 170.986L220.116 173.016L239.855 140.449L236.807 138.419Z" fill="white"/>
<path d="M243.329 142.764L223.59 175.332L226.638 177.362L246.377 144.794L243.329 142.764Z" fill="white"/>
<path d="M250.378 148.35L230.501 180.761L233.539 182.808L253.415 150.397L250.378 148.35Z" fill="white"/>
<path d="M256.366 151.439L236.627 184.007L239.675 186.037L259.414 153.469L256.366 151.439Z" fill="white"/>
<path d="M263.433 157.117L243.556 189.527L246.594 191.574L266.47 159.164L263.433 157.117Z" fill="white"/>
<path d="M275.626 161.416L270.517 169.845L278.558 175.2L283.667 166.771L275.626 161.416Z" fill="white"/>
<path d="M273.908 264.72C270.921 263.959 266.312 262.843 263.971 262.597C260.331 262.212 260.331 257.443 262.878 258.02C264.257 258.327 265.483 257.527 266.312 256.704C266.569 256.45 266.804 256.181 267.024 255.896C267.325 255.519 267.743 255.25 268.206 255.15C269.571 254.834 272.411 254.365 274.165 255.35C274.569 255.612 274.899 255.988 275.112 256.435C275.897 257.896 276.293 260.366 276.514 262.351C276.631 263.566 275.794 264.651 274.635 264.774C274.385 264.797 274.143 264.782 273.908 264.72Z" fill="#B77983"/>
<path d="M227.841 266.629C224.854 265.867 220.245 264.751 217.904 264.505C214.264 264.12 214.264 259.35 216.81 259.927C218.469 260.304 219.915 259.043 220.707 258.127C220.803 258.012 220.891 257.912 220.964 257.812C221.265 257.435 221.684 257.165 222.146 257.065C223.511 256.75 226.351 256.281 228.105 257.265C228.619 257.558 229.023 258.189 229.353 259.004C229.94 260.481 230.263 262.551 230.446 264.259C230.571 265.474 229.734 266.559 228.575 266.69C228.325 266.713 228.076 266.69 227.841 266.629Z" fill="#B77983"/>
<path opacity="0.1" d="M229.338 258.997C224.993 263.69 221.265 258.912 220.7 258.12C220.796 258.004 220.884 257.904 220.957 257.804C221.258 257.427 221.676 257.158 222.139 257.058C223.504 256.743 226.344 256.273 228.098 257.258C228.604 257.543 229.015 258.174 229.338 258.997Z" fill="black"/>
<path opacity="0.1" d="M275.105 256.427C273.211 257.773 266.877 257.442 266.877 257.442C266.672 257.212 266.481 256.958 266.305 256.696C266.562 256.442 266.797 256.173 267.017 255.888C267.318 255.511 267.736 255.242 268.198 255.142C269.564 254.827 272.404 254.357 274.158 255.342C274.561 255.611 274.892 255.981 275.105 256.427Z" fill="black"/>
<path d="M275.442 255.535C274.165 257.25 266.885 256.873 266.885 256.873C266.885 256.873 264.698 254.581 263.788 249.618C262.878 244.656 255.047 228.815 255.047 228.815C253.227 226.338 251.766 221.753 251.766 221.753L248.669 200.95C248.669 200.95 233.734 221.568 233.918 225.954C234.101 230.346 230.637 247.71 230.637 247.71C229.36 250.003 229.36 258.397 229.36 258.397C224.626 263.551 220.619 257.443 220.619 257.443C219.709 253.434 221.162 240.263 221.162 240.263C221.162 240.263 223.349 229.192 223.526 222.322C223.702 215.452 225.889 213.736 225.889 213.736C227.591 206.651 230.483 199.95 234.439 193.933C235.54 192.279 236.266 191.402 236.266 191.402L265.769 195.026C265.3 196.018 264.874 197.442 264.5 199.119C262.584 207.759 261.946 223.276 261.946 223.276C268.683 227.861 270.686 240.263 270.686 240.263C270.701 243.502 275.442 255.535 275.442 255.535Z" fill="#8499F0"/>
<g opacity="0.05">
<path opacity="0.05" d="M247.047 203.481L246.666 200.935C246.666 200.935 231.731 221.553 231.914 225.938C232.098 230.323 228.641 247.695 228.641 247.695C227.364 249.988 227.364 258.381 227.364 258.381C226.373 259.458 225.412 260.043 224.524 260.297C225.955 260.689 227.702 260.405 229.558 258.381C229.558 258.381 229.558 249.98 230.835 247.695C230.835 247.695 234.292 230.331 234.116 225.931C233.962 222.507 243.077 209.128 247.047 203.481Z" fill="black"/>
<path opacity="0.05" d="M270.885 240.256C270.885 240.256 268.881 227.854 262.144 223.269C262.144 223.269 262.782 207.751 264.698 199.111C265.072 197.426 265.49 196.011 265.967 195.018L236.472 191.379C236.472 191.379 236.406 191.464 236.281 191.626L263.788 195.011C263.318 196.003 262.892 197.426 262.518 199.104C260.603 207.743 259.964 223.261 259.964 223.261C266.701 227.854 268.705 240.256 268.705 240.256C268.705 243.502 273.439 255.527 273.439 255.527C272.69 256.543 269.85 256.82 267.641 256.881C269.387 256.927 274.569 256.943 275.618 255.527C275.618 255.535 270.885 243.502 270.885 240.256Z" fill="black"/>
</g>
<path d="M230.828 188.725C230.608 189.286 230.314 189.817 229.962 190.302C228.868 191.848 226.586 193.895 222.417 193.333C221.434 193.202 220.744 192.256 220.869 191.233C220.906 190.925 221.016 190.64 221.184 190.387C222.256 188.825 224.025 186.894 226.674 185.978C227.43 185.717 228.208 185.547 229.001 185.486L230.828 188.725Z" fill="#F7BBC3"/>
<path d="M269.285 135.332L254.68 129.731C254.68 129.731 250.489 132.024 252.133 135.263L266.334 144.618L269.285 135.332Z" fill="#D39999"/>
<path opacity="0.1" d="M269.285 135.332L254.68 129.731C254.68 129.731 250.489 132.024 252.133 135.263L266.334 144.618L269.285 135.332Z" fill="black"/>
<path d="M269.798 126.108C269.798 126.108 269.615 135.079 273.439 138.133C277.262 141.187 262.335 142.903 262.335 142.903C262.335 142.903 264.698 133.74 262.335 128.97C259.964 124.2 269.798 126.108 269.798 126.108Z" fill="#F7BBC3"/>
<path opacity="0.1" d="M265.791 195.018C265.322 196.01 264.896 197.434 264.522 199.111C246.908 201.926 234.652 194.249 234.652 194.249C234.586 194.133 234.52 194.026 234.461 193.918C235.562 192.264 236.288 191.387 236.288 191.387L265.791 195.018Z" fill="black"/>
<path opacity="0.1" d="M230.828 188.725C230.608 189.286 230.314 189.817 229.962 190.302C228.274 190.01 226.931 186.632 226.681 185.97C227.437 185.709 228.215 185.54 229.008 185.478L230.828 188.725Z" fill="black"/>
<path d="M271.251 134.125L264.698 136.602L261.968 140.418C261.968 140.418 256.324 142.326 255.597 142.326C254.871 142.326 252.867 143.087 251.59 146.142C250.313 149.196 245.763 164.083 241.756 166.56C237.749 169.037 227.188 185.663 227.188 185.663C227.188 185.663 229.008 190.817 231.195 190.056L236.296 185.663C236.296 185.663 232.288 189.863 234.659 193.679C234.659 193.679 249.594 203.035 270.158 197.303L270.341 191.579L271.251 196.157L281.467 189.471C281.467 189.471 280.557 177.146 278.906 170.876C278.224 168.237 278.48 165.437 279.618 162.975C282.26 157.197 286.341 147.55 285.842 144.034C285.254 139.887 283.023 138.079 282.165 137.54C281.967 137.417 281.754 137.34 281.526 137.317L278.194 136.971L271.251 134.125Z" fill="#D39999"/>
<path opacity="0.05" d="M260.052 153.312C260.052 153.312 256.412 171.061 252.405 173.931C248.398 176.793 237.653 185.956 237.294 187.487" fill="black"/>
<path d="M258.415 152.735C258.415 152.735 254.775 170.484 250.768 173.354C246.761 176.216 236.017 185.379 235.657 186.917" fill="#D39999"/>
<path opacity="0.1" d="M261.872 140.334C261.872 140.334 274.437 135.94 278.077 137.087L261.872 140.334Z" fill="black"/>
<g opacity="0.05">
<path opacity="0.05" d="M279.589 162.99C282.231 157.212 286.311 147.564 285.812 144.049C285.225 139.902 282.994 138.094 282.135 137.555C281.937 137.432 281.724 137.355 281.497 137.332L280.08 137.186C280.227 137.225 280.374 137.286 280.499 137.371C281.35 137.917 283.574 139.717 284.176 143.864C284.675 147.38 280.594 157.027 277.952 162.805C276.815 165.259 276.565 168.067 277.24 170.706C278.899 176.976 279.802 189.301 279.802 189.301L271.024 195.056L271.244 196.172L281.46 189.486C281.46 189.486 280.55 177.161 278.899 170.891C278.216 168.252 278.458 165.452 279.589 162.99Z" fill="black"/>
<path opacity="0.05" d="M276.528 136.802L278.106 136.964L271.252 134.125L270.635 134.355L276.528 136.802Z" fill="black"/>
</g>
<path opacity="0.05" d="M258.415 171.253C258.415 171.253 264.059 168.006 265.879 168.776C267.699 169.538 274.437 168.583 274.437 168.583" fill="black"/>
<path opacity="0.05" d="M269.153 128.493C268.947 126.577 269.791 126.87 269.791 126.87C269.791 126.87 259.957 124.962 262.327 129.732C262.922 130.924 263.215 132.393 263.325 133.932H263.421C266.166 133.94 267.758 130.732 269.153 128.493Z" fill="black"/>
<path d="M263.421 133.171C267.746 133.171 271.252 129.496 271.252 124.962C271.252 120.429 267.746 116.753 263.421 116.753C259.096 116.753 255.59 120.429 255.59 124.962C255.59 129.496 259.096 133.171 263.421 133.171Z" fill="#F7BBC3"/>
<path opacity="0.1" d="M271.963 127.393C272.675 125.762 273.196 123.993 273.108 122.185C273.02 120.377 272.257 118.569 270.833 117.569C270.099 117.053 269.233 116.769 268.47 116.299C267.876 115.93 267.347 115.453 266.782 115.038C263.956 113.022 260.324 112.745 257.249 114.315C255.81 115.061 254.585 116.199 253.227 117.1C251.869 118 250.276 118.7 248.684 118.431C248.412 119.223 249.08 120.008 249.697 120.554C250.871 121.585 252.199 122.608 253.718 122.647C254.313 122.662 254.929 122.531 255.473 122.785C255.832 122.993 256.14 123.293 256.368 123.654C257.102 124.678 257.726 125.785 258.225 126.955C258.43 127.432 258.636 127.947 259.061 128.24C259.773 128.709 260.676 128.317 261.513 128.286C262.812 128.232 263.971 129.086 264.933 130.001C265.894 130.917 266.804 131.963 268.008 132.448C268.91 132.809 270.723 132.794 271.178 131.663C271.354 131.24 271.017 130.324 271.09 129.794C271.222 128.963 271.633 128.155 271.963 127.393Z" fill="black"/>
<path d="M272.147 127.201C272.859 125.57 273.38 123.8 273.292 121.992C273.204 120.184 272.44 118.376 271.017 117.376C270.283 116.861 269.417 116.576 268.653 116.107C268.059 115.737 267.531 115.26 266.966 114.845C264.14 112.829 260.507 112.552 257.432 114.122C255.994 114.868 254.768 116.007 253.41 116.907C252.053 117.807 250.46 118.507 248.867 118.238C248.596 119.03 249.264 119.815 249.88 120.361C251.054 121.392 252.383 122.415 253.902 122.454C254.496 122.469 255.113 122.338 255.656 122.592C256.016 122.8 256.324 123.1 256.551 123.462C257.285 124.485 257.909 125.593 258.408 126.762C258.614 127.239 258.819 127.754 259.245 128.047C259.957 128.516 260.859 128.124 261.696 128.093C262.995 128.039 264.155 128.893 265.116 129.809C266.077 130.724 266.988 131.77 268.191 132.255C269.094 132.617 270.907 132.601 271.362 131.47C271.538 131.047 271.2 130.132 271.274 129.601C271.406 128.77 271.817 127.962 272.147 127.201Z" fill="#9B6C7A"/>
<path d="M220.34 255.519H96.4499V174.392H112.295L118.812 182.839H220.34V255.519Z" fill="#6C63FF"/>
<path d="M103.473 263.613C103.473 263.613 98.1305 262.497 96.7067 260.997C95.283 259.505 88.876 256.889 88.1567 258.766C87.4448 260.636 78.5426 266.975 84.6046 268.098C90.6667 269.221 98.8497 269.583 100.633 268.844C102.424 268.106 103.473 263.613 103.473 263.613Z" fill="#A8A8A8"/>
<path opacity="0.2" d="M84.6046 267.398C90.6594 268.513 98.8497 268.883 100.633 268.144C101.991 267.575 102.93 264.844 103.305 263.574L103.481 263.613C103.481 263.613 102.417 268.09 100.64 268.836C98.8644 269.583 90.6667 269.206 84.612 268.09C82.8653 267.767 82.3662 267.005 82.5497 266.044C82.6965 266.675 83.2983 267.159 84.6046 267.398Z" fill="black"/>
<path d="M213.86 273.876C213.86 273.876 205.714 272.168 203.534 269.89C201.362 267.613 191.579 263.628 190.493 266.474C189.406 269.321 175.822 279.007 185.047 280.715C194.279 282.423 206.778 282.992 209.493 281.854C212.216 280.707 213.86 273.876 213.86 273.876Z" fill="#A8A8A8"/>
<path opacity="0.2" d="M185.062 279.654C194.294 281.362 206.793 281.931 209.508 280.792C211.578 279.923 213.016 275.753 213.581 273.814L213.853 273.876C213.853 273.876 212.223 280.7 209.501 281.846C206.778 282.993 194.287 282.416 185.054 280.708C182.39 280.208 181.627 279.054 181.913 277.592C182.148 278.546 183.08 279.284 185.062 279.654Z" fill="black"/>
<path opacity="0.1" d="M170.927 212.475H143.471V217.437H170.927V212.475Z" fill="black"/>
<defs>
<linearGradient id="paint0_linear" x1="174.475" y1="220.925" x2="90.5804" y2="173.374" gradientUnits="userSpaceOnUse">
<stop stop-color="#808080" stop-opacity="0.25"/>
<stop offset="0.54" stop-color="#808080" stop-opacity="0.12"/>
<stop offset="1" stop-color="#808080" stop-opacity="0.1"/>
</linearGradient>
<linearGradient id="paint1_linear" x1="250.42" y1="266.823" x2="250.42" y2="111.983" gradientUnits="userSpaceOnUse">
<stop stop-color="#808080" stop-opacity="0.25"/>
<stop offset="0.54" stop-color="#808080" stop-opacity="0.12"/>
<stop offset="1" stop-color="#808080" stop-opacity="0.1"/>
</linearGradient>
</defs>
</svg>
