<svg width="367" height="356" viewBox="0 0 367 356" fill="none" xmlns="http://www.w3.org/2000/svg">
<path d="M367 0H0V356H367V0Z" fill="#C7DAF1"/>
<path opacity="0.5" d="M114.038 225.702C97.3193 219.794 78.2084 214.795 62.5909 223.285C60.6094 224.358 58.6645 225.717 57.593 227.728C54.7748 233.028 59.2517 239.911 57.072 245.511C54.8923 251.11 46.6799 253.94 47.3477 259.923C47.5238 261.492 48.3532 262.903 49.3293 264.126C55.45 271.768 66.6641 272.541 76.1462 270.649C85.6282 268.758 94.8974 264.817 104.548 265.312C113.825 265.8 122.353 270.349 130.852 274.185C145.177 280.655 161.91 285.302 176.221 278.794C182.783 275.814 188.199 270.732 194.481 267.189C202.943 262.452 212.667 260.628 222.215 261.987C228.593 262.903 234.677 265.215 240.915 266.814C255.087 270.432 269.883 270.312 284.48 270.169C287.195 270.139 289.962 270.109 292.568 269.313C296.428 268.127 299.606 265.395 302.673 262.73C306.695 259.225 310.937 255.367 312.236 250.127C313.77 243.904 310.592 237.284 305.888 233.058C301.184 228.832 295.166 226.512 289.294 224.291C287.849 223.743 286.3 223.187 284.81 223.6C283.834 223.87 283.019 224.538 282.286 225.251C278.117 229.357 274.594 236.293 268.914 235.175C266.888 234.777 265.222 233.336 263.622 231.999C255.05 224.884 243.521 219.396 233.173 223.322C225.606 226.197 220.263 233.583 212.594 236.188C207.141 238.042 201.211 237.239 195.472 237.599C187.127 238.125 179.003 241.135 170.644 240.954C149.331 240.489 131.571 219.644 110.346 221.626C108.68 221.783 106.867 222.174 105.847 223.517" fill="#6C63FF"/>
<path d="M87.1547 205.87C87.1547 205.87 69.4456 216.807 102.104 233.651C102.104 233.651 109.304 219.989 101.348 208.843C98.156 204.346 92.1747 203.01 87.441 205.728L87.1547 205.87Z" fill="#6C63FF"/>
<path d="M87.3676 205.645C87.3676 205.645 102.53 217.505 102.104 233.644" stroke="#535461" stroke-miterlimit="10"/>
<path d="M311.223 196.765C314.812 210.186 299.503 248.416 299.503 248.416C299.503 248.416 267.299 223.48 263.71 210.059C259.821 196.728 267.233 182.691 280.267 178.705C293.301 174.727 307.026 182.308 310.923 195.639C311.033 196.007 311.128 196.382 311.223 196.765Z" fill="#6C63FF"/>
<path opacity="0.1" d="M311.223 196.765C314.812 210.186 299.503 248.416 299.503 248.416C299.503 248.416 267.299 223.48 263.71 210.059C259.821 196.728 267.233 182.691 280.267 178.705C293.301 174.727 307.026 182.308 310.923 195.639C311.033 196.007 311.128 196.382 311.223 196.765Z" fill="black"/>
<path d="M281.104 179.193C281.104 179.193 301.147 210.142 299.65 248.491" stroke="#535461" stroke-miterlimit="10"/>
<path d="M316.339 221.288C316.339 221.288 298.16 211.177 300.464 248.506C300.464 248.506 315.627 247.95 321.006 235.302C323.186 230.213 321.293 224.253 316.603 221.446L316.339 221.288Z" fill="#6C63FF"/>
<path d="M316.64 221.355C316.64 221.355 314.291 240.737 300.464 248.513" stroke="#535461" stroke-miterlimit="10"/>
<path d="M50.2246 217.13C50.2246 217.13 32.5081 228.059 65.167 244.895C65.167 244.895 72.3666 231.234 64.411 220.087C61.2185 215.591 55.2372 214.255 50.5035 216.972L50.2246 217.13Z" fill="#6C63FF"/>
<path d="M50.4228 216.897C50.4228 216.897 65.5853 228.757 65.1596 244.895" stroke="#535461" stroke-miterlimit="10"/>
<path d="M271.314 231.362H252.695C253.12 230.484 253.348 229.508 253.34 228.525V141.804C253.34 138.284 250.552 135.432 247.109 135.432H102.978C99.5357 135.432 96.7469 138.284 96.7469 141.804V228.525C96.7469 229.508 96.9671 230.476 97.3927 231.362H78.113C77.203 231.362 76.4617 232.12 76.4617 233.051V233.058V234.417C76.4617 239.626 80.5936 243.852 85.6869 243.852H263.74C268.833 243.852 272.965 239.626 272.965 234.417V233.058C272.972 232.128 272.238 231.369 271.328 231.362C271.321 231.362 271.314 231.362 271.314 231.362ZM156.582 236.751L154.975 234.897H194.613L192.845 236.751H156.582Z" fill="url(#paint0_linear)"/>
<path d="M105.246 136.655H244.82C248.541 136.655 251.564 139.74 251.564 143.553V226.985C251.564 230.791 248.548 233.884 244.82 233.884H105.246C101.525 233.884 98.501 230.799 98.501 226.985V143.546C98.5083 139.74 101.525 136.655 105.246 136.655Z" fill="#535461"/>
<path d="M248.02 150.827H101.73V230.251H248.02V150.827Z" fill="white"/>
<path d="M174.871 145.227C175.585 145.227 176.163 144.636 176.163 143.906C176.163 143.176 175.585 142.585 174.871 142.585C174.158 142.585 173.579 143.176 173.579 143.906C173.579 144.636 174.158 145.227 174.871 145.227Z" fill="white"/>
<path d="M197.461 230.416L192.434 235.693H157.001L152.458 230.416H80.3001C79.4121 230.416 78.6855 231.152 78.6855 232.067V233.396C78.6855 238.485 82.7219 242.614 87.6978 242.614H261.721C266.697 242.614 270.734 238.485 270.734 233.396V232.067C270.734 231.159 270.015 230.416 269.119 230.416H197.461Z" fill="#535461"/>
<path d="M120.415 155.773V223.33H229.65" stroke="#535461" stroke-width="2" stroke-miterlimit="10"/>
<path opacity="0.5" d="M141.361 202.898H130.081V220.695H141.361V202.898Z" fill="#6C63FF"/>
<path opacity="0.7" d="M160.699 187.074H149.419V220.687H160.699V187.074Z" fill="#6C63FF"/>
<path opacity="0.5" d="M180.031 196.638H168.75V220.695H180.031V196.638Z" fill="#6C63FF"/>
<path opacity="0.8" d="M199.362 181.805H188.081V220.695H199.362V181.805Z" fill="#6C63FF"/>
<path d="M218.7 167.963H207.42V220.695H218.7V167.963Z" fill="#6C63FF"/>
<path d="M135.563 192.021L155.217 173.894L174.548 191.03L193.564 170.268L212.895 162.034" stroke="#535461" stroke-width="2" stroke-miterlimit="10"/>
<path d="M135.563 194.326C136.808 194.326 137.816 193.294 137.816 192.021C137.816 190.749 136.808 189.717 135.563 189.717C134.319 189.717 133.31 190.749 133.31 192.021C133.31 193.294 134.319 194.326 135.563 194.326Z" fill="#6C63FF"/>
<path d="M174.225 193.005C175.47 193.005 176.478 191.973 176.478 190.7C176.478 189.428 175.47 188.396 174.225 188.396C172.981 188.396 171.972 189.428 171.972 190.7C171.972 191.973 172.981 193.005 174.225 193.005Z" fill="#6C63FF"/>
<path d="M196.118 170.632C196.318 169.375 195.484 168.192 194.255 167.988C193.027 167.784 191.87 168.637 191.67 169.893C191.471 171.15 192.305 172.333 193.533 172.537C194.762 172.741 195.919 171.888 196.118 170.632Z" fill="#6C63FF"/>
<path d="M155.217 175.867C156.461 175.867 157.47 174.836 157.47 173.563C157.47 172.29 156.461 171.259 155.217 171.259C153.973 171.259 152.964 172.29 152.964 173.563C152.964 174.836 153.973 175.867 155.217 175.867Z" fill="#6C63FF"/>
<path d="M212.895 164.338C214.139 164.338 215.148 163.307 215.148 162.034C215.148 160.761 214.139 159.729 212.895 159.729C211.65 159.729 210.642 160.761 210.642 162.034C210.642 163.307 211.65 164.338 212.895 164.338Z" fill="#6C63FF"/>
<path d="M296.78 233.298C295.591 232.9 293.83 232.435 292.436 232.6C291.107 232.105 287.981 230.821 285.845 228.892C285.904 226.993 285.86 225.086 285.706 223.195C284.612 210.487 287.071 202.109 287.071 202.109C287.071 202.109 289.001 195.722 288.788 190.415C288.913 190.655 288.979 190.798 288.979 190.798C289.148 186.226 290.674 181.49 291.812 178.54C291.856 178.525 291.9 178.51 291.937 178.495L293.213 175.402C293.316 175.222 293.397 175.027 293.456 174.832L293.661 174.344L293.602 174.314C293.624 174.231 293.646 174.149 293.661 174.059C294.476 170.531 295.107 162.176 295.107 162.176C297.294 153.379 292.105 147.952 292.105 147.952L283.298 140.205C283.342 140.303 283.372 140.415 283.386 140.521L283.313 140.453C283.188 140.085 283.049 139.65 282.917 139.154C283.225 138.929 283.519 138.674 283.783 138.396C284.781 137.428 285.471 136.174 285.757 134.793C285.926 133.712 285.97 132.624 285.889 131.535L285.742 127.797C285.735 127.069 285.662 126.334 285.522 125.621C284.862 122.656 281.889 120.584 278.902 120.449C277.956 120.441 277.002 120.494 276.062 120.606C275.292 120.674 274.514 120.689 273.743 120.659C273.655 120.666 273.567 120.636 273.493 120.591C273.427 120.524 273.391 120.434 273.383 120.336C273.354 119.983 273.464 119.638 273.692 119.375C273.809 119.27 273.941 119.188 274.088 119.143L273.875 119.195C273.978 119.113 274.095 119.045 274.22 119C273.449 119.143 272.701 119.413 272.026 119.818C271.835 119.946 271.666 120.096 271.512 120.261C271.108 120.621 270.844 121.124 270.771 121.672C270.411 121.357 270.139 120.952 269.985 120.486C269.941 120.299 269.941 120.103 269.985 119.908C269.934 119.976 269.883 120.043 269.831 120.111C269.831 120.088 269.831 120.066 269.831 120.051C269.274 120.756 268.877 121.582 268.672 122.46C268.518 122.265 268.437 122.018 268.466 121.77C268.422 121.912 268.385 122.048 268.341 122.19C268.327 122.1 268.327 122.003 268.341 121.912C268.004 122.978 267.85 124.104 267.886 125.223C267.886 126.341 268.371 128.09 269.545 128.48C269.604 128.503 269.67 128.518 269.729 128.533C267.527 132.031 268.51 136.7 271.938 138.952C272.774 139.507 273.714 139.875 274.697 140.048C274.719 140.183 274.734 140.325 274.756 140.475H274.8C274.829 140.768 274.859 141.098 274.873 141.429C274.58 141.729 274.249 141.992 273.904 142.224C272.921 142.817 271.82 143.193 270.683 143.313C269.325 143.425 268.004 143.823 266.808 144.499C265.398 145.302 263.85 146.473 263.366 147.899C262.551 150.271 258.089 153.964 255.087 154.422L254.023 154.362L253.942 154.34V154.362L253.678 154.347H253.663H253.597V154.362L253.326 154.347C253.326 154.347 253.296 154.475 253.26 154.7C251.755 154.167 248.548 152.696 244.379 148.83C239.741 144.521 233.466 145.37 231.052 145.91C230.832 145.963 230.685 146.188 230.736 146.413C230.765 146.533 230.839 146.638 230.942 146.691C231.918 147.239 233.43 148.034 234.127 148.124C234.127 148.124 232.681 149.678 234.222 150.496C234.596 150.684 235.044 150.639 235.382 150.384C236.13 149.821 238.207 151.089 241.216 151.75C241.216 151.75 249.715 160.742 253.935 162.124C254.03 162.319 254.14 162.514 254.258 162.694L254.522 162.672V162.694H254.632L254.661 162.987C254.661 162.987 261.223 162.634 263.358 160.194C263.512 160.059 263.644 159.902 263.769 159.744L261.487 189.086H261.509L261.487 189.364H263.167C263.314 192.974 263.16 196.585 262.712 200.173V219.306C262.712 219.306 262.624 220.988 266.044 223.457C269.633 226.009 273.082 228.749 276.4 231.662L276.811 232.03C276.18 237.884 274.866 248.799 273.765 249.204L274.44 249.324C273.281 250.825 269.985 254.954 268.987 255.066C267.762 255.209 266.94 257.161 268.987 257.581C273.075 258.301 277.288 257.881 281.163 256.357C281.955 256.035 282.44 255.201 282.322 254.338L281.926 251.253C281.999 251.298 282.065 251.358 282.102 251.441C282.374 252.281 282.102 250.322 282.102 250.322C283.225 246.629 284.106 242.869 284.744 239.055L288.803 242.643C288.803 242.643 288.883 242.538 289.023 242.351C290.014 244.655 291.79 249.377 291.393 252.829C290.85 257.573 296.032 253.385 295.489 250.593C295.048 248.333 297.022 238.763 297.786 235.182C297.999 234.356 297.544 233.553 296.78 233.298Z" fill="url(#paint1_linear)"/>
<path d="M254.382 155.841C254.382 155.841 250.515 155.158 244.783 149.843C240.248 145.64 234.127 146.466 231.771 146.999C231.551 147.044 231.419 147.269 231.463 147.486C231.485 147.607 231.558 147.704 231.661 147.764C232.615 148.297 234.09 149.078 234.787 149.168C234.787 149.168 233.356 150.677 234.875 151.487C235.25 151.675 235.69 151.63 236.02 151.375C236.754 150.827 238.78 152.065 241.723 152.711C241.723 152.711 253.186 164.849 255.85 162.792L254.382 155.841Z" fill="#FEC3BE"/>
<path d="M274.117 139.342C274.117 139.342 275.181 143.981 274.117 147.254L278.917 147.937L283.181 145.753V142.893C283.181 142.893 281.185 138.532 281.713 133.487L274.117 139.342Z" fill="#FEC3BE"/>
<path d="M287.709 239.828C287.709 239.828 291.188 246.779 290.645 251.418C290.102 256.057 295.18 251.966 294.645 249.234C294.212 247.027 296.134 237.674 296.89 234.191C297.059 233.411 296.626 232.63 295.885 232.382C294.285 231.842 291.599 231.181 290.248 232.195C288.252 233.688 287.709 239.828 287.709 239.828Z" fill="#8B416F"/>
<path d="M274.521 247.463C274.521 247.463 269.985 253.46 268.789 253.595C267.593 253.73 266.793 255.637 268.789 256.05C272.781 256.763 276.891 256.35 280.671 254.864C281.449 254.556 281.919 253.738 281.809 252.89L281.045 247.05L274.521 247.463Z" fill="#8B416F"/>
<path d="M267.05 183.787L262.705 184.38C263.299 189.574 263.285 194.821 262.654 200.008V218.684C262.654 218.684 262.573 220.328 265.905 222.722C269.406 225.214 272.782 227.887 276.011 230.724L288.105 241.443C288.105 241.443 292.905 235.445 292.237 231.895C292.237 231.895 284.238 229.305 283.174 225.079C282.564 222.662 279.46 220.635 276.921 219.359C273.633 217.723 271.901 213.97 272.76 210.337C272.906 209.721 273.134 209.136 273.442 208.588C275.578 204.767 278.638 196.18 278.638 196.18L272.774 184.748L267.05 183.787Z" fill="#4D4981"/>
<path opacity="0.05" d="M267.05 183.787L262.705 184.38C263.299 189.574 263.285 194.821 262.654 200.008V218.684C262.654 218.684 262.573 220.328 265.905 222.722C269.406 225.214 272.782 227.887 276.011 230.724L288.105 241.443C288.105 241.443 292.905 235.445 292.237 231.895C292.237 231.895 284.238 229.305 283.174 225.079C282.564 222.662 279.46 220.635 276.921 219.359C273.633 217.723 271.901 213.97 272.76 210.337C272.906 209.721 273.134 209.136 273.442 208.588C275.578 204.767 278.638 196.18 278.638 196.18L272.774 184.748L267.05 183.787Z" fill="black"/>
<path d="M273.449 247.876C273.449 247.876 281.317 249.242 281.581 250.06C281.845 250.878 281.581 248.971 281.581 248.971C281.581 248.971 286.117 234.927 285.06 222.519C284.003 210.111 286.395 201.93 286.395 201.93C286.395 201.93 289.192 192.659 287.592 187.337C285.992 182.023 269.193 184.335 269.193 184.335C269.193 184.335 275.057 198.379 274.925 205.06C274.925 205.06 275.592 225.237 276.789 227.556C276.781 227.556 274.917 247.328 273.449 247.876Z" fill="#4D4981"/>
<path d="M274.374 142.885C274.374 142.885 275.174 147.922 283.174 145.745L277.853 187.195C277.853 187.195 262.389 187.743 262.521 185.829L265.707 160.743L274.374 142.885Z" fill="white"/>
<path opacity="0.1" d="M274.587 142.615C273.545 143.666 272.187 144.326 270.734 144.484C269.406 144.589 268.114 144.979 266.947 145.632C265.575 146.42 264.048 147.561 263.586 148.95C262.654 151.675 256.79 156.179 254.118 155.225L255.05 163.407C255.05 163.407 262.646 163.002 263.982 159.999L261.722 189.191H263.718C263.718 189.191 264.782 181.28 265.582 179.643C266.382 178.007 267.982 169.007 268.114 166.823C268.246 164.638 270.25 152.095 271.982 149.926L274.587 143.448V142.615Z" fill="black"/>
<path opacity="0.1" d="M274.587 143.02C273.398 143.973 271.974 144.574 270.47 144.754C269.141 144.859 267.857 145.257 266.69 145.91C265.318 146.698 263.791 147.839 263.329 149.228C262.397 151.953 256.533 156.456 253.861 155.503L254.794 163.685C254.794 163.685 262.389 163.279 263.725 160.277L261.457 189.454H263.454C263.454 189.454 264.518 181.542 265.318 179.906C266.118 178.27 267.718 169.27 267.85 167.085C267.982 164.901 269.985 152.358 271.717 150.189L274.58 143.831V143.02H274.587Z" fill="black"/>
<path d="M274.587 142.75C273.398 143.703 271.974 144.304 270.47 144.484C269.141 144.589 267.85 144.979 266.683 145.632C265.31 146.421 263.784 147.562 263.321 148.95C262.389 151.675 256.525 156.179 253.854 155.225L254.786 163.407C254.786 163.407 262.382 163.002 263.718 159.999L261.457 189.191H263.454C263.454 189.191 264.518 181.28 265.318 179.643C266.118 178.007 267.718 169.007 267.85 166.823C267.982 164.638 269.985 152.095 271.717 149.926L274.587 143.583V142.75Z" fill="#FD6F8D"/>
<path opacity="0.1" d="M281.383 137.496C281.207 136.205 281.559 135.394 281.713 133.885L274.117 139.748C274.117 139.748 274.301 140.536 274.44 141.699C274.822 141.759 275.211 141.797 275.6 141.797C278.234 141.797 280.135 139.688 281.383 137.496Z" fill="black"/>
<path d="M275.585 141.392C279.561 141.392 282.785 138.095 282.785 134.028C282.785 129.961 279.561 126.665 275.585 126.665C271.609 126.665 268.385 129.961 268.385 134.028C268.385 138.095 271.609 141.392 275.585 141.392Z" fill="#FEC3BE"/>
<path opacity="0.1" d="M267.725 126.806C267.681 125.568 267.879 124.329 268.305 123.166C268.055 123.541 268.121 124.052 268.459 124.352C268.694 123.083 269.325 121.935 270.264 121.072C269.75 121.154 269.486 121.807 269.618 122.325C269.794 122.828 270.103 123.271 270.506 123.609C270.462 122.828 270.969 122.1 271.607 121.672C272.275 121.282 272.994 121.012 273.75 120.876C273.214 121.072 272.877 121.605 272.928 122.183C272.928 122.28 272.972 122.37 273.038 122.438C273.112 122.483 273.192 122.505 273.281 122.505C274.029 122.535 274.785 122.52 275.534 122.453C276.451 122.348 277.383 122.295 278.308 122.303C281.207 122.43 284.12 124.449 284.766 127.339C284.898 128.037 284.972 128.751 284.979 129.471L285.118 133.119C285.199 134.185 285.155 135.251 284.994 136.309C284.59 138.276 283.342 139.965 281.603 140.896C280.554 139.342 280.466 137.353 280.099 135.506C280.04 135.078 279.886 134.673 279.644 134.32C279.387 133.96 278.939 133.81 278.528 133.937C278.139 134.095 277.97 134.711 278.293 134.981C278.007 135.334 277.464 135.071 277.134 134.756C276.216 133.87 275.592 132.721 275.328 131.453C275.196 130.815 275.064 130.034 274.462 129.816C274.249 129.756 274.036 129.741 273.816 129.771C272.547 129.862 270.565 130.394 269.332 129.982C268.202 129.606 267.725 127.902 267.725 126.806Z" fill="black"/>
<path d="M267.864 126.672C267.82 125.433 268.018 124.195 268.444 123.031C268.195 123.406 268.261 123.917 268.598 124.217C268.833 122.949 269.464 121.8 270.404 120.937C269.89 121.019 269.626 121.672 269.758 122.19C269.934 122.693 270.242 123.136 270.646 123.474C270.602 122.693 271.108 121.965 271.747 121.537C272.415 121.147 273.134 120.877 273.89 120.742C273.361 120.937 273.016 121.47 273.068 122.048C273.068 122.145 273.112 122.235 273.178 122.303C273.251 122.348 273.332 122.371 273.42 122.371C274.169 122.401 274.924 122.386 275.673 122.318C276.59 122.213 277.523 122.16 278.447 122.168C281.346 122.295 284.26 124.315 284.906 127.205C285.038 127.903 285.111 128.616 285.118 129.336L285.258 132.984C285.339 134.05 285.295 135.116 285.133 136.175C284.729 138.141 283.482 139.83 281.742 140.761C280.693 139.207 280.605 137.218 280.238 135.371C280.179 134.944 280.025 134.538 279.783 134.185C279.526 133.825 279.078 133.675 278.667 133.803C278.278 133.96 278.11 134.576 278.433 134.846C278.146 135.199 277.603 134.936 277.273 134.621C276.356 133.735 275.732 132.587 275.468 131.318C275.335 130.68 275.203 129.899 274.602 129.682C274.389 129.622 274.176 129.607 273.956 129.637C272.686 129.727 270.705 130.26 269.472 129.847C268.334 129.472 267.864 127.768 267.864 126.672Z" fill="#784F69"/>
<path opacity="0.1" d="M253.509 155.226C253.509 155.226 252.445 160.262 254.441 163.408L255.571 163.31L254.955 155.308L253.509 155.226Z" fill="black"/>
<path d="M253.803 155.226C253.803 155.226 252.739 160.262 254.735 163.408L255.865 163.31L255.248 155.308L253.803 155.226Z" fill="#FD6F8D"/>
<path opacity="0.1" d="M282.447 141.466L291.048 149.033C291.048 149.033 296.112 154.347 293.984 162.942C293.984 162.942 293.052 175.485 291.988 176.033C291.988 176.033 288.252 183.667 287.988 190.895C287.988 190.895 282.99 180.604 280.722 186.872C278.455 193.147 273.185 194.033 273.185 194.033L276.121 156.937C276.113 156.929 283.519 143.771 282.447 141.466Z" fill="black"/>
<path d="M282.719 141.466L291.32 149.033C291.32 149.033 296.384 154.347 294.256 162.942C294.256 162.942 293.324 175.485 292.259 176.033C292.259 176.033 288.524 183.667 288.26 190.895C288.26 190.895 282.99 180.056 280.722 186.324C278.455 192.591 273.457 194.033 273.457 194.033L276.392 156.952C276.385 156.944 283.783 143.771 282.719 141.466Z" fill="#FD6F8D"/>
<path d="M286.652 173.428C286.652 173.428 288.788 171.927 292.252 176.018L283.717 191.833L280.847 187.405C280.847 187.412 286.917 175.2 286.652 173.428Z" fill="#FEC3BE"/>
<path opacity="0.1" d="M284.583 174.314C284.583 174.314 289.302 179.734 291.144 178.863L292.846 174.802L286.447 171.995L284.583 174.314Z" fill="black"/>
<path d="M284.583 174.044C284.583 174.044 289.302 179.464 291.144 178.593L292.846 174.532L286.447 171.725L284.583 174.044Z" fill="#FD6F8D"/>
<path opacity="0.1" d="M281.141 186.376C281.141 186.376 283.386 191.083 284.583 191.353L282.843 193.395L280.311 188.486L281.141 186.376Z" fill="black"/>
<path d="M281.009 186.52C281.009 186.52 283.254 191.226 284.451 191.496L282.711 193.538L280.172 188.621L281.009 186.52Z" fill="#4D4981"/>
<path opacity="0.1" d="M285.251 157.41C285.251 157.41 285.515 167.228 284.451 170.906L285.251 157.41Z" fill="black"/>
<path opacity="0.1" d="M263.652 159.316C263.652 159.316 265.252 158.768 265.252 157.41L263.652 159.316Z" fill="black"/>
<path d="M69.387 160.96C69.387 160.96 61.791 177.038 66.7815 196.067C71.7721 215.095 70.1869 237.862 65.211 243.491" stroke="#535461" stroke-width="2" stroke-miterlimit="10"/>
<path d="M69.3869 163.107C70.5462 163.107 71.4859 162.146 71.4859 160.96C71.4859 159.775 70.5462 158.813 69.3869 158.813C68.2277 158.813 67.2879 159.775 67.2879 160.96C67.2879 162.146 68.2277 163.107 69.3869 163.107Z" fill="#6C63FF"/>
<path d="M66.2311 171.297C66.2311 171.297 74.1059 172.745 76.2049 169.818" stroke="#535461" stroke-width="2" stroke-miterlimit="10"/>
<path d="M65.4825 175.965C65.4825 175.965 60.7415 170.605 61.0057 167.385" stroke="#535461" stroke-width="2" stroke-miterlimit="10"/>
<path d="M65.0789 185.791C65.0789 185.791 69.3869 186.954 73.3207 178.382" stroke="#535461" stroke-width="2" stroke-miterlimit="10"/>
<path d="M66.2311 192.937C66.2311 192.937 55.5088 185.881 56.8151 181.325" stroke="#535461" stroke-width="2" stroke-miterlimit="10"/>
<path d="M67.9044 201.014C67.9044 201.014 75.4196 194.198 74.6343 187.488" stroke="#535461" stroke-width="2" stroke-miterlimit="10"/>
<path d="M68.7191 205.758C68.7191 205.758 59.1562 203.025 59.4425 198.739" stroke="#535461" stroke-width="2" stroke-miterlimit="10"/>
<path d="M69.3869 211.417C69.3869 211.417 75.4123 205.705 76.1976 202.229" stroke="#535461" stroke-width="2" stroke-miterlimit="10"/>
<path d="M69.8052 221.131C69.8052 221.131 63.6258 213.752 63.3616 209.999" stroke="#535461" stroke-width="2" stroke-miterlimit="10"/>
<path d="M69.8052 227.233C69.8052 227.233 76.7259 219.374 77.247 215.621" stroke="#535461" stroke-width="2" stroke-miterlimit="10"/>
<path d="M61.0057 170.073C62.1649 170.073 63.1047 169.112 63.1047 167.926C63.1047 166.74 62.1649 165.779 61.0057 165.779C59.8465 165.779 58.9067 166.74 58.9067 167.926C58.9067 169.112 59.8465 170.073 61.0057 170.073Z" fill="#6C63FF"/>
<path d="M58.6499 200.886C59.8091 200.886 60.7488 199.925 60.7488 198.74C60.7488 197.554 59.8091 196.593 58.6499 196.593C57.4907 196.593 56.5509 197.554 56.5509 198.74C56.5509 199.925 57.4907 200.886 58.6499 200.886Z" fill="#6C63FF"/>
<path d="M56.8151 183.471C57.9743 183.471 58.9141 182.51 58.9141 181.324C58.9141 180.139 57.9743 179.178 56.8151 179.178C55.6559 179.178 54.7161 180.139 54.7161 181.324C54.7161 182.51 55.6559 183.471 56.8151 183.471Z" fill="#6C63FF"/>
<path d="M76.2049 171.949C77.3641 171.949 78.3038 170.988 78.3038 169.803C78.3038 168.617 77.3641 167.656 76.2049 167.656C75.0457 167.656 74.106 168.617 74.106 169.803C74.106 170.988 75.0457 171.949 76.2049 171.949Z" fill="#6C63FF"/>
<path d="M76.2049 204.909C77.3641 204.909 78.3038 203.948 78.3038 202.763C78.3038 201.577 77.3641 200.616 76.2049 200.616C75.0457 200.616 74.106 201.577 74.106 202.763C74.106 203.948 75.0457 204.909 76.2049 204.909Z" fill="#6C63FF"/>
<path d="M72.7996 180.522C73.9588 180.522 74.8985 179.56 74.8985 178.375C74.8985 177.189 73.9588 176.228 72.7996 176.228C71.6403 176.228 70.7006 177.189 70.7006 178.375C70.7006 179.56 71.6403 180.522 72.7996 180.522Z" fill="#6C63FF"/>
<path d="M76.9902 219.111C78.1494 219.111 79.0891 218.15 79.0891 216.965C79.0891 215.779 78.1494 214.818 76.9902 214.818C75.831 214.818 74.8912 215.779 74.8912 216.965C74.8912 218.15 75.831 219.111 76.9902 219.111Z" fill="#6C63FF"/>
<path d="M62.8405 213.481C63.9997 213.481 64.9395 212.52 64.9395 211.335C64.9395 210.149 63.9997 209.188 62.8405 209.188C61.6812 209.188 60.7415 210.149 60.7415 211.335C60.7415 212.52 61.6812 213.481 62.8405 213.481Z" fill="#6C63FF"/>
<path d="M74.8912 189.634C76.0504 189.634 76.9902 188.673 76.9902 187.488C76.9902 186.302 76.0504 185.341 74.8912 185.341C73.732 185.341 72.7922 186.302 72.7922 187.488C72.7922 188.673 73.732 189.634 74.8912 189.634Z" fill="#6C63FF"/>
<defs>
<linearGradient id="paint0_linear" x1="174.712" y1="243.851" x2="174.712" y2="135.427" gradientUnits="userSpaceOnUse">
<stop stop-color="#808080" stop-opacity="0.25"/>
<stop offset="0.54" stop-color="#808080" stop-opacity="0.12"/>
<stop offset="1" stop-color="#808080" stop-opacity="0.1"/>
</linearGradient>
<linearGradient id="paint1_linear" x1="264.314" y1="257.904" x2="264.314" y2="118.976" gradientUnits="userSpaceOnUse">
<stop stop-color="#808080" stop-opacity="0.25"/>
<stop offset="0.54" stop-color="#808080" stop-opacity="0.12"/>
<stop offset="1" stop-color="#808080" stop-opacity="0.1"/>
</linearGradient>
</defs>
</svg>
